<?xml version="1.0" encoding="utf-8"?>
<!-- Generator: Adobe Illustrator 22.0.1, SVG Export Plug-In . SVG Version: 6.00 Build 0)  -->
<svg version="1.1" id="Trangle04_xA0_Image_1_" xmlns="http://www.w3.org/2000/svg" xmlns:xlink="http://www.w3.org/1999/xlink"
	 x="0px" y="0px" viewBox="0 0 262.3 279.1" style="enable-background:new 0 0 262.3 279.1;" xml:space="preserve">
<g>
	<path d="M58,255.8c0-0.1,0.1-0.4,0.2-0.6c1.3-3.8,2-7.8,2.5-11.8c0.5-3.7,1.4-7.3,2.5-10.9c1.3-4.4,2.5-8.9,3.7-13.3
		c1.6-6.3,3.6-12.5,5.4-18.7c1-3.2,1.6-6.5,2.5-9.7c0.8-3,1.5-5.9,2.4-8.9c1.6-4.9,2.5-10,3.6-15c1.3-5.9,2.6-11.9,3.9-17.8
		c1.4-6.6,3.4-13.1,5-19.6c1.2-4.8,2.5-9.6,3.4-14.4c1.3-7.2,3.5-14.1,4.8-21.3c0.9-4.9,2.5-9.7,3.6-14.6c1.1-4.6,1.6-9.2,2.5-13.8
		c0.9-4.6,1.4-9.2,2.1-13.8c0.3-2.3,0.4-4.6,0.5-6.8c0.1-2.1,0.6-4.1,0.8-6.1c0.1-0.8,0.7-1.4,1.3-2c0.4-0.3,0.9-0.4,1.2-0.2
		c1,0.6,2.2,0.9,2.7,2.1c0.4,0.9,1.3,1.4,2,1.9c2.2,1.7,3.8,4,5.5,6.1c3.6,4.7,6.9,9.6,10.8,14.1c1.2,1.3,2.3,2.7,3.6,4
		c1.3,1.3,2.5,2.8,3.9,4.1c4.1,3.9,8,8.1,12.2,11.9c2.7,2.5,4.8,5.4,7.4,7.9c1.9,1.9,3.8,3.9,5.6,5.9c4.5,5,8.9,10.1,13.7,14.9
		c2.3,2.2,4.6,4.5,6.6,6.9c3.8,4.5,8.2,8.6,12,13.1c2,2.4,4.2,4.7,6.5,6.8c2.1,1.9,4.1,4.1,6.3,6.1c4.9,4.5,9.4,9.4,14.2,13.9
		c2.8,2.6,5.6,5.2,8.6,7.6c2.8,2.2,5.8,4.4,8.2,7.1c0.8,0.9,1.6,1.7,2.5,2.4c1.1,0.8,1.1,1.5,0,2.3c-0.4,0.3-0.9,0.6-1.3,0.8
		c-4,1.9-8.1,3.7-12,5.9c-3.9,2.2-8.2,3.4-12.2,5.2c-7.1,3.2-14.4,5.8-21.5,8.9c-6.1,2.6-12.2,5.2-18.4,7.7c-3.6,1.4-7,3.2-10.4,4.8
		c-5.6,2.6-11.3,5.1-16.8,7.8c-4.2,2-8.3,4.2-12.5,6.3c-8.6,4.2-17.3,8.2-26,12c-8.1,3.6-16.1,7.2-24.3,10.4
		c-6.2,2.4-12.2,5.2-18.3,8c-2.7,1.2-5.3,2.6-7.8,4.1C59.1,258.2,58.1,257.6,58,255.8z"/>
</g>
</svg>
