<?xml version="1.0" encoding="utf-8"?>
<!-- Generator: Adobe Illustrator 22.0.1, SVG Export Plug-In . SVG Version: 6.00 Build 0)  -->
<svg version="1.1" id="Trangle02_xA0_Image_1_" xmlns="http://www.w3.org/2000/svg" xmlns:xlink="http://www.w3.org/1999/xlink"
	 x="0px" y="0px" viewBox="0 0 262.3 279.1" style="enable-background:new 0 0 262.3 279.1;" xml:space="preserve">
<g>
	<path d="M247.3,170.5c0,0.5-0.2,0.9-0.4,1.2c-3.2,5-6,10.2-9,15.2c-2.5,4.1-5.2,8.1-7.5,12.3c-1.5,2.7-2.9,5.5-4.5,8.2
		c-2.8,4.6-5.1,9.5-8,14c-2.8,4.2-5.3,8.5-9.1,11.9c-0.6,0.5-1.1,1.3-1.5,2c-1.1,1.9-2.8,3.4-3.8,5.3c-1,1.9-1.9,1.9-3.6,0.1
		c-1.2-1.3-2-3.1-3-4.6c-2.3-3.3-4.6-6.5-6.8-9.8c-3.8-5.6-8-10.8-11.4-16.7c-1-1.8-2.2-3.4-3.2-5.1c-1.6-2.6-2.8-5.5-4.3-8.1
		c-4.5-8.2-9-16.3-14.2-24.1c-1.7-2.5-3.1-5.2-4.8-7.7c-1.5-2.2-3-4.5-4.4-6.8c-1.1-1.9-2.8-3.4-3.9-5.3c-0.3-0.5-0.7-0.9-0.3-1.5
		c0.4-0.6,0.9-0.6,1.4-0.6c2.2,0.2,4.3-0.3,6.6-0.1c2.6,0.2,5.2,0.9,7.8,1.3c2.6,0.3,5.2,0.5,7.8,0.9c3.2,0.4,6.2,1.3,9.4,1.9
		c3.2,0.6,6.4,1,9.5,1.8c6.7,1.5,13.5,2.7,20.2,4.3c5,1.2,10,2.1,15,3.2c4.2,0.9,8.3,2,12.5,3.1c3.8,1,7.7,1.7,11.5,2.5
		c0.3,0.1,0.6,0,0.9,0C246.8,169.2,247.3,169.6,247.3,170.5z"/>
	<path d="M19.9,177.4c-0.6,0-1.1,0.1-1.3-0.4c-0.2-0.5,0.1-0.8,0.4-1.2c0.7-0.8,0.6-1.8,0.7-2.8c0.7-7.4,0.3-14.8,0.6-22.1
		c0.2-4.7,0.7-9.4,1.2-14.1c0.5-4.5,1.2-9,1.5-13.5c0.3-4.9,1.2-9.8,0.8-14.8c-0.1-1.4,0.7-1.9,2-1.3c2.7,1.3,5.6,2.1,8.4,3.1
		c4.8,1.7,9.9,2.5,14.6,4.6c4.6,2.1,9.3,3.8,14.1,5.4c2.2,0.7,4.5,1.3,6.7,1.8c2.1,0.5,4.2,1.2,6.3,1.8c4.5,1.3,8.9,3,13.4,4.1
		c4.6,1.2,9,2.9,13.5,4.4c3.4,1.1,6.9,1.8,10.3,2.9c3.2,1,6.5,1.8,9.6,3.2c0.6,0.3,1.3,0.3,2,0.4c2.6,0.5,4.9,1.6,7.4,2.3
		c1,0.2,1.3,0.9,1.1,1.8c-0.2,0.9-1,1.5-1.7,1.4c-1.6-0.1-3,0.5-4.3,1c-3.4,1.4-7,1.9-10.5,2.8c-4.4,1.2-8.9,2.3-13.3,3.3
		c-3.8,0.8-7.4,2-11.1,3.2c-4.1,1.3-8.2,2.7-12.3,4c-8.4,2.7-16.9,5.2-25.3,7.9c-6.4,2.1-13.1,3.5-19.3,6c-4.8,1.9-9.8,3-14.7,4.5
		C20.4,177.4,20.1,177.4,19.9,177.4z"/>
	<path d="M248.7,148.1c0,1.1-0.5,1.5-1.5,1.4c-3.3-0.2-6.4-1.4-9.6-1.8c-3.8-0.5-7.4-1.8-11.1-2c-3.8-0.2-7.6-0.8-11.4-1.1
		c-4.2-0.3-8.5-0.8-12.7-1.5c-1.9-0.3-3.8-0.6-5.7-0.7c-3-0.1-6-0.6-9-1.1c-3-0.4-6.1-0.9-9.1-1c-2-0.1-4,0.3-6.1,0
		c-3-0.4-6-0.3-9-0.3c-0.3,0-0.6-0.1-0.8,0c-0.6,0.2-1.1,0.2-1.5-0.3c-0.4-0.5,0-1,0.2-1.4c1.6-2.5,3.3-5,5.2-7.3
		c1.8-2.2,3.3-4.6,4.6-7.1c1.4-2.6,2.8-5.1,4.4-7.5c2.7-4,5.1-8.2,7.9-12.1c2.5-3.5,5.1-7,7.5-10.6c1.5-2.1,2.8-4.3,4.2-6.6
		c2.1-3.6,4.8-7,7.3-10.3c3.1-4.1,6.1-8.2,8.7-12.7c0.8-1.4,1.9-2.5,2.7-3.9c0.5-0.8,1.2-0.8,1.8,0c1.7,2,3,4.2,4,6.6
		c1.4,3.2,3.1,6.4,4.2,9.8c1.1,3.1,2.1,6.3,3,9.4c1.4,4.5,2.3,9.2,4,13.6c0.9,2.3,1.4,4.7,2.1,7.1c0.9,3.2,2,6.3,3.2,9.4
		c1.6,3.9,3.2,7.9,4.8,11.8c1.6,3.9,3.3,7.9,4.9,11.8c1,2.6,1.8,5.2,2.7,7.8C248.7,147.8,248.7,148,248.7,148.1z"/>
	<path d="M107.7,122.2c-0.9-0.2-2.1-0.4-3.3-0.8c-5.3-1.6-10.6-3-15.9-4.8c-5.7-1.9-11.4-4.1-17.1-6c-4.8-1.6-9.6-3.5-14.5-4.7
		c-3.8-0.9-7.5-2-11-3.6c-4-1.8-8.4-2.5-12.6-4c-1.8-0.7-3.7-0.9-5.6-1.2c-0.8-0.1-0.9-0.4-0.6-1.1c0.6-1.5,1.8-2.5,2.7-3.7
		c3-4.3,6.3-8.4,9.6-12.5c1.9-2.4,4.1-4.6,6.1-6.9c5-5.6,10-11.1,15.2-16.5c4-4.2,7.8-8.6,11.9-12.8c3.4-3.5,6.8-7,10.2-10.4
		c1.4-1.4,2.9-2.8,4.3-4.1c0.9-0.8,1.5-0.6,2,0.5c0.9,2.4,1.2,4.9,1.6,7.3c0.7,4.5,1.9,8.9,2.8,13.3c1.2,5.6,2.2,11.3,3.1,17
		c0.5,3.2,1.4,6.4,2.2,9.5c1.9,7.1,3.9,14.1,5.2,21.3c0.8,4.4,2.3,8.7,3.1,13.1c0.6,2.9,1.5,5.7,1.8,8.6c0,0.1,0.1,0.3,0.1,0.4
		C109.8,121.6,109.4,122.3,107.7,122.2z"/>
	<path d="M198.7,39.8c-0.4,2.1-1.1,4-1.7,5.8c-1,2.7-1.8,5.4-2.6,8.2c-0.6,2.4-1.5,4.7-2.5,7c-0.9,2.2-1.8,4.4-2.5,6.7
		c-1.3,3.9-3.2,7.5-4.5,11.4c-1.5,4.6-4.1,8.6-6.3,12.9c-1.8,3.7-3.9,7.2-5.5,11c-2.5,5.7-5.2,11.4-7.7,17.1
		c-1.8,4.2-3.8,8.4-6,12.5c-0.8,1.4-1.4,2.9-2.1,4.3c-1.3,2.5-2.6,5.1-3.9,7.6c-0.4,0.8-1,1.9-1.9,1.7c-1-0.2-2.1-0.5-2.4-1.9
		c-0.3-1.1-1.4-1.8-2.3-2.5c-1.5-1.3-2.9-2.8-4.2-4.2c-1.8-1.8-3.7-3.5-5.6-5.2c-1.2-1-2.3-2.1-3.4-3.2c-2.8-2.9-5.6-5.9-8.6-8.5
		c-3.2-2.8-5.7-6.2-8.8-9.1c-0.9-0.9-0.9-1.4,0-2.3c2.8-2.7,5.5-5.6,8.4-8.3c1.7-1.6,3.5-3,5.1-4.7c2.2-2.5,5.2-4.3,7.6-6.5
		c1.5-1.4,3-2.7,4.5-4.1c2.8-2.7,5.7-5.2,8.5-7.8c0.9-0.8,1.6-1.7,2.5-2.5c5.1-4.7,10.1-9.4,15.3-14c3.3-2.9,6.5-5.8,10-8.5
		c4.2-3.3,8.9-6.1,13.3-9.1c1.8-1.2,3.6-2.3,5.1-3.9c0.3-0.3,0.6-0.5,1-0.6C198.2,38.8,198.7,39.1,198.7,39.8z"/>
	<path d="M98.6,249.6c-0.2-5.6-0.4-11.4-0.6-17.1c-0.1-3.7-0.2-7.4-0.1-11.1c0.1-5,0.5-10,0.6-15c0-1.3,0.1-2.7,0.1-4
		c-0.2-6.8,0.5-13.6,0.5-20.5c0-6.8-0.6-13.5-0.5-20.3c0-0.8-0.3-1.6-0.2-2.4c0.1-1,0.6-1.4,1.5-1.1c3.3,1.1,6.8,1.4,10.3,1.8
		c1.6,0.2,3.2,0.6,4.8,0.9c2.2,0.5,4.3,0.5,6.5,0.6c1.9,0.1,3.7,0.6,5.5,0.8c4.5,0.5,9,1.4,13.5,2.2c2.3,0.4,4.6,1.1,7,1.7
		c0.9,0.2,1.3,0.9,1.1,1.8c-0.5,1.8-1.1,3.5-2,5.1c-1,1.8-1.8,3.7-2.7,5.5c-1.5,3-3.6,5.7-5.3,8.6c-2.5,4.3-5,8.7-7.7,12.9
		c-3,4.7-5.6,9.6-8.4,14.5c-1.3,2.2-2.4,4.6-3.6,6.9c-2.2,4.2-4.7,8.2-6.7,12.4c-1.6,3.3-3,6.7-4.7,9.9c-1.6,3.1-3.2,6.1-4.8,9.2
		c-0.5,1.1-1,2.2-1.5,3.2c-0.2,0.4-0.4,1-1.1,0.8c-0.6-0.2-1-0.5-1.1-1.2C98.7,254,98.5,251.9,98.6,249.6z"/>
	<path d="M87.7,176c0,3.8-0.8,7.5-1.3,11.3c-0.5,4.2-1.3,8.4-2.1,12.6c-0.4,2-1,3.9-1.3,5.9c-1.3,6.8-2.8,13.5-5,20
		c-1.1,3.3-2.4,6.4-4.1,9.4c-0.4,0.8-0.8,1.6-1,2.4c-0.5,1.4-1.3,1.7-2.3,0.6c-1.6-1.6-3.2-3.2-4.8-4.8c-5.1-4.9-9.8-10.2-13.7-16
		c-0.6-0.9-1.3-1.6-2-2.4c-3.6-3.7-6.9-7.5-10.1-11.5c-3.5-4.3-6.8-8.8-10.5-13c-0.9-1-0.8-1.7,0.4-2.4c1.8-1.1,3.8-1.5,5.7-1.9
		c3.7-0.9,7.3-2.1,11-3.3c3.8-1.3,7.8-2.2,11.7-3.2c4-1,8-2.1,12-3.3c2.2-0.7,4.4-0.9,6.6-1.4c2.9-0.7,5.8-1.8,8.6-2.9
		c1.3-0.5,2.2,0,2.3,1.4c0,0.1,0,0.2,0,0.2C87.7,174.5,87.7,175.3,87.7,176z"/>
	<path d="M130.2,28c1.9-0.1,3.5,0.3,5.1,0.2c5.5-0.3,11,0.2,16.4,0.5c3,0.2,6,1,8.9,1.7c1.6,0.4,2.2,2.9,1.1,4.2
		c-3.8,4.1-7.7,8.3-11,12.9c-3.3,4.5-6.3,9.3-9.5,13.9c-2.9,4.2-5.9,8.4-9,12.5c-2.2,2.8-3.9,6-5.9,9c-1.4,2.2-2.9,4.4-4.3,6.6
		c-0.9,1.5-2.2,2.6-3.3,4c-0.3,0.3-0.6,0.6-0.8,0.9c-0.3,0.8-0.9,1.1-1.7,1c-1-0.2-0.5-0.9-0.5-1.5c-0.1-3.8-0.3-7.5-1.4-11.2
		c-1.5-5.2-2.3-10.6-3.1-15.9c-0.5-3.6-1.5-7.2-2.2-10.7c-1.3-6.1-2.2-12.3-3.1-18.5c-0.2-1.5-0.3-3.1-0.6-4.6
		c-0.4-1.9,0.1-2.7,2.1-3.1c2-0.4,4-0.7,6-0.8c5.1-0.2,10.2-0.6,15.4-0.9C129.4,28,129.9,28,130.2,28z"/>
	<path d="M132.7,257.2c-0.1-1.7,0.7-3.1,1.1-4.7c1.2-5.5,2.6-11,3.7-16.5c1.3-6.2,2.8-12.3,5-18.3c1.4-3.9,2.6-7.8,3.9-11.6
		c0.7-2.2,1.1-4.5,1.6-6.7c0.5-2.2,1.2-4.4,1.5-6.6c0.4-2.3,0.7-4.6,0.7-7c0-0.6,0.1-1.2,0.8-1.2c0.7,0,1.2,0.2,1.3,0.9
		c0.7,4.4,1.6,8.8,3.1,13c1.3,3.6,2.1,7.4,3.6,11c0.5,1.2,0.7,2.5,1.1,3.8c1.3,4.4,2.5,8.9,3.9,13.3c1,3.2,1.5,6.6,2.6,9.8
		c1.8,5.1,2.9,10.4,4.9,15.4c0.3,0.8-0.4,1.9-1.4,2.1c-2.1,0.4-4.2,0.4-6.3,0.7c-4.8,0.8-9.6,1-14.5,1.6c-2.7,0.4-5.5,0.5-8.2,0.8
		c-2.3,0.3-4.5,0.9-6.8,1.4C133.4,258.5,132.7,258.1,132.7,257.2z"/>
</g>
</svg>
