<?xml version="1.0" encoding="utf-8"?>
<!-- Generator: Adobe Illustrator 22.0.1, SVG Export Plug-In . SVG Version: 6.00 Build 0)  -->
<svg version="1.1" id="Trangle01_xA0_Image_1_" xmlns="http://www.w3.org/2000/svg" xmlns:xlink="http://www.w3.org/1999/xlink"
	 x="0px" y="0px" viewBox="0 0 262.3 279.1" style="enable-background:new 0 0 262.3 279.1;" xml:space="preserve">
<g>
	<path d="M89.7,150.6c-0.2,4.6,0.1,8.4-0.1,12.2c-0.2,3.7-0.3,7.4-0.9,11.1c-0.3,2-0.4,4.1-0.5,6.2c-0.2,3-0.7,5.9-1.1,8.9
		c-0.7,5.2-2,10.2-2.7,15.4c-0.7,4.8-1.2,9.5-2.3,14.2c-0.8,3.9-2.1,7.7-3,11.6c-0.6,2.7-1,5.5-1.3,8.2c-0.2,1.7-1.5,2-2.5,2.5
		c-0.7,0.4-1.5-0.1-2.1-0.6c-2.9-2.5-5.9-4.9-8.8-7.5c-2-1.8-4-3.6-5.9-5.6c-2.6-2.9-5.2-5.7-8.3-8c-1.1-0.9-2.2-1.9-3.2-2.9
		c-3.2-3-6.3-6.1-9.3-9.3c-3.5-3.7-6.6-7.7-9.3-12c-1.8-2.8-3.7-5.6-5.8-8.2c-0.2-0.2-0.3-0.4-0.5-0.7c-1.2-2.1-1.2-2,0.6-3.6
		c2.1-1.8,4.1-3.8,6.1-5.8c3.3-3.2,6.7-6.4,10-9.6c3.4-3.2,7.1-6.2,10.4-9.5c2.7-2.7,5.6-4.9,8.4-7.4c2.4-2.1,4.7-4.4,7-6.5
		c4.8-4.5,9.6-9,15-12.9c2.1-1.5,4-3.4,6-5.1c0.5-0.4,0.9-0.9,1.5-0.7c0.7,0.2,0.5,0.9,0.6,1.4c0.4,1.9,0.3,3.8,0.4,5.7
		c0.2,4.7,0.7,9.4,1,14.2C89.4,148,89.8,149.7,89.7,150.6z"/>
	<path d="M9.5,127.8c0-1,0.4-2.1,0.8-3.2c1.3-3.3,2.1-6.8,2.8-10.3c0.5-2.6,1.6-5,2.5-7.4c1.3-3.6,2.9-7.1,4-10.9
		c1.3-4.4,3.2-8.5,5.2-12.6c2.3-4.7,4.6-9.5,6.8-14.3c1.4-3.2,3.2-6.2,5.3-9.1c1.5-2.1,2.6-4.5,3.9-6.8c1.4-2.5,3.1-4.8,5.3-6.8
		c0.8-0.8,2.1-0.6,2.8,0.3c3.3,3.8,6.1,7.9,9.1,11.9c1.9,2.5,4,4.8,6,7.3c2.6,3.1,5.5,6,7.9,9.3c1.2,1.7,2.7,3.2,4.1,4.8
		c2.4,2.6,4.6,5.4,6.9,8.1c1.9,2.2,3.8,4.4,5.7,6.6c2.9,3.4,5.5,7,8.3,10.5c2.2,2.9,4.7,5.6,7,8.4c0.2,0.2,0.4,0.4,0.6,0.6
		c0.9,1.3,0.6,1.9-0.9,2.4c-2.8,1-5.8,1.2-8.6,1.9c-4.7,1-9.4,1.7-14.1,2.4c-2.9,0.5-5.8,1-8.7,1.4c-2.1,0.3-4.2,0.4-6.3,0.6
		c-2.9,0.2-5.9,0.2-8.8,0.8c-4.8,0.8-9.6,1-14.3,1.9c-2.5,0.4-5,1-7.5,1.3c-2.3,0.3-4.6,0.5-6.9,0.8c-3.3,0.5-6.5,0.9-9.8,1.5
		c-2.7,0.5-5.4,0.5-8.1,0.2C9.4,129.3,9.5,128.6,9.5,127.8z"/>
	<path d="M150.1,101.6c-1.3,0-1.8-0.6-1.5-1.7c0.7-2.7,1.4-5.3,2-8c0.5-2.2,0.5-4.6,1-6.8c0.8-3.4,1.7-6.8,2.6-10.2
		c1.2-4.5,2.3-9,3.5-13.5c0.9-3.3,1.6-6.7,2.6-10c0.9-3,1.2-6.2,1.9-9.3c1.2-5.9,2.5-11.8,3.8-17.7c0.2-1,0.5-2,0.8-3
		c0.4-1.3,1.5-1.7,2.7-0.9c3,2.1,6,4,8.9,6.2c2.7,2,5.3,4.1,7.8,6.3c3.2,2.8,6.4,5.6,9.6,8.4c2.1,1.9,4.2,3.9,6.4,5.8
		c3.6,3.3,7.1,6.6,10.8,9.7c3.4,2.9,6.7,5.9,10.1,8.8c2,1.7,4,3.3,6.3,4.6c1.8,1,1.9,1.6,0.2,3c-1.3,1.1-2.8,1.6-4.3,2.2
		c-4,1.7-8.1,3.4-12.2,5c-3.5,1.3-7.1,2.4-10.6,3.6c-4.4,1.6-8.8,3-13.1,4.8c-3.4,1.4-7,2.3-10.4,3.4c-3.8,1.3-7.6,2.8-11.5,3.9
		c-4,1.2-7.9,3-12,3.9c-1.5,0.3-3,0.9-4.6,1.4C150.5,101.5,150.2,101.6,150.1,101.6z"/>
	<path d="M192.7,240.1c-5.2,0.3-10-1.5-14.7-3.5c-6.8-2.8-13.7-5.1-20.8-6.8c-4.8-1.1-9.5-2.7-14.2-4.1c-3.6-1.1-7.2-2.4-10.8-3.4
		c-0.7-0.2-1.3-0.4-1.9-0.8c-1.6-1-0.9-2.5-0.8-3.9c0.1-2.3,0.7-4.5,0.6-6.8c-0.1-2.5,0.7-5,0.8-7.5c0.1-1,0.1-1.9,0.1-2.9
		c0-2.8,0.3-5.5,0.7-8.2c0.1-0.7,0-1.4,0-2.1c0-2.5,0.2-5,0.3-7.5c0.2-7.4,0.1-14.8,0.2-22.2c0.1-3.2,0.5-6.3,0.7-9.5
		c0.1-0.8,0.5-1.1,1.3-1.3c0.7-0.2,1.2-0.1,1.7,0.5c3.9,5,8.1,9.8,11.9,15c2.6,3.6,5.2,7.1,7.7,10.8c3,4.5,6.2,8.9,9.3,13.3
		c1.9,2.7,3.5,5.7,5.1,8.6c0.8,1.5,2.1,2.7,2.9,4.2c2.2,3.9,4.8,7.5,7.1,11.3c2.9,4.7,5.5,9.6,8.5,14.3c1.8,2.7,3.2,5.6,4.8,8.4
		c0.4,0.7,0.9,1.3,1.4,1.9c0.3,0.5,0.8,0.9,0.4,1.6c-0.3,0.6-0.9,0.6-1.5,0.6C193.3,240.1,193,240.1,192.7,240.1z"/>
	<path d="M145.8,114.4c2.4,0,5.6-0.4,8.8-0.9c2.7-0.4,5.5-0.7,8.3-1c4-0.5,8-0.9,12-1.7c3.4-0.7,6.8-0.9,10.1-1.7
		c4.9-1.1,9.9-1.7,14.9-2.8c4.3-0.9,8.7-1.7,13-2.4c5-0.8,10-1.6,15-2c4-0.3,8-0.6,12-1c2.1-0.2,4.1-0.5,6.2-0.7
		c0.4,0,0.7-0.1,1.1,0c0.5,0.1,0.9,0.3,1,0.9c0.1,0.6-0.3,0.9-0.8,1.1c-3.8,1.8-7.7,3.6-11.5,5.3c-3.4,1.6-6.9,3.1-10.4,4.6
		c-4.5,2-9,4.1-13.2,6.7c-3.6,2.2-7.6,3.4-11.4,5.3c-2.6,1.3-5,3.2-7.7,4.4c-4.3,1.9-8.2,4.4-12.2,6.9c-1.4,0.9-3,1.6-4.4,2.3
		c-2.3,1.2-4.5,2.5-6.7,3.8c-3.4,2.1-7,3.8-10.4,5.9c-3.1,1.9-6,4-9.3,5.6c-2,1-2.3,0.9-3.3-1.1c-1.4-2.6-2.3-5.3-3.6-7.9
		c-1.6-3.1-3.2-6.2-4.7-9.4c-1.4-3-2.4-6.1-3.2-9.4c-0.6-2.4-1.7-4.5-2.4-6.9c-0.5-1.8,0.1-3,1.9-3.1
		C138.3,114.9,141.6,114.3,145.8,114.4z"/>
	<path d="M208.6,137.7c4.5-0.1,8.6-0.7,12.8-1.5c5.5-1,11.1-1.6,16.5-3.2c3.2-0.9,6.4-1.6,9.6-2.2c0.7-0.1,1.5-0.3,2.2-0.3
		c0.8-0.1,1.3,0.7,1.1,1.6c-1,5.1-2,10.1-3.3,15.2c-1.7,6.8-3.5,13.6-5,20.4c-1.2,5.2-2.7,10.2-4.1,15.3c-1.3,4.9-3.1,9.6-4.7,14.4
		c-0.2,0.7-0.7,0.8-1.3,0.6c-0.5-0.2-0.9-0.5-1.3-0.9c-2-2-3.6-4.3-5.5-6.5c-2.8-3.2-5.1-6.7-8.1-9.8c-1.6-1.7-2.9-3.7-4.4-5.5
		c-1.9-2.4-4.3-4.4-6-7c-2.3-3.4-4.9-6.5-7.4-9.8c-3-3.9-6.2-7.6-9.3-11.5c-1.4-1.8-3-3.5-3.9-5.6c-0.4-1-0.2-1.4,0.8-1.7
		c2.2-0.7,4.4-0.5,6.6-0.6c3.9-0.2,7.8-0.8,11.7-1.3C206.9,137.7,207.9,137.8,208.6,137.7z"/>
	<path d="M202,228.8c-0.8-0.1-1.3-0.4-1.7-1.1c-1.3-2.1-2.4-4.4-3.9-6.4c-1.7-2.2-3-4.6-4.8-6.7c-1.3-1.6-2.3-3.3-3.5-4.9
		c-3.4-4.4-6.6-8.9-10-13.2c-1.7-2.2-3.3-4.6-4.8-7.1c-1.3-2.3-3.3-4.3-4.7-6.6c-3-4.8-6.4-9.3-9.7-13.9c-0.8-1-1.2-2.3-1.8-3.5
		c-0.5-1-0.9-2-1.6-2.9c-0.4-0.5-0.5-1-0.1-1.4c0.4-0.5,1-0.4,1.5,0c2.1,1.9,4.3,3.6,6.8,5c3.1,1.7,6.2,3.3,9.2,5.1
		c2.8,1.6,5.4,3.3,8.2,4.9c3.3,2,6.7,3.9,10.1,5.8c7.7,4.3,15.4,8.6,22.8,13.3c3.6,2.3,7.6,3.9,11.3,6.2c0.3,0.2,0.6,0.3,0.8,0.5
		c1.3,0.8,1.3,1.2,0.6,2.5c-2.5,5-6.5,8.7-10.6,12.4c-1.3,1.2-2.4,2.4-3.6,3.6c-2.6,2.6-5.6,4.8-8.2,7.5
		C203.8,228.4,202.8,228.5,202,228.8z"/>
	<path d="M115.9,113.9c-1.4-0.1-2.1-1.1-2.9-1.9c-2.8-2.8-4.9-6.1-7.2-9.3c-1.5-2.1-3.2-3.9-5-5.8c-2.6-2.8-4.7-6-6.9-9.1
		c-2.8-3.8-5.3-7.8-8-11.6c-1.6-2.3-3.4-4.4-5.3-6.5c-1.8-2-3.4-4.1-5.1-6.1c-1-1.2-2.3-2.2-3.4-3.4C68,55.8,63.3,51.9,59,47.6
		c-0.4-0.4-0.8-1-1.4-1.3c-0.9-0.4-1.1-1.2-0.6-2c0.4-0.8,1.7-1.3,2.4-0.9c0.8,0.3,1.3,1,2,1.5c1.9,1.6,4,2.8,6,4.2
		c1.7,1.2,3.3,2.5,5.1,3.6c3.2,2.1,6.6,3.9,9.7,6.1c5.5,3.8,11.4,6.9,17,10.3c5.6,3.4,11.4,6.6,16.8,10.3c3.3,2.2,7,3.8,10.3,6
		c2.9,2,5.9,3.7,8.9,5.5c0.8,0.5,0.8,1.1,0.3,1.8c-1.3,2.1-2.7,4-4.4,5.8c-2.1,2.1-3.7,4.7-5.8,6.8c-2.1,2.1-4.3,4.1-6.4,6
		c-0.6,0.5-1,1.1-1.5,1.7C116.9,113.4,116.4,113.7,115.9,113.9z"/>
	<path d="M95.3,193.2c0.4-2.8,0.9-5.6,1.3-8.4c0.8-5.3,1.9-10.6,2.7-15.9c0.5-3.6,0.9-7.2,1.3-10.8c0.3-2.4,0.2-4.8,0.3-7.1
		c0.2-4.1,0.6-8.2,0.8-12.3c0.3-4.6,0.9-9.3,0-14c-0.1-0.7,0.2-1,0.6-1.5c0.5-0.5,1-0.2,1.4,0c4,1.8,7.8,4,11.5,6.4
		c1,0.6,2.1,1.1,3.1,1.5c5.4,2.4,10.4,5.4,15.6,8c1.7,0.8,2,2.9,0.1,3.7c-1.1,0.4-1.8,1.4-2.5,2.3c-3.7,5-6.9,10.3-10.5,15.4
		c-4.2,6-8.2,12.1-12.3,18c-3.7,5.4-7.6,10.6-11.5,15.8c-0.3,0.4-0.7,0.8-1.3,0.6c-0.6-0.2-0.5-0.8-0.5-1.2c0-0.2,0-0.5,0-0.7
		C95.4,193.2,95.4,193.2,95.3,193.2z"/>
	<path d="M151,23.5c0.3,2-0.7,3.7-0.8,5.6c-0.1,3.2-0.7,6.3-1.1,9.5c-0.3,2.6-0.6,5.1-1,7.7c-0.5,3-0.4,6.1-1.2,9.1
		c-0.7,2.7-0.3,5.6-0.9,8.3c-0.5,2.2-0.7,4.5-1,6.8c-0.4,3.1-1.1,6.3-1,9.5c0.1,1.2-0.6,2.2-0.8,3.3c-0.4,1.6-0.3,3.3-0.3,5
		c0,0.5,0,1-0.1,1.5c-0.1,0.5-0.3,0.9-0.9,1c-0.6,0.1-0.9-0.3-1.1-0.7c-0.3-0.6-0.5-1.3-0.6-1.9c-0.9-5.3-2.3-10.5-3.7-15.7
		c-1.5-5.4-2.8-10.8-4-16.3c-1.2-5.2-2.3-10.4-3.5-15.6c-1.2-5.7-2-11.5-2.9-17.3c-0.5-3.9-0.2-7.8-0.8-11.6c-0.2-1,1.8-2.3,2.8-1.8
		c3,1.5,6.2,2.6,9.2,4.3c2.5,1.4,5.2,2.4,7.9,3.4c1.4,0.5,2.7,1.2,3.9,2C150.6,20.3,151.4,21.7,151,23.5z"/>
	<path d="M17.5,169.3c0.3-0.6,0.1-1.1-0.1-1.7c-1-3.7-1.3-7.6-2.1-11.4c-1.1-4.7-2.4-9.3-3.4-14c-0.4-1.7-0.7-3.5-0.4-5.3
		c0.1-0.7,0.5-1.2,1.2-1.3c1.3-0.2,2.6-0.5,3.9-0.5c4-0.2,8.1-0.4,12.1-0.9c1.3-0.1,2.5-0.3,3.8-0.3c3.3,0.1,6.5-0.7,9.7-1.1
		c4.1-0.5,8.2-1.4,12.4-1.9c2.2-0.2,4.3-0.7,6.4-1.2c1.3-0.3,2.6-0.4,3.9-0.7c1.4-0.2,2.7-0.5,4-1.2c0.4-0.2,0.9-0.4,1.3,0.1
		c0.4,0.5,0.1,0.9-0.2,1.3c-1.3,1.7-2.9,3.2-4.5,4.6c-0.3,0.3-0.7,0.6-1,0.9c-4.8,5.2-10.6,9.2-16.3,13.4c-3.8,2.8-7.5,5.6-11,8.8
		c-1.5,1.3-3,2.5-4.4,4c-3.5,3.7-7.6,6.8-11.5,10c-0.6,0.5-1.1,1.2-2,0.8C18.6,171.4,17.5,169.9,17.5,169.3z"/>
	<path d="M88.5,211.2c-0.1-2.1,0.4-4.5,0.7-6.9c0.1-0.5-0.1-0.9-0.2-1.4c-0.2-0.5-0.4-1.1,0.1-1.6c0.5-0.5,1.1-0.3,1.7,0
		c1.9,1.1,3.7,2.3,5.6,3.2c4.9,2.5,9.9,4.8,14.8,7.3c3,1.5,5.9,3.3,8.5,5.5c1.5,1.3,3.1,2.4,4.7,3.5c0.9,0.6,0.9,1.2,0.2,1.8
		c-1.8,1.8-3.5,3.7-5.6,5.1c-2.7,1.7-5.2,3.7-7.7,5.8c-1.5,1.3-3.5,2.1-5.2,3.1c-4.6,2.6-9.2,5.1-13.8,7.6c-1.5,0.8-3,1.8-4.7,2.3
		c-1.3,0.3-1.7,0-1.6-1.3c0.1-1.7,0.2-3.5,0.3-5.2c0.3-4.4,0.5-8.7,1.1-13.1c0.2-1.8,0.4-3.6,0.5-5.3
		C87.8,218.3,88.6,214.9,88.5,211.2z"/>
	<path d="M209.7,179.1c-2.5-0.4-4.8-1.2-7.1-2.1c-4.3-1.7-8.4-3.8-12.5-5.8c-4.9-2.4-9.6-5.2-14.3-8c-4-2.4-8.2-4.6-12.5-6.5
		c-1.7-0.7-2.1-1.8-1-3.3c1.1-1.6,2.6-2.7,4.1-3.7c4-2.6,8.1-5.1,11.9-8c1.3-1,1.7-0.9,2.5,0.5c0.3,0.5,0.7,1,1.1,1.4
		c1.7,1.8,3.2,3.8,4.6,5.8c1.7,2.3,3.7,4.3,5.6,6.5c2.4,2.8,4.8,5.5,7.1,8.4c2.4,2.9,4.7,5.9,7.3,8.7c1.4,1.4,2.3,3.2,3.7,4.5
		c0.3,0.3,0.5,0.7,0.4,1.2C210.5,179.1,210.1,179.1,209.7,179.1z"/>
	<path d="M106.8,68.9c-0.8,0.1-1.1-0.5-1.5-1c-1.3-1.8-1.9-3.9-2.8-5.9c-1.1-2.4-2.3-4.7-3.5-7c-1.2-2.4-2.3-4.8-3.5-7.2
		c-1.8-3.5-3.8-6.9-5.7-10.4c-1.2-2.3-2.2-4.6-3.3-6.9c-0.4-0.9-0.2-1.8,0.6-2.3c0.7-0.5,1.4-0.1,2,0.4c2.3,1.9,4.8,3.5,7.3,5.2
		c4.5,3.1,9,6.2,13.1,9.8c3.8,3.4,8.1,6.3,12.2,9.3c1.4,1.1,3.1,1.8,4.5,3c0.9,0.8,1,1.4,0,2.1c-3.3,2.3-6.6,4.5-10.3,5.9
		c-1.5,0.6-2.8,1.4-4,2.3c-1.3,1-2.8,1.7-4.2,2.5C107.3,68.9,107.1,68.9,106.8,68.9z"/>
	<path d="M120.7,247.3c-2.6-0.1-5.2,0.1-7.8-0.2c-0.5-0.1-1.1,0.1-1.6,0.4c-0.8,0.4-1.4,0.2-1.8-0.6c-0.4-0.9,0.1-1.4,0.8-1.7
		c3-1.3,5.8-2.9,8.6-4.7c3.4-2.2,6.6-4.6,9.7-7.1c2-1.7,4.1-3.3,6.1-4.9c0.7-0.6,1.5-0.6,2.4-0.4c3.9,1,7.3,3.1,10.7,5.2
		c4.7,2.8,9.6,5.1,14.6,7.4c2.3,1.1,4.7,1.9,6.9,3.4c0.4,0.2,0.8,0.5,0.7,1c-0.1,0.5-0.5,0.6-0.9,0.6c-1.3,0.2-2.7,0.5-4,0.6
		c-4.5,0.3-8.9,0.4-13.4,0.2c-2.2-0.1-4.4-0.2-6.6-0.2c-4.6,0.2-9.2,0.2-13.7,0.5C127.9,247.1,124.3,247.2,120.7,247.3z"/>
	<path d="M127,173c-0.4,6.6-1.2,13.2-2.6,19.7c-0.9,4.4-2.2,8.9-2.5,13.5c-0.1,1.1-0.4,2.3-0.7,3.4c-0.6,1.8-2.4,2.1-3.7,0.7
		c-2.5-2.8-5.4-5-8.7-6.7c-1.7-0.9-3.2-1.9-4.7-3c-1.2-0.9-1.3-1.5-0.5-2.6c2.1-2.7,3.9-5.5,6.2-8c2.3-2.4,3.9-5.3,6-7.8
		c1.9-2.3,3.4-4.9,5.3-7.2c0.8-1,1-2.5,2.2-3.4c1.1-0.8,2.4-0.8,3.3,0.1C127.1,172,127,172.5,127,173z"/>
	<path d="M92,56c0,1-0.9,1.5-1.7,1.1c-3.6-2-7.3-3.7-10.7-5.9c-5.6-3.7-11.5-7.2-17.4-10.5c-0.4-0.2-0.9-0.4-1.3-0.6
		c-0.8-0.3-1.5-1-1.4-1.7c0.1-0.8,0.3-1.7,1.3-2.2c2.7-1.4,5.3-2.9,7.9-4.5c2.6-1.8,5.1-3.8,7.6-5.7c0.4-0.3,0.9-0.6,1.4-0.4
		c0.5,0.2,0.7,0.7,0.7,1.1c0.1,2.9,1.8,5.2,3.1,7.5c1.2,2.1,2.2,4.3,3.1,6.6c0.7,1.8,1.6,3.4,2.4,5c1.7,3.3,3.7,6.4,5,9.9
		C91.9,55.7,91.9,55.9,92,56z"/>
	<path d="M112.4,38.2c-0.5,0-0.9-0.1-1.2-0.4c-1.4-1-3-1.7-4.5-2.4c-1.9-0.8-3.4-2.3-5.2-3.2c-4.4-2.2-8.4-5-12.6-7.5
		c-0.8-0.5-1.6-1.1-2.3-1.7c-0.4-0.3-0.7-0.7-0.5-1.2c0.1-0.5,0.5-0.7,1-0.9c4.8-1,9.5-2.8,14.3-3.8c4.3-0.9,8.5-2.4,12.8-3.4
		c0.4-0.1,0.7-0.4,1.1-0.5c1-0.4,1.8,0.3,1.6,1.3c-0.7,3.5-1.3,7.1-1.6,10.7c-0.2,2.8-0.6,5.5-0.8,8.3c-0.1,1.2-0.3,2.4-0.5,3.7
		C113.7,38.1,113,38.2,112.4,38.2z"/>
	<path d="M194.8,103.3c-1,0.2-2.6,0.3-4.1,0.7c-2.2,0.5-4.5,0.6-6.7,0.8c-0.6,0-1.1,0-1.7,0.2c-0.6,0.2-1-0.1-1.4-0.5
		c-0.4-0.4-0.4-0.8-0.1-1.3c0.3-0.7,0.7-1.3,1.2-1.9c3.6-3.9,7.6-7.2,11.9-10.3c1.4-1,2.7-2.3,4-3.4c1-0.9,2.1-1.2,3.5-0.6
		c2.2,0.9,4.1,2.2,6.2,3.3c1.9,1,3.9,1.8,5.7,3.1c2,1.4,4.5,2,6.3,3.8c0.8,0.8,0.8,1.3-0.2,1.9c-1.9,1.1-4.1,1.1-6.2,1.7
		c-4.3,1.2-8.8,1.6-13.2,2.3C198.4,103.2,196.9,103.2,194.8,103.3z"/>
	<path d="M245.6,94.3c0,1.5-0.7,2-1.9,1.6c-6.1-1.8-11.9-4.6-18.2-6c-2.3-0.5-4.5-1.5-6.9-1.9c-1.9-0.3-3.8-0.4-5.6-0.8
		c-0.3-0.1-0.6-0.2-0.9-0.3c-0.7-0.3-1.4-0.6-1.3-1.5c0.1-0.8,0.8-0.9,1.4-1.1c3.2-0.6,6.4-1.5,9.6-2.5c4.5-1.5,9-2.8,13.4-4.7
		c0.5-0.2,1-0.4,1.6-0.5c1.7-0.2,1.8-0.2,2.2,1.4c1.3,5,3.5,9.6,5.9,14C245.1,92.9,245.3,93.7,245.6,94.3z"/>
	<path d="M208.7,137.1c-1.8,0-2.4-1-2-2.4c0.6-1.9,1.3-3.7,1.7-5.6c0.4-2.3,1.2-4.4,1.6-6.7c0.1-0.9,0.6-1.6,1.6-1.9
		c3.9-1.2,7.8-1.7,11.8-2.2c2.6-0.4,5.1-1,7.8-1.1c0.4,0,0.8-0.1,1.2,0c0.4,0.1,0.7,0.3,0.9,0.7c0.2,0.5-0.2,0.7-0.5,1
		c-1.6,1.4-3.5,2.5-5.2,3.8c-3.2,2.5-6.3,5.2-9.5,7.8c-2.4,2-4.8,3.9-7.3,5.8C210.1,136.7,209.2,137.1,208.7,137.1z"/>
	<path d="M245.3,125.6c-3.4,0-6.6,0.5-9.9,1c-1.7,0.3-3.4,0.4-5.1,0.6c-1,0.1-1.6-0.6-1.4-1.6c0.3-1.4,1.4-2.1,2.3-2.9
		c1.3-1.3,2.7-2.4,3.9-3.8c1.2-1.4,2.7-2.4,4.2-3.5c2.3-1.8,4.5-3.6,6.5-5.7c0.4-0.4,0.8-0.8,1.4-0.8c1.6-0.1,1.9,0.3,1.6,1.9
		c0,0.2-0.1,0.5-0.1,0.7c0.3,2.4,0,4.9,0.5,7.3c0.3,1.8,0.5,3.5,0.6,5.3c0.1,0.6-0.3,1.1-1,1.3C247.7,125.6,246.5,125.6,245.3,125.6
		z"/>
	<path d="M125.5,65.4c1.1-0.1,1.7,0.4,2.2,1.3c1.2,2.5,2.4,4.9,3.8,7.3c1.3,2.2,2.5,4.5,4.4,6.4c0.4,0.4,0.7,0.8,0.3,1.4
		c-0.4,0.6-0.9,0.7-1.6,0.4c-4-1.5-8.1-2.8-11.9-4.8c-2.7-1.4-5.4-2.5-8-4c-0.8-0.5-1.5-1-2.2-1.6c-0.8-0.7-0.8-1.5,0.2-1.9
		c3.9-1.6,7.6-3.6,11.7-4.4C124.7,65.5,125.1,65.5,125.5,65.4z"/>
	<path d="M129.3,117.2c0,4.4,0.5,7.7,0.6,10.9c0.1,2.4-0.7,2.8-2.8,1.6c-2.6-1.4-5.1-2.9-7.7-4.3c-1.3-0.7-2.7-1.1-4.1-1.7
		c-1-0.5-1.2-1.6-0.3-2.2c5-3.2,7.9-8.2,10.9-13.1c0.4-0.7,0.9-1.1,1.6-0.9c0.8,0.2,1.1,0.8,1.1,1.5
		C128.6,112.1,129.4,115.2,129.3,117.2z"/>
	<path d="M152.6,110.1c-0.5-0.1-1.2-0.1-1.4-0.8c-0.2-0.6,0.3-0.9,0.8-1.2c3.9-2.3,7.3-5.2,11.3-7.3c2-1.1,4.2-1.9,6.2-3
		c0.8-0.4,1.4,0,1.8,0.4c1.2,1.1,2.3,2.3,2.7,4c0.1,0.3,0.2,0.6,0.4,0.9c1.2,1.9,0.4,3.9-1.8,4.5c-3.5,0.9-7.1,1.1-10.7,1.6
		C158.8,109.6,155.7,110.1,152.6,110.1z"/>
	<path d="M139.5,113.3c-1-0.2-1.9-1-2.8-1.8c-2.1-2-4-4.2-6.2-6c-0.5-0.4-0.4-0.8-0.1-1.3c0.9-1.6,2.7-2,4-2.9c1.6-1,3.1-2,4.7-3
		c1.6-1,3.3-1.9,4.9-2.9c0.5-0.3,0.9-0.3,1.3,0c0.4,0.3,0.3,0.8,0.2,1.2c-0.3,2.2-1.3,4.3-1.8,6.4c-0.8,3.1-1.9,6.2-2.9,9.2
		C140.8,112.8,140.5,113.4,139.5,113.3z"/>
	<path d="M128.2,50c0,0.5-0.2,0.9-0.6,1.1c-0.4,0.2-0.8,0.1-1.1-0.2c-3.2-2.6-6.7-4.8-10.2-7c-1.2-0.8-1.3-1.4-0.5-2.6
		c1.6-2.6,3-5.2,4.1-8.1c0.3-0.9,0.8-1.7,1.2-2.5c0.2-0.4,0.6-0.7,1-0.7c0.5,0,0.8,0.4,0.9,0.8c1,3.8,2.9,7.4,3.7,11.3
		C127.3,44.8,127.8,47.4,128.2,50z"/>
	<path d="M206.7,127.6c-0.4,0.8-0.7,1.9-1.3,2.8c-1.1,1.8-1.8,3.7-2.3,5.7c-0.2,0.9-0.6,1.2-1.5,0.9c-0.7-0.3-1.4-0.5-2.1-0.7
		c-2.7-1-5.6-0.7-8.3-1.4c-0.4-0.1-0.9-0.1-1.1-0.6c-0.2-0.6,0.2-0.9,0.5-1.2c1.1-1,2.4-1.6,3.8-2c2.5-0.8,4.9-1.9,7.2-3.2
		c1.1-0.6,2.3-1.1,3.5-1.6C206,126,206.7,126.5,206.7,127.6z"/>
	<path d="M183.6,93.5c0.4,0,0.7,0,0.9,0.4c0.2,0.4,0.1,0.8-0.2,1.1c-0.8,0.9-1.7,1.7-2.4,2.6c-1.2,1.6-2.2,3.3-3.9,4.5
		c-0.6,0.5-1,0.6-1.6,0c-1.2-1.2-2-2.6-2.8-4.1c-0.4-0.8,0.2-1.4,0.9-1.6c3-1,6-2,9-2.9C183.4,93.5,183.5,93.5,183.6,93.5z"/>
</g>
</svg>
