<?xml version="1.0" encoding="utf-8"?>
<!-- Generator: Adobe Illustrator 22.0.1, SVG Export Plug-In . SVG Version: 6.00 Build 0)  -->
<svg version="1.1" id="Trangle03_xA0_Image_1_" xmlns="http://www.w3.org/2000/svg" xmlns:xlink="http://www.w3.org/1999/xlink"
	 x="0px" y="0px" viewBox="0 0 262.3 279.1" style="enable-background:new 0 0 262.3 279.1;" xml:space="preserve">
<g>
	<path d="M128.3,184c0.2-0.8,0.4-1.9,0.6-3.1c0.8-3.9,2.4-7.5,3.4-11.3c0.8-3.4,1.9-6.6,3-9.9c0.1-0.4,0.3-0.7,0.5-1.1
		c0.7-1.2,1.7-1.1,2.4,0.1c2.7,4.8,5.6,9.4,8.5,14.1c1.4,2.3,2.5,4.8,3.6,7.2c0.4,0.8-0.1,1.3-0.9,1.6c-2.7,1.1-5.5,2.1-8.3,2.9
		c-3.1,0.9-6.4,1.4-9.5,2.4C129.5,187.6,128.3,186.6,128.3,184z"/>
	<path d="M128.7,89.4c0,1.2-0.7,1.4-1.4,1.6c-1.3,0.2-2.7,0.4-4,0.5c-4.3,0.4-8.7,0.6-13,1c-1.9,0.2-3.8,0.4-5.7,0.6
		c-0.7,0.1-1.5,0-2.2-0.2c-1-0.3-0.7-1.1-0.3-1.6c0.9-1.3,1.6-2.7,2.5-4c1.7-2.5,3.4-4.9,5.1-7.3c1.7-2.4,3.5-4.8,5.2-7.3
		c0.5-0.7,1.2-1,1.9-1.4c0.7-0.3,1.3,0,1.6,0.6c1.8,3.6,4.2,6.8,6.1,10.2c0.9,1.6,2,3,3,4.6C128.1,87.6,128.5,88.6,128.7,89.4z"/>
	<path d="M191.4,207.9c-1,0-1.5-0.7-1.3-1.9c0.4-1.6,1.1-3.1,1.8-4.6c1.8-4,3.5-7.9,5.3-11.9c0.7-1.5,1-1.6,2.5-0.8
		c3.7,2,7.6,3.5,11.5,5.2c2.2,0.9,4.2,2,6.3,3.1c0.6,0.3,1.3,0.6,1.9,0.9c1.4,0.7,1.5,1.6,0.3,2.5c-2.4,1.8-5.3,2.5-8.2,3
		c-0.4,0.1-0.9,0.1-1.3,0.2c-5,1.1-10.1,2-14.9,3.7C194.1,207.7,192.7,207.6,191.4,207.9z"/>
	<path d="M164.8,191.9c3.2,0.2,6.3,0.6,9.5,0.5c2.6-0.1,5.2-0.6,7.8-0.5c1.8,0,3.6,0.4,5.3,0.5c1.1,0.1,1.4,0.8,1,1.9
		c-0.9,2.4-1.9,4.9-3,7.3c-1.5,3.5-2.7,7.2-3.9,10.9c-0.2,0.7-0.4,1.4-1.2,1.5c-0.8,0.1-1.2-0.6-1.7-1.1c-3.3-3.8-6.1-7.9-9.1-12
		c-1.5-2-3.2-3.8-4.9-5.7c-0.5-0.6-1.1-1-1.8-1.3c-0.5-0.2-1-0.5-0.9-1.2c0.2-0.7,0.7-0.8,1.3-0.8
		C163.9,191.9,164.3,191.9,164.8,191.9z"/>
	<path d="M200.5,103.4c0,0-0.1,0-0.2,0c-2.8,0-3.1-0.3-2.1-3c0.9-2.6,2.1-5,3.3-7.5c2-3.9,4.7-7.5,6.5-11.5c0.3-0.7,0.8-1.1,1.6-1.1
		c0.8,0,1.2,0.6,1.3,1.2c0.4,1.7,1.3,3.2,2.2,4.6c2.6,4.4,5.2,8.7,7.8,13.1c0.3,0.6,0.6,1.1,0.3,1.8c-0.3,0.6-0.9,0.6-1.5,0.6
		c-2.1-0.1-4,0.6-6,0.8c-1.5,0.1-3,0.4-4.5,0.4c-2.6,0-5.2,0.6-7.8,0.6C201.1,103.4,200.8,103.4,200.5,103.4z"/>
	<path d="M210,181c0-0.1,0.1-0.4,0.2-0.6c2-5.7,3.7-11.6,6.8-16.9c0.4-0.7,0.6-1.4,1-2.1c0.6-1.1,1.9-1.2,2.7-0.2
		c3.8,4.8,8.2,9.2,13,13c0.7,0.6,1.4,1.3,1.9,2.1c0.7,1.1,0.4,1.9-0.8,2.1c-2.6,0.5-5.2,1.2-7.8,1.5c-3.6,0.4-7.1,1-10.6,1.6
		c-1.7,0.2-3.3,0.6-4.8,1.2C210.7,183.1,209.9,182.2,210,181z"/>
	<path d="M252.8,141.6c0.2,1.8-0.2,3.6-0.2,5.4c0,1.7,0.1,3.3,0.4,5c0.4,1.7-0.4,2.3-2.1,2.2c-2.9-0.3-5.8-0.5-8.7-0.6
		c-3.5-0.2-7-0.6-10.5-1.1c-2-0.3-3.9-0.5-5.9-0.6c-0.7,0-1.5,0-1.8-0.9c-0.3-0.9,0.5-1.4,1-1.8c1.7-1.4,3.7-1.9,5.6-2.8
		c3.8-1.8,7.7-3.4,11.4-5.5c2.8-1.6,5.8-2.9,8.6-4.4c0.7-0.4,1.7,0.1,1.9,0.9C253,138.6,252.7,140.1,252.8,141.6z"/>
	<path d="M166.5,69.6c0.3-2.6,0.7-5.1,0.5-7.7c-0.2-1.9,0-3.9,0-5.8c0-2.3,0.7-4.5,0.6-6.8c-0.1-1.1,1.2-1.5,2.3-0.9
		c2.5,1.5,4.8,3.3,7.1,5.1c2.2,1.7,4.7,3.2,7,4.8c1.5,1,2.9,2.1,4.3,3.2c1.3,1.1,1.1,1.9-0.4,2.5c-2.4,0.9-4.8,1.8-7.2,2.6
		c-2.2,0.8-4.2,1.9-6.3,2.8c-1.8,0.8-3.6,1.7-5.5,2.2c-1.8,0.5-2.2,0.3-2.2-1.6C166.5,69.9,166.5,69.7,166.5,69.6z"/>
	<path d="M178.2,221.8c0.2-0.7,0.5-1.3,1.4-1.2c4.4,0.5,8.8,0.7,13.2,1.3c1.6,0.2,3.2,0.4,4.7,0.8c1.8,0.4,2.1,1.3,1.1,2.9
		c-2.2,3.5-4.1,7.1-6.4,10.5c-1.9,2.7-3.1,5.9-5,8.5c-0.5,0.7-1,1.2-1.8,1.1c-0.8-0.1-0.9-0.9-1.1-1.5c-2.5-6.6-3.9-13.5-5.7-20.3
		C178.4,223.2,178.6,222.5,178.2,221.8z"/>
	<path d="M115.2,210.5c-0.1,0.5-0.3,0.9-0.8,1.1c-0.4,0.2-0.7,0.1-1.1-0.1c-3-2.2-6.1-4.4-9.1-6.6c-2.8-2.1-5.4-4.3-7.9-6.7
		c-1.1-1.1-2.3-2-3.5-3c-0.1-0.1-0.2-0.1-0.3-0.2c-1.2-1.2-1.1-1.8,0.3-2.8c2.3-1.7,5-2.9,7.2-4.7c1.3-1.1,2.7-2.1,3.8-3.4
		c0.9-1.1,1.9-0.9,2.6,0.4c1.6,3.1,2.6,6.4,3.7,9.7c1.7,5.1,2.8,10.5,4.8,15.5C115.1,209.8,115.1,210.2,115.2,210.5z"/>
	<path d="M148.8,61.2c1,0,1.5,0.7,1.1,1.6c-0.7,1.8-1.9,3.2-3.1,4.7c-2.4,3.2-4.8,6.4-6.6,9.9c-0.8,1.4-1.6,2.8-2.7,4.1
		c-0.7,0.9-1.4,0.6-2,0c-1.2-1.1-2.4-2.3-3.5-3.5c-2.9-3.1-5.5-6.5-8.7-9.4c-1.7-1.5-2.4-2.5,0.8-3.4c4-1.1,8-1.6,12.1-2.2
		c3.1-0.5,6.3-0.5,9.3-1.3C146.6,61.4,147.9,61.9,148.8,61.2z"/>
	<path d="M183.7,104.8c2.4,0.6,4.9,0.5,7.3,1c1.6,0.3,3.3,0.5,5,0.6c3.8,0.4,7.6,0.8,11.4,1.2c1,0.1,1.3,0.6,1.1,1.6
		c-0.7,3-1.4,6-2.1,9.1c-0.6,2.8-1.5,5.4-1.6,8.3c0,0.9-0.6,1.1-1.4,0.6c-0.8-0.6-1.6-1.2-2.3-1.9c-2.1-2.1-4.2-4.1-6.3-6.3
		c-2.6-2.7-5.6-5-7.9-8c-0.6-0.8-1.5-1.3-2.3-1.9c-0.8-0.6-1.5-1.3-2-2.1c-0.3-0.5-0.8-0.9-0.4-1.5
		C182.6,104.9,183.2,104.8,183.7,104.8z"/>
	<path d="M79.5,154.4c0,0.9-0.8,1.5-1.5,1.1c-4-2.3-8.2-4.5-12.1-7c-3.3-2.1-6.4-4.4-9.7-6.6c-1.7-1.1-1.8-1.7-0.5-3.3
		c2.6-3.3,4.2-7.1,5.9-10.9c0.2-0.4,0.2-0.9,0.3-1.3c0.2-0.5,0.5-1,1.2-1c0.7,0,1.4,0.3,1.6,0.9c0.6,2,2,3.5,2.8,5.4
		c2.9,6.7,7.1,12.7,10.2,19.3c0.4,0.9,1,1.7,1.4,2.6C79.3,153.9,79.4,154.2,79.5,154.4z"/>
	<path d="M119.7,219.9c-6.9,0-13.9-0.1-20.8,0c-2.4,0-3.7-1.1-4.7-3c-1.8-3.4-3.7-6.7-5.5-10.1c-0.5-0.9-0.7-2-1-3.1
		c-0.2-1.2,1.3-2,2.6-1.4c1.7,0.8,3.5,1.5,5,2.5c2.9,1.9,6.1,3.1,9.2,4.5c3.6,1.7,7.4,2.8,10.8,4.8c1.9,1.1,4,1.9,5.8,3.3
		c0.4,0.4,1.1,0.5,0.9,1.2c-0.1,0.7-0.6,1.1-1.3,1.2c-0.3,0.1-0.7,0.1-1,0.2C119.8,220.1,119.7,220,119.7,219.9z"/>
	<path d="M108.1,73.5c0,1.3,0,2.6,0,3.8c0,1-0.5,1.3-1.4,1.2c-3.6-0.4-7.1-0.3-10.7-0.5c-2.2-0.1-4.3-0.6-6.5-0.7
		c-1.1-0.1-1.4-1.2-0.7-2.2c1.5-2.1,3.1-4.1,4.6-6.2c2.4-3.4,4.8-7,7.3-10.4c1.2-1.6,2.1-3.3,3.5-4.7c1-1,1.8-0.8,2.2,0.6
		c0.4,1.5,0.7,3,0.8,4.6C107.6,63.8,108.1,68.6,108.1,73.5z"/>
	<path d="M77.1,215.3c-0.3,0.9-0.6,1.9-1,2.8c-2.4,5.3-4.4,10.7-7.6,15.7c-0.5,0.8-0.9,1.8-1.4,2.6c-0.8,1.4-1.3,1.6-2.6,0.7
		c-4.2-3-8.4-6.1-12.5-9.1c-0.8-0.6-0.5-1.2,0.1-1.7c0.6-0.5,1.4-0.9,2.1-1.3c5.7-3.1,11.4-6.2,17.2-9c1.2-0.6,2.4-1.3,3.6-1.9
		c0.4-0.2,0.9-0.6,1.3-0.2C76.8,214.1,77.1,214.6,77.1,215.3z"/>
	<path d="M157,111c2.8,0.3,5.6,0.1,8.3,0c1.5,0,1.8,0.2,1.8,1.8c0,1.5-0.5,2.9-0.6,4.4c-0.1,3.1-0.7,6.1-0.9,9.2
		c-0.2,3.3-0.8,6.5-1.2,9.8c-0.1,0.4-0.1,0.8-0.1,1.2c0,0.8-0.4,1.6-1.3,1.8c-1,0.2-1.3-0.5-1.6-1.2c-1-2.1-2.1-4.2-3-6.4
		c-1.4-3.4-3-6.8-4.5-10.2c-1-2.4-2.1-4.7-3.2-7.1c-0.9-1.9-0.3-2.9,1.9-3.1C154.1,111.2,155.5,111,157,111z"/>
	<path d="M63.8,189.5c1.3,0.2,2.6,0.9,3.9,1.5c3.3,1.5,6.6,3,10.1,3.9c3.3,0.8,6.3,2.2,9.6,2.9c0.4,0.1,0.8,0.3,1.2,0.5
		c0.9,0.4,1.2,1,0.9,2c-0.2,0.9-0.7,1.4-1.6,1.4c-0.6,0-1.1,0.2-1.5,0.6c-4.1,3.2-8.4,6.1-13.2,8.4c-1,0.5-1.6,0.4-2.2-0.7
		c-1.3-2.2-1.7-4.6-2.7-6.9c-1.6-3.7-3.3-7.3-5.1-10.9c-0.2-0.4-0.4-0.8-0.6-1.2C62.4,190.3,62.9,189.6,63.8,189.5z"/>
	<path d="M174.8,243.7c0,0.6-0.1,1-0.6,1.1c-0.5,0.1-0.9,0-1.2-0.6c-2-4.2-4.5-8.2-6.7-12.3c-1.5-2.9-2.6-6-4.1-8.9
		c-1.4-2.7-2.5-5.5-4-8.1c-0.3-0.5-0.6-1-0.1-1.7c0.5-0.7,1-0.6,1.7-0.5c1.2,0.3,2.5,0,3.7-0.1c1.8-0.1,3.7,0,5.5-0.1
		c1.1,0,2.1-0.1,3.2,0c1,0.1,1.4,0.7,1.3,1.6c-0.4,2.5-0.3,4.9-0.1,7.4c0.1,0.7-0.1,1.3-0.1,2c0.1,5.6,0.2,11.2,1.4,16.6
		C174.8,241.4,174.4,242.7,174.8,243.7z"/>
	<path d="M104.4,224.3c2.9-0.1,5.6,0.8,8.4,1.1c1.9,0.2,3.9,0.5,5.8,0.8c1.1,0.1,1.3,0.7,0.9,1.7c-1,2.6-1.9,5.2-2.9,7.8
		c-1.3,3.2-1.7,6.5-2.5,9.8c-0.3,1.2-0.5,2.4-0.8,3.6c-0.1,0.5-0.5,0.9-1.1,1c-0.6,0.1-0.9-0.3-1.2-0.7c-0.6-0.8-1-1.6-1.4-2.5
		c-2.1-4.7-4.2-9.4-6.5-14.1c-1.1-2.2-1.7-4.5-2.8-6.7c-0.4-0.9,0.2-1.7,1.3-1.8C102.6,224.3,103.5,224.3,104.4,224.3z"/>
	<path d="M91,125.3c-0.6,1.9-1,3.8-1.3,5.8c-0.6,3.7-1,7.3-1.6,11c-0.3,2.2-0.9,4.3-1.5,6.4c-0.2,0.8-1.5,0.8-2.1,0
		c-1.1-1.3-2.1-2.7-3.1-4.1c-3.1-4.3-6.2-8.6-9.3-12.9c-0.9-1.2-0.8-1.9,0.4-2.2c5.5-1.6,10.8-3.8,16.1-6
		C89.8,122.8,91.1,123.9,91,125.3z"/>
	<path d="M231.3,158.3c3.6,0.5,7.4,0.1,11.2,0.3c1.8,0.1,3.6,0.4,5.4,0.8c1,0.2,1.9,0,2.8,0.1c0.8,0.1,1.1,0.4,1,1.1
		c0,0.3,0.1,0.7-0.1,0.9c-1.1,2.3-1.5,4.8-2.5,7.2c-1.1,2.6-1.8,5.4-3.1,8c-0.4,0.8-0.6,2-1.7,2.1c-1,0.1-1.3-1.1-1.7-1.8
		c-1.3-2.4-3.4-4.1-5-6.2c-3-3.6-6.5-6.8-9.2-10.6c-0.9-1.2-0.7-1.6,0.7-1.9C229.8,158.3,230.4,158.4,231.3,158.3z"/>
	<path d="M193.9,149.2c0-1,0.6-1.3,1.7-1.2c3.4,0.4,6.7,1.5,9.9,2.5c3.8,1.2,7.7,1.9,11.4,2.9c0.3,0.1,0.6,0.1,0.9,0.3
		c1,0.4,1.3,1.3,0.4,1.9c-3.2,2.1-5.6,5.2-9.2,6.7c-1.8,0.8-3.1,2.2-4.6,3.4c-0.8,0.6-1.6,1-2.4,1.5c-0.8,0.5-2.1,0.1-2.5-1
		c-1.5-3.8-3.7-7.2-4.4-11.3C194.7,153.1,194,151.3,193.9,149.2z"/>
	<path d="M155.6,162.4c1.4,0.1,3.1,0,4.9,0.2c1.8,0.2,3.6-0.1,5.3-0.2c2.2-0.1,2.9,0.6,1.9,2.7c-2.5,5.1-3.8,10.5-5.7,15.8
		c-0.3,1-0.7,2-1.2,2.9c-0.5,1-1.6,1.1-2,0.1c-2.2-4.8-6.1-8.6-8.6-13.2c-1.1-2-1.9-4.2-3.4-6c-0.7-0.8-0.3-1.5,0.8-1.8
		c1.4-0.4,2.9-0.4,4.4-0.5C153.1,162.3,154.2,162.4,155.6,162.4z"/>
	<path d="M163.6,189.7c-1.1,0-2.2-1.3-2.1-2.3c0.1-0.5,0.2-1.1,0.4-1.6c1.9-3.5,3.4-7.1,4.9-10.7c0.2-0.6,0.6-1.1,0.9-1.7
		c0.5-0.7,1.4-0.7,2.3,0.1c1.2,1,2.4,1.9,3.7,2.8c1.6,1.2,3.3,2.1,5,2.9c2.5,1.2,4.8,2.7,7.2,4.1c1.5,0.9,3.1,1.7,4.8,2.1
		c0.5,0.1,1.1,0.2,1.5,0.7c0.3,0.3,0.7,0.5,0.5,1c-0.2,0.4-0.6,0.5-1,0.5c-1.8-0.1-3.6,0.2-5.4,0.3c-4.1,0.1-8.1,0.5-12.1,0.8
		c-2.6,0.2-5.2,0.7-7.8,0.6C165.4,189.2,164.4,189.3,163.6,189.7z"/>
	<path d="M141.2,217.1c-0.4,1.7-1,3.4-1.9,4.9c-0.9,1.5-1.2,3.2-1.9,4.8c-1.3,2.7-2.2,5.5-3.2,8.4c-0.3,0.9-0.8,2-2,1.8
		c-0.9-0.1-1.5-1.3-1.7-2.4c-0.3-2.6-1.3-5.1-2.2-7.6c-1.6-4.3-3-8.6-3.9-13.1c-0.3-1.3-0.8-2.6-1.2-3.9c-0.2-0.6-0.5-1.2,0-1.7
		c0.5-0.4,1.1,0,1.6,0.2c2.3,1.2,4.5,2.4,6.8,3.6c2.9,1.5,5.9,2.8,8.9,4C141,216.2,141.3,216.5,141.2,217.1z"/>
	<path d="M171.2,126.3c0.5-1.8,0.5-3.7,0.7-5.6c0.1-1.8,0.2-3.7,0.4-5.6c0.2-2.5,0.2-5,0.3-7.5c0-0.8-0.1-1.6,0.8-2
		c0.8-0.3,1.6,0.2,2.2,0.7c1.2,1.1,2.3,2.3,3.6,3.3c3,2.4,5.9,4.9,8.8,7.3c1.2,1,2.5,1.9,3.2,3.3c0.6,1.2,0.4,1.8-0.9,2.1
		c-4.5,1.2-8.8,2.9-13.2,4.6c-1.1,0.4-2.2,1-3.3,1.5c-1.7,0.7-2,0.5-2.4-1.2C171.3,127,171.2,126.7,171.2,126.3z"/>
	<path d="M115.7,153.4c0.6-5.2,0.3-10.3,0.4-15.5c0-0.3,0-0.6,0-1c0.1-2.3,0.8-2.7,2.9-1.6c6,3.1,11.9,6.4,18.1,9.1
		c0.7,0.3,1.6,0.1,2,1.1c0.4,0.9,0.2,1.6-0.8,1.7c-2.4,0.4-4.6,1.5-6.9,2.3c-4.6,1.6-9,3.8-13.7,5.2
		C116.6,155,115.6,154.4,115.7,153.4z"/>
	<path d="M36.6,158.9c0,0.7-0.4,1-1,1.2c-0.6,0.2-1.3,0.1-1.8-0.3c-3.2-2.2-7-3.1-10.5-4.5c-2.4-0.9-4.7-1.9-7.1-2.8
		c-1.7-0.6-3.5-1.2-5.2-1.7c-0.6-0.2-1.2-0.4-1.3-1.1c-0.1-0.7,0.4-1.2,1-1.5c1.6-0.9,3.3-1.5,5-1.9c3.8-1,7.5-2.3,11.2-3.7
		c0.9-0.3,1.8-0.5,2.8-0.8c1.4-0.3,2.3,0.2,2.8,1.6c1.2,3.3,1.7,6.8,2.7,10.1c0.4,1.5,0.9,3,1.3,4.5
		C36.5,158.3,36.5,158.6,36.6,158.9z"/>
	<path d="M106.6,96.9c3.6,0.5,7.2,0.6,10.7,1.6c1.4,0.4,2.9,0.6,4.3,0.8c1.9,0.3,3.7,0.8,5.4,1.8c0.8,0.5,0.9,1.2,0.3,2
		c-3.4,3.9-6.8,7.8-10.3,11.6c-0.5,0.5-1.1,1-1.6,1.4c-0.7,0.6-1.7,0.4-2.3-0.3c-1.2-1.5-1.9-3.2-2.5-5c-1.2-3.3-3.4-6-5-9.1
		c-0.6-1-1-2.1-1.1-3.4c0-1.1,0.3-1.7,1.5-1.5C106.2,96.9,106.4,96.9,106.6,96.9z"/>
	<path d="M162.2,158.5c-2-0.2-3.9-0.7-5.9-1c-4-0.7-7.9-1.4-11.9-1.3c-2,0-2.4-0.6-1.7-2.5c1-2.6,2.5-5,3.9-7.4
		c1.2-2.2,2.1-4.6,3.1-7c0.4-0.8,0.7-1.6,1-2.4c0.2-0.6,0.5-1.3,1.2-1.3c0.7,0,1.2,0.5,1.6,1.1c1.7,3.3,3.9,6.4,5.2,10
		c1.1,3.1,2.4,6.2,4,9.1c0.3,0.5,0.4,1.1,0.5,1.7C163.3,158.2,162.9,158.5,162.2,158.5z"/>
	<path d="M68.2,157c-0.4,1.5-0.8,3.3-1.5,5c-1.6,3.8-2.2,7.8-3.1,11.8c-0.8,3.3-1.9,6.5-3.6,9.5c-0.3,0.5-0.6,1-1.1,0.9
		c-0.8-0.1-1.2-0.8-1.5-1.4c-0.6-1.4-1-2.8-1.5-4.3c-1.5-4.5-2.3-9.3-4.6-13.5c-0.4-0.8-0.1-1.3,0.6-1.7c4.4-2.5,8.9-4.7,13-7.5
		c0.2-0.2,0.5-0.3,0.7-0.5c0.5-0.4,1.1-0.7,1.7-0.4C67.9,155.3,68.3,156,68.2,157z"/>
	<path d="M37.1,142.7c2.6,0.3,4.9,1,7.2,1.9c5.1,2.1,10.5,3.2,15.8,4.6c0.7,0.2,1.5,0.2,1.6,1.2c0.1,0.8-0.6,1.3-1.2,1.6
		c-1,0.4-1.6,1.3-2.4,2c-2.8,2.5-5.9,4.8-8.8,7.3c-0.6,0.5-1,1.2-1.5,1.7c-0.7,0.6-1.8,0.4-1.9-0.4c-0.3-1.5-1.2-2.6-1.9-3.8
		c-2.3-4.4-4.9-8.6-6.8-13.1c-0.2-0.4-0.4-0.6-0.7-0.8c-0.6-0.4-0.6-1-0.4-1.5C36.2,142.7,36.7,142.6,37.1,142.7z"/>
	<path d="M84.1,108.8c-0.8,0.4-1.4,0.1-1.8-0.7c-0.4-0.8,0.2-1.3,0.7-1.7c3.1-2.8,5.7-6,8.1-9.5c0.6-0.9,1.4-1.7,2.1-2.4
		c0.5-0.5,1.1-0.7,1.7-0.6c0.6,0.2,0.7,0.8,0.8,1.3c0.6,2,1.7,3.8,2.3,5.7c1.1,3.5,2.9,6.8,4.2,10.2c0.7,1.8,1.9,3.5,2.9,5.2
		c0,0.1,0.1,0.1,0.1,0.2c0.2,0.6,1,1.3,0.4,2c-0.6,0.7-1.3,0.1-1.9-0.2c-4-1.6-7.8-3.5-11.4-5.9c-2.3-1.5-4.9-2.4-7.5-3.5
		C84.8,108.9,84.4,108.8,84.1,108.8z"/>
	<path d="M66.9,37.1c0.8,0.4,2,0.4,2.3,1.7c0.5,2,1.5,3.9,2.2,5.8c1.2,3.3,2.5,6.6,3.8,9.9c0.4,1.1,1,2.3,1.5,3.4
		c0.2,0.4,0.5,0.7,0.1,1.2c-0.4,0.4-0.9,0.4-1.3,0.1c-1.7-1-3.4-2-5.1-3c-3.9-2.3-7.4-5.2-11.6-7.1c-2.2-1-4.2-2.2-6.2-3.5
		c-0.5-0.4-1-0.7-1-1.4c0.1-0.7,0.7-0.9,1.2-1.2c1.8-0.7,3.6-1.5,5.4-2.1c1.5-0.5,2.7-1.6,4.2-2.3C63.9,37.9,65.3,37.4,66.9,37.1z"
		/>
	<path d="M152.5,70.2c0-0.6-0.2-1.2,0.4-1.5c0.6-0.3,1.2-0.1,1.8,0.3c4.2,2.5,8.3,5,12.3,7.8c0.8,0.6,1.8,1,2.7,1.6
		c1,0.7,1.1,1.8,0.2,2.5c-2.6,1.9-4.1,4.7-6.1,7.2c-1.7,2.1-3.4,4.2-5.2,6.2c-0.8,0.8-1.3,0.6-2-0.1c-0.7-0.7-1-1.6-1.1-2.6
		c-0.5-5.2-1-10.4-2.1-15.5C152.9,74.2,152.8,72.2,152.5,70.2z"/>
	<path d="M134.1,126.2c4.1,0,8.1,0,12.1-0.7c1-0.2,2.1-0.1,3.1-0.2c0.9-0.1,1.8,0.8,1.4,1.6c-1.1,2.3-0.6,4.9-1.4,7.2
		c-0.8,2.5-1.4,5.1-2,7.7c-0.5,2.1-1.5,2.3-3,0.8c-2.3-2.2-4.6-4.6-7.2-6.4c-3.5-2.5-6.9-5-10.6-7.1c-0.6-0.4-1-0.9-0.9-1.5
		c0.1-0.6,0.8-0.6,1.4-0.7c2.2-0.2,4.3-0.4,6.5-0.6C133.7,126.2,133.9,126.2,134.1,126.2z"/>
	<path d="M137.1,258.6c-1-0.2-2.1-0.3-3.2-0.6c-0.7-0.2-1.5-0.6-1-1.6c1.1-2.1,1.6-4.5,1.6-6.8c0.1-4.1,1.6-7.8,2.4-11.7
		c0.3-1.4,1-1.6,2.1-0.6c1.4,1.4,2.5,3,3.5,4.7c2.1,3.5,4.9,6.5,7.4,9.8c0.9,1.1,1.7,2.3,2.5,3.5c0.6,0.9,0.4,1.5-0.7,1.8
		c-2,0.6-4,1.1-6.2,1.2C142.8,258.3,140,258.1,137.1,258.6z"/>
	<path d="M29.8,109.5c-0.3,3.2-0.2,6-0.2,8.8c0,2.6,0.7,5.1,0.5,7.7c-0.1,0.7-0.2,1.4-0.4,2.1c-0.3,1.1-1,1.2-1.8,0.8
		c-0.8-0.4-1.7-0.8-2.4-1.4c-2.6-2.2-5.8-3.5-8.6-5.6c-1.9-1.4-3.8-3.1-6.1-4c-0.6-0.2-1.2-0.9-1-1.7c0.1-0.7,0.9-0.7,1.4-0.9
		c2-1,4-1.8,6-2.7c3.4-1.5,6.7-3.1,10.1-4.7C28.4,107.3,29.8,108.4,29.8,109.5z"/>
	<path d="M158.3,242.8c-0.1-4.2,0.1-8.4,0.9-12.6c0.2-0.8,0.4-1.6,0.8-2.4c0.2-0.5,0.5-0.9,1.1-0.9c0.7,0,1.2,0.3,1.5,1
		c1.2,3.4,3,6.6,4,10.1c0.7,2.1,1.7,4.1,2.6,6.1c0.8,1.7,1.6,3.3,2.3,5c0.1,0.1,0.1,0.3,0.2,0.4c0.8,2.7,0.5,2.7-1.7,3.1
		c-3.3,0.6-6.5,1.4-9.8,2.2c-1.4,0.3-2.7-0.8-2.5-2.2C158.3,249.4,158.4,246.1,158.3,242.8z"/>
	<path d="M97.2,83.4c-0.5,0.6-1,1.3-1.6,1.9c-2.2,2.7-4.5,5.3-6.4,8.1c-1.2,1.7-2.6,3.3-3.9,5c-0.6,0.7-1.3,0.7-1.8,0
		c-1.8-2.8-4.1-5.2-5.8-8c-1.1-1.9-2.9-3.2-4.1-5.1c-0.5-0.9-1-1.8-1.5-2.7C71.7,81.6,72,81,73,80.9c0.7-0.1,1.4-0.1,2,0
		c2.9,0.6,5.9,0.5,8.9,0.7c3.5,0.2,6.9,0,10.4,0.6c0.4,0.1,0.7-0.1,1-0.3C96,81.6,97.3,82.6,97.2,83.4z"/>
	<path d="M237.4,200.2c-0.1,0.6-0.4,0.9-0.7,1.4c-2.8,3.7-5.6,7.4-8.4,11.1c-0.6,0.8-1.3,1.5-2,2.2c-0.4,0.4-0.8,0.8-0.9,1.5
		c0,0.6-0.5,0.7-1.1,0.6c-4.4-1.3-8.9-2.1-13.2-3.7c-1.1-0.4-2.2-0.7-3.3-1c-0.7-0.2-1.2-0.6-1.3-1.4c-0.1-0.8,0.6-0.9,1.2-1.1
		c4.7-1.6,9.2-3.5,13.8-5.1c4.1-1.4,7.8-3.7,11.9-4.9c1-0.3,1.9-0.5,2.9-0.5C237.1,199.1,237.3,199.5,237.4,200.2z"/>
	<path d="M120.8,260.7c-1.1,0-2.2,0-3.3,0c-0.3,0-0.6,0-1-0.1c-2-0.4-2.8-1.7-2-3.9c1-2.9,1.9-5.7,3.2-8.5c1.2-2.6,2.6-5.2,3.7-7.9
		c0.8-1.9,1.5-3.8,2.3-5.8c0.2-0.6,0.5-1.3,1.3-1c0.7,0.3,1.1,1,0.9,1.8c-0.3,1.5,0,2.9,0.4,4.4c1.5,4.9,2.4,9.9,2.4,15
		c0,1.1,0,2.1,0.3,3.2c0.3,1-0.9,2.5-2.1,2.5C124.9,260.4,122.9,260.7,120.8,260.7z"/>
	<path d="M113.2,158.1c1.1,0,1.7,0.6,1.6,1.5c-0.3,2.9-0.4,5.8-0.6,8.7c-0.2,2.2,0,4.4-0.3,6.7c-0.2,1.6-0.8,2-2.3,1.4
		c-6-2.5-11.8-5.6-17.2-9.2c-0.4-0.2-0.8-0.4-1-0.8c-0.8-1.3-0.3-2.2,1.2-2.7c2.7-0.8,5.4-1.3,8.1-2.2c3.3-1.1,6.5-2.4,9.9-3.1
		C112.7,158.2,113,158.1,113.2,158.1z"/>
	<path d="M110.7,48c-3.9-0.6-8.1,0.2-12.1-0.9c-2.6-0.7-5.1-1.7-7.8-2.3c-0.5-0.1-1-0.3-1.2-0.9c-0.1-0.6,0.4-0.9,0.8-1.2
		c3.1-2.2,6.1-4.5,9.2-6.5c1.1-0.7,2-1.8,3-2.7c1.2-1.1,1.4-1.1,2.4,0.1c2.3,2.7,4.9,5.2,7.7,7.5c0.4,0.3,0.8,0.7,1.3,0.9
		c1.6,0.6,2.4,2,3.5,3.2c0.6,0.7,0.3,1.8-0.6,2C115.1,47.6,113,47.8,110.7,48z"/>
	<path d="M18.5,177.4c-0.6,0-0.9-0.2-1.1-0.8c-1.5-5.4-3-10.9-4.5-16.3c-0.4-1.6-0.1-1.9,1.5-1.7c3,0.2,5.7,1.4,8.6,1.8
		c3.4,0.5,6.8,1,10.3,1.6c0.6,0.1,1.1-0.1,1.7-0.2c0.7-0.1,1.3,0.2,1.5,0.9c0.2,0.7-0.1,1.1-0.7,1.5c-3.8,2.6-7.5,5.4-10.7,8.7
		c-1.6,1.7-3.9,2.7-5.7,4.3C19.2,177.4,18.9,177.5,18.5,177.4z"/>
	<path d="M142.6,49.3c-0.1,2.3,0.2,5-0.2,7.7c0,0.2,0,0.3,0,0.5c0.2,0.6,0.3,1.3-0.3,1.7c-0.7,0.5-1.4,0.1-2-0.2
		c-2.7-1.3-4.9-3.2-7.1-5c-2.5-2.1-5.3-3.7-7.9-5.8c-1.2-0.9-2.1-2-3.2-3.1c-0.9-0.9-0.7-1.6,0.6-1.9c1.7-0.3,3.4-0.6,5.1-0.8
		c2.5-0.2,4.8-0.9,7.3-1.1c1.9-0.2,3.7-0.4,5.6-0.6c1.6-0.1,2.2,0.6,2.2,2.1C142.6,44.8,142.6,46.8,142.6,49.3z"/>
	<path d="M203.2,78.4c-3.8-0.4-7.2-0.4-10.5-0.9c-2.2-0.3-4.5-0.3-6.8-0.6c-2-0.2-4.1-0.6-5.9-1.6c-1.1-0.6-1.3-1.1-0.3-1.9
		c0.8-0.7,1.8-1.2,2.8-1.7c4.4-2,8.5-4.7,12.7-7.1c1.9-1.1,2.5-1.4,4.4,0.7c1.7,2,2.8,4.4,4.2,6.6c0.8,1.3,1.6,2.6,2.6,3.8
		c0.4,0.5,0.8,1,0.5,1.6c-0.3,0.7-0.9,0.7-1.5,0.7C204.5,78,203.6,78.5,203.2,78.4z"/>
	<path d="M79.9,167c1,0.2,2.4,0.8,3.7,1.4c3.2,1.4,6.3,2.9,9.3,4.7c2.2,1.3,4.6,2.5,6.8,3.7c1.2,0.6,1.2,1,0.5,2.2
		c-0.9,1.5-2.5,2-3.9,2.9c-2.7,1.7-5.6,3.2-8.1,5.2c-1.2,1-1.4,0.9-2.3-0.4c-1.8-2.5-2.6-5.5-3.9-8.2c-1.3-2.7-2.2-5.6-3.3-8.3
		c-0.3-0.7-1-1.2-0.6-2.2C78.4,167.2,78.7,166.9,79.9,167z"/>
	<path d="M218,141.7c0.1-0.9,0-2,0.4-2.8c1-2.5,0.5-5.2,0.8-7.8c0.3-2.1,0.8-2.6,2.8-1.9c4.2,1.5,8.4,2.6,12.7,3.5
		c2.5,0.6,5.1,1.3,7.8,1.1c0.3,0,0.6,0,0.8,0.2c0.6,0.4,1.6,0.4,1.6,1.4c0,1.1-1,1.1-1.8,1.2c-4.3,0.7-8.1,2.9-12,4.5
		c-3.7,1.5-7.6,2.5-11.4,3.7c-0.7,0.2-1.4,0-1.4-1C218.3,143.2,217.9,142.5,218,141.7z"/>
	<path d="M219.2,222.7c-0.1,0.8-0.8,1.3-1.5,1.7c-2.2,1.5-4.5,2.8-6.5,4.4c-2.9,2.3-6.1,4.2-9.1,6.4c-1.8,1.4-3.7,2.6-5.4,4.2
		c-0.4,0.4-0.9,0.4-1.4,0c-0.5-0.5-1.1-0.9-0.7-1.7c0.2-0.5,0.5-0.9,0.8-1.3c2.3-3.7,3.3-7.9,4.8-11.9c0.8-2.2,1.7-4.3,2-6.6
		c0.1-1,1.3-1.5,2.1-1c2.2,1.6,4.8,2.1,7.2,3c2,0.7,4.1,1.1,6.3,1.5C218.6,221.6,219.1,221.9,219.2,222.7z"/>
	<path d="M213.8,109.6c2.2,0.6,4.8-0.1,7.5,0c3,0,6,0.2,9.1,0.5c0.7,0.1,1.4,0.1,2-0.1c0.7-0.2,1.3,0.3,1.6,0.7
		c0.3,0.4-0.3,0.8-0.6,1.1c-2.3,2.1-5,3.5-7.5,5.2c-4.8,3.3-9.8,6.2-14.2,10c-0.4,0.3-0.7,0.6-1.2,0.3c-0.6-0.3-0.9-0.7-0.9-1.4
		c-0.1-1.4,0.4-2.7,0.6-4.1c0.1-1.4,0.1-2.8,0.2-4.2c0.1-2.3,0.5-4.6,1.2-6.8C211.8,109.7,212.2,109.5,213.8,109.6z"/>
	<path d="M251.1,130.6c0,1.2-0.5,1.6-2.4,1.3c-3.5-0.7-6.9-1.9-10.3-3.1c-2.7-1-5.5-1.9-8-3.5c-0.4-0.3-0.9-0.4-0.8-1
		c0.1-0.6,0.4-1,0.9-1.2c4.2-2,8.4-4.2,12.5-6.5c1.7-1,3.4-1.8,5.2-2.7c1-0.5,1.4-0.3,1.7,0.8c0.3,1,0.4,2,0.4,2.9
		C250.4,121.6,251,125.7,251.1,130.6z"/>
	<path d="M134.5,187.9c0.7,0.2,1.5,0.3,1.7,1.3c1.1,4.8,2.4,9.6,2.4,14.5c0,1.2,0.6,2.2,0.8,3.4c0,0.3,0.2,0.6,0.2,0.9
		c0,1.5-1.1,2.2-2.5,1.6c-1.8-0.9-3.4-2.1-5.1-3c-3.2-1.8-6.3-3.5-9.4-5.5c-0.2-0.1-0.3-0.2-0.5-0.3c-1.4-1.1-1.4-1.6-0.2-2.9
		c3.3-3.4,6.9-6.5,10.8-9.3C133.1,188.2,133.7,187.9,134.5,187.9z"/>
	<path d="M179,80.9c0.8,0.2,1.7,0.4,2.6,0.6c5.7,1.6,11.7,1.7,17.5,3.1c0.3,0.1,0.7,0.1,1,0.3c2,0.8,2.1,1.5,0.8,3.2
		c-2.7,3.3-5.5,6.6-7.7,10.3c-1,1.7-1.8,1.7-3,0.1c-3.9-5.1-7.9-10-12.5-14.4c-0.5-0.5-1.3-1.1-0.9-1.9C177.1,81.2,178,81,179,80.9z
		"/>
	<path d="M155,227.5c-0.1,4.9-0.2,9.9,0,14.8c0.1,1.8,0,3.6,0.1,5.4c0,0.7-0.2,1.4-0.9,1.4c-0.9,0-1.8,0.9-2.7-0.4
		c-1.8-2.6-3.7-5-5.6-7.6c-2.1-2.9-4.1-6-5.8-9.2c-0.4-0.8,0.1-1.2,0.6-1.6c2.7-2.2,5.8-3.4,9.2-4.1c1-0.2,2.1-0.4,3.2-0.6
		C154.6,225.3,155.2,225.8,155,227.5z"/>
	<path d="M149.1,78c-0.3,5.2-0.6,9.8-0.5,14.5c0,1.2,0,2.3,0.4,3.4c0.4,1.4-0.2,2-1.6,1.8c-4.9-0.7-9.8-1.4-14.6-2.9
		c-0.1,0-0.1-0.1-0.2-0.1c-2.4-1-2.5-1.5-0.6-3.3c1.4-1.3,2.5-2.9,3.9-4.2c1.7-1.7,3.3-3.5,5.2-5c1.7-1.4,3.3-3,5.2-4.2
		c0.4-0.2,0.7-0.5,1.1-0.7C149,76.6,149.1,76.6,149.1,78z"/>
	<path d="M146.4,40.5c0.5,0,0.9,0.3,1.4,0.7c3.1,2.6,6.1,5.1,9.3,7.4c1.8,1.2,3.4,2.7,5,4.1c1.2,1,1.3,2.4,0.9,3.9
		c-0.8,2.9-1.4,5.8-2.1,8.7c-0.2,0.8-0.5,1.6-0.7,2.4c-0.2,0.5-0.5,0.9-1,1c-0.6,0.1-1.1-0.2-1.4-0.7c-1-1.6-1.9-3.2-2.7-4.9
		c-1.2-2.9-2.9-5.6-4.6-8.3c-1.7-2.7-3.1-5.5-4.4-8.3c-0.5-1.2-1-2.3-1.4-3.5C144.4,41.8,145.2,40.5,146.4,40.5z"/>
	<path d="M234.4,106.9c-2.1,0.4-4.1-0.5-6.2-0.5c-0.3,0-0.7-0.1-0.7-0.5c0-0.5-0.2-0.9,0.3-1.3c4.8-3.8,8-9,12.2-13.3
		c0.8-0.9,1.6-1.8,2.4-2.6c0.9-0.8,1.4-0.6,1.8,0.5c1.6,5.6,2.7,11.4,3.6,17.1c0.1,0.4,0.2,0.9,0.3,1.3c0.2,0.9-0.4,1.6-1.3,1.2
		c-2.1-1-4.3-0.8-6.5-1.3C238.3,107,236.4,106.7,234.4,106.9z"/>
	<path d="M173.3,45.5c-0.4-3.1,0-6.2-0.3-9.3c-0.3-3.7,0.6-7.4,0.5-11.1c0-0.9,0.1-1.9,0.4-2.8c0.2-0.7,0.6-1,1.4-0.9
		c1.7,0.3,3.3,1,4.8,1.7c1.6,0.6,3.2,1.1,4.8,1.5c0.5,0.1,1.1,0.3,1.6,0.5c2.1,1,2.1,1.2,1,3.2c-1.3,2.2-3,4.1-4.4,6.2
		c-2,2.8-3.6,5.9-5.4,8.9c-0.6,1-1,2-1.6,2.9c-0.4,0.6-0.8,1.1-1.7,0.9C173.4,46.9,173.3,46.2,173.3,45.5z"/>
	<path d="M237.7,195.6c-2.8-0.4-5.6-0.6-8.4-1.2c-4.8-1.1-9.6-1.7-14.4-2.8c-0.3-0.1-0.7-0.2-1-0.3c-0.5-0.1-1-0.4-1-0.9
		c0-0.5,0.4-0.7,0.8-0.9c3-1.5,6.3-1.7,9.5-2.6c3.6-1,7.1-2.1,10.7-3c2.4-0.6,4.6-1.4,6.9-2.3c1-0.4,1.5,0.1,1.5,1.2
		c-0.1,3-1.1,5.7-2.3,8.3c-0.4,1-0.7,2-0.8,3C239.3,195.3,238.6,195.5,237.7,195.6z"/>
	<path d="M224.9,81.5c3.8,0.3,7.7,0.2,11.5,0.2c1.2,0,2.3-0.2,3.4-0.4c0.6-0.1,1.4-0.4,1.9,0.3c0.5,0.7,0.1,1.5-0.4,2.1
		c-2.5,2.6-4.6,5.6-7,8.3c-2.5,2.9-4.8,5.8-7.2,8.7c-0.3,0.4-0.6,0.8-1.2,0.6c-0.5-0.1-0.9-0.4-1.1-1c-0.5-2.6-1.1-5.3-1.6-7.9
		c-0.5-3-0.4-6.1-0.9-9.1c-0.2-1,0.4-1.7,1.4-1.8C224.2,81.5,224.6,81.5,224.9,81.5z"/>
	<path d="M72.3,109.1c0,1-1.2,2.3-2.3,2.3c-2,0-3.8,0.9-5.3,1.9c-4,2.6-8.5,4.4-12.7,6.5c-0.7,0.3-1.1,0.1-1.6-0.3
		c-0.6-0.4-0.8-1-0.7-1.7c0.8-4,0.6-8.1,1.2-12.1c0.4-2.7-0.1-3.4,3.2-2.5c3.5,1,7.1,1.7,10.7,2.5c1.6,0.3,3.1,0.6,4.7,0.9
		c1,0.2,1.9,0.7,2.6,1.4C72.2,108.5,72.3,108.8,72.3,109.1z"/>
	<path d="M195,127.1c0.6,0.2,1.4,0.4,2.2,0.6c4,1.4,8,2.6,12.1,3.7c2.4,0.7,4.8,1.7,7.1,2.8c1.4,0.6,1.4,1.5,0.2,2.4
		c-3.8,2.7-7.5,5.5-11.1,8.4c-1.3,1-2,1-3-0.5c-1-1.5-2.1-3-2.8-4.6c-1.6-3.2-3.5-6.2-5.1-9.3c-0.3-0.6-0.6-1.3-0.9-2
		C193.2,127.6,193.6,127.1,195,127.1z"/>
	<path d="M204.3,180.9c-4.8-0.2-9.5-0.7-14.3-1.6c-2.7-0.5-5.3-0.9-8-1.3c-1.2-0.2-2.4-0.7-3.6-0.8c-0.5-0.1-1-0.4-1.1-1.1
		c-0.1-0.6,0.4-0.8,0.8-1.1c2.2-1.7,4.9-2.6,7.3-4c2.5-1.3,5-2.6,7.5-3.8c0.6-0.3,1.1,0.1,1.4,0.5c1.9,2.2,4.1,4.2,6.2,6.1
		c1.9,1.7,3.9,3.3,5.8,4.9c0.1,0.1,0.1,0.1,0.2,0.1c0.3,0.3,1.2,0,0.9,0.8c-0.2,0.6-0.7,1.1-1.4,1.2
		C205.6,180.8,205,180.9,204.3,180.9z"/>
	<path d="M16.9,107.8c-1.8,0-2.4-1-1.6-2.3c0.8-1.4,1-3,1.4-4.6c0.6-2.7,1.8-5.3,3.1-7.7c0.5-0.9,1.2-1.2,2.2-0.8
		c2.7,1.2,5.5,2.3,8.2,3.5c3.2,1.5,6.4,2.9,9.9,3.6c0.8,0.2,0.4,1,0.7,1.5c0.2,0.3-0.2,0.5-0.5,0.6c-1.1,0.6-2.4,1-3.6,1.3
		c-6,1.5-11.9,3-17.9,4.5C18.1,107.6,17.4,107.7,16.9,107.8z"/>
	<path d="M111.9,137.9c-0.5,2-0.7,4.3-0.8,6.7c-0.1,2.1-0.4,4.3-0.4,6.4c0,0.7,0,1.4,0,2c0,0.7-0.2,1.3-0.7,1.7
		c-0.6,0.4-1.3,0.1-1.8-0.4c-2.1-1.8-4.8-2.3-7.1-3.6c-2.5-1.4-5.5-2-7.8-3.7c-0.3-0.2-0.6-0.4-0.9-0.6c-0.9-0.7-0.9-1.8,0.1-2.3
		c1.6-0.9,3.3-1.7,5.1-2.4c2.6-1.1,5-2.7,7.5-3.9c1.6-0.8,3.5-1.2,4.9-2.4c0.5-0.4,1.2-0.1,1.5,0.5
		C111.8,136.4,111.9,137,111.9,137.9z"/>
	<path d="M138,103.6c2.9,0.6,5.7,0.2,8.6,0c1.5-0.1,3-0.3,4.5-0.4c0.8-0.1,1.5,0.2,2.2,0.3c0.7,0.1,0.9,1.2,0.4,1.9
		c-1,1.4-2.1,2.8-3.2,4.2c-2.5,3.3-5.2,6.5-7.4,10c-0.4,0.6-0.9,1.1-1.3,1.7c-0.4,0.6-1.4,0.3-1.9-0.6c-1-1.8-1.9-3.6-2.7-5.4
		c-0.9-2-2-3.9-2.8-5.9c-0.5-1.3-0.9-2.6-1.3-4c-0.2-0.9,0.2-1.5,1.2-1.4C135.6,103.9,136.8,103.8,138,103.6z"/>
	<path d="M164.9,17c1.1,0,1.8,0.8,1.7,1.8c-0.3,2.6-0.5,5.3-0.6,7.9c-0.1,1.4-0.6,2.7-0.4,4.2c0.2,1.3-1.1,1.8-2.3,1.5
		c-3.7-1.1-6.9-3.4-10.5-4.6c-3.5-1.3-7-2.5-10.4-4.1c-0.5-0.3-0.9-0.5-0.8-1.1c0.1-0.6,0.5-0.7,1-0.8c3.6-0.4,7.2-1.1,10.8-1.8
		c3.7-0.7,7.4-1.9,11.1-2.8C164.6,17.1,164.8,17,164.9,17z"/>
	<path d="M166.8,209.6c-3.7-0.4-7.4-0.8-11.1-1.2c-0.4,0-0.8-0.1-1.2-0.1c-1.8,0-2.8-1.3-2.5-3.1c0.4-3.2,0.7-6.4,1.2-9.6
		c0.3-2.2,0.2-4.4,1.2-6.5c0.4-0.9,0.9-1.6,1.8-1.7c0.9-0.1,1.4,0.7,1.8,1.5c1.3,2.4,2,5,3.5,7.2c1.2,1.9,2.2,3.9,3.5,5.7
		c0.6,0.8,1.1,1.8,1.5,2.7c0.5,1.2,1.6,2.2,1.9,3.5c0.3,1.3,0.4,1.5-1,1.5C167.1,209.6,166.9,209.6,166.8,209.6
		C166.8,209.6,166.8,209.6,166.8,209.6z"/>
	<path d="M127,38.2c-1.6,0-2.8-1.5-2.6-2.9c0.1-0.6,0.1-1.3,0.4-1.9c1-2.6,1.1-5.4,2.1-7.9c0.7-1.6,0.9-1.7,2.4-1.1
		c1.2,0.4,2.5,0.6,3.7,0.9c2.7,0.6,5,2.1,7.6,2.8c2.7,0.7,5.4,1.7,8.2,2.1c1,0.1,1.6,0.9,2.3,1.5c0.5,0.5-0.1,1.4-1.1,1.5
		c-1.4,0.1-2.7,0.6-4.1,0.8c-2.8,0.5-5.7,0.9-8.4,1.5c-2.1,0.5-4.1,1.3-6.2,1.8C129.7,37.7,128.1,37.8,127,38.2z"/>
	<path d="M84.2,51.8c3.2,0.2,6.4,0.5,9.7,0.5c1.8,0,3.5-0.2,5.2-0.6c0.8-0.2,1.5-0.1,2.1,0.6c0.6,0.7,0.1,1.3-0.3,1.9
		c-1.2,2-2.8,3.8-4.3,5.6c-2.4,2.8-4.9,5.5-7.5,8.2c-1.5,1.6-2.6,1.4-3.4-0.7c-1.8-4.5-3.4-9-4.7-13.7c-0.3-1-0.1-1.5,1-1.6
		C82.7,51.9,83.4,51.7,84.2,51.8z"/>
	<path d="M185.6,100.5c0,1-0.8,1.6-1.7,1.5c-5.8-0.9-11.6-1.2-17.4-1.1c-1.1,0-2.1-0.2-3.1-0.3c-0.8-0.1-1.3-0.6-0.8-1.4
		c1.4-2.3,2.8-4.6,4.9-6.4c2.3-2,4.7-4,6.7-6.3c1-1.2,1.4-1.1,2.3,0.3c1,1.3,1.7,2.8,2.4,4.3c1.5,3,4,5,5.9,7.7
		C185.2,99.3,185.5,99.9,185.6,100.5z"/>
	<path d="M46.3,51.6c1.8,0,3.5,0.6,5.2,1.2c3.6,1.3,7.1,2.5,10.7,3.6c1.9,0.6,2.2,1.2,1.2,2.9c-2.2,4.2-4,8.6-6.6,12.5
		c-0.4,0.6-0.7,1.3-1.5,1.1c-0.4-0.1-0.7-0.4-0.9-0.9c-1-3-2.7-5.8-4.1-8.6c-1.7-3.4-3.7-6.6-5.2-10.1
		C44.5,52.1,44.9,51.6,46.3,51.6z"/>
	<path d="M195.1,33c-0.4,2.1-0.9,4.3-1.1,6.4c-0.4,3.3-1.7,6.4-1.7,9.7c0,2.4-0.7,4.8-0.3,7.2c0.2,1.3-1.7,2.1-2.6,1.8
		c-2.6-1-5.1-2.1-7.4-3.6c-0.6-0.4-1.1-0.7-1.7-1.1c-1.6-1.1-1.7-1.7-0.7-3.4c0.9-1.5,2.2-2.8,3.3-4.2c2-2.8,4.4-5.4,6.5-8.2
		c1.2-1.6,2.3-3.4,3.7-5c0.4-0.4,0.9-0.9,1.5-0.6C195,32.2,195.2,32.6,195.1,33z"/>
	<path d="M141.8,209.7c-0.2-3.4-0.4-7-1-10.5c-0.2-0.9,0.1-1.8,0.3-2.7c0.2-0.9,1.3-1,1.9,0c0.9,1.3,1.7,2.6,2.4,4
		c2.9,5.4,4.9,11.3,7.4,16.9c0.4,0.9,0.9,1.8,1,2.9c0.1,0.9-0.2,1.2-1,1.4c-2.3,0.4-4.5,1.1-6.6,1.9c-0.5,0.2-0.8,0.4-1.3,0.7
		c-0.8,0.4-1.8,0-1.8-0.8c-0.3-3-0.9-5.9-1.2-8.8C141.8,213,141.6,211.4,141.8,209.7z"/>
	<path d="M88.6,230.8c0.9,0.1,1.3,0.5,1.2,1.3c-0.3,2.5-0.8,4.9-1.1,7.4c-0.2,1.9,0,3.7-0.3,5.6c-0.2,1.3-0.1,2.6-0.5,3.9
		c-0.3,1-0.9,1.4-2,1c-3.3-1.1-6.5-2.4-9.6-4c-1.1-0.6-2.4-0.9-3.5-1.4c-0.5-0.2-0.8-0.5-1.1-1c-0.6-1.1-0.6-1.8,0.5-2.6
		c1.4-1.1,3-1.9,4.4-2.8c3-2.1,6-4.2,9.3-5.9c0.4-0.2,0.7-0.5,1.1-0.7C87.5,231.2,88,230.9,88.6,230.8z"/>
	<path d="M69.2,102.1c-5.2,0.1-10.5-0.2-15.7-1c-0.4-0.1-0.8,0-1-0.5c-0.2-0.5,0-0.9,0.3-1.3c2-2.3,4-4.6,6-7
		c1.8-2.2,3.7-4.2,5.5-6.3c1-1.1,2.1-0.9,2.9,0.2c0.8,1.2,0.7,2.6,1.2,3.8c1.3,3.2,3.1,6.1,4.5,9.2c0.9,2,0.5,2.7-1.7,2.8
		C70.7,102.1,69.9,102.1,69.2,102.1z"/>
	<path d="M98.3,136.6c-1,0.1-1.3-0.2-1.5-0.9c-0.7-2.1-1-4.3-1.6-6.5c-0.4-1.3-0.6-2.7-1.2-3.9c-0.9-2-1.1-4.2-1.5-6.4
		c-0.1-0.7,0.3-1.4,0.9-1.8c0.6-0.4,1.1-0.3,1.7,0.1c2.8,1.8,5.8,3.2,8.7,4.6c2.2,1,4.2,2.5,6.3,3.7c0.2,0.1,0.5,0.3,0.7,0.4
		c1.3,0.5,1.4,0.9,0.4,2c-0.7,0.8-1.6,1.3-2.5,1.8c-2.6,1.3-4.7,3.4-7.2,5C100.6,135.6,99.4,136.3,98.3,136.6z"/>
	<path d="M54.7,124.3c-0.5,2.8-1,5.5-1.5,8.3c-0.3,1.7-0.4,3.5-0.4,5.2c0,1.2-0.2,2.4-0.3,3.6c-0.2,1.8-1.3,2.2-2.9,1.2
		c-4.3-2.6-7.9-5.9-11.3-9.5c-0.2-0.2-0.5-0.4-0.6-0.7c-0.9-1.4-0.7-1.7,0.7-2.4c3.8-2,7.8-3.5,11.4-5.7c0.9-0.6,1.9-0.9,2.9-1.3
		C53.9,122.6,54.8,123.3,54.7,124.3z"/>
	<path d="M162.3,144.4c2.7,0.3,4.9,0.6,7.1,0.7c2.5,0,5,0.3,7.6,0c1.1-0.1,1.6,0.5,1.1,1.7c-0.8,1.9-1.5,3.8-1.7,5.8
		c-0.4,2.8-1.2,5.6-1,8.5c0.1,1.3-0.3,2.5-0.1,3.8c0.1,0.6-0.4,1-1,1.2c-0.5,0.2-0.8-0.2-1-0.6c-2.3-3.4-4.6-6.8-7-10.2
		c-1.9-2.7-3.3-5.7-4.9-8.6C160.7,145.8,161.7,144.4,162.3,144.4z"/>
	<path d="M85.3,189.9c0,0.9-0.7,1.3-1.6,0.9c-2-0.8-4-1.6-6-2.3c-3.1-1.2-6.3-2.1-9.5-3.1c-1.5-0.5-1.7-1.2-1.2-2.6
		c1.2-3.4,3.3-6.4,4.6-9.7c0.4-1.1,0.7-2.2,1.2-3.2c0.3-0.6,0.7-1.1,1.4-1c0.7,0.1,1.6,0,1.9,1.1c1.4,4.4,3.4,8.6,5.5,12.6
		c1.1,2.1,1.9,4.3,3.3,6.2C85.1,189.2,85.3,189.5,85.3,189.9z"/>
	<path d="M224.2,57.7c-0.1,0.2-0.2,0.5-0.4,0.7c-2.4,2.2-3.7,5.1-5.5,7.6c-2,2.8-3.4,5.9-4.8,9c-0.2,0.4-0.3,0.9-0.6,1.3
		c-0.8,1.2-1.8,1.1-2.5-0.1c-2.1-3.8-4.5-7.3-7.8-10.2c-1.3-1.1-1.1-2.1,0.5-2.7c2.8-1,5.5-2,8.4-2.8c3.6-1.1,7.4-1.6,10.7-3.5
		C222.9,56.4,224.1,57,224.2,57.7z"/>
	<path d="M96.2,221c0.3,0.8-0.1,1-0.9,1.2c-4.7,1-8.9,2.9-12.8,5.6c-0.9,0.6-2,1.1-3,1.8c-0.5,0.4-1.1,0.4-1.6,0
		c-0.5-0.4-0.5-0.9-0.2-1.5c1.3-3.5,2.6-6.9,3.3-10.6c0.6-3.1,1.5-6,2.2-9c0.3-1.3,1.2-1.6,2.2-0.6c1.3,1.3,2.4,2.8,3.5,4.3
		c1.5,2.1,3.3,3.9,4.7,6c0.5,0.7,1.3,1.1,2,1.6C96,220,96.5,220.3,96.2,221z"/>
	<path d="M12.9,143.5c-1.5,0-2.4-1-1.7-2.2c2-3.2,2.6-6.9,3.6-10.4c0.4-1.3,0.9-2.5,1.5-3.6c0.4-0.7,0.8-0.8,1.6-0.6
		c2.1,0.8,4,1.9,5.7,3.4c1.9,1.6,4.1,2.8,6.3,3.8c0.8,0.4,1.6,0.9,2.3,1.4c0.7,0.4,0.6,1.2,0.6,1.8c0,0.6-0.6,0.5-1,0.6
		c-3.6,0.8-7.1,1.9-10.7,3c-2.4,0.7-4.9,1.1-7.1,2.4C13.7,143.4,13.3,143.5,12.9,143.5z"/>
	<path d="M121.2,15.5c-0.6,1.8-0.9,3.8-1.3,5.8c-0.2,1-0.3,2-0.3,3.1c0.1,3.4,0,6.7,0.6,10.1c0.2,1.1-0.6,1.7-1.5,2.3
		c-0.8,0.5-1.3-0.2-1.9-0.5c-3.3-2.1-6.4-4.7-9.9-6.7c-1.6-0.9-2.2-2.3-0.5-3.9c2.9-2.9,6.1-5.4,9.3-8c1.1-0.9,2.3-1.8,3.3-2.9
		c0.5-0.6,1.1-0.4,1.7-0.3C121.2,14.5,121.3,14.9,121.2,15.5z"/>
	<path d="M218.7,52.5c-0.1,0.5-0.3,1.3-1.2,1.3c-3.6,0.1-7,1.5-10.5,2.3c-3.4,0.7-6.8,1.7-10.1,2.8c-0.5,0.2-1.1,0.4-1.5-0.1
		c-0.5-0.6-0.3-1.2,0.1-1.7c1.9-2.4,3.7-5,5.8-7.3c2-2.2,4-4.5,6-6.8c1.1-1.3,1.9-1.3,2.9,0.1c1.5,1.9,3.1,3.8,4.8,5.4
		c0.9,0.9,2,1.7,3,2.6C218.4,51.4,218.8,51.7,218.7,52.5z"/>
	<path d="M177.3,167.1c0.4-1.5,0.7-3.3,1.4-5c1-2.4,1.8-4.8,2.8-7.2c0.8-1.9,1.8-3.7,3.1-5.4c0.6-0.7,1.7-0.6,2.1,0.2
		c2,4.2,4.5,8.1,6.7,12.1c0.9,1.7,0.7,1.9-1,2.6c-4.2,1.6-8.6,2.6-12.6,4.6C178.3,169.8,177.2,169,177.3,167.1z"/>
	<path d="M25.3,192c-0.5,0.1-0.8-0.1-1-0.4c-1.4-2.2-3.2-4.2-4.1-6.6c-0.1-0.4-0.4-0.6-0.6-0.9c-0.9-1.3-0.7-1.9,0.8-2.3
		c1-0.2,2-0.4,3.1-0.5c1.2-0.1,2.4-0.3,3.6-0.3c3.4,0.1,6.6-0.7,9.9-1.1c3.2-0.3,6.2-1.3,9.4-1.6c0.6-0.1,0.9,0,1.1,0.6
		c0.2,0.5,0.3,1-0.3,1.3c-3.3,1.8-6.4,4-9.8,5.8c-3.5,1.8-7.2,3.3-10.5,5.4C26.3,191.8,25.6,191.9,25.3,192z"/>
	<path d="M82.1,78c-3.5-0.6-7-0.2-10.6-0.4c-3.5-0.1-7.1-0.4-10.6-0.3c-1.4,0-1.8-0.9-1-2c1.4-1.9,2.9-3.8,4.3-5.8
		c1.1-1.5,2.1-3.1,3-4.7c0.6-1,1.6-1.2,2.3-0.3c2.3,2.8,5.1,5.1,8,7.4c1.8,1.4,3.5,2.7,5.2,4.1c0.5,0.4,0.8,0.8,0.5,1.5
		C83,77.9,82.6,78.1,82.1,78z"/>
	<path d="M52.4,77.5c-2.2-0.5-4.7-1.2-7.2-1.8c-4.6-1-9.2-2.3-13.9-2.5c-0.7,0-1.5-0.2-1.8-0.9c-0.4-0.7,0.3-1.1,0.7-1.6
		c1.6-2.2,3.4-4.2,4.7-6.6c0.4-0.7,0.9-1.2,1.4-1.7c1-1,1.3-1,2.4,0c3.2,3.3,6.9,6.2,10.3,9.3c1.5,1.4,3,2.9,4.5,4.3
		c0.3,0.3,0.6,0.7,0.4,1.2C53.5,77.5,53.1,77.6,52.4,77.5z"/>
	<path d="M107.4,257.6c-0.4-0.1-1-0.1-1.6-0.3c-3.7-1.3-7.5-2.5-11.1-4c-0.4-0.2-0.7-0.4-1.1-0.5c-1.1-0.5-1.6-1-1.3-2.6
		c0.6-3.4,1.5-6.7,2.3-10c0.2-0.7,0.4-1.4,0.7-2c0.4-1.1,1.5-1.3,2.2-0.4c1,1.4,2,2.6,2.8,4.2c2,4.2,5,7.8,7.3,11.9
		c0.4,0.7,0.8,1.3,1.1,2C109.3,257,108.9,257.6,107.4,257.6z"/>
	<path d="M45.2,103.3c1.2,0,1.8,0.6,1.4,1.6c-1,2.3-0.9,4.7-1.4,7.1c-0.8,3.7-0.5,7.5-1.7,11.2c-0.1,0.5-0.3,0.9-0.5,1.3
		c-0.4,0.5-0.9,0.9-1.6,0.9c-0.8-0.1-0.7-0.8-0.9-1.3c-0.7-2-2.1-3.4-3.3-5.1c-1.5-2-3.6-3.5-5-5.5c-1-1.4-1-1.8,0.5-2.8
		c1.3-0.9,2.7-1.8,4.2-2.4c1.1-0.4,1.9-1.2,2.8-1.8c1.6-1.1,3.6-1.7,5.1-3.1C44.9,103.3,45,103.2,45.2,103.3z"/>
	<path d="M167.9,37.3c-0.3,2.1-1.2,4.1-2,6.1c-0.5,1.2-0.9,2.5-1,3.8c-0.1,1.3-0.9,1.7-2,1c-3.3-2-6.5-4.1-9.9-6
		c-2.2-1.2-4.4-2.2-6.5-3.6c-0.2-0.2-0.5-0.3-0.7-0.4c-0.6-0.4-1.1-0.8-0.8-1.5c0.3-0.7,1-0.6,1.7-0.7c3.1-0.3,6.1,0,9.2-0.3
		c3.3-0.3,6.6-0.1,9.9-0.1c0.5,0,1.1,0.3,1.6,0.5C167.8,36.4,168.1,36.7,167.9,37.3z"/>
	<path d="M129.7,58.5c-0.1,0.8-0.3,1.3-0.9,1.6c-1,0.5-2.1,0.9-3.2,1.3c-3.5,1-6.9,2.1-10.2,3.7c-1,0.5-2.2,0.8-3.3,1.1
		c-1,0.3-1.7-0.4-1.5-1.4c0.3-2.5,1.6-4.6,2.9-6.6c1.2-1.9,2.1-3.9,2.9-6c0.3-0.9,0.9-1.7,1.4-2.5c0.6-0.9,1.7-1,2.3-0.1
		c2.2,3,5.2,5.1,8.2,7.2C128.8,57.2,129.6,57.7,129.7,58.5z"/>
	<path d="M237.4,77.8c-0.2,0.7-0.3,1.3-1.4,1.2c-3.5-0.4-7-0.5-10.6-0.2c-2.2,0.2-4.4-0.2-6.6-0.4c-1-0.1-0.9-0.9-0.5-1.6
		c1.5-2.3,3-4.7,4.6-6.9c0.8-1.1,1.3-2.4,1.9-3.6c0.2-0.4,0.4-0.8,0.7-1.2c0.9-1.4,1.6-1.4,2.7-0.1c1.4,1.7,2.5,3.7,3.7,5.5
		c1.1,1.6,2.2,3.1,3.3,4.7c0.3,0.5,0.6,1,1.2,1.2C237.3,76.4,237.2,77.2,237.4,77.8z"/>
	<path d="M60.5,209.4c-2.7-0.1-5.9-0.7-9-1.3c-1.4-0.2-2.7-0.1-4.1-0.1c-1.4,0-2.8-0.4-4.1-0.8c-0.6-0.2-1-0.6-1-1.2
		c0-0.5,0.5-0.8,1-0.9c3.7-1.6,7.1-3.7,10.3-6c1.4-1,3-1.7,4.2-3.1c0.4-0.5,0.8-0.3,1.2,0.1c1,1,1.6,2.3,2,3.6
		c0.6,2.4,1.6,4.7,2.1,7.1C63.5,208.9,63.3,209.4,60.5,209.4z"/>
	<path d="M89,37.2c0-0.6,0.2-1,0.5-1.4c1.7-2.7,3.2-5.5,4.3-8.5c0.3-0.8,0.9-1.6,1.3-2.4c1.4-2.7,2.9-5.3,4.3-8
		c0.5-0.9,1.1-1.3,2.2-1c1.9,0.4,3.8,0.7,5.7,0.6c0.7,0,1.2,0.3,1.5,0.9c0.3,0.6,0,1.2-0.4,1.6c-4,4.6-7.5,9.5-11.9,13.7
		c-2,1.8-4.1,3.5-6.3,5.1C89.5,38.5,89,38.2,89,37.2z"/>
	<path d="M76.5,45.9c-0.8,0.2-1.3-0.3-1.4-1.1c-0.3-2.5-1.5-4.7-2.3-7c-0.8-2.3-1.4-4.7-2-7.1c-0.3-1.2,0.2-1.9,1.5-1.7
		c1.3,0.2,2.5,0.4,3.7,0.7c2.8,0.7,5.6,1.5,8.4,2.2c0.2,0.1,0.5,0.1,0.7,0.2c1.6,0.9,1.9,1.5,0.8,3c-0.9,1.2-1.8,2.5-2.8,3.5
		c-1.5,1.5-2.4,3.3-3.6,4.9c-0.5,0.6-1,1.2-1.6,1.8C77.6,45.8,77.1,46,76.5,45.9z"/>
	<path d="M60.8,81.4c-0.1,0.3-0.2,0.6-0.3,0.9c-0.7,1.4-1.6,2.8-2.7,3.9c-1.5,1.6-3.1,3.2-4.2,5.2c-0.1,0.2-0.2,0.3-0.4,0.5
		c-1.7,1.9-1.7,1.8-3.4,0c-2.1-2.1-4.4-3.9-6.7-5.7c-1.2-0.9-2-2.2-3.1-3.1c-0.8-0.6-0.4-1.5,0.7-1.7c1.4-0.3,2.8-0.6,4.2-0.5
		c1.8,0,3.5,0.1,5.3,0c3.1-0.1,6.1-0.3,9.2-0.5C60,80.3,60.6,80.5,60.8,81.4z"/>
	<path d="M40.5,92.7c-1,0.2-2.1-0.5-3.2-0.9c-4.7-1.4-9.5-2.2-14.2-3.5c-1.3-0.3-1.5-0.7-1.1-1.9c0.3-0.8,0.7-1.6,1.2-2.3
		c1.4-1.8,1.9-3.9,2.8-5.9c0.5-1.2,0.8-1.4,2-0.6c0.7,0.4,1.4,1,2,1.5c3.9,3.6,7.9,7.1,11.6,10.9c0.1,0.1,0.1,0.1,0.2,0.2
		c0.5,0.5,1.1,1.1,0.9,1.8C42.3,93,41.4,92.7,40.5,92.7z"/>
	<path d="M69,127.5c-0.6,0-1-0.1-1.1-0.8c-0.3-3.3-1.3-6.5-2-9.8c-0.3-1.3-0.1-1.6,1.2-1.8c3.4-0.5,7-0.7,10.4-1.4
		c2.5-0.5,5-0.8,7.4-1.6c0.7-0.2,1.4-0.5,1.9,0.3c0.5,0.8-0.2,1.3-0.7,1.7c-1.5,1.2-3,2.3-4.5,3.5c-3.3,2.6-6.6,5.2-9.9,7.9
		c-0.6,0.5-1.1,1.2-1.8,1.7C69.6,127.3,69.3,127.5,69,127.5z"/>
	<path d="M120.3,159.9c-0.3-1.4,0.4-1.8,1.7-2.2c3-1,6.1-1.6,9.1-3c0.6-0.3,1.1-0.6,1.6-1.1c0.5-0.5,1-0.9,1.6-0.4
		c0.7,0.5,0.4,1.1,0.2,1.7c-0.5,1.6-1.6,2.8-2.5,4.1c-2.2,3.1-3.3,6.6-4.6,10.1c-0.7,1.7-1.2,3.4-2,5.1c-0.3,0.6-0.5,1.2-1.2,1.2
		c-0.6,0-1.1-0.6-1.3-1.1c-0.4-0.8-0.8-1.7-0.9-2.6C121.4,167.8,120.9,163.9,120.3,159.9z"/>
	<path d="M194.2,142.3c-1.2-0.4-2.6-0.9-3.9-1.4c-2.3-0.8-4.7-1.3-7.2-1.7c-2.3-0.4-4.6-1-6.9-1.3c-0.6-0.1-1.3-0.1-1.9-0.1
		c-0.7,0-1.4,0.1-1.6-0.9c-0.1-0.9,0.4-1.2,1.1-1.4c0.6-0.2,1.3-0.4,1.9-0.7c3.8-1.4,7-4,10.2-6.3c1.4-1,2.1-0.8,2.7,0.7
		c1.5,3.4,3.6,6.4,5.3,9.6c0.3,0.6,0.8,1.1,1.3,1.6c0.4,0.4,0.4,0.8,0.2,1.3C195.3,142.2,195,142.4,194.2,142.3z"/>
	<path d="M46.3,176.3c-4.4-0.2-8.7-0.3-13.1-0.5c-0.8,0-1.6-0.3-2.3-0.5c-0.4-0.1-0.7-0.3-0.9-0.7c-0.1-0.5,0.2-0.8,0.5-1
		c2.8-1.9,5.5-3.9,8-6.2c0.9-0.9,1.7-1.9,2.5-2.9c1.4-1.8,2.5-1.6,3.6,0.3c1.5,2.6,3.2,5.1,4.7,7.7c0.4,0.7,0.8,1.4,1,2.2
		c0.3,1.2,0.1,1.6-1.1,1.6C48.3,176.3,47.3,176.2,46.3,176.3C46.3,176.2,46.3,176.3,46.3,176.3z"/>
	<path d="M33.8,209.3c-0.9-0.3-2.2,0-1.8-1.6c0.1-0.2-0.2-0.5-0.3-0.8c-1.8-3.3-3.3-6.7-5-10c-0.6-1.2,0-1.8,1.4-1.7
		c3.5,0.4,6.9,1.5,10.4,2.1c1.6,0.3,3.2,0.7,4.8,1c1.4,0.3,1.8,1.3,0.9,2.5c-1,1.3-2.4,2.3-3.6,3.4c-1.4,1.3-3,2.3-4.4,3.7
		C35.5,208.7,34.6,209,33.8,209.3z"/>
	<path d="M54.6,184.5c-0.2,2-0.9,3.9-1.1,6c-0.1,1.1-0.3,2.2-0.4,3.3c-0.2,1.4-0.7,1.9-2.1,1.5c-3-0.8-6-0.9-8.9-2.2
		c-1.6-0.7-3.3-0.6-5-0.8c-0.6-0.1-1.2-0.1-1.4-0.8c-0.2-0.7,0.4-0.9,0.9-1.1c3.7-1.9,7.4-3.9,11.1-5.8c1.4-0.7,2.9-1.2,4.3-2
		c0.5-0.3,1.1-0.6,1.8-0.2c0.7,0.4,0.7,1,0.7,1.6C54.6,184.2,54.6,184.4,54.6,184.5z"/>
	<path d="M37.8,211.1c2.2,0.4,4.3,0.7,6.5,0.8c1.1,0.1,2.2,0.2,3.3,0.1c1.3-0.1,2.6,0.2,3.9,0.1c1.8,0,1.9,0.7,1.2,2
		c-0.8,1.5-1.7,2.9-2.6,4.4c-0.7,1.3-1.3,2.7-1.4,4.2c0,0.5-0.3,0.9-0.6,1.3c-0.7,1-1.7,0.9-2.5,0c-2.2-2.6-4.5-5.1-6.8-7.6
		c-0.9-1.1-1.9-2.1-2.8-3.2c-0.3-0.4-0.8-0.8-0.5-1.4c0.3-0.6,0.9-0.6,1.5-0.7C37.3,211.1,37.5,211.1,37.8,211.1z"/>
	<path d="M126.7,21.1c0-0.6,0.2-1,0.4-1.3c1.1-2.1,2.1-4.3,3-6.5c0.3-0.7,0.6-0.9,1.4-0.7c3.8,0.9,7.7,0.8,11.6,1.3
		c2.5,0.3,5.1,0.3,7.6,0.6c0.9,0.1,1.4,0.7,1.4,1.6c0,0.9-0.7,1-1.4,1.1c-4.3,0.5-8.6,1.2-12.8,2.4c-2.5,0.7-4.9,1.2-7.4,1.7
		c-0.8,0.1-1.6,0.5-2.4,0.8C127,22.3,126.8,21.7,126.7,21.1z"/>
	<path d="M110.1,183.1c0-0.4,0-0.7,0-0.9c0.2-1.7,0.4-2.6,2.5-1.8c2.4,0.9,4.3,2.4,6.2,3.9c1.3,1,2.6,2,4.2,2.6
		c1.5,0.5,1.6,1.3,0.4,2.4c-1.9,1.7-4.2,2.7-6.4,4c-0.9,0.5-1.8,1.1-2.7,1.6c-1.2,0.6-1.6,0.4-2-0.8c-0.7-1.9-1-3.8-1.2-5.8
		c-0.1-1.3-0.9-2.4-1-3.7C110.2,184,110.1,183.4,110.1,183.1z"/>
	<path d="M135.7,121.1c0.1,1.1-0.5,1.5-1.4,1.4c-1.2-0.1-2.4-0.2-3.5-0.5c-2.7-0.7-5.3-0.4-7.9,0.1c-0.4,0.1-0.8,0.2-1.2,0.2
		c-1.4,0-2-0.8-1.5-2.1c0.8-1.9,2-3.5,3.4-4.8c1.4-1.3,2.6-2.8,4.1-3.9c0.7-0.5,1.5-1,2.3-1.4c0.6-0.3,1,0.1,1.2,0.6
		c0.4,1,0.9,2,1.3,3.1c0.5,1.8,1.4,3.4,2.4,4.9C135.4,119.4,135.6,120.2,135.7,121.1z"/>
	<path d="M112.8,131.4c-0.1-0.5,0-0.8,0.4-1c1.5-1,3.1-2,4.4-3.3c1.4-1.3,2.8-0.6,4.1,0.1c1.1,0.7,2.2,1.5,3.3,2.1
		c2.5,1.4,4.7,3.2,7,4.9c0.6,0.4,1,0.9,0.5,1.6c-0.4,0.7-1,1.1-1.9,0.8c-3.9-1.4-7.8-2.4-11.8-3.5c-1.8-0.5-3.6-0.8-5.4-1.1
		C113,132,112.6,131.9,112.8,131.4z"/>
	<path d="M197.6,219.4c-1.8-0.2-3.5-0.5-5.3-0.7c-2.5-0.4-5.1-0.3-7.6-0.9c-0.6-0.2-1.4-0.1-1.6-0.9c-0.2-0.9,0.4-1.4,1-1.8
		c2.5-1.8,5.3-3,7.9-4.6c0.6-0.4,1.3-0.3,1.6,0.3c0.9,2,2.4,3.4,3.8,5c0.6,0.7,0.9,1.5,1.2,2.3C198.9,218.9,198.5,219.4,197.6,219.4
		z"/>
	<path d="M90.6,151.1c0-2.2,0.9-2.9,2.4-2c3.3,1.9,6.7,3.9,9.6,6.4c0.9,0.8,0.7,1.6-0.4,2.1c-2.1,1-4.4,1-6.6,1.4
		c-0.7,0.1-1.3,0.3-2,0.4c-1.1,0.2-1.9-0.1-2-1.3C91.3,155.6,91,153.1,90.6,151.1z"/>
	<path d="M58.8,212.1c2.5,0.6,5,1.1,7.3,2.1c0.9,0.4,0.8,1,0.4,1.8c-0.8,1.5-2.2,2.1-3.6,2.7c-2.2,1-4.6,1.8-6.9,2.7
		c-0.8,0.3-1.4,0.1-2-0.5c-0.6-0.6-0.6-1.2-0.2-1.9c0.9-1.8,1.8-3.7,2.7-5.6C57,212.5,57.7,211.9,58.8,212.1z"/>
	<path d="M92.3,20.1c1.1,0,1.7,0.8,1.4,1.5c-1.1,2.4-2.1,4.8-3.3,7.1c-0.9,1.8-1.2,1.9-3.1,1.1c-2.1-0.8-4.1-1.7-6.2-2.5
		c-1-0.4-1.2-1.1-0.4-1.9c0.3-0.3,0.7-0.7,1.1-0.9c2.5-0.9,4.8-2.2,7.1-3.3C90.1,20.6,91.3,20.3,92.3,20.1z"/>
	<path d="M69,161.9c0.3-1.4,0.1-2.7,1.1-3.7c0.4-0.4,0.8-0.7,1.4-0.4c1.4,0.6,3,0.6,4.5,0.6c1.7,0,2,0.6,1.2,2.2
		c-0.8,1.7-1.9,3.3-2.9,4.9c-0.7,1.1-1.6,1.9-2.6,2.7c-1.1,0.8-1.8,0.4-2.1-0.9C69.1,165.4,69.5,163.6,69,161.9z"/>
	<path d="M88.6,162.7c-2.4,0.1-4.9-0.1-7.3,0.7c-0.4,0.1-0.8,0.2-1.2,0c-0.6-0.2-1.1-0.6-0.6-1.3c1.4-1.7,2.3-3.7,3.4-5.6
		c0.7-1.1,1.1-1.1,2.3-0.4c2.2,1.3,4.3,2.7,6.5,4c0.5,0.3,1,0.7,0.9,1.4c-0.2,0.7-0.7,1-1.4,1C90.4,162.6,89.5,162.4,88.6,162.7z"/>
	<path d="M151.6,192.8c0,0.6-0.1,1.2-0.3,1.8c-0.3,1-0.9,1.3-1.7,0.7c-2.7-1.9-5.6-3.6-8-5.8c-0.4-0.4-0.6-0.8-0.5-1.4
		c0.2-0.5,0.6-0.5,1.1-0.6c2.4-0.3,4.9-0.8,7.3-1c0.9,0,1.4,0.4,1.5,1.2C151.2,189.5,151.4,191.1,151.6,192.8z"/>
	<path d="M195.3,47.9c0.2-1,0.8-2,1.2-3.1c0.9-2.4,1.9-4.8,2.4-7.4c0.1-0.6,0.5-0.9,0.9-1.2c0.5-0.2,0.9,0.1,1.3,0.4
		c0.8,0.9,2,1.2,2.9,2c0.9,0.8,1,1.4,0.2,2.3c-2.4,2.5-4.5,5.3-7,7.7c-0.4,0.3-0.7,0.7-1.2,0.5C195.6,49.1,195.3,48.6,195.3,47.9z"
		/>
	<path d="M81.9,102.4c-0.2,0.9-0.4,2-0.8,3c-0.4,0.9-0.9,1.9-1.3,2.8c-0.3,0.6-0.4,1.4-1.2,1.5c-0.9,0.1-1.6-0.6-2-1.3
		c-0.6-1.2-1.4-2.2-2.4-3c-1.1-0.9-0.9-1.3,0.3-1.9c1.9-0.9,4-1.3,5.8-2.4C81.2,100.5,81.9,101.1,81.9,102.4z"/>
	<path d="M162.1,109.7c-0.6-0.2-1.2-0.1-1.7-0.2c-1.1-0.1-1.4-0.5-1.1-1.6c0.7-2,1.9-3.8,3.6-5.1c0.6-0.5,1.1-0.5,1.5,0.2
		c1.1,1.6,2,3.2,2.8,5c0.3,0.6,0.1,1.2-0.6,1.3C165.1,109.3,163.6,109.5,162.1,109.7z"/>
	<path d="M113,125.1c-1-0.1-1.8-0.2-2.1-1.2c-0.4-1.3-0.9-2.6-1.7-3.8c-0.2-0.3-0.2-0.6-0.3-0.9c-0.1-0.5-0.2-1,0.3-1.3
		c0.4-0.3,0.9-0.1,1.2,0.1c1.8,1.2,3.8,1.8,5.8,2.4c1.3,0.4,1.7,1.3,0.8,2.3C116.1,124.1,114.5,124.7,113,125.1z"/>
	<path d="M116.3,207.1c-0.7,0-1.1-0.4-1.1-0.9c-0.1-1.5-0.7-3-0.6-4.5c0.1-0.7,0.2-1.4,0.9-1.7c0.8-0.4,1.1,0.3,1.6,0.7
		c1.4,1.1,2.9,2.1,4.3,3.1c0.5,0.3,1.1,0.6,0.9,1.4c-0.1,0.7-0.8,0.9-1.4,0.9C119.4,206.3,117.7,206.5,116.3,207.1z"/>
	<path d="M82.8,48.4c-0.8,0.1-1.3-0.3-1.6-1c-0.3-0.6,0-1.2,0.5-1.6c1.3-1.1,2.1-2.6,3.3-3.8c0.7-0.7,1.1-0.6,1.6,0.2
		c0.8,1.5,1.5,3,2.2,4.5c0.4,0.9-0.1,1.3-0.9,1.4C86.1,48.2,84.4,47.9,82.8,48.4z"/>
</g>
</svg>
