<?xml version="1.0" encoding="utf-8"?>
<!-- Generator: Adobe Illustrator 22.0.1, SVG Export Plug-In . SVG Version: 6.00 Build 0)  -->
<svg version="1.1" id="RockOn" xmlns="http://www.w3.org/2000/svg" xmlns:xlink="http://www.w3.org/1999/xlink" x="0px" y="0px"
	 viewBox="0 0 216 216" style="enable-background:new 0 0 216 216;" xml:space="preserve">
<path style="stroke:#000000;stroke-miterlimit:10;" d="M107.6,163.6c0,0-20.2-10.5-25.1-22.6c0,0-13.3-18.1-22.3-21.5
	c0,0-4-2-6.9-9.9l-5-6.8L41,95.8c0,0,6.6-11.6,24.2,7.3c0,0,11.1,5.1,16.1,11.6c0,0,0-28.8,5.9-48.3c0,0,0.2-5.9,2.1-18.1
	c0,0,1.2-30,8.1-27.1c0,0,7.4-3.1,4,21.2l-0.2,14.7c0,0,1.4,13.3-0.2,23.2c0,0,2.1-12.7,9.2-12.7c0,0,6.2-1.4,7.6,6.2l1.2,4.8
	c0,0-0.5-7.1,2.4-7.1c0,0,4.5-2,7.1,1.4c0,0,4,1.4,5.2,6.5l4-17c0,0,2.6-28.8,10.2-26.3c0,0,5.2-4.2,1.2,18.6l-0.2,5.7
	c0,0,2.6,3.4,0,9.3l-1.2,26c0,0,3.3,27.7,3,42.7l5.8,25.1c0,0-20.4,17-42.5,14.7L107.6,163.6z"/>
</svg>
