<?xml version="1.0" standalone="no" ?>
<!DOCTYPE svg PUBLIC "-//W3C//DTD SVG 1.1//EN" "http://www.w3.org/Graphics/SVG/1.1/DTD/svg11.dtd">
<svg width="1024px" height="1024px" xmlns="http://www.w3.org/2000/svg" version="1.1" >
	<polygon points="630,186 629,187 628,187 627,188 613,188 612,189 611,189 608,192 600,192 599,193 598,193 595,196 587,196 586,197 585,197 584,198 580,198 579,197 577,197 576,196 574,196 573,195 567,195 565,193 560,193 559,192 555,192 554,191 549,191 548,190 537,190 536,189 515,189 514,190 509,190 508,189 500,189 499,190 496,190 495,191 493,191 492,192 491,192 490,193 463,193 462,192 449,192 448,193 445,193 444,194 432,194 431,195 429,195 428,196 427,196 426,197 425,197 424,198 423,198 422,199 421,199 420,200 419,200 417,202 416,202 415,203 414,203 412,205 411,205 409,207 408,207 401,214 401,215 400,216 400,218 395,223 393,223 392,224 390,224 388,226 387,226 386,227 386,228 383,231 383,232 380,235 380,236 378,238 378,239 377,240 376,240 375,241 374,241 373,242 372,242 371,243 370,243 370,244 368,246 368,247 367,248 367,249 366,250 366,251 365,252 365,253 364,254 364,255 363,256 363,257 362,258 362,259 361,260 361,262 360,263 360,265 359,266 359,278 360,279 360,286 362,288 362,290 363,291 363,293 364,294 364,297 365,298 365,300 366,301 366,307 367,308 367,310 368,311 368,312 367,313 367,316 368,317 368,321 369,322 369,329 368,330 368,339 367,340 367,345 366,346 366,347 364,349 364,350 363,351 363,353 362,354 362,360 353,369 351,369 350,370 345,370 344,371 340,371 339,372 336,372 335,373 332,373 331,374 329,374 328,375 326,375 325,376 323,376 322,377 320,377 319,378 317,378 316,379 315,379 314,380 313,380 312,381 310,381 309,382 301,382 300,383 299,383 298,384 297,384 295,386 294,386 292,388 290,388 289,389 285,389 284,390 282,390 269,403 266,403 265,404 263,404 261,406 261,407 258,410 258,411 256,413 256,414 254,416 254,417 253,418 252,418 251,419 250,419 249,420 247,420 246,421 246,422 245,423 245,424 244,425 244,426 243,427 243,428 242,429 242,430 241,431 241,432 240,433 238,433 237,434 236,434 236,435 235,436 235,438 234,439 234,441 233,442 233,443 232,444 231,444 230,445 229,445 228,446 228,447 227,448 227,451 226,452 226,453 224,455 223,455 222,456 222,457 221,458 221,462 219,464 218,464 217,465 217,466 216,467 216,472 215,473 214,473 213,474 213,475 212,476 212,481 211,482 210,482 209,483 209,484 208,485 208,491 207,492 206,492 206,493 205,494 205,505 204,506 204,508 203,509 203,520 204,521 204,524 205,525 205,528 206,529 206,531 207,532 207,534 208,535 208,537 209,538 209,540 210,541 210,542 211,543 211,545 212,546 212,547 213,548 213,550 214,551 214,552 215,553 215,554 218,557 219,557 221,559 222,559 224,561 224,562 226,564 226,565 228,567 228,568 230,570 230,571 233,574 233,575 236,578 236,579 241,584 241,585 243,587 244,587 246,589 248,589 249,590 252,590 257,595 257,596 258,597 258,598 261,601 263,601 264,602 265,602 267,604 267,605 269,607 269,608 271,610 271,611 272,611 273,612 276,612 281,617 281,618 284,621 284,622 285,622 286,623 290,623 304,637 305,637 306,638 307,638 308,639 313,639 315,641 316,641 319,644 320,644 322,646 323,646 325,648 326,648 327,649 328,649 330,651 331,651 332,652 334,652 335,653 338,653 343,658 343,659 347,663 348,663 349,664 351,664 354,667 354,668 356,670 356,671 358,673 358,674 359,674 360,675 361,675 362,676 364,676 369,681 369,682 374,687 374,688 391,705 392,705 394,707 394,708 395,709 395,711 396,712 396,713 397,714 397,715 399,717 400,717 403,720 403,723 404,724 404,725 407,728 408,728 409,729 409,730 410,731 410,737 411,738 411,740 412,741 412,743 414,745 414,746 415,747 415,748 417,750 417,751 418,752 418,753 419,754 419,759 420,760 420,761 421,762 421,763 423,765 423,766 438,781 439,781 442,784 443,784 446,787 447,787 448,788 454,788 455,789 457,789 458,790 459,790 460,791 464,791 465,792 475,792 476,793 489,793 490,792 495,792 496,791 503,791 504,790 511,790 512,789 514,789 516,787 522,787 523,786 524,786 527,783 534,783 535,782 536,782 539,779 549,779 550,778 551,778 552,777 552,776 553,775 561,775 563,777 571,777 572,778 573,778 574,779 576,779 579,782 582,782 593,793 593,794 595,796 595,797 598,800 598,801 600,803 600,804 601,805 602,805 605,808 606,808 609,811 614,811 615,812 620,812 621,813 624,813 625,812 630,812 631,811 633,811 634,810 636,810 637,809 638,809 639,808 641,808 642,807 643,807 644,806 646,806 647,805 648,805 649,804 650,804 651,803 653,803 654,802 655,802 656,801 657,801 658,800 659,800 660,799 661,799 662,798 663,798 664,797 665,797 666,796 667,796 668,795 669,795 670,794 671,794 672,793 673,793 675,791 675,789 676,788 676,787 678,785 679,785 680,784 681,784 683,782 684,782 685,781 686,781 688,779 689,779 690,778 691,778 693,776 694,776 696,774 697,774 699,772 700,772 702,770 703,770 705,768 706,768 709,765 709,762 710,761 710,760 713,757 714,757 717,754 718,754 721,751 721,750 722,749 722,745 727,740 727,739 728,738 728,735 729,734 729,731 731,729 731,725 732,724 732,719 733,718 733,712 734,711 734,700 733,699 733,691 732,690 732,682 731,681 731,673 730,672 730,662 731,661 731,652 733,650 734,650 734,649 735,648 735,645 736,644 737,644 738,643 738,642 739,641 739,640 740,639 741,639 742,638 742,637 743,636 743,635 746,632 746,631 749,628 749,626 752,623 752,621 753,620 753,619 755,617 755,613 756,612 756,611 757,610 757,609 758,608 758,602 759,601 759,600 760,599 760,587 759,586 759,571 758,570 758,566 757,565 757,563 756,562 756,561 755,560 755,558 753,556 753,547 752,546 752,544 750,542 750,541 749,540 749,535 748,534 748,533 747,532 747,531 744,528 744,524 743,523 743,522 742,521 742,520 740,518 740,517 739,516 739,513 738,512 738,511 737,510 737,509 735,507 735,505 734,504 734,502 733,501 733,500 732,499 732,498 730,496 730,495 729,494 729,490 728,489 728,488 727,487 727,486 725,484 725,483 724,482 724,475 723,474 723,468 722,467 722,465 721,464 721,461 722,460 722,459 723,458 723,457 724,456 724,455 725,454 725,444 726,443 727,443 730,440 730,439 731,438 731,434 733,432 734,432 735,431 735,430 736,429 736,422 737,421 738,421 739,420 739,419 740,418 740,379 739,378 739,377 737,375 737,368 736,367 736,366 735,365 734,365 733,364 733,358 732,357 732,356 729,353 729,347 728,346 728,345 725,342 725,333 724,332 724,331 723,330 723,329 721,327 721,326 720,325 720,322 719,321 719,317 718,316 718,301 717,300 717,254 716,253 716,247 715,246 715,242 714,241 714,238 713,237 713,236 712,235 712,230 708,226 708,225 707,224 707,221 706,220 706,219 705,219 702,216 701,216 699,214 699,211 698,210 698,209 696,207 695,207 694,206 693,206 691,204 690,204 689,203 688,203 687,202 686,202 684,200 683,200 682,199 681,199 680,198 678,198 677,197 676,197 675,196 674,196 673,195 671,195 670,194 668,194 667,193 666,193 665,192 663,192 662,191 660,191 659,190 656,190 655,189 653,189 652,188 649,188 648,187 644,187 643,186 " fill="none" stroke-width="1" stroke="rgb(0,0,0)" />
</svg>
