<?xml version="1.0" standalone="no" ?>
<!DOCTYPE svg PUBLIC "-//W3C//DTD SVG 1.1//EN" "http://www.w3.org/Graphics/SVG/1.1/DTD/svg11.dtd">
<svg width="1024px" height="1024px" xmlns="http://www.w3.org/2000/svg" version="1.1" >
	<polygon points="480,197 479,198 477,198 474,201 465,201 464,202 460,202 459,203 458,203 457,204 457,206 456,207 455,207 454,208 452,208 451,209 450,209 449,210 449,212 447,214 446,214 445,215 444,215 443,216 443,218 442,219 442,220 441,221 440,221 439,222 439,223 438,224 438,225 437,226 437,227 436,228 435,228 435,229 434,230 434,232 433,233 433,234 432,235 431,235 430,236 430,237 429,238 429,241 427,243 427,244 426,245 426,247 425,248 425,250 420,255 420,256 419,257 419,262 418,263 418,265 417,266 417,267 415,269 415,270 414,271 414,272 412,274 412,275 411,276 411,277 410,278 410,279 408,281 406,281 403,284 403,286 402,287 402,288 400,290 399,290 398,291 397,291 397,292 396,293 396,294 394,296 393,296 392,297 391,297 391,298 390,299 390,301 389,302 388,302 387,303 386,303 385,304 385,305 382,308 381,308 380,309 380,310 379,311 379,312 378,313 376,313 375,314 375,315 374,316 374,319 373,320 371,320 370,321 370,322 369,323 369,329 368,330 368,339 367,340 367,354 366,355 366,363 367,364 367,365 369,367 369,377 371,379 371,380 370,381 365,381 364,380 364,379 362,377 351,377 350,376 347,376 346,375 343,375 342,376 333,376 332,375 329,375 328,376 322,376 321,377 311,377 310,378 308,378 307,379 306,379 305,380 304,380 303,381 302,381 300,383 299,383 298,384 297,384 295,386 294,386 291,389 290,389 287,392 286,392 268,410 268,411 265,414 265,415 264,416 264,420 263,421 263,425 261,427 261,428 260,429 260,432 259,433 259,442 258,443 258,462 259,463 259,467 260,468 260,477 261,478 261,479 264,482 264,495 265,496 265,497 266,498 266,499 269,502 269,516 270,517 270,520 271,521 271,522 272,523 272,525 273,526 273,530 274,531 274,536 275,537 275,539 276,540 276,545 277,546 277,547 279,549 279,554 280,555 280,556 282,558 282,563 283,564 283,565 285,567 285,568 286,569 286,573 287,574 287,575 288,576 288,582 289,583 289,587 290,588 290,589 292,591 292,592 294,594 294,595 296,597 296,598 298,600 298,602 299,603 299,605 300,606 300,607 301,608 301,609 303,611 303,612 305,614 305,615 308,618 308,619 310,621 311,621 315,625 316,625 318,627 319,627 321,629 322,629 324,631 325,631 326,632 327,632 328,633 330,633 331,634 333,634 334,635 335,635 336,636 337,636 338,637 339,637 348,646 349,646 350,647 351,647 352,648 355,648 358,651 358,652 360,654 360,655 361,656 361,657 363,659 363,660 365,662 365,663 367,665 367,666 370,669 370,670 373,673 373,674 375,676 375,679 376,680 376,683 377,684 377,685 381,689 381,692 382,693 382,695 383,696 383,697 388,702 388,704 389,705 389,707 390,708 390,709 393,712 394,712 399,717 400,717 403,720 404,720 407,723 408,723 411,726 412,726 414,728 414,729 415,730 415,731 416,732 416,733 417,734 417,735 419,737 420,737 421,738 423,738 425,740 425,741 427,743 427,744 430,747 431,747 432,748 435,748 436,749 436,750 439,753 439,754 440,755 441,755 442,756 443,756 444,757 448,757 454,763 455,763 456,764 458,764 459,765 464,765 465,766 466,766 468,768 469,768 471,770 480,770 481,771 483,771 484,772 502,772 503,773 506,773 507,772 511,772 512,771 529,771 531,769 531,768 532,767 540,767 541,768 541,769 543,771 564,771 565,770 571,770 572,769 578,769 579,770 589,770 590,769 594,769 595,768 597,768 598,767 601,767 602,766 604,766 605,765 607,765 608,764 610,764 611,763 613,763 614,762 616,762 617,761 619,761 620,760 631,760 632,759 633,759 634,758 635,758 636,757 637,757 638,756 639,756 640,755 641,755 642,754 643,754 644,753 645,753 646,752 647,752 648,751 649,751 650,750 651,750 652,749 653,749 654,748 655,748 656,747 657,747 658,746 659,746 661,744 662,744 663,743 664,743 666,741 667,741 668,740 669,740 671,738 672,738 674,736 675,736 677,734 678,734 681,731 682,731 685,728 686,728 689,725 690,725 693,722 694,722 704,712 704,711 707,708 707,707 710,704 710,703 712,701 712,700 714,698 714,697 715,696 715,695 716,694 716,693 717,692 717,691 718,690 718,689 719,688 719,687 720,686 720,684 721,683 721,682 722,681 722,679 723,678 723,675 724,674 724,672 725,671 725,668 726,667 726,662 727,661 727,643 726,642 726,641 725,640 725,639 723,637 723,625 722,624 722,623 720,621 719,621 718,620 718,619 717,618 717,615 716,614 716,610 715,609 715,606 714,605 714,602 713,601 713,597 712,596 712,593 711,592 711,586 712,585 712,577 711,576 711,573 712,572 712,571 713,570 713,534 712,533 712,525 711,524 711,523 708,520 708,519 707,518 707,514 706,513 706,512 705,511 704,511 703,510 703,508 702,507 702,506 700,504 699,504 698,503 698,501 697,500 697,499 696,498 695,498 693,496 693,494 692,493 692,492 691,491 690,491 689,490 689,488 688,487 688,486 687,485 686,485 684,483 684,481 683,480 683,479 682,478 681,478 679,476 679,473 678,472 678,471 676,469 676,466 675,465 675,461 672,458 672,451 673,450 673,436 674,435 674,434 677,431 678,431 678,430 679,429 679,428 680,427 680,426 683,423 683,422 684,421 684,420 685,419 686,419 687,418 687,417 689,415 690,415 691,414 691,413 693,411 694,411 697,408 698,408 701,405 702,405 703,404 703,403 705,401 706,401 710,397 710,396 711,395 712,395 713,394 714,394 715,393 715,392 717,390 718,390 719,389 719,388 720,387 720,386 722,384 723,384 724,383 724,382 725,381 725,376 728,373 728,372 729,371 729,342 728,341 728,339 726,337 726,336 725,335 725,327 724,326 724,325 723,324 723,323 719,319 719,317 718,316 718,314 717,313 717,312 716,311 716,310 715,309 714,309 711,306 711,305 710,304 710,302 709,301 709,299 705,295 704,295 700,291 700,290 699,289 699,288 697,286 697,285 695,283 695,282 692,279 692,278 684,270 684,269 678,263 677,263 674,260 673,260 670,257 669,257 667,255 666,255 664,253 663,253 662,252 661,252 660,251 659,251 658,250 657,250 656,249 656,247 655,246 655,245 653,243 651,243 650,242 648,242 647,241 645,241 644,240 642,240 641,239 638,239 637,238 634,238 633,237 628,237 627,236 614,236 613,237 612,237 612,238 610,240 594,240 593,241 592,241 592,242 590,244 585,244 584,245 580,245 579,246 578,246 578,247 577,248 577,249 575,251 573,251 572,252 571,252 567,248 567,247 563,243 563,242 559,238 558,238 556,236 556,234 555,233 555,231 554,230 554,229 553,229 551,227 550,227 548,225 547,225 545,223 544,223 542,221 541,221 539,219 539,217 535,213 534,213 533,212 531,212 530,211 529,211 528,210 526,210 523,207 523,206 521,204 519,204 518,203 515,203 514,202 509,202 508,201 503,201 502,200 501,200 499,198 497,198 496,197 " fill="none" stroke-width="1" stroke="rgb(0,0,0)" />
</svg>
