<?xml version="1.0" standalone="no" ?>
<!DOCTYPE svg PUBLIC "-//W3C//DTD SVG 1.1//EN" "http://www.w3.org/Graphics/SVG/1.1/DTD/svg11.dtd">
<svg width="1024px" height="1024px" xmlns="http://www.w3.org/2000/svg" version="1.1" >
	<polygon points="540,18 539,19 537,19 536,20 533,20 532,19 529,19 528,20 524,20 523,21 522,21 521,22 513,22 512,23 511,23 510,24 509,24 508,25 501,25 500,26 499,26 498,27 497,27 495,29 486,29 485,30 484,30 483,31 482,31 480,33 466,33 465,34 463,34 462,35 460,35 459,36 456,36 455,37 451,37 450,38 443,38 442,37 427,37 426,38 422,38 421,39 416,39 415,38 407,38 406,39 402,39 401,40 399,40 398,41 396,41 395,42 393,42 392,43 390,43 389,44 387,44 386,45 384,45 383,46 381,46 380,47 379,47 378,48 376,48 375,49 374,49 373,50 371,50 370,51 369,51 368,52 367,52 366,53 364,53 363,54 362,54 361,55 360,55 357,58 357,60 354,63 353,63 352,64 351,64 350,65 350,66 349,67 349,69 346,72 345,72 344,73 344,74 343,75 343,77 338,82 338,85 335,88 334,88 331,91 331,94 330,95 330,96 329,97 328,97 325,100 324,100 321,103 320,103 317,106 316,106 311,111 310,111 305,116 301,116 300,117 298,117 294,121 289,121 288,122 287,122 285,124 284,124 283,125 280,125 279,126 278,126 277,127 273,127 272,128 271,128 270,129 269,129 268,130 265,130 264,131 263,131 262,132 259,132 258,133 257,133 255,135 251,135 248,138 247,138 246,139 243,139 239,143 238,143 237,144 235,144 232,147 232,148 231,149 228,149 227,150 226,150 224,152 224,153 222,155 222,156 219,159 216,159 214,161 214,162 213,163 213,164 212,165 212,166 211,167 211,168 209,170 209,171 208,172 208,173 207,174 207,175 206,176 206,177 205,178 205,179 204,180 204,182 203,183 203,184 202,185 202,186 201,187 201,192 200,193 200,201 199,202 199,227 200,228 200,237 201,238 201,241 200,242 200,246 199,247 199,248 198,249 197,249 195,251 194,251 193,252 193,254 192,255 192,257 187,262 186,262 182,266 181,266 175,272 174,272 157,289 156,289 154,291 153,291 151,293 150,293 147,296 146,296 136,306 136,307 133,310 133,311 130,314 130,315 127,318 127,319 125,321 125,322 123,324 123,325 115,333 114,333 110,337 110,338 108,340 108,341 107,342 107,343 103,347 102,347 100,349 99,349 99,350 97,352 97,353 96,354 96,355 95,356 94,356 93,357 92,357 89,360 89,361 86,364 85,364 81,368 81,369 80,370 79,370 78,371 77,371 75,373 75,374 74,375 74,376 73,377 72,377 71,378 70,378 68,380 68,382 65,385 64,385 62,387 62,388 61,389 61,391 60,392 60,394 59,395 59,396 53,402 53,404 52,405 52,409 51,410 51,425 52,426 52,429 51,430 51,443 52,444 52,445 53,446 53,457 54,458 54,459 55,460 55,461 56,462 56,472 57,473 57,474 58,475 58,476 60,478 60,488 61,489 61,490 62,491 62,492 64,494 64,505 65,506 65,507 66,508 66,509 69,512 69,520 70,521 70,524 71,525 71,526 72,527 72,528 73,529 74,529 75,530 75,533 76,534 76,539 77,540 77,542 78,543 78,544 80,546 81,546 83,548 83,552 84,553 84,555 85,556 85,558 88,561 89,561 91,563 91,565 92,566 92,568 93,569 93,571 94,572 94,574 97,577 98,577 101,580 101,582 102,583 102,585 103,586 103,587 104,588 104,590 105,591 105,592 106,593 106,594 107,595 107,597 108,598 108,599 109,600 109,601 110,602 110,603 111,604 111,605 112,606 112,607 113,608 113,609 114,610 114,611 115,612 115,613 116,614 116,615 118,617 118,618 119,619 119,620 121,622 121,623 122,624 122,625 124,627 124,628 126,630 126,631 127,632 127,633 129,635 129,636 132,639 132,640 134,642 134,643 137,646 137,647 140,650 140,653 141,654 141,657 142,658 142,659 143,660 143,661 148,666 148,667 149,668 149,672 150,673 150,674 151,675 151,676 153,678 153,679 154,680 154,687 155,688 155,689 156,690 156,691 158,693 158,699 159,700 159,701 160,702 160,703 161,704 161,707 162,708 162,712 163,713 163,714 164,715 164,716 165,717 165,722 166,723 166,724 169,727 169,732 170,733 170,734 171,735 171,736 175,740 175,742 176,743 176,746 177,747 177,748 188,759 189,759 197,767 198,767 199,768 200,768 201,769 204,769 205,770 208,770 211,773 212,773 214,775 215,775 216,776 217,776 218,777 220,777 224,781 225,781 226,782 229,782 233,786 234,786 235,787 238,787 243,792 245,792 246,793 248,793 252,797 253,797 254,798 255,798 256,799 258,799 259,800 260,800 283,823 284,823 296,835 296,836 297,837 297,838 298,839 298,840 299,841 299,843 300,844 300,847 301,848 301,849 302,850 302,851 304,853 304,854 307,857 307,858 313,864 313,865 323,875 323,876 326,879 327,879 329,881 331,881 332,882 334,882 335,883 336,883 337,884 338,884 344,890 345,890 349,894 350,894 352,896 354,896 355,897 357,897 358,898 359,898 360,899 362,899 363,900 364,900 366,902 367,902 369,904 370,904 372,906 373,906 375,908 376,908 383,915 383,916 387,920 388,920 389,921 390,921 392,923 393,923 395,925 395,926 396,927 396,928 399,931 400,931 403,934 403,935 407,939 408,939 409,940 409,941 410,942 410,943 413,946 414,946 416,948 416,949 417,950 417,951 418,952 419,952 420,953 422,953 424,955 424,957 426,959 427,959 428,960 430,960 431,961 432,961 436,965 436,966 437,966 438,967 439,967 440,968 442,968 443,969 446,969 447,970 449,970 450,971 454,971 455,972 458,972 459,973 463,973 464,974 476,974 477,973 479,973 480,972 491,972 492,971 493,971 494,970 500,970 501,969 502,969 503,968 504,968 505,967 508,967 509,966 511,966 512,965 513,965 515,963 519,963 520,962 521,962 522,961 523,961 525,959 528,959 529,958 530,958 531,957 532,957 534,955 539,955 540,954 541,954 542,953 543,953 545,951 551,951 552,950 553,950 554,949 555,949 557,947 573,947 574,946 584,946 585,945 588,945 589,946 590,946 591,947 597,947 599,949 603,949 604,950 606,950 607,951 608,951 609,952 612,952 614,954 618,954 619,955 620,955 621,956 622,956 623,957 627,957 628,958 629,958 630,959 636,959 637,960 640,960 641,961 649,961 650,960 657,960 658,961 661,961 662,960 667,960 668,959 670,959 671,958 673,958 674,957 676,957 677,956 679,956 680,955 682,955 683,954 685,954 686,953 687,953 688,952 690,952 691,951 691,949 695,945 697,945 698,944 699,944 700,943 702,943 703,942 703,940 704,939 704,938 705,937 706,937 707,936 708,936 709,935 709,933 710,932 710,931 711,930 712,930 713,929 714,929 715,928 715,926 716,925 716,924 718,922 718,920 719,919 719,918 721,916 722,916 724,914 724,913 725,912 725,911 728,908 729,908 730,907 731,907 733,905 733,904 734,903 734,902 737,899 738,899 740,897 741,897 742,896 743,896 744,895 745,895 747,893 748,893 749,892 750,892 752,890 754,890 755,889 760,889 761,888 764,888 766,886 767,886 769,884 770,884 772,882 773,882 775,880 776,880 778,878 779,878 781,876 782,876 783,875 786,875 787,874 791,874 793,872 794,872 797,869 798,869 801,866 807,866 808,865 809,865 810,864 811,864 816,859 821,859 822,858 823,858 824,857 825,857 829,853 832,853 833,852 835,852 836,851 837,851 837,850 839,848 841,848 842,847 845,847 846,846 847,846 850,843 851,843 852,842 855,842 861,836 865,836 869,832 869,831 873,827 875,827 876,826 878,826 880,824 880,823 882,821 882,820 884,818 884,817 886,815 886,814 888,812 888,811 889,810 889,809 891,807 891,806 893,804 893,803 894,802 894,801 895,800 895,799 897,797 897,796 899,794 901,794 902,793 903,793 904,792 904,791 905,790 905,789 906,788 906,787 907,786 907,785 908,784 908,783 909,782 909,781 910,780 910,779 911,778 911,777 912,776 912,775 913,774 913,772 914,771 915,771 916,770 918,770 919,769 919,768 920,767 920,766 921,765 921,763 922,762 922,761 923,760 923,758 924,757 924,755 926,753 927,753 928,752 929,752 930,751 930,750 931,749 931,747 932,746 932,744 933,743 933,741 934,740 934,738 935,737 935,734 936,733 936,731 937,730 937,717 936,716 936,711 935,710 935,707 933,705 933,704 932,703 932,701 929,698 929,697 926,694 926,693 925,692 924,692 923,691 923,690 922,689 921,689 920,688 919,688 918,687 917,687 913,683 912,683 911,682 910,682 908,680 908,679 907,678 906,678 904,676 903,676 900,673 899,673 898,672 898,671 897,670 897,668 896,668 894,666 894,665 893,664 893,663 892,663 891,662 891,645 892,644 893,644 894,643 894,642 895,641 895,639 896,638 897,638 898,637 898,636 901,633 902,633 902,632 904,630 905,630 909,626 910,626 910,625 916,619 917,619 917,618 919,616 920,616 921,615 921,614 924,611 924,610 926,608 927,608 928,607 928,605 929,604 929,603 931,601 931,599 932,598 932,597 934,595 934,593 935,592 935,586 936,585 936,584 937,583 937,572 936,571 936,568 935,567 935,563 934,562 934,559 933,558 933,554 932,553 932,550 931,549 931,546 930,545 930,541 929,540 929,538 927,536 927,535 925,533 925,528 924,527 924,526 923,525 923,524 920,521 920,517 919,516 919,515 918,514 918,513 917,513 916,512 916,508 915,507 915,506 914,505 914,504 913,503 912,503 911,502 911,497 910,496 910,495 909,494 909,493 908,493 906,491 906,485 905,484 905,482 903,480 903,479 901,477 901,475 900,474 900,452 901,451 901,446 902,445 902,442 903,441 903,438 904,437 904,414 906,412 906,411 907,410 907,408 908,407 908,395 909,394 909,388 912,385 912,384 913,383 913,369 914,368 915,368 916,367 916,366 917,365 917,353 919,351 920,351 920,350 921,349 921,317 920,316 920,307 919,306 919,299 917,297 916,297 914,295 914,293 913,292 913,291 912,290 911,290 908,287 908,283 906,281 905,281 903,279 903,278 902,277 902,274 900,272 899,272 896,269 896,228 895,227 895,219 894,218 894,213 893,212 893,211 892,210 892,209 891,208 891,207 890,206 890,205 889,204 889,202 888,201 888,200 886,198 886,197 885,196 885,195 884,194 884,193 883,192 883,191 882,190 882,189 880,187 880,186 879,185 879,184 878,183 878,182 876,180 876,179 874,177 874,176 873,175 873,174 871,172 871,171 869,169 869,168 867,166 867,165 865,163 864,163 863,162 860,162 857,159 857,158 854,155 853,155 852,154 849,154 846,151 846,150 844,150 843,149 840,149 839,148 837,148 836,147 833,147 832,146 830,146 829,145 826,145 825,144 824,144 823,143 820,143 819,142 816,142 815,141 812,141 811,140 810,140 808,138 807,138 806,137 803,137 802,136 799,136 792,129 791,129 789,127 788,127 787,126 786,126 778,118 777,118 774,115 773,115 771,113 770,113 767,110 767,108 766,107 766,106 765,105 765,104 764,104 762,102 761,102 759,100 759,98 758,97 758,96 755,93 754,93 753,92 753,90 752,89 752,88 750,86 749,86 747,84 747,82 746,81 746,80 744,78 743,78 741,76 741,75 740,74 740,73 738,71 737,71 736,70 735,70 734,69 734,68 733,67 733,66 730,63 729,63 728,62 726,62 725,61 725,60 724,59 724,58 721,55 719,55 718,54 717,54 716,53 714,53 713,52 712,52 707,47 706,47 704,45 702,45 701,44 699,44 698,43 695,43 694,42 691,42 690,41 688,41 687,40 672,40 671,41 669,41 668,40 662,40 661,39 653,39 652,40 650,40 649,41 633,41 632,42 631,41 629,41 628,40 627,40 626,39 625,39 624,38 623,38 622,37 620,37 619,36 618,36 617,35 616,35 615,34 614,34 613,33 611,33 610,32 609,32 608,31 607,31 606,30 604,30 603,29 602,29 601,28 599,28 598,27 596,27 595,26 593,26 592,25 590,25 589,24 587,24 586,23 584,23 583,22 581,22 580,21 578,21 577,20 574,20 573,19 554,19 553,18 " fill="none" stroke-width="1" stroke="rgb(0,0,0)" />
</svg>
