<?xml version="1.0" standalone="no" ?>
<!DOCTYPE svg PUBLIC "-//W3C//DTD SVG 1.1//EN" "http://www.w3.org/Graphics/SVG/1.1/DTD/svg11.dtd">
<svg width="1024px" height="1024px" xmlns="http://www.w3.org/2000/svg" version="1.1" >
	<polygon points="469,29 468,30 467,30 466,31 465,31 463,33 456,33 455,34 454,34 453,35 452,35 449,38 446,38 445,39 444,39 443,40 442,40 442,41 440,43 439,43 438,44 436,44 431,49 430,49 429,50 428,50 426,52 426,53 425,54 424,54 423,55 422,55 421,56 421,57 420,58 420,59 419,60 418,60 416,62 416,63 413,66 412,66 411,67 411,68 410,69 410,70 409,71 408,71 407,72 407,73 406,74 406,75 404,77 403,77 402,78 402,79 401,80 401,81 400,82 399,82 397,84 397,85 396,86 396,87 394,89 392,89 390,91 390,93 387,96 386,96 385,97 384,97 383,98 381,98 380,99 379,99 378,100 377,100 376,101 375,101 374,102 373,102 371,104 370,104 369,105 362,105 361,106 357,106 356,107 342,107 341,108 332,108 331,109 325,109 324,110 318,110 317,111 313,111 312,112 310,112 309,113 306,113 305,114 302,114 301,115 300,115 298,117 295,117 294,118 292,118 291,119 290,119 284,125 281,125 280,126 279,126 278,127 277,127 275,129 275,130 270,135 270,136 267,139 267,140 264,143 264,144 261,147 261,148 259,150 259,151 256,154 256,155 254,157 254,158 252,160 252,161 251,162 251,163 249,165 249,166 247,168 247,169 246,170 246,171 244,173 244,174 243,175 243,176 241,178 241,179 240,180 240,181 239,182 239,183 238,184 238,185 237,186 237,187 236,188 236,189 235,190 235,199 234,200 234,202 233,203 233,205 232,206 232,211 231,212 231,221 230,222 230,235 229,236 229,261 226,264 225,264 224,265 223,265 222,266 216,266 215,267 213,267 212,268 209,268 208,269 202,269 201,270 196,270 195,271 192,271 191,272 187,272 186,273 185,273 183,275 178,275 177,276 176,276 172,280 171,280 170,281 166,281 165,282 164,282 148,298 148,299 146,301 146,302 145,303 145,308 143,310 143,311 141,313 141,319 140,320 140,325 139,326 139,334 138,335 138,372 137,373 137,381 136,382 136,393 135,394 135,396 134,397 134,399 133,400 133,415 132,416 132,419 131,420 131,422 130,423 130,426 129,427 129,439 130,440 130,448 129,449 129,457 128,458 128,473 126,475 126,476 125,477 125,478 124,479 124,489 121,492 121,493 120,494 120,498 118,500 118,501 117,502 117,506 115,508 115,509 114,510 114,512 113,513 112,513 112,514 111,515 111,517 109,519 109,520 108,521 108,523 106,525 106,526 105,527 105,530 103,532 103,533 102,534 102,536 100,538 100,540 99,541 99,544 98,545 98,547 97,548 97,558 96,559 96,567 97,568 97,571 98,572 98,574 99,575 99,577 100,578 100,579 101,580 101,582 102,583 102,585 103,586 103,587 104,588 104,590 107,593 108,593 109,594 110,594 111,595 111,596 112,597 112,598 113,599 113,600 114,601 114,602 116,604 117,604 118,605 120,605 121,606 121,607 122,608 122,609 123,610 123,611 125,613 126,613 127,614 129,614 132,617 132,618 133,619 133,620 134,621 135,621 136,622 138,622 139,623 140,623 141,624 141,625 143,627 143,628 145,630 148,630 149,631 150,631 153,634 153,635 156,638 159,638 160,639 161,639 167,645 170,645 171,646 172,646 176,650 177,650 178,651 181,651 182,652 183,652 185,654 185,655 187,657 190,657 191,658 192,658 193,659 193,660 196,663 199,663 200,664 201,664 202,665 202,666 204,668 205,668 206,669 209,669 213,673 213,674 215,676 216,676 217,677 220,677 229,686 229,687 242,700 243,700 247,704 247,707 248,708 248,710 251,713 251,716 252,717 252,718 253,719 253,720 254,721 254,723 255,724 255,727 256,728 256,729 255,730 255,742 254,743 254,767 255,768 255,772 256,773 256,777 257,778 257,779 259,781 259,783 260,784 260,787 261,788 261,789 266,794 266,795 273,802 273,804 274,805 274,807 276,809 276,810 286,820 287,820 289,822 290,822 292,824 293,824 295,826 296,826 297,827 299,827 302,830 302,831 305,834 305,835 307,837 307,838 310,841 310,842 311,842 312,843 313,843 314,844 316,844 322,850 322,851 329,858 329,859 331,861 332,861 334,863 335,863 336,864 338,864 339,865 341,865 351,875 352,875 357,880 358,880 362,884 362,887 363,888 363,889 366,892 367,892 370,895 371,895 373,897 374,897 376,899 377,899 379,901 380,901 382,903 383,903 385,905 386,905 387,906 388,906 390,908 391,908 392,909 393,909 394,910 395,910 397,912 398,912 401,915 401,916 402,917 402,918 404,920 405,920 406,921 407,921 408,922 409,922 410,923 411,923 412,924 414,924 415,925 416,925 417,926 418,926 419,927 421,927 424,930 424,931 425,932 425,933 426,934 428,934 429,935 431,935 432,936 434,936 437,939 437,941 438,942 439,942 440,943 442,943 443,944 445,944 446,945 448,945 450,947 450,949 451,950 452,950 453,951 456,951 457,952 460,952 461,953 465,953 466,954 469,954 470,955 471,955 472,956 473,956 475,958 477,958 478,959 494,959 495,958 498,958 499,959 517,959 518,958 519,958 520,957 520,956 521,955 531,955 532,954 533,954 534,953 534,952 535,951 543,951 544,950 545,950 546,949 546,948 547,947 556,947 557,946 558,946 559,945 559,944 560,943 571,943 572,942 573,942 574,941 574,940 576,938 583,938 584,937 590,937 591,936 592,936 594,934 594,933 595,932 597,932 598,931 603,931 604,930 608,930 609,929 611,929 612,928 613,928 614,927 614,926 616,924 617,924 618,923 622,923 623,922 626,922 627,921 629,921 631,919 631,918 634,915 636,915 637,914 640,914 641,913 643,913 644,912 645,912 647,910 647,909 650,906 652,906 653,905 655,905 656,904 658,904 659,903 660,903 661,902 662,902 664,900 664,899 667,896 668,896 669,895 671,895 672,894 673,894 674,893 676,893 677,892 678,892 679,891 681,891 682,890 683,890 685,888 686,888 688,886 689,886 693,882 694,882 695,881 696,881 697,880 698,880 699,879 700,879 701,878 702,878 703,877 709,877 710,876 712,876 713,875 714,875 715,874 716,874 717,873 718,873 719,872 724,872 725,871 731,871 732,870 740,870 741,869 747,869 748,868 754,868 755,867 760,867 761,866 767,866 768,865 770,865 773,862 774,862 777,859 778,859 781,856 783,856 784,855 789,855 790,854 791,854 793,852 794,852 796,850 796,849 797,848 797,847 798,846 798,845 799,844 799,843 817,825 817,824 818,823 818,820 819,819 819,817 822,814 822,813 827,808 827,807 828,806 828,804 829,803 829,798 831,796 831,795 834,792 834,791 836,789 836,788 838,786 838,785 839,784 839,777 840,776 840,775 841,774 841,773 842,772 842,771 843,770 843,769 845,767 845,762 846,761 846,755 847,754 847,753 848,752 848,747 849,746 849,739 850,738 850,726 851,725 851,722 852,721 852,704 853,703 853,700 855,698 857,698 858,697 858,696 859,695 859,691 860,690 860,688 861,687 862,687 863,686 864,686 864,685 865,684 865,681 866,680 867,680 868,679 869,679 869,678 870,677 870,675 872,673 873,673 874,672 874,671 877,668 878,668 878,667 879,666 879,665 881,663 882,663 882,662 883,661 883,658 885,656 886,656 886,655 887,654 887,651 889,649 890,649 890,648 891,647 891,639 892,638 893,638 895,636 895,615 894,614 894,605 893,604 893,603 891,601 890,601 889,600 889,598 888,597 888,592 887,591 887,590 885,588 884,588 882,586 882,583 881,582 881,581 880,580 879,580 878,579 877,579 876,578 876,576 875,575 875,574 874,573 873,573 871,571 871,570 870,569 870,568 868,566 867,566 865,564 865,563 864,562 864,561 863,560 862,560 859,557 859,556 857,554 856,554 854,552 854,550 853,549 853,548 852,547 850,547 849,546 849,544 848,543 848,542 847,541 846,541 845,540 845,537 844,536 844,535 843,534 842,534 841,533 841,529 840,528 840,527 839,526 838,526 836,524 836,520 835,519 835,518 834,517 833,517 832,516 832,512 831,511 831,509 830,508 830,507 829,506 828,506 827,505 827,500 826,499 826,489 825,488 825,482 827,480 827,479 828,478 828,471 831,468 831,467 832,466 832,461 834,459 835,459 836,458 836,457 837,456 837,454 838,453 838,450 839,449 840,449 842,447 842,446 843,445 843,440 847,436 847,435 848,434 848,427 849,426 850,426 851,425 851,424 852,423 852,415 855,412 855,411 856,410 856,399 857,398 857,397 859,395 859,394 860,393 860,392 861,391 861,366 862,365 862,362 863,361 863,358 864,357 864,354 865,353 865,326 866,325 866,323 867,322 867,317 868,316 868,313 867,312 867,302 868,301 868,287 867,286 867,278 868,277 868,274 867,273 867,267 866,266 866,264 865,263 865,261 864,260 864,258 863,257 863,255 862,254 862,252 861,251 861,249 860,248 860,246 859,245 858,245 857,244 856,244 853,241 853,239 852,238 852,237 851,236 851,235 850,234 850,233 849,233 848,232 846,232 844,230 844,229 843,228 843,227 841,225 839,225 838,224 837,224 836,223 836,222 835,221 835,220 833,218 831,218 830,217 829,217 827,215 827,214 825,212 822,212 818,208 818,207 817,206 816,206 815,205 813,205 812,204 811,204 810,203 810,202 806,198 804,198 803,197 801,197 799,195 799,194 796,191 796,190 791,185 791,184 768,161 767,161 765,159 764,159 762,157 760,157 759,156 755,156 754,155 753,155 750,152 749,152 746,149 745,149 743,147 742,147 740,145 739,145 737,143 735,143 734,142 731,142 730,141 728,141 727,140 724,140 723,139 722,139 721,138 720,138 719,137 718,137 717,136 716,136 715,135 714,135 713,134 712,134 711,133 710,133 703,126 702,126 700,124 698,124 697,123 696,123 695,122 693,122 691,120 691,119 690,118 690,117 689,116 688,116 687,115 685,115 683,113 683,112 682,111 682,110 681,109 679,109 677,107 677,105 676,104 675,104 673,102 673,101 672,100 672,99 671,99 669,97 669,96 668,95 668,94 667,94 664,91 664,90 662,88 661,88 659,86 659,85 657,83 653,83 652,82 649,82 647,80 647,79 646,78 645,78 644,77 636,77 635,78 634,78 632,80 625,80 624,81 623,81 623,82 621,84 620,84 619,85 618,85 618,86 616,88 615,88 614,89 612,89 611,90 604,90 603,91 597,91 596,92 595,91 584,91 582,89 582,88 581,87 581,86 579,84 577,84 574,81 574,80 573,79 573,78 572,78 570,76 570,75 569,74 569,73 566,70 566,68 563,65 563,64 562,63 562,62 561,62 558,59 558,58 556,56 555,56 553,54 553,53 551,51 550,51 547,48 547,47 546,46 545,46 544,45 541,45 539,43 539,42 537,40 535,40 534,39 530,39 529,38 529,37 527,35 526,35 525,34 518,34 517,33 515,33 514,32 513,32 511,30 509,30 508,29 " fill="none" stroke-width="1" stroke="rgb(0,0,0)" />
</svg>
