<?xml version="1.0" standalone="no" ?>
<!DOCTYPE svg PUBLIC "-//W3C//DTD SVG 1.1//EN" "http://www.w3.org/Graphics/SVG/1.1/DTD/svg11.dtd">
<svg width="1024px" height="1024px" xmlns="http://www.w3.org/2000/svg" version="1.1" >
	<polygon points="435,142 434,143 432,143 431,144 428,144 427,145 425,145 424,146 422,146 421,147 409,147 408,148 407,148 406,149 405,149 404,150 403,150 402,151 401,151 400,152 399,152 398,153 397,153 396,154 395,154 394,155 393,155 392,156 391,156 390,157 386,157 385,158 381,158 380,159 379,159 377,161 376,161 373,164 372,164 369,167 368,167 364,171 363,171 344,190 344,191 342,193 342,195 341,196 341,200 340,201 340,202 339,203 339,204 337,206 337,207 335,209 335,210 333,212 333,213 332,214 332,216 331,217 331,223 330,224 330,225 329,226 329,227 328,228 328,229 327,230 327,231 326,232 326,242 325,243 325,244 324,245 324,246 323,247 323,249 322,250 322,264 321,265 321,267 320,268 320,270 319,271 319,273 318,274 318,277 317,278 317,281 316,282 316,285 315,286 315,289 314,290 314,293 313,294 313,298 312,299 312,304 311,305 311,311 310,312 310,315 309,316 307,316 304,319 303,319 302,320 290,320 289,321 288,321 287,322 286,322 285,323 284,323 283,324 281,324 279,326 278,326 277,327 276,327 275,328 274,328 273,329 272,329 270,331 269,331 268,332 267,332 265,334 264,334 262,336 261,336 259,338 258,338 255,341 254,341 251,344 250,344 246,348 245,348 241,352 241,353 240,354 240,357 239,358 239,359 234,364 234,365 227,372 227,374 226,375 226,379 225,380 225,381 224,382 224,383 221,386 221,387 219,389 219,390 217,392 217,393 215,395 215,396 213,398 213,399 212,400 212,401 210,403 208,403 207,404 206,404 204,406 204,408 203,409 203,410 202,411 202,412 201,413 201,414 200,415 200,417 199,418 199,419 198,420 198,421 197,422 196,422 195,423 194,423 192,425 192,427 191,428 191,431 190,432 190,434 189,435 189,437 188,438 186,438 184,440 184,441 183,442 183,446 182,447 182,448 181,449 180,449 178,451 178,452 177,453 177,456 176,457 174,457 173,458 173,459 172,460 172,463 170,465 169,465 169,466 168,467 168,470 166,472 165,472 165,473 164,474 164,477 162,479 161,479 161,480 160,481 160,485 158,487 157,487 157,488 156,489 156,494 153,497 153,514 154,515 154,520 155,521 155,526 156,527 156,530 157,531 157,534 158,535 158,538 159,539 159,540 160,541 162,541 164,543 164,544 165,545 165,547 166,548 166,549 167,550 169,550 172,553 172,555 173,556 174,556 175,557 176,557 179,560 179,561 181,563 183,563 186,566 186,567 187,568 188,568 189,569 191,569 193,571 193,572 196,575 199,575 201,577 201,578 203,580 203,581 205,583 206,583 207,584 209,584 210,585 211,585 212,586 212,587 215,590 215,591 216,592 216,593 217,594 217,598 218,599 218,601 221,604 221,606 222,607 222,611 223,612 223,636 224,637 224,641 225,642 225,644 226,645 226,651 228,653 228,654 231,657 231,658 234,661 234,662 238,666 238,667 243,672 244,672 245,673 249,673 251,675 252,675 253,676 256,676 257,677 260,677 261,678 266,678 267,679 285,679 286,680 287,679 291,679 292,680 313,680 314,681 315,681 317,683 320,683 325,688 328,688 329,689 330,689 331,690 331,691 333,693 333,694 336,697 336,698 339,701 339,702 342,705 342,706 349,713 349,714 350,715 350,719 351,720 351,721 354,724 354,729 355,730 355,731 357,733 357,735 358,736 358,738 359,739 359,740 360,741 360,746 363,749 363,750 364,751 364,754 365,755 365,756 368,759 368,762 369,763 369,764 370,765 370,766 371,767 371,768 373,770 373,771 374,772 374,773 376,775 376,776 378,778 378,779 380,781 380,782 383,785 383,786 386,789 386,790 390,794 393,794 394,795 396,795 397,796 397,797 400,800 401,800 402,801 407,801 412,806 413,806 414,807 417,807 418,808 421,808 422,809 423,809 426,812 427,812 430,815 431,815 432,816 436,816 437,817 441,817 442,818 443,818 444,819 445,819 446,820 447,820 448,821 449,821 451,823 452,823 453,824 455,824 456,825 459,825 460,826 470,826 471,827 473,827 474,828 479,828 480,829 483,829 484,828 500,828 501,827 502,827 503,826 512,826 513,825 514,825 516,823 525,823 526,822 527,822 528,821 528,820 529,819 541,819 542,818 543,818 543,817 545,815 562,815 563,816 563,817 565,817 566,818 577,818 578,819 585,819 586,820 587,820 588,821 596,821 597,822 599,822 600,823 606,823 607,824 620,824 621,823 624,823 625,822 633,822 634,821 635,821 639,817 640,817 641,816 642,816 643,815 645,815 646,814 647,814 648,813 650,813 651,812 652,812 653,811 653,810 654,809 654,808 657,805 658,805 661,802 661,800 664,797 665,797 666,796 666,795 667,794 667,792 669,790 670,790 673,787 673,785 677,781 678,781 679,780 680,780 682,778 682,777 683,776 683,774 686,771 687,771 689,769 690,769 691,768 692,768 694,766 695,766 696,765 701,765 702,764 704,764 705,763 706,763 707,762 710,762 711,761 722,761 723,760 742,760 743,759 753,759 754,758 760,758 761,757 765,757 766,756 770,756 772,754 774,754 775,753 777,753 778,752 779,752 780,751 783,751 784,750 785,750 785,749 786,748 787,748 788,747 791,747 793,745 793,744 794,743 795,743 796,742 798,742 801,739 801,738 802,737 803,737 804,736 806,736 808,734 808,733 809,732 809,731 810,730 810,728 811,727 813,727 814,726 815,726 816,725 816,724 817,723 817,722 818,721 818,719 819,718 819,716 820,715 820,713 821,712 821,710 822,709 822,707 823,706 823,704 824,703 824,701 825,700 825,697 826,696 826,693 827,692 827,680 826,679 826,678 825,677 825,670 824,669 824,668 822,666 822,663 821,662 821,661 819,659 819,658 818,657 818,655 817,654 816,654 815,653 815,652 814,651 814,650 813,649 812,649 811,648 811,647 810,646 810,645 809,644 808,644 807,643 807,641 806,640 806,639 805,638 804,638 803,637 803,636 802,635 802,634 801,633 800,633 799,632 799,631 798,630 798,629 797,628 796,628 795,627 795,625 794,624 794,623 793,622 792,622 791,621 791,620 790,619 790,617 785,612 785,610 784,609 784,608 780,604 780,603 779,602 779,599 778,598 778,597 777,596 777,595 772,590 772,586 771,585 771,582 770,581 770,578 769,577 769,573 768,572 768,569 767,568 767,565 766,564 766,560 765,559 765,531 764,530 764,517 766,515 766,510 767,509 767,506 766,505 766,495 768,493 768,491 769,490 769,480 770,479 771,479 771,478 772,477 772,470 773,469 774,469 775,468 775,467 776,466 776,462 777,461 778,461 779,460 780,460 780,459 781,458 781,452 782,451 784,451 785,450 785,449 786,448 786,444 787,443 788,443 789,442 790,442 790,441 791,440 791,436 792,435 792,395 790,393 789,393 788,392 788,386 787,385 787,384 786,384 785,383 785,377 784,376 784,375 783,375 781,373 781,369 780,368 780,367 779,367 777,365 777,360 776,359 776,358 775,358 773,356 773,348 772,347 772,346 771,346 769,344 769,324 768,323 768,317 767,316 767,312 766,311 766,307 765,306 765,303 764,302 764,300 763,299 763,296 762,295 762,293 761,292 761,290 760,289 760,287 759,286 759,285 758,284 758,282 757,281 757,279 756,278 756,277 755,276 755,275 754,274 754,265 753,264 753,262 752,261 752,260 751,259 751,258 749,256 749,255 747,253 747,252 745,250 745,244 744,243 744,241 742,239 742,238 740,236 740,235 739,234 739,229 738,228 738,227 735,224 735,222 734,221 734,218 733,217 733,216 730,213 730,209 729,208 729,207 726,204 726,201 725,200 725,199 722,196 721,196 720,195 720,194 719,193 719,190 718,189 718,188 717,188 715,186 714,186 712,184 711,184 710,183 709,183 707,181 706,181 705,180 704,180 702,178 701,178 700,177 699,177 698,176 697,176 696,175 695,175 694,174 693,174 692,173 691,173 690,172 689,172 688,171 686,171 685,170 684,170 683,169 682,169 681,168 679,168 678,167 676,167 675,166 673,166 672,165 667,165 666,164 663,164 662,165 656,165 655,164 651,164 650,163 647,163 646,162 641,162 640,161 633,161 632,160 620,160 619,161 618,161 618,162 616,164 604,164 603,165 602,165 602,166 600,168 588,168 587,167 583,167 582,166 581,166 579,164 576,164 575,163 559,163 558,162 533,162 532,161 529,161 528,160 524,160 523,159 519,159 518,158 512,158 511,157 503,157 502,156 502,155 501,154 500,154 499,153 490,153 489,152 489,151 488,150 487,150 486,149 478,149 477,148 477,147 476,146 475,146 474,145 465,145 463,143 447,143 446,142 " fill="none" stroke-width="1" stroke="rgb(0,0,0)" />
</svg>
