<?xml version="1.0" standalone="no" ?>
<!DOCTYPE svg PUBLIC "-//W3C//DTD SVG 1.1//EN" "http://www.w3.org/Graphics/SVG/1.1/DTD/svg11.dtd">
<svg width="1024px" height="1024px" xmlns="http://www.w3.org/2000/svg" version="1.1" >
	<polygon points="530,85 529,86 528,86 526,88 521,88 520,89 520,90 519,91 517,91 516,92 515,92 515,93 514,94 512,94 511,95 510,95 510,96 508,98 506,98 505,99 505,100 504,101 503,101 502,102 501,102 500,103 500,104 499,105 498,105 497,106 496,106 495,107 495,108 494,109 492,109 491,110 490,110 490,111 488,113 486,113 485,114 484,114 483,115 483,116 482,117 477,117 476,118 475,118 472,121 460,121 459,122 452,122 451,123 444,123 443,122 438,122 437,121 435,121 434,120 431,120 430,119 428,119 427,118 426,118 425,117 424,117 423,116 422,116 421,115 420,115 419,114 417,114 416,113 415,113 414,112 413,112 412,111 411,111 409,109 407,109 405,107 403,107 402,106 400,106 399,105 397,105 396,104 395,104 394,103 391,103 390,102 388,102 387,101 381,101 380,100 373,100 372,101 366,101 365,102 357,102 356,103 355,103 353,105 352,105 350,107 349,107 347,109 346,109 344,111 343,111 341,113 340,113 338,115 337,115 335,117 334,117 329,122 328,122 323,127 322,127 310,139 310,140 309,141 309,142 308,143 308,147 302,153 302,154 301,155 301,157 300,158 300,162 299,163 299,164 298,165 298,167 297,168 297,173 296,174 296,202 297,203 297,209 298,210 298,213 299,214 299,215 300,216 300,220 301,221 301,225 302,226 302,231 303,232 303,245 302,246 302,260 301,261 301,264 300,265 300,267 299,268 299,270 298,271 298,274 297,275 297,277 295,279 293,279 292,280 292,282 291,283 291,286 290,287 290,288 288,290 287,290 285,292 285,295 283,297 281,297 280,296 275,296 274,295 269,295 268,294 261,294 260,293 238,293 237,294 229,294 228,295 225,295 224,296 221,296 219,298 216,298 215,299 211,299 210,300 209,300 204,305 203,305 184,324 184,326 183,327 183,331 182,332 182,333 179,336 179,338 178,339 178,343 177,344 177,345 176,346 176,347 174,349 174,350 173,351 173,355 172,356 172,359 171,360 171,361 169,363 169,364 167,366 167,367 166,368 166,369 164,371 164,372 163,373 163,374 162,375 162,376 161,377 161,378 160,379 160,383 159,384 159,387 158,388 158,393 157,394 157,395 156,396 156,398 155,399 155,400 154,401 154,403 153,404 153,405 152,406 152,408 151,409 151,425 150,426 150,429 149,430 149,443 150,444 150,450 149,451 149,463 150,464 150,466 151,467 151,470 152,471 152,506 153,507 153,514 154,515 154,520 155,521 155,526 156,527 156,530 157,531 157,534 158,535 158,538 159,539 159,541 160,542 160,545 161,546 161,548 162,549 162,551 163,552 163,554 164,555 164,556 165,557 165,559 166,560 166,562 167,563 167,564 168,565 168,566 169,567 169,569 170,570 170,571 171,572 171,573 172,574 172,575 173,576 173,577 174,578 174,579 175,580 175,581 177,583 177,584 178,585 178,586 179,587 179,588 181,590 181,591 182,592 182,593 183,594 183,600 184,601 184,603 187,606 187,607 190,610 190,611 193,614 193,615 197,619 197,620 198,621 198,625 199,626 199,628 206,635 206,636 208,638 208,639 210,641 210,642 212,644 212,645 214,647 214,648 215,649 217,649 218,650 220,650 223,653 223,654 226,657 226,658 228,660 229,660 230,661 233,661 239,667 243,667 244,668 245,668 246,669 246,670 247,671 248,671 249,672 252,672 253,673 255,673 258,676 259,676 260,677 265,677 270,682 271,682 272,683 276,683 277,684 280,684 283,687 284,687 287,690 288,690 290,692 291,692 293,694 294,694 297,697 297,698 298,699 298,701 299,702 299,709 300,710 300,722 299,723 299,731 298,732 298,744 297,745 297,747 298,748 298,757 299,758 299,760 301,762 301,765 302,766 302,768 303,769 303,773 304,774 304,776 318,790 319,790 324,795 325,795 331,801 331,802 333,804 333,805 335,807 338,807 339,808 340,808 341,809 341,810 344,813 344,814 345,814 346,815 349,815 350,816 351,816 352,817 352,818 356,822 356,823 357,823 358,824 360,824 361,825 363,825 379,841 380,841 381,842 381,844 382,845 382,848 386,852 387,852 389,854 389,855 390,856 390,859 395,864 395,865 396,866 396,868 399,871 400,871 401,872 401,873 402,874 402,877 404,879 405,879 406,880 407,880 408,881 408,882 409,883 409,885 412,888 413,888 414,889 415,889 419,893 419,895 421,897 422,897 423,898 424,898 425,899 426,899 427,900 429,900 430,901 431,901 432,902 434,902 435,903 436,903 437,904 439,904 440,905 442,905 443,906 445,906 446,907 448,907 449,908 451,908 452,909 454,909 455,910 466,910 467,909 477,909 478,908 479,908 480,907 484,907 485,906 487,906 489,904 493,904 494,903 495,903 497,901 501,901 502,900 503,900 505,898 508,898 509,897 510,897 512,895 516,895 517,894 518,894 521,891 524,891 525,890 526,890 529,887 533,887 534,886 535,886 538,883 543,883 544,882 545,882 548,879 557,879 558,878 559,878 560,877 560,876 561,875 571,875 572,874 579,874 580,875 582,875 583,876 595,876 596,877 603,877 604,878 606,878 607,879 611,879 612,880 614,880 615,881 618,881 619,882 620,882 621,883 624,883 625,884 626,884 627,885 630,885 632,887 635,887 636,888 637,888 638,889 641,889 642,890 643,890 644,891 646,891 647,892 650,892 651,893 655,893 656,894 659,894 660,895 671,895 672,894 683,894 684,893 686,893 687,892 689,892 690,891 691,891 692,890 693,890 694,889 695,889 696,888 697,888 698,887 699,887 700,886 700,884 701,883 701,882 703,880 704,880 705,879 706,879 707,878 708,878 710,876 710,875 711,874 711,873 713,871 714,871 717,868 717,866 718,865 718,864 719,863 720,863 722,861 722,859 723,858 723,857 725,855 725,854 726,853 726,851 729,848 729,846 730,845 730,844 731,843 731,842 733,840 733,837 737,833 737,830 740,827 740,826 741,825 741,822 744,819 744,818 745,817 745,814 749,810 749,808 750,807 750,805 754,801 754,800 755,799 755,796 758,793 758,792 759,791 759,790 760,789 760,786 764,782 764,781 765,780 765,779 766,778 766,774 771,769 771,768 772,767 772,766 773,765 773,759 776,756 776,755 779,752 779,751 781,749 781,748 783,746 783,745 784,744 784,743 786,741 786,740 787,739 787,738 789,736 789,735 790,734 790,733 791,732 791,731 793,729 794,729 795,728 796,728 799,725 799,724 800,723 800,721 801,720 801,719 802,718 802,717 803,716 804,716 805,715 806,715 808,713 808,711 809,710 809,708 811,706 812,706 813,705 814,705 815,704 815,703 816,702 816,699 819,696 820,696 822,694 822,692 823,691 823,688 825,686 826,686 828,684 828,683 829,682 829,678 830,677 831,677 832,676 833,676 833,675 834,674 834,669 835,668 835,667 836,666 837,666 838,665 838,664 839,663 839,655 840,654 841,654 842,653 842,652 843,651 843,642 845,640 846,640 846,639 847,638 847,615 849,613 849,602 847,600 846,600 844,598 844,596 843,595 843,592 842,591 842,587 841,586 841,583 840,582 840,578 839,577 839,576 838,575 836,575 834,573 834,570 833,569 833,566 832,565 832,564 831,564 830,563 829,563 827,561 827,558 826,557 826,553 825,552 825,551 824,551 823,550 822,550 821,549 821,527 820,526 820,516 821,515 821,513 822,512 822,493 821,492 821,488 820,487 820,484 819,483 819,481 818,480 818,478 817,477 817,475 816,474 816,453 815,452 815,450 814,449 814,445 815,444 815,426 814,425 814,423 813,422 813,419 812,418 812,390 813,389 813,362 816,359 816,358 817,357 817,322 818,321 818,319 819,318 819,307 818,306 818,302 819,301 819,288 818,287 818,272 817,271 817,269 816,268 816,266 815,265 815,253 814,252 814,250 813,249 813,248 812,247 812,245 811,244 811,243 810,242 810,241 809,240 809,239 808,238 808,237 806,235 806,234 805,233 805,232 804,231 804,230 802,228 802,227 801,226 801,225 799,223 799,222 797,220 797,219 795,217 795,216 793,214 793,213 791,211 791,210 788,207 788,206 785,203 785,202 781,198 781,197 778,194 777,194 776,193 775,193 774,192 771,192 762,183 761,183 760,182 759,182 758,181 754,181 752,179 751,179 747,175 746,175 745,174 744,174 743,173 737,173 734,170 733,170 731,168 730,168 728,166 727,166 726,165 725,165 724,164 717,164 716,163 715,163 714,162 713,162 711,160 710,160 709,159 708,159 707,158 706,158 705,157 704,157 703,156 702,156 701,155 700,155 699,154 698,154 697,153 695,153 694,152 693,152 692,151 690,151 689,150 688,150 687,149 685,149 684,148 682,148 681,147 679,147 678,146 676,146 675,145 673,145 672,144 670,144 669,143 667,143 666,142 663,142 662,141 659,141 658,140 655,140 653,138 653,137 651,135 649,135 648,134 643,134 642,133 639,133 637,131 637,130 636,129 635,129 634,128 622,128 621,127 621,126 619,124 612,124 611,123 611,122 610,121 610,118 608,116 607,116 606,115 605,115 603,113 602,113 600,111 600,109 599,108 599,107 597,105 596,105 595,104 594,104 593,103 592,103 591,102 589,102 588,101 587,101 586,100 585,100 584,99 583,99 582,98 580,98 579,97 578,97 577,96 576,96 575,95 575,94 574,93 574,92 572,90 570,90 569,89 567,89 566,88 564,88 563,87 561,87 560,86 555,86 554,85 551,85 550,86 542,86 541,85 " fill="none" stroke-width="1" stroke="rgb(0,0,0)" />
</svg>
