<?xml version="1.0" standalone="no" ?>
<!DOCTYPE svg PUBLIC "-//W3C//DTD SVG 1.1//EN" "http://www.w3.org/Graphics/SVG/1.1/DTD/svg11.dtd">
<svg width="512px" height="512px" xmlns="http://www.w3.org/2000/svg" version="1.1" >
	<polygon points="227,49 226,50 224,50 224,51 222,53 222,54 221,55 221,57 220,58 220,60 219,61 219,63 218,64 218,67 217,68 217,71 216,72 216,73 214,75 214,77 213,78 213,82 212,83 212,89 211,90 211,99 210,100 210,113 209,114 209,120 208,121 208,127 207,128 207,146 206,147 206,151 205,152 205,156 204,157 204,159 203,160 203,163 202,164 202,165 201,166 201,167 199,169 199,171 198,172 198,174 196,176 196,177 195,178 195,179 193,181 193,182 192,183 192,184 191,185 191,187 190,188 190,189 188,191 188,192 187,193 187,194 186,195 186,196 185,197 185,198 184,199 184,201 182,203 182,204 181,205 181,210 180,211 180,212 179,213 179,214 178,215 178,220 177,221 177,234 178,235 178,241 177,242 174,242 173,241 169,241 168,240 166,240 165,239 163,239 162,238 161,238 154,231 154,230 152,228 152,227 151,226 151,224 150,223 150,222 147,219 146,219 144,217 143,217 141,215 140,215 138,213 137,213 136,212 135,212 134,211 132,211 131,210 129,210 128,209 126,209 125,208 120,208 119,207 106,207 105,208 101,208 100,209 98,209 97,210 95,210 93,212 92,212 90,214 90,216 89,217 89,220 88,221 88,229 89,230 89,233 90,234 91,234 93,236 94,236 95,237 96,237 97,238 98,238 99,239 100,239 101,240 102,240 103,241 105,241 107,243 108,243 109,244 110,244 111,245 112,245 114,247 114,248 115,248 116,249 117,249 123,255 124,255 126,257 126,258 129,261 129,262 133,266 133,267 134,268 134,269 136,271 136,272 137,273 137,276 138,277 138,278 143,283 143,284 145,286 145,287 146,288 146,290 147,291 147,294 148,295 148,298 149,299 149,314 150,315 150,328 151,329 151,334 152,335 152,338 153,339 153,342 154,343 154,345 155,346 155,347 156,348 156,350 157,351 157,352 159,354 159,355 161,357 161,358 162,359 162,360 165,363 166,363 170,367 171,367 172,368 173,368 174,369 175,369 176,370 177,370 178,371 179,371 180,372 182,372 183,373 187,373 188,374 192,374 193,375 198,375 199,376 205,376 206,377 214,377 215,378 217,378 218,379 222,379 223,380 225,380 226,381 228,381 230,383 232,383 233,384 235,384 236,385 238,385 239,386 240,386 242,388 243,388 244,389 245,389 247,391 248,391 255,398 255,399 256,400 256,401 257,402 257,404 258,405 258,406 259,407 259,408 260,409 260,411 261,412 261,413 262,414 262,415 263,416 263,417 264,418 264,420 265,421 265,422 268,425 269,425 270,426 271,426 272,427 273,427 274,428 277,428 278,429 279,429 280,430 289,430 290,431 298,431 299,432 302,432 303,431 310,431 311,430 314,430 315,429 317,429 318,428 321,428 322,427 325,427 326,426 328,426 329,425 330,425 331,424 332,424 333,423 335,423 336,422 337,422 338,421 340,421 341,420 342,420 343,419 344,419 345,418 346,418 347,417 348,417 349,416 350,416 353,413 353,412 356,409 357,409 358,408 359,408 361,406 362,406 368,400 369,400 372,397 373,397 377,393 377,389 378,388 378,385 377,384 377,370 378,369 378,356 379,355 379,334 378,333 378,321 377,320 377,303 376,302 376,300 375,299 375,287 374,286 374,272 373,271 373,260 372,259 372,256 370,254 370,249 369,248 369,238 368,237 368,236 366,234 366,230 365,229 365,227 363,225 363,219 361,217 361,211 360,210 360,209 359,208 359,194 358,193 358,192 357,191 357,184 356,183 356,175 355,174 355,170 354,169 354,163 355,162 355,155 354,154 354,146 353,145 353,142 352,141 353,140 353,138 354,137 354,135 355,134 355,127 356,126 356,121 358,119 358,118 359,117 359,112 360,111 360,106 362,104 362,87 361,86 361,84 360,83 360,82 358,80 356,80 355,79 347,79 346,80 344,80 342,82 341,82 340,83 338,83 337,84 336,84 336,85 334,87 334,88 333,89 333,90 332,91 332,92 331,93 331,95 330,96 330,97 326,101 326,103 325,104 325,107 324,108 324,111 323,112 323,116 322,117 322,118 321,119 321,121 320,122 320,126 319,127 319,129 316,132 316,137 313,140 313,142 311,144 310,144 309,145 307,143 306,143 305,142 304,142 303,141 302,141 301,140 300,140 299,139 298,139 297,138 296,138 295,137 294,137 293,136 293,135 292,134 292,133 291,133 289,131 288,131 287,130 285,130 284,129 282,129 281,128 279,128 278,127 272,127 270,125 270,122 269,121 269,116 268,115 268,114 267,113 267,112 266,111 266,110 265,109 265,108 263,106 263,105 262,104 262,103 259,100 259,99 256,96 256,95 255,94 255,92 254,91 254,90 253,89 253,88 251,86 251,85 250,84 250,77 249,76 249,74 248,73 248,70 246,68 246,66 245,65 245,63 243,61 243,59 242,58 242,56 241,55 241,53 238,50 236,50 235,49 " fill="none" stroke-width="1" stroke="rgb(0,0,0)" />
</svg>
