<?xml version="1.0" standalone="no" ?>
<!DOCTYPE svg PUBLIC "-//W3C//DTD SVG 1.1//EN" "http://www.w3.org/Graphics/SVG/1.1/DTD/svg11.dtd">
<svg width="512px" height="512px" xmlns="http://www.w3.org/2000/svg" version="1.1" >
	<polygon points="236,30 235,31 218,31 217,32 215,32 214,33 213,33 212,34 210,34 209,35 208,35 205,38 205,39 203,41 202,41 199,44 199,45 198,46 198,48 197,49 197,51 196,52 196,57 195,58 195,64 196,65 196,78 197,79 197,85 198,86 198,91 199,92 199,96 200,97 200,104 201,105 201,124 200,125 200,132 199,133 199,141 198,142 198,147 197,148 197,149 196,150 196,151 195,152 195,154 194,155 194,158 191,161 191,162 190,163 190,166 187,169 187,170 186,171 186,172 184,174 184,175 183,176 183,178 182,179 182,180 180,182 180,186 179,187 179,190 176,193 176,200 175,201 175,212 176,213 176,219 177,220 177,221 178,222 178,225 179,226 179,231 180,232 180,233 181,234 181,238 180,239 178,237 178,236 177,235 177,234 174,231 174,230 171,227 171,225 170,224 170,222 169,221 169,220 168,219 168,218 167,217 167,215 166,214 166,213 165,212 165,210 164,209 164,208 163,207 163,206 162,205 162,204 161,203 161,202 159,200 159,199 157,197 157,196 155,194 155,193 154,193 153,192 153,191 145,183 144,183 140,179 138,179 134,175 132,175 131,174 127,174 125,172 124,172 123,171 101,171 100,172 99,172 97,174 95,174 94,175 92,175 91,176 90,176 77,189 77,190 76,191 76,192 74,194 74,195 73,196 73,197 70,200 70,201 68,203 68,205 67,206 67,208 66,209 66,211 65,212 65,213 64,214 64,215 63,216 63,217 62,218 62,226 61,227 61,231 60,232 60,240 61,241 61,247 62,248 62,250 63,251 63,253 64,254 64,255 67,258 67,259 68,260 68,261 69,262 69,263 74,268 75,268 76,269 77,269 78,270 79,270 81,272 82,272 83,273 84,273 86,275 87,275 88,276 89,276 90,277 92,277 93,278 94,278 95,279 96,279 97,280 99,280 100,281 101,281 102,282 104,282 105,283 108,283 109,284 111,284 112,285 114,285 115,286 120,286 121,287 125,287 126,288 130,288 131,289 135,289 136,290 142,290 143,291 147,291 148,292 150,292 152,294 154,294 155,295 156,295 158,297 159,297 173,311 173,312 175,314 175,316 177,318 177,319 180,322 180,324 181,325 181,327 183,329 183,330 184,331 184,333 185,334 185,335 186,336 186,337 187,338 187,339 188,340 188,343 189,344 189,345 191,347 191,350 192,351 192,354 193,355 193,356 196,359 196,360 198,362 198,363 199,364 199,365 205,371 205,372 206,373 206,374 214,382 214,383 215,384 215,385 216,385 219,388 220,388 222,390 223,390 227,394 227,395 229,397 230,397 231,398 232,398 234,400 235,400 236,401 237,401 239,403 239,404 240,405 240,409 241,410 241,413 242,414 242,415 243,416 243,423 244,424 244,426 245,427 245,430 246,431 246,434 247,435 247,436 248,437 248,439 249,440 249,441 250,442 250,443 253,446 253,447 255,449 256,449 259,452 260,452 261,453 264,453 265,454 266,454 267,455 271,455 272,456 273,456 274,457 278,457 279,458 280,458 281,459 289,459 290,460 291,460 292,461 303,461 304,460 310,460 311,459 323,459 324,458 327,458 328,457 330,457 332,455 333,455 335,453 336,453 337,452 338,452 339,451 341,451 342,450 343,450 344,449 346,449 351,444 352,444 367,429 367,428 369,426 369,425 372,422 372,421 374,419 374,418 376,416 376,415 380,411 380,410 383,407 383,406 384,405 384,404 386,402 386,401 388,399 388,397 389,396 389,380 388,379 388,377 387,376 387,374 386,373 386,372 385,371 385,368 384,367 384,364 383,363 383,362 380,359 380,356 379,355 379,354 376,351 376,349 375,348 375,347 374,346 374,345 372,343 372,341 371,340 371,339 370,338 370,337 368,335 368,333 367,332 367,331 366,330 366,329 365,328 365,326 364,325 364,323 363,322 363,321 362,320 362,314 361,313 361,311 360,310 360,295 361,294 361,287 362,286 362,282 363,281 363,277 364,276 364,275 365,274 365,272 366,271 366,269 367,268 367,266 368,265 368,264 369,263 369,262 370,261 370,259 371,258 371,257 372,256 372,254 373,253 373,252 374,251 374,250 375,249 375,247 376,246 376,244 377,243 377,242 378,241 378,239 379,238 379,235 380,234 380,232 381,231 381,229 382,228 382,227 383,226 383,223 384,222 384,221 385,220 385,217 387,215 387,214 388,213 388,203 390,201 390,190 389,189 389,176 388,175 388,174 387,173 387,171 386,170 386,167 385,166 385,160 384,159 384,156 383,155 383,154 382,153 382,152 381,151 381,150 379,148 379,147 377,145 377,144 376,143 376,142 374,140 374,139 373,139 370,136 369,136 364,131 364,129 362,127 362,125 363,124 363,123 364,122 364,119 367,116 367,111 369,109 369,107 371,105 371,103 373,101 373,100 375,98 375,96 377,94 377,93 379,91 379,76 378,75 378,73 377,72 377,71 375,69 375,68 374,68 372,66 370,66 369,65 358,65 357,66 353,66 352,67 351,67 350,68 349,68 338,79 338,80 337,81 337,83 336,84 336,87 335,88 335,93 334,94 334,99 333,100 333,110 332,111 332,114 331,115 331,119 330,120 330,124 329,125 329,128 328,129 328,130 327,131 327,132 326,133 326,136 325,137 325,138 324,139 324,140 323,141 323,144 321,146 321,147 320,148 320,149 319,150 319,151 316,154 316,156 315,157 315,159 313,161 313,163 312,164 311,164 310,163 309,163 307,161 306,161 305,160 303,160 302,159 297,159 296,158 294,158 293,157 288,157 283,152 283,150 280,147 279,147 276,144 275,144 274,143 272,143 271,142 270,142 269,141 267,141 266,140 265,140 263,138 263,104 264,103 264,80 263,79 263,63 264,62 264,51 263,50 263,48 262,47 262,45 261,44 261,42 259,40 259,39 257,37 257,36 256,35 255,35 254,34 253,34 252,33 250,33 248,31 245,31 244,30 " fill="none" stroke-width="1" stroke="rgb(0,0,0)" />
</svg>
