<?xml version="1.0" standalone="no" ?>
<!DOCTYPE svg PUBLIC "-//W3C//DTD SVG 1.1//EN" "http://www.w3.org/Graphics/SVG/1.1/DTD/svg11.dtd">
<svg width="512px" height="512px" xmlns="http://www.w3.org/2000/svg" version="1.1" >
	<polygon points="218,31 217,32 215,32 214,33 213,33 211,35 210,35 208,37 208,38 206,40 206,41 204,43 204,44 203,45 203,46 202,47 202,49 201,50 201,59 200,60 200,63 199,64 199,68 198,69 198,75 197,76 197,82 196,83 196,92 195,93 195,102 193,104 193,106 192,107 192,113 191,114 191,115 190,116 190,117 189,118 189,120 188,121 188,122 187,123 187,124 186,125 186,127 185,128 185,129 183,131 183,134 180,137 180,143 178,145 178,147 177,148 177,150 176,151 176,152 173,155 173,158 172,159 172,165 171,166 171,179 172,180 172,189 173,190 173,195 174,196 174,203 175,204 175,207 176,208 176,216 177,217 177,221 178,222 178,230 179,231 179,241 178,242 177,242 176,241 175,241 174,240 171,240 170,239 164,239 163,238 161,238 159,236 158,236 156,234 155,234 154,233 153,233 147,227 145,227 144,226 142,226 141,225 140,225 139,224 138,224 136,222 134,222 133,221 131,221 130,220 127,220 126,219 124,219 123,218 118,218 117,217 114,217 113,218 110,218 109,219 107,219 106,220 105,220 104,221 104,225 103,226 103,229 104,230 104,234 106,236 107,236 108,237 109,237 118,246 118,247 121,250 121,251 124,254 124,255 126,257 126,258 128,260 128,261 129,262 129,264 130,265 130,269 131,270 131,272 133,274 133,275 135,277 135,279 136,280 136,281 144,289 144,290 145,291 145,292 147,294 147,295 151,299 151,302 152,303 152,305 154,307 154,308 155,309 155,311 156,312 156,320 157,321 157,326 158,327 158,333 159,334 159,345 160,346 160,350 161,351 161,355 162,356 162,361 163,362 163,365 165,367 165,368 167,370 167,371 169,373 169,374 172,377 172,378 177,383 178,383 179,384 180,384 181,385 182,385 184,387 185,387 186,388 188,388 189,389 190,389 191,390 193,390 194,391 196,391 197,392 200,392 201,393 205,393 206,394 213,394 214,395 228,395 229,396 241,396 242,397 246,397 247,398 248,398 252,402 252,403 253,404 253,405 254,405 257,408 257,409 258,410 258,411 259,412 260,412 262,414 262,415 263,416 263,418 264,419 264,420 265,421 265,422 268,425 269,425 270,426 274,426 275,427 276,427 277,428 279,428 280,429 281,429 282,430 287,430 288,431 290,431 291,432 293,432 294,433 296,433 297,434 299,434 300,435 302,435 303,436 306,436 307,437 316,437 317,438 324,438 325,437 332,437 333,436 335,436 336,435 338,435 339,434 340,434 341,433 343,433 344,432 344,431 347,428 348,428 349,427 350,427 351,426 352,426 353,425 353,424 355,422 356,422 357,421 358,421 359,420 360,420 361,419 361,418 365,414 366,414 369,411 369,410 372,407 373,407 376,404 377,404 380,401 381,401 383,399 383,398 384,397 384,395 385,394 385,386 384,385 384,383 383,382 383,380 382,379 382,378 378,374 377,374 376,373 376,372 368,364 367,364 358,355 358,354 355,351 355,350 353,348 353,347 352,346 352,343 351,342 351,338 350,337 350,333 351,332 351,331 352,330 352,327 353,326 353,325 354,324 354,322 355,321 355,320 356,319 356,316 357,315 357,314 358,313 358,311 359,310 359,309 360,308 360,306 361,305 361,303 362,302 362,299 363,298 363,294 364,293 364,289 365,288 365,286 366,285 366,277 367,276 367,262 366,261 366,251 365,250 365,248 363,246 363,241 362,240 362,239 361,238 361,237 360,236 360,233 359,232 359,231 358,230 358,227 357,226 357,225 355,223 355,219 354,218 354,204 355,203 355,199 356,198 356,196 357,195 357,191 358,190 358,189 359,188 359,185 360,184 360,182 361,181 361,178 362,177 362,176 363,175 363,173 365,171 365,170 366,169 366,168 367,167 367,165 368,164 368,163 369,162 369,161 370,160 370,157 371,156 371,155 372,154 372,148 373,147 373,141 374,140 374,134 375,133 375,127 376,126 376,119 377,118 377,100 376,99 376,98 375,97 375,90 374,89 374,88 373,87 373,82 372,81 372,80 368,76 368,75 367,74 366,74 365,73 364,73 363,72 359,72 358,71 355,71 354,70 334,70 333,71 330,71 329,72 324,72 323,73 321,73 320,74 318,74 317,75 316,75 315,76 313,76 312,77 310,77 308,79 307,79 306,80 305,80 304,81 303,81 297,87 297,88 296,89 295,89 294,90 294,91 293,92 293,94 290,97 290,98 289,99 289,102 288,103 288,107 287,108 287,112 286,113 286,118 285,119 285,121 284,122 278,122 277,121 277,118 279,116 279,106 280,105 280,95 281,94 281,74 280,73 280,72 279,71 279,65 278,64 278,63 277,62 277,58 276,57 276,56 273,53 273,52 272,51 272,50 271,49 271,48 262,39 261,39 259,37 258,37 255,34 253,34 252,33 250,33 249,32 248,32 247,31 " fill="none" stroke-width="1" stroke="rgb(0,0,0)" />
</svg>
