<?xml version="1.0" encoding="utf-8"?>
<!-- Generator: Adobe Illustrator 22.0.1, SVG Export Plug-In . SVG Version: 6.00 Build 0)  -->
<svg version="1.1" id="Layer_1" xmlns="http://www.w3.org/2000/svg" xmlns:xlink="http://www.w3.org/1999/xlink" x="0px" y="0px"
	 viewBox="0 0 512 512" style="enable-background:new 0 0 512 512;" xml:space="preserve">
<polygon style="fill:none;stroke:#000000;" points="226,49 225,50 224,50 223,51 223,52 221,54 221,55 220,56 220,57 219,58 219,60 
	218,61 218,63 217,64 217,67 216,68 216,71 215,72 215,76 214,77 214,83 213,84 213,90 212,91 212,100 211,101 211,114 210,115 
	210,121 209,122 209,128 208,129 208,136 207,137 207,145 206,146 206,157 205,158 205,160 204,161 204,164 203,165 203,168 
	202,169 202,172 201,173 201,177 200,178 200,182 199,183 199,187 198,188 198,194 197,195 197,200 196,201 196,208 195,209 
	195,217 194,218 194,228 193,229 193,242 192,243 192,267 191,268 187,264 186,264 181,259 180,259 177,256 176,256 174,254 
	173,254 171,252 170,252 169,251 168,251 166,249 165,249 164,248 163,248 162,247 161,247 160,246 159,246 158,245 157,245 
	156,244 155,244 141,230 140,230 137,227 136,227 134,225 133,225 131,223 130,223 129,222 128,222 127,221 126,221 125,220 
	123,220 122,219 120,219 119,218 114,218 113,217 112,217 111,218 107,218 106,219 104,219 103,220 102,220 96,226 96,227 109,240 
	110,240 114,244 114,245 117,248 117,249 120,252 120,253 122,255 122,256 125,259 125,260 126,261 126,262 127,263 127,265 
	128,266 128,267 129,268 129,269 130,270 130,271 132,273 132,274 135,277 135,278 139,282 140,282 141,283 142,283 143,284 
	144,284 145,285 146,285 148,287 149,287 151,289 152,289 154,291 155,291 161,297 162,297 173,308 173,309 181,317 181,318 
	186,323 186,324 190,328 190,329 194,333 194,334 195,335 195,336 196,337 196,338 197,339 197,340 199,342 199,343 201,345 
	201,346 204,349 204,350 217,363 218,363 223,368 224,368 227,371 228,371 231,374 232,374 234,376 235,376 237,378 238,378 
	240,380 241,380 242,381 243,381 245,383 246,383 247,384 248,384 250,386 251,386 252,387 253,387 255,389 255,391 256,392 
	256,393 257,394 257,395 258,396 258,397 259,398 259,400 260,401 260,402 261,403 261,404 262,405 262,407 263,408 263,409 
	264,410 264,411 265,412 265,414 266,415 266,416 267,417 267,418 268,419 268,420 269,421 269,422 270,423 292,423 293,422 
	299,422 300,421 304,421 305,420 308,420 309,419 311,419 312,418 315,418 316,417 318,417 319,416 321,416 322,415 323,415 
	324,414 326,414 327,413 328,413 329,412 331,412 332,411 333,411 334,410 335,410 336,409 337,409 338,408 339,408 340,407 
	341,407 342,406 343,406 344,405 345,405 346,404 347,404 348,403 349,403 351,401 352,401 353,400 354,400 356,398 357,398 
	358,397 359,397 361,395 362,395 365,392 366,392 369,389 370,389 371,388 371,385 370,384 370,381 369,380 369,376 368,375 
	368,372 367,371 367,368 366,367 366,363 365,362 365,359 364,358 364,355 363,354 363,350 362,349 362,346 361,345 361,342 
	360,341 360,337 359,336 359,333 358,332 358,329 357,328 357,295 356,294 356,280 355,279 355,268 354,267 354,257 353,256 
	353,246 352,245 352,237 351,236 351,228 350,227 350,225 351,224 351,203 352,202 352,181 353,180 353,165 354,164 354,162 
	355,161 355,158 356,157 356,149 355,148 355,146 354,145 354,143 353,142 353,137 354,136 354,126 355,125 355,119 356,118 
	356,111 357,110 357,89 356,88 356,86 354,84 346,84 345,85 344,85 339,90 339,91 338,92 338,93 337,94 337,95 336,96 336,97 
	335,98 335,100 334,101 334,103 333,104 333,106 332,107 332,110 331,111 331,114 330,115 330,119 329,120 329,124 328,125 328,130 
	327,131 327,137 326,138 326,145 325,146 325,151 324,152 324,155 323,156 323,159 322,160 322,163 321,164 321,167 320,168 
	320,172 319,173 319,176 318,177 318,180 317,181 317,182 316,183 315,182 315,181 314,180 314,179 309,174 308,174 306,172 
	305,172 302,169 301,169 300,168 299,168 298,167 290,167 289,168 286,168 283,171 283,172 282,173 282,175 281,176 279,174 
	279,171 278,170 278,168 277,167 277,166 271,160 269,160 268,159 257,159 256,160 255,160 254,161 253,161 251,163 250,163 
	249,164 249,165 246,168 246,169 244,171 244,172 243,173 243,175 242,176 241,175 241,169 242,168 242,157 241,156 241,138 
	240,137 240,118 241,117 241,95 242,94 242,84 243,83 243,67 242,66 242,60 241,59 241,57 240,56 240,54 238,52 238,51 237,51 
	235,49 "/>
</svg>
