<svg xmlns="http://www.w3.org/2000/svg" width="73.81" height="145.56" viewBox="0 0 73.81 145.56">
  <title>PeaceOut</title>
  <g id="Layer_2" data-name="Layer 2">
    <g id="PeaceOut">
      <path d="M13.23,145.06S7,138,2.9,106.56c0,0-4-11.67-1.67-23.33l1-20-.33-22v-18s-2.07-21.67,5-20c0,0,6-4.24,6.36,14l2,17.66,4,21.67H22.9s2,1.17,4.33-6.92c0,0,5-20.41,7-20.75l4-12.33S44.56-2.44,50.9.89c0,0,8.33-2,0,17.67l-4.34,15s-3,15.67-6.33,24.33v6.67s-.33-10.67,8.67-4l3,3.67,1.66,8.55s3-.55,6,4.78c0,0,8.67,9,2.34,20.33,0,0,4.05,22.43-.81,28.72L72.9,145.06Z" stroke="#000" stroke-miterlimit="10"/>
    </g>
  </g>
</svg>
