<svg xmlns="http://www.w3.org/2000/svg" width="116.68" height="158.5" viewBox="0 0 116.68 158.5">
  <title>RockOn</title>
  <g id="Layer_2" data-name="Layer 2">
    <g id="RockOn">
      <path d="M67.27,143.1s-20.16-10.46-25.14-22.61c0,0-13.28-18.08-22.29-21.47,0,0-4-2-6.88-9.89L8,82.35.63,75.28S7.27,63.7,24.82,82.63c0,0,11.15,5.09,16.13,11.59,0,0,0-28.83,5.93-48.32A176.64,176.64,0,0,1,49,27.81S50.2-2.14,57.07.69c0,0,7.36-3.11,4,21.19l-.24,14.69s1.42,13.28-.24,23.17c0,0,2.14-12.71,9.25-12.71,0,0,6.17-1.41,7.59,6.21l1.19,4.81S78.18,51,81,51c0,0,4.5-2,7.11,1.42a9,9,0,0,1,5.22,6.5l4-17s2.61-28.82,10.2-26.28c0,0,5.22-4.23,1.19,18.65L108.54,40s2.61,3.39,0,9.33l-1.19,26s3.3,27.7,3,42.67l5.83,25.15s-20.4,17-42.45,14.69Z" stroke="#000" stroke-miterlimit="10"/>
    </g>
  </g>
</svg>
