<svg xmlns="http://www.w3.org/2000/svg" width="141.51" height="177.04" viewBox="0 0 141.51 177.04">
  <title>ThumbsUp</title>
  <g id="Layer_2" data-name="Layer 2">
    <g id="ThumbsUp">
      <path d="M95.75,176.5,77.5,144.25s-11.25,4.25-34-10c0,0-.75,2-5.25,2.5,0,0-19.5,1-19.5-3.5a7,7,0,0,1,0-9s-11.75-1-14-8.5c0,0-1-5.75,3-7.5l-7.25-7V96s5-9.5,6.75-9L2,80.25s-.11-7.58,3.32-8.16l12.22-8.68,7.3-4.89s17.66-9.77,27.91-1.27l-6.5-18.7s-2.5-16.8,1-25c0,0,4.85-16,12.3-12.5L61,18.75l5.75,17.31,3,5.44L84.88,71.58s1.87-3.33,13.37,26.67L109.5,109a28.06,28.06,0,0,1,8.75,9.75l22.59,29S109.75,177.75,95.75,176.5Z" stroke="#000" stroke-miterlimit="10"/>
    </g>
  </g>
</svg>
