<?xml version="1.0" standalone="no" ?>
<!DOCTYPE svg PUBLIC "-//W3C//DTD SVG 1.1//EN" "http://www.w3.org/Graphics/SVG/1.1/DTD/svg11.dtd">
<svg width="1024px" height="1024px" xmlns="http://www.w3.org/2000/svg" version="1.1" >
	<polygon points="476,233 475,234 473,234 471,236 470,236 469,237 468,237 467,238 463,238 462,239 460,239 459,240 457,240 456,241 454,241 452,243 451,243 448,246 448,247 444,251 443,251 441,253 440,253 437,256 436,256 434,258 434,259 432,261 432,263 431,264 431,267 430,268 430,269 429,270 429,271 427,273 427,274 425,276 425,278 424,279 424,287 423,288 423,290 422,291 422,319 423,320 423,332 424,333 424,346 425,347 425,349 426,350 426,351 427,352 427,358 426,359 426,365 425,366 425,372 424,373 424,380 423,381 423,386 420,389 420,390 419,391 419,392 418,393 418,401 415,404 414,404 413,405 413,406 412,407 412,408 411,409 411,412 410,413 410,415 409,416 409,417 408,418 407,418 405,420 405,421 404,422 404,425 402,427 388,427 387,426 382,426 381,425 357,425 356,424 331,424 330,425 323,425 322,426 320,426 319,427 314,427 313,428 312,428 311,429 309,429 308,430 305,430 304,431 303,431 301,433 299,433 298,434 296,434 291,439 288,439 287,440 286,440 286,441 284,443 284,444 281,447 279,447 277,449 277,451 276,452 276,454 275,455 275,457 274,458 274,459 272,461 271,461 269,463 269,465 268,466 268,498 269,499 269,500 270,501 272,501 273,502 273,503 274,504 274,506 275,507 275,508 276,509 278,509 280,511 280,512 281,513 283,513 284,514 285,514 286,515 287,515 288,516 289,516 290,517 292,517 293,518 295,518 296,519 302,519 303,520 313,520 314,521 330,521 331,522 341,522 342,523 344,523 346,525 350,525 353,528 353,529 354,529 355,530 356,530 357,531 358,531 361,534 361,535 362,536 362,537 363,538 363,539 364,540 364,541 366,543 366,544 368,546 368,547 370,549 370,550 373,553 373,554 377,558 377,560 378,561 378,562 380,564 381,564 382,565 383,565 386,568 386,570 387,571 387,572 393,578 394,578 404,588 404,589 409,594 410,594 411,595 412,595 413,596 416,596 419,599 419,600 420,601 421,601 422,602 423,602 424,603 427,603 428,604 428,605 432,609 434,609 435,610 436,610 437,611 437,612 439,614 439,615 442,618 443,618 444,619 447,619 460,632 460,635 461,636 461,637 462,638 462,639 463,640 464,640 467,643 468,643 469,644 469,646 470,647 470,649 474,653 474,656 475,657 475,658 478,661 478,663 479,664 479,666 480,667 480,668 479,669 479,677 478,678 478,681 477,682 477,687 476,688 476,700 475,701 475,704 476,705 476,712 477,713 477,717 478,718 478,719 479,720 479,725 480,726 480,727 482,729 483,729 484,730 484,733 485,734 485,735 488,738 489,738 491,740 492,740 493,741 493,742 494,743 494,744 497,747 499,747 500,748 502,748 503,749 506,749 509,752 509,753 510,753 511,754 512,754 513,755 528,755 529,756 530,756 531,757 532,757 533,758 535,758 536,759 564,759 565,758 571,758 572,757 576,757 577,756 580,756 581,755 582,755 583,754 584,754 587,751 588,751 590,749 591,749 592,748 595,748 596,747 598,747 599,746 601,746 602,745 603,745 604,744 604,743 605,742 605,741 607,739 608,739 609,738 611,738 614,735 614,733 616,731 618,731 620,729 620,727 621,726 621,725 622,724 623,724 625,722 625,720 626,719 626,718 627,717 628,717 629,716 629,715 630,714 630,712 633,709 633,707 634,706 634,705 637,702 637,700 638,699 638,698 642,694 642,691 645,688 646,688 646,687 647,686 647,685 648,684 648,681 649,680 650,680 653,677 654,677 656,675 656,674 657,673 657,672 658,671 658,667 659,666 659,665 660,664 660,663 661,662 661,661 662,660 662,659 665,656 665,655 666,654 666,653 667,652 667,633 668,632 668,630 669,629 669,621 668,620 668,616 667,615 667,612 666,611 666,607 665,606 665,603 664,602 664,599 663,598 663,594 662,593 662,590 661,589 661,586 660,585 660,581 659,580 659,577 658,576 659,575 659,574 661,572 661,562 662,561 663,561 665,559 665,554 666,553 667,553 669,551 669,545 672,542 672,540 673,539 674,539 676,537 676,534 677,533 678,533 679,532 679,529 680,528 680,526 683,523 683,516 686,513 686,503 689,500 689,486 688,485 688,453 689,452 689,438 690,437 690,433 691,432 691,424 690,423 690,421 688,419 688,407 687,406 687,405 686,405 684,403 684,392 683,391 683,390 682,389 681,389 680,388 680,381 681,380 681,367 680,366 680,365 679,365 677,363 677,333 676,332 676,331 675,331 674,330 673,330 672,329 672,327 671,326 671,324 670,323 670,321 669,320 669,319 667,317 665,317 663,315 663,314 662,313 662,312 659,309 656,309 655,308 654,308 653,307 653,306 652,305 651,305 650,304 647,304 646,303 644,303 642,301 641,301 640,300 636,300 635,299 626,299 625,298 622,298 621,299 617,299 616,300 609,300 608,301 607,301 606,302 606,303 605,304 600,304 599,305 598,305 597,306 597,307 596,308 592,308 591,309 590,309 589,310 589,312 586,315 585,315 583,317 583,319 582,320 582,322 581,323 580,323 577,326 577,327 576,328 576,332 575,333 575,338 574,339 574,340 573,341 573,342 572,343 572,345 571,346 571,348 570,349 570,351 569,352 569,354 568,355 568,356 564,360 564,361 563,362 563,363 562,364 562,366 561,367 561,371 560,372 560,374 558,376 557,376 557,377 556,378 556,379 555,380 555,383 554,384 554,389 549,394 548,394 547,393 546,393 545,392 544,392 543,391 536,391 535,390 534,390 533,389 532,389 531,388 530,388 529,387 526,387 525,386 525,361 526,360 526,355 527,354 527,353 529,351 529,350 530,349 530,348 531,347 531,340 533,338 533,337 534,336 534,335 535,334 535,329 537,327 537,326 538,325 538,324 539,323 539,319 540,318 540,317 541,316 541,314 542,313 542,310 543,309 543,307 544,306 544,302 545,301 545,297 546,296 546,272 545,271 545,265 544,264 544,263 542,261 542,258 541,257 541,255 538,252 537,252 532,247 532,245 530,243 530,242 529,242 527,240 526,240 525,239 523,239 522,238 521,238 520,237 518,237 517,236 515,236 514,235 511,235 510,234 507,234 506,233 " fill="none" stroke-width="1" stroke="rgb(0,0,0)" />
</svg>
