<?xml version="1.0" standalone="no" ?>
<!DOCTYPE svg PUBLIC "-//W3C//DTD SVG 1.1//EN" "http://www.w3.org/Graphics/SVG/1.1/DTD/svg11.dtd">
<svg width="1024px" height="1024px" xmlns="http://www.w3.org/2000/svg" version="1.1" >
	<polygon points="482,305 481,306 480,306 479,307 479,308 477,310 477,311 476,312 476,313 475,314 475,316 474,317 474,319 473,320 473,323 472,324 472,327 471,328 471,332 470,333 470,339 469,340 469,346 468,347 468,356 467,357 467,370 466,371 466,377 465,378 465,384 464,385 464,392 463,393 463,401 462,402 462,413 461,414 461,416 460,417 460,420 459,421 459,424 458,425 458,428 457,429 457,433 456,434 456,438 455,439 455,443 454,444 454,450 453,451 453,456 452,457 452,464 451,465 451,473 450,474 450,484 449,485 449,498 448,499 448,523 447,524 443,520 442,520 437,515 436,515 433,512 432,512 430,510 429,510 427,508 426,508 425,507 424,507 422,505 421,505 420,504 419,504 418,503 417,503 416,502 415,502 414,501 413,501 412,500 411,500 397,486 396,486 393,483 392,483 390,481 389,481 387,479 386,479 385,478 384,478 383,477 382,477 381,476 379,476 378,475 376,475 375,474 370,474 369,473 368,473 367,474 363,474 362,475 360,475 359,476 358,476 352,482 352,483 365,496 366,496 370,500 370,501 373,504 373,505 376,508 376,509 378,511 378,512 381,515 381,516 382,517 382,518 383,519 383,521 384,522 384,523 385,524 385,525 386,526 386,527 388,529 388,530 391,533 391,534 395,538 396,538 397,539 398,539 399,540 400,540 401,541 402,541 404,543 405,543 407,545 408,545 410,547 411,547 417,553 418,553 429,564 429,565 437,573 437,574 442,579 442,580 446,584 446,585 450,589 450,590 451,591 451,592 452,593 452,594 453,595 453,596 455,598 455,599 457,601 457,602 460,605 460,606 473,619 474,619 479,624 480,624 483,627 484,627 487,630 488,630 490,632 491,632 493,634 494,634 496,636 497,636 498,637 499,637 501,639 502,639 503,640 504,640 506,642 507,642 508,643 509,643 511,645 511,647 512,648 512,649 513,650 513,651 514,652 514,653 515,654 515,656 516,657 516,658 517,659 517,660 518,661 518,663 519,664 519,665 520,666 520,667 521,668 521,670 522,671 522,672 523,673 523,674 524,675 524,676 525,677 525,678 526,679 548,679 549,678 555,678 556,677 560,677 561,676 564,676 565,675 567,675 568,674 571,674 572,673 574,673 575,672 577,672 578,671 579,671 580,670 582,670 583,669 584,669 585,668 587,668 588,667 589,667 590,666 591,666 592,665 593,665 594,664 595,664 596,663 597,663 598,662 599,662 600,661 601,661 602,660 603,660 604,659 605,659 607,657 608,657 609,656 610,656 612,654 613,654 614,653 615,653 617,651 618,651 621,648 622,648 625,645 626,645 627,644 627,641 626,640 626,637 625,636 625,632 624,631 624,628 623,627 623,624 622,623 622,619 621,618 621,615 620,614 620,611 619,610 619,606 618,605 618,602 617,601 617,598 616,597 616,593 615,592 615,589 614,588 614,585 613,584 613,551 612,550 612,536 611,535 611,524 610,523 610,513 609,512 609,502 608,501 608,493 607,492 607,484 606,483 606,481 607,480 607,459 608,458 608,437 609,436 609,421 610,420 610,418 611,417 611,414 612,413 612,405 611,404 611,402 610,401 610,399 609,398 609,393 610,392 610,382 611,381 611,375 612,374 612,367 613,366 613,345 612,344 612,342 610,340 602,340 601,341 600,341 595,346 595,347 594,348 594,349 593,350 593,351 592,352 592,353 591,354 591,356 590,357 590,359 589,360 589,362 588,363 588,366 587,367 587,370 586,371 586,375 585,376 585,380 584,381 584,386 583,387 583,393 582,394 582,401 581,402 581,407 580,408 580,411 579,412 579,415 578,416 578,419 577,420 577,423 576,424 576,428 575,429 575,432 574,433 574,436 573,437 573,438 572,439 571,438 571,437 570,436 570,435 565,430 564,430 562,428 561,428 558,425 557,425 556,424 555,424 554,423 546,423 545,424 542,424 539,427 539,428 538,429 538,431 537,432 535,430 535,427 534,426 534,424 533,423 533,422 527,416 525,416 524,415 513,415 512,416 511,416 510,417 509,417 507,419 506,419 505,420 505,421 502,424 502,425 500,427 500,428 499,429 499,431 498,432 497,431 497,425 498,424 498,413 497,412 497,394 496,393 496,374 497,373 497,351 498,350 498,340 499,339 499,323 498,322 498,316 497,315 497,313 496,312 496,310 494,308 494,307 493,307 491,305 " fill="none" stroke-width="1" stroke="rgb(0,0,0)" />
</svg>
