<?xml version="1.0" encoding="iso-8859-1"?>
<!-- Generator: Adobe Illustrator 22.0.1, SVG Export Plug-In . SVG Version: 6.00 Build 0)  -->
<svg version="1.1" id="Layer_1" xmlns="http://www.w3.org/2000/svg" xmlns:xlink="http://www.w3.org/1999/xlink" x="0px" y="0px"
	 viewBox="0 0 73.81 145.56" style="enable-background:new 0 0 73.81 145.56;" xml:space="preserve">
<title>Asset 1</title>
<g id="Layer_2_1_">
	<g id="Layer_1-2">
		<g id="Layer_2-2">
			<g id="PeaceOut">
				<path style="stroke:#000000;stroke-miterlimit:10;" d="M13.23,145.06c0,0-6.23-7.06-10.33-38.5c0,0-4-11.67-1.67-23.33l1-20
					l-0.33-22v-18c0,0-2.07-21.67,5-20c0,0,6-4.24,6.36,14l2,17.66l4,21.67h3.64c0,0,2,1.17,4.33-6.92c0,0,5-20.41,7-20.75l4-12.33
					c0,0,6.33-19,12.67-15.67c0,0,8.33-2,0,17.67l-4.34,15c0,0-3,15.67-6.33,24.33v6.67c0,0-0.33-10.67,8.67-4l3,3.67l1.66,8.55
					c0,0,3-0.55,6,4.78c0,0,8.67,9,2.34,20.33c0,0,4.05,22.43-0.81,28.72l11.81,18.45H13.23z"/>
			</g>
		</g>
	</g>
</g>
</svg>
