<?xml version="1.0" encoding="iso-8859-1"?>
<!-- Generator: Adobe Illustrator 22.0.1, SVG Export Plug-In . SVG Version: 6.00 Build 0)  -->
<svg version="1.1" id="Layer_1" xmlns="http://www.w3.org/2000/svg" xmlns:xlink="http://www.w3.org/1999/xlink" x="0px" y="0px"
	 viewBox="0 0 612 792" style="enable-background:new 0 0 612 792;" xml:space="preserve">
<g>
	<path d="M320.622,407.537c1.688,0,3.384-0.107,5.061,0.029c1.753,0.143,3.484,0.539,5.231,0.787
		c1.634,0.233,3.278,0.394,4.911,0.629c3.265,0.47,6.538,0.894,9.784,1.473c4.509,0.804,9,1.706,13.488,2.618
		c1.991,0.404,3.947,0.983,5.937,1.396c3.68,0.764,7.383,1.42,11.06,2.2c5.011,1.063,10.013,2.166,15.005,3.314
		c5.485,1.261,10.949,2.614,16.432,3.887c3.882,0.902,7.779,1.738,11.671,2.6c0.116,0.026,0.241,0.003,0.358,0.026
		c0.521,0.105,1.472,0.183,1.484,0.335c0.051,0.617-0.044,1.337-0.342,1.878c-1.227,2.232-2.535,4.421-3.837,6.611
		c-2.203,3.706-4.443,7.389-6.632,11.103c-3.301,5.6-6.571,11.218-9.853,16.83c-3.044,5.205-6.026,10.448-9.147,15.607
		c-2.574,4.255-5.482,8.244-9.036,11.801c-1.965,1.967-3.371,4.513-4.918,6.871c-1.097,1.671-2.35,1.805-3.503,0.134
		c-1.089-1.58-2.067-3.237-3.155-4.818c-2.177-3.164-4.4-6.296-6.596-9.447c-1.256-1.801-2.507-3.606-3.742-5.422
		c-2.866-4.214-5.793-8.389-8.553-12.672c-1.604-2.489-2.943-5.15-4.385-7.743c-2.023-3.635-3.998-7.297-6.053-10.914
		c-2.282-4.017-4.562-8.038-6.968-11.982c-2.797-4.584-5.724-9.088-8.605-13.621c-1.429-2.249-2.841-4.51-4.335-6.715
		c-1.186-1.752-2.503-3.414-3.726-5.141c-0.618-0.873-0.241-1.613,0.804-1.65C319.182,407.517,319.902,407.538,320.622,407.537z"/>
	<path d="M193.457,434.44c-0.2-0.084-0.794-0.181-0.833-0.384c-0.062-0.327,0.273-0.714,0.385-1.092
		c0.247-0.834,0.586-1.666,0.667-2.52c0.707-7.474,0.354-14.974,0.551-22.461c0.106-4.009,0.743-8.004,1.131-12.007
		c0.177-1.828,0.318-3.66,0.501-5.487c0.237-2.352,0.494-4.701,0.754-7.05c0.134-1.211,0.364-2.415,0.43-3.629
		c0.27-4.951,0.488-9.905,0.739-14.857c0.041-0.814,0.822-1.001,1.796-0.656c4.447,1.576,8.854,3.308,13.389,4.576
		c4.122,1.152,8.122,2.559,12.074,4.167c2.952,1.201,5.935,2.335,8.941,3.392c2.123,0.746,4.305,1.325,6.467,1.959
		c2.486,0.729,4.976,1.445,7.468,2.153c2.164,0.615,4.347,1.166,6.496,1.829c1.864,0.575,3.676,1.316,5.538,1.896
		c3.43,1.068,6.893,2.031,10.317,3.115c2.386,0.756,4.706,1.728,7.102,2.449c3.365,1.012,6.793,1.814,10.156,2.83
		c3.102,0.938,6.141,2.084,9.235,3.052c1.86,0.582,3.78,0.971,5.657,1.503c1.199,0.34,2.349,0.86,3.556,1.159
		c0.98,0.243,1.454,0.87,1.146,1.686c-0.221,0.585-1.163,1.46-1.483,1.347c-1.317-0.46-2.2,0.509-3.253,0.758
		c-3.793,0.898-7.52,2.066-11.293,3.054c-4.84,1.268-9.664,2.633-14.561,3.632c-4.317,0.88-8.401,2.436-12.581,3.714
		c-5.721,1.75-11.433,3.53-17.141,5.325c-5.744,1.806-11.468,3.678-17.219,5.461c-3.617,1.122-7.296,2.048-10.897,3.216
		c-4.237,1.373-8.395,2.99-12.633,4.357c-3.789,1.222-7.64,2.252-11.467,3.356C194.293,434.37,193.968,434.372,193.457,434.44z"/>
	<path d="M422.619,405.139c0.046,1.095-0.429,1.544-1.314,1.384c-3.289-0.594-6.559-1.299-9.857-1.842
		c-4.376-0.72-8.764-1.374-13.159-1.965c-3.512-0.472-7.041-0.826-10.567-1.198c-2.59-0.274-5.191-0.449-7.778-0.749
		c-2.459-0.285-4.902-0.697-7.358-1.009c-1.447-0.184-2.909-0.249-4.358-0.425c-2.733-0.331-5.46-0.707-8.19-1.059
		c-1.639-0.211-3.274-0.494-4.921-0.592c-1.723-0.103-3.459,0.024-5.187-0.032c-4.17-0.137-8.339-0.323-12.509-0.486
		c-0.26-0.01-0.522,0.028-0.78,0.007c-0.465-0.039-0.928-0.106-1.392-0.162c0.065-0.427-0.004-0.945,0.215-1.267
		c1.68-2.462,3.459-4.857,5.123-7.329c1.593-2.366,3.116-4.781,4.612-7.21c1.769-2.872,3.416-5.821,5.223-8.668
		c2.495-3.932,5.032-7.841,7.66-11.686c2.347-3.434,4.903-6.724,7.248-10.159c1.634-2.394,2.989-4.976,4.607-7.381
		c1.948-2.897,4.045-5.695,6.073-8.539c1.32-1.852,2.658-3.691,3.941-5.569c2.654-3.886,5.279-7.793,7.91-11.695
		c0.559-0.829,1.018-0.834,1.723-0.049c2.327,2.588,3.647,5.746,5.012,8.871c1.267,2.9,2.583,5.788,3.654,8.761
		c1.284,3.565,2.375,7.202,3.469,10.832c1.093,3.624,2.077,7.281,3.127,10.918c0.842,2.919,1.652,5.849,2.586,8.738
		c0.841,2.602,1.78,5.176,2.767,7.727c1.307,3.379,2.693,6.727,4.064,10.081c1.659,4.06,3.391,8.091,4.987,12.176
		c1.165,2.982,2.163,6.03,3.231,9.051C422.56,404.835,422.601,405.068,422.619,405.139z"/>
	<path d="M200.56,353.875c1.203-1.595,2.268-3.018,3.344-4.433c2.782-3.66,5.543-7.336,8.368-10.963
		c1.092-1.403,2.332-2.69,3.504-4.031c3.333-3.811,6.665-7.621,9.999-11.431c0.105-0.12,0.224-0.228,0.336-0.343
		c2.667-2.747,5.341-5.486,7.997-8.243c1.809-1.878,3.607-3.765,5.381-5.676c2.496-2.689,4.916-5.45,7.457-8.096
		c3.909-4.073,7.885-8.082,11.852-12.099c0.835-0.845,1.74-1.622,2.638-2.403c0.669-0.583,1.318-0.389,1.574,0.568
		c0.534,1.999,1.023,4.013,1.44,6.039c0.703,3.412,1.331,6.84,1.999,10.26c0.856,4.38,1.701,8.763,2.585,13.138
		c1.202,5.947,2.321,11.915,3.688,17.824c1.507,6.513,3.289,12.962,4.883,19.455c0.578,2.355,0.9,4.773,1.452,7.135
		c0.604,2.586,1.371,5.134,2.009,7.712c0.656,2.653,1.259,5.319,1.84,7.99c0.111,0.512-0.087,0.991,0.445,1.498
		c0.511,0.487-0.175,1.468-1.025,1.377c-1.32-0.141-2.653-0.355-3.924-0.728c-5.477-1.607-10.969-3.175-16.387-4.965
		c-5.644-1.864-11.197-4.002-16.813-5.951c-2.84-0.986-5.727-1.84-8.605-2.715c-4.522-1.375-9.073-2.659-13.574-4.099
		c-2.117-0.678-4.115-1.721-6.223-2.436c-2.361-0.801-4.786-1.412-7.18-2.116c-1.685-0.495-3.353-1.055-5.052-1.493
		c-0.943-0.243-1.936-0.284-2.904-0.435C201.408,354.177,201.166,354.066,200.56,353.875z"/>
	<path d="M371.965,295.674c0.233,0.501,0.627,0.934,0.543,1.234c-0.596,2.143-1.308,4.254-1.947,6.386
		c-0.752,2.507-1.385,5.052-2.221,7.53c-0.973,2.884-2.088,5.721-3.178,8.564c-1.905,4.968-4.001,9.87-5.713,14.902
		c-1.748,5.137-4.54,9.735-6.917,14.549c-1.764,3.573-3.656,7.084-5.371,10.679c-2.341,4.907-4.587,9.859-6.836,14.808
		c-1.556,3.425-2.982,6.911-4.587,10.312c-1.674,3.546-3.483,7.028-5.252,10.528c-1.085,2.147-2.154,4.305-3.345,6.392
		c-0.353,0.619-1.327,1.542-1.618,1.414c-0.84-0.367-1.922-0.403-2.337-1.772c-0.328-1.084-1.592-1.895-2.471-2.798
		c-1.296-1.333-2.606-2.653-3.934-3.954c-0.82-0.803-1.701-1.544-2.527-2.342c-5.089-4.919-10.201-9.815-15.244-14.782
		c-2.995-2.95-5.863-6.029-8.82-9.018c-0.779-0.788-0.755-1.448-0.002-2.196c2.535-2.521,5.027-5.085,7.595-7.572
		c2.582-2.502,5.176-4.997,7.873-7.372c2.391-2.105,4.954-4.015,7.396-6.065c0.992-0.832,1.833-1.841,2.795-2.712
		c2.92-2.642,5.89-5.229,8.789-7.894c1.094-1.005,1.988-2.226,3.076-3.238c2.056-1.915,4.2-3.733,6.279-5.623
		c1.544-1.403,3.022-2.88,4.567-4.282c2.098-1.903,4.213-3.788,6.354-5.642c2.371-2.053,4.663-4.227,7.199-6.057
		c4.577-3.303,9.329-6.363,13.968-9.583c1.547-1.074,2.964-2.334,4.454-3.491C370.895,296.298,371.31,296.085,371.965,295.674z"/>
	<path d="M274.628,514.328c-1.75-0.361-1.636-1.639-1.703-2.667c-0.163-2.499-0.186-5.007-0.268-7.511
		c-0.159-4.849-0.295-9.699-0.494-14.547c-0.064-1.552-0.44-3.099-0.421-4.645c0.03-2.529,0.267-5.056,0.415-7.584
		c0.009-0.16,0.014-0.319,0.02-0.479c0.156-4.508,0.364-9.016,0.451-13.526c0.079-4.084-0.035-8.173,0.045-12.257
		c0.091-4.586,0.378-9.169,0.439-13.756c0.045-3.39-0.13-6.783-0.218-10.174c-0.071-2.76-0.145-5.52-0.245-8.278
		c-0.033-0.906-0.205-1.808-0.215-2.713c-0.01-0.908,0.517-1.087,1.356-0.893c2.434,0.564,4.872,1.123,7.327,1.583
		c2.119,0.397,4.258,0.705,6.399,0.964c2.899,0.351,5.812,0.585,8.712,0.931c1.635,0.195,3.254,0.518,4.882,0.773
		c2.558,0.401,5.133,0.717,7.674,1.208c4.224,0.817,8.43,1.727,12.635,2.638c0.902,0.195,1.386,0.866,1.038,1.779
		c-0.721,1.893-1.457,3.79-2.334,5.614c-1.374,2.856-2.769,5.711-4.341,8.46c-1.965,3.436-4.124,6.76-6.188,10.139
		c-1.754,2.871-3.528,5.731-5.23,8.633c-2.397,4.086-4.776,8.184-7.09,12.318c-2.487,4.442-4.98,8.886-7.308,13.412
		c-2.83,5.502-5.457,11.107-8.234,16.636c-1.831,3.647-3.781,7.235-5.656,10.86C275.545,512.272,275.09,513.338,274.628,514.328z"/>
	<path d="M261.808,433.081c-0.389,2.846-0.781,5.691-1.167,8.537c-0.328,2.414-0.562,4.844-0.995,7.239
		c-0.83,4.585-1.747,9.154-2.675,13.721c-0.833,4.101-1.664,8.204-2.624,12.276c-0.484,2.051-1.213,4.048-1.901,6.045
		c-0.916,2.657-1.829,5.319-2.876,7.926c-0.873,2.173-1.937,4.269-2.92,6.397c-0.37,0.802-1.282,0.809-2.058,0.031
		c-1.78-1.786-3.578-3.553-5.342-5.354c-2.354-2.404-4.804-4.73-6.988-7.282c-2.193-2.563-4.101-5.369-6.15-8.057
		c-0.62-0.813-1.273-1.603-1.948-2.371c-3.003-3.418-6.078-6.775-9.016-10.247c-3.281-3.878-6.442-7.859-9.656-11.794
		c-0.748-0.916-1.514-1.817-2.249-2.742c-0.695-0.875-0.625-1.581,0.418-1.954c2.562-0.916,5.183-1.665,7.774-2.503
		c3.458-1.118,6.879-2.36,10.37-3.359c3.641-1.042,7.352-1.838,11.022-2.783c1.739-0.448,3.445-1.021,5.177-1.492
		c3.052-0.831,6.077-1.825,9.179-2.39c4.386-0.798,8.547-2.204,12.679-3.796c0.353-0.136,1.325,0.377,1.438,0.758
		c0.296,1.002,0.277,2.098,0.383,3.156C261.724,433.054,261.766,433.068,261.808,433.081z"/>
	<path d="M299.536,285.438c1.583-0.1,3.166-0.273,4.75-0.281c1.704-0.008,3.409,0.176,5.114,0.211
		c2.007,0.04,4.018-0.046,6.024,0.022c3.472,0.117,6.96,0.142,10.407,0.521c2.95,0.324,5.865,1.027,8.766,1.691
		c1.032,0.236,1.265,1.333,1.662,2.231c0.387,0.876-0.117,1.246-0.59,1.783c-2.507,2.844-4.988,5.712-7.462,8.586
		c-1.313,1.526-2.641,3.042-3.876,4.631c-0.961,1.236-1.798,2.569-2.671,3.872c-2.378,3.55-4.691,7.146-7.133,10.651
		c-2.378,3.414-4.934,6.703-7.32,10.112c-2.539,3.629-4.981,7.326-7.444,11.008c-1.526,2.28-2.972,4.615-4.535,6.869
		c-0.738,1.065-1.677,1.989-2.502,2.996c-0.341,0.416-0.538,0.996-0.95,1.294c-0.466,0.336-1.101,0.439-1.663,0.644
		c-0.085-0.408-0.219-0.812-0.248-1.223c-0.165-2.413-0.065-4.872-0.503-7.232c-1.029-5.539-2.349-11.024-3.482-16.545
		c-1.008-4.91-1.967-9.831-2.868-14.762c-0.79-4.321-1.494-8.657-2.19-12.994c-0.516-3.218-0.943-6.45-1.437-9.672
		c-0.273-1.782,0.146-2.561,2.082-2.965c1.881-0.392,3.807-0.619,5.724-0.77c4.108-0.323,8.223-0.551,12.335-0.818
		C299.53,285.344,299.533,285.391,299.536,285.438z"/>
	<path d="M344.904,510.612c-3.624,0.444-7.019,0.89-10.421,1.266c-2.042,0.225-4.099,0.304-6.143,0.514
		c-2.622,0.269-5.237,0.612-7.857,0.904c-1.724,0.192-3.467,0.262-5.176,0.547c-2.27,0.378-4.523,0.878-6.768,1.391
		c-1.222,0.279-1.95-0.213-1.7-1.346c0.807-3.661,1.657-7.313,2.485-10.97c0.89-3.93,1.687-7.883,2.682-11.786
		c1.276-5.001,2.606-9.992,4.104-14.93c1.359-4.481,3.045-8.862,4.445-13.331c0.652-2.083,0.962-4.273,1.439-6.411
		c0.51-2.287,1.144-4.553,1.523-6.86c0.376-2.289,0.518-4.618,0.729-6.933c0.05-0.548,0.009-1.054,0.782-1.054
		c0.689,0,1.101,0.274,1.231,0.972c0.452,2.437,0.714,4.932,1.418,7.294c1.683,5.647,3.595,11.225,5.374,16.844
		c0.483,1.526,0.797,3.104,1.239,4.644c1.208,4.208,2.46,8.403,3.661,12.613c0.89,3.119,1.691,6.264,2.598,9.378
		c0.72,2.474,1.536,4.92,2.319,7.375c0.863,2.705,1.79,5.392,2.556,8.124C345.569,509.367,345.085,510.052,344.904,510.612z"/>
</g>
</svg>
