<?xml version="1.0" encoding="iso-8859-1"?>
<!-- Generator: Adobe Illustrator 22.0.1, SVG Export Plug-In . SVG Version: 6.00 Build 0)  -->
<svg version="1.1" id="Layer_1" xmlns="http://www.w3.org/2000/svg" xmlns:xlink="http://www.w3.org/1999/xlink" x="0px" y="0px"
	 viewBox="0 0 612 792" style="enable-background:new 0 0 612 792;" xml:space="preserve">
<g>
	<path d="M302.292,441.352c0.421-1.788,0.773-3.595,1.279-5.359c0.893-3.114,1.888-6.198,2.826-9.299
		c1.004-3.322,1.988-6.649,2.991-9.971c0.09-0.297,0.201-0.625,0.404-0.842c0.385-0.409,0.816-0.979,1.284-1.038
		c0.329-0.042,0.85,0.591,1.116,1.026c2.167,3.539,4.351,7.07,6.418,10.667c1.788,3.112,3.429,6.309,5.138,9.467
		c0.148,0.273,0.321,0.534,0.471,0.806c0.441,0.798,0.201,1.37-0.633,1.651c-2.955,0.999-5.897,2.042-8.883,2.939
		c-3.1,0.931-6.246,1.712-9.372,2.558c-1.635,0.442-2.689-0.316-2.911-2.098c-0.02-0.157-0.003-0.319-0.003-0.479
		C302.377,441.371,302.335,441.362,302.292,441.352z"/>
	<path d="M302.781,346.856c-0.33,0.288-0.635,0.773-1.024,0.855c-1.531,0.32-3.081,0.583-4.637,0.738
		c-3.652,0.362-7.31,0.659-10.968,0.964c-2.165,0.181-4.332,0.349-6.5,0.48c-0.962,0.058-1.931,0.003-2.896,0.011
		c-0.907,0.008-1.126-0.45-0.739-1.187c0.452-0.859,0.94-1.706,1.492-2.503c2.456-3.545,4.939-7.071,7.416-10.601
		c1.171-1.669,2.308-3.365,3.544-4.985c0.573-0.752,1.311-1.393,2.037-2.01c0.693-0.588,1.334-0.371,1.778,0.376
		c2.084,3.501,4.132,7.025,6.245,10.509c1.128,1.859,2.385,3.639,3.535,5.486C302.368,345.475,302.489,346.074,302.781,346.856z"/>
	<path d="M364.092,463.208c0.321-0.868,0.705-2.092,1.219-3.258c1.81-4.115,3.653-8.215,5.509-12.31
		c0.367-0.81,0.673-1.891,1.33-2.243c0.475-0.254,1.496,0.47,2.254,0.8c1.617,0.705,3.23,1.42,4.831,2.162
		c3.576,1.659,7.142,3.339,10.715,5.006c1.095,0.511,2.209,0.983,3.289,1.523c0.414,0.207,0.912,0.484,1.086,0.861
		c0.15,0.324,0.043,1.072-0.204,1.226c-1.25,0.778-2.511,1.693-3.9,2.062c-3.623,0.962-7.319,1.645-10.977,2.476
		c-1.944,0.442-3.868,0.97-5.806,1.442c-2.611,0.635-5.222,1.273-7.843,1.867C364.776,465.007,364.114,464.404,364.092,463.208z"/>
	<path d="M336.022,450.206c0.153-0.999,0.68-1.201,1.467-1.159c3.495,0.183,6.991,0.428,10.488,0.456
		c2.372,0.019,4.747-0.404,7.121-0.411c2.127-0.006,4.258,0.262,6.382,0.46c0.983,0.092,1.365,0.715,0.996,1.663
		c-1.137,2.916-2.369,5.795-3.482,8.72c-1.236,3.249-2.36,6.542-3.589,9.794c-0.188,0.497-0.64,1.182-1.04,1.233
		c-0.436,0.056-1.092-0.419-1.415-0.843c-3.065-4.033-6.018-8.151-9.131-12.145c-1.716-2.2-3.634-4.249-5.553-6.279
		C337.652,451.045,336.742,450.672,336.022,450.206z"/>
	<path d="M374.531,360.307c-0.393,0.042-0.921,0.154-1.446,0.144c-1.13-0.022-1.493-0.519-1.201-1.608
		c0.853-3.183,2.027-6.228,3.882-8.982c0.305-0.453,0.486-0.989,0.759-1.466c1.591-2.791,3.195-5.574,4.789-8.363
		c0.271-0.475,0.571-0.943,0.765-1.45c0.287-0.752,0.774-1.324,1.566-1.077c0.5,0.156,1.005,0.686,1.258,1.177
		c0.855,1.658,1.495,3.431,2.406,5.054c1.974,3.517,4.059,6.971,6.114,10.442c0.439,0.742,1.008,1.413,1.389,2.18
		c0.243,0.489,0.462,1.177,0.291,1.621c-0.123,0.319-0.894,0.476-1.399,0.547c-2.076,0.294-4.16,0.536-6.243,0.783
		c-1.327,0.157-2.654,0.313-3.985,0.429c-2.749,0.238-5.5,0.45-8.251,0.664C375.042,360.416,374.854,360.354,374.531,360.307z"/>
	<path d="M384.017,438.072c0.191-0.478,0.496-1.116,0.704-1.785c1.724-5.548,3.682-10.999,6.503-16.105
		c0.282-0.511,0.437-1.092,0.721-1.602c0.616-1.108,1.764-1.079,2.593-0.119c1.795,2.079,3.676,4.083,5.523,6.118
		c0.341,0.376,0.654,0.782,1.027,1.121c2.434,2.213,4.924,4.366,7.296,6.643c0.657,0.631,0.973,1.617,1.446,2.44
		c-0.925,0.347-1.827,0.795-2.781,1.018c-1.791,0.417-3.607,0.738-5.423,1.036c-2.517,0.413-5.054,0.711-7.564,1.16
		c-2.882,0.516-5.872,0.508-8.61,1.757C384.731,440.083,384.048,439.343,384.017,438.072z"/>
	<path d="M426.463,398.494c0,2.382-0.039,4.765,0.018,7.146c0.025,1.054,0.176,2.118,0.392,3.152
		c0.367,1.757-0.238,2.421-2.003,2.179c-1.285-0.176-2.585-0.245-3.879-0.347c-4.052-0.321-8.108-0.605-12.157-0.964
		c-3.07-0.272-6.137-0.602-9.195-0.988c-0.577-0.073-1.105-0.53-1.656-0.81c0.306-0.55,0.475-1.344,0.943-1.609
		c1.934-1.095,3.96-2.027,5.951-3.023c1.387-0.694,2.754-1.428,4.16-2.08c0.738-0.342,1.564-0.491,2.307-0.824
		c1.176-0.527,2.327-1.114,3.47-1.712c3.014-1.576,6.014-3.18,9.031-4.75c0.591-0.308,0.973-1.002,1.965-0.425
		c0.975,0.567,0.75,1.364,0.857,2.064c0.149,0.976,0.037,1.992,0.037,2.99C426.622,398.495,426.543,398.494,426.463,398.494z"/>
	<path d="M340.687,326.77c0.124-2.69,0.278-5.379,0.36-8.07c0.056-1.864-0.051-3.733,0.026-5.595
		c0.095-2.29,0.287-4.577,0.476-6.862c0.081-0.986,1.244-1.415,2.143-0.793c2.161,1.496,4.305,3.016,6.454,4.528
		c2.761,1.944,5.531,3.874,8.274,5.842c1.339,0.961,2.67,1.945,3.921,3.017c0.902,0.774,0.769,1.548-0.325,1.972
		c-2.44,0.946-4.929,1.764-7.369,2.711c-1.49,0.578-2.912,1.328-4.387,1.946c-2.563,1.074-5.131,2.137-7.721,3.144
		c-1.556,0.605-1.95,0.292-1.96-1.364c-0.001-0.16,0-0.32,0-0.48C340.614,326.767,340.65,326.768,340.687,326.77z"/>
	<path d="M359.288,503.038c-0.302-0.523-0.601-0.873-0.72-1.275c-1.532-5.169-3.089-10.331-4.528-15.526
		c-0.656-2.369-1.069-4.805-1.59-7.211c-0.176-0.815,0.364-1.296,1.226-1.215c2.163,0.203,4.336,0.307,6.495,0.538
		c2.894,0.309,5.784,0.662,8.665,1.072c1.188,0.169,2.364,0.48,3.516,0.826c1.096,0.329,0.96,1.101,0.485,1.883
		c-2.237,3.685-4.491,7.36-6.721,11.05c-1.739,2.878-3.424,5.79-5.202,8.644C360.62,502.295,359.969,502.545,359.288,503.038z"/>
	<path d="M279.26,440.223c0.379,0.401,0.805,0.693,1.015,1.098c1.627,3.13,2.86,6.392,3.686,9.845
		c0.707,2.955,1.801,5.818,2.723,8.722c0.756,2.38,1.548,4.75,2.235,7.15c0.114,0.399-0.095,1.046-0.387,1.369
		c-0.431,0.477-0.888,0.211-1.413-0.187c-2.282-1.726-4.67-3.313-6.956-5.035c-2.259-1.702-4.483-3.457-6.648-5.278
		c-2.224-1.871-4.368-3.839-6.523-5.79c-0.419-0.38-0.733-0.877-1.089-1.326c-0.444-0.559-0.184-0.868,0.342-1.206
		c2.571-1.651,5.17-3.266,7.654-5.04c1.443-1.03,2.677-2.35,4.029-3.511C278.272,440.739,278.709,440.553,279.26,440.223z"/>
	<path d="M310.66,339.588c-1.915-2.015-3.544-3.723-5.167-5.438c-2.77-2.927-5.539-5.855-8.302-8.79
		c-0.295-0.313-0.518-0.693-0.815-1.003c-0.869-0.906-0.164-1.476,0.544-1.647c3.112-0.754,6.242-1.451,9.391-2.032
		c2.659-0.491,5.349-0.824,8.033-1.174c2.259-0.295,4.528-0.508,6.791-0.772c0.422-0.049,0.834-0.211,1.256-0.242
		c0.425-0.032,1.083-0.123,1.234,0.094c0.224,0.321,0.279,1.002,0.08,1.337c-0.919,1.547-1.94,3.033-2.942,4.53
		c-2.2,3.285-4.414,6.559-6.613,9.844C313.062,335.918,311.998,337.556,310.66,339.588z"/>
	<path d="M357.37,361.947c1.657,0.212,3.084,0.395,4.511,0.578c2.845,0.364,5.688,0.748,8.536,1.087
		c2.855,0.34,5.715,0.636,8.574,0.948c0.862,0.094,1.725,0.168,2.587,0.261c0.757,0.082,0.949,0.556,0.799,1.225
		c-0.588,2.636-1.22,5.262-1.766,7.906c-0.673,3.256-1.288,6.524-1.901,9.792c-0.133,0.708-0.438,0.947-1.037,0.509
		c-0.793-0.58-1.581-1.176-2.302-1.841c-1.697-1.566-3.369-3.16-5.017-4.777c-0.705-0.692-1.288-1.509-1.993-2.201
		c-1.62-1.589-3.309-3.108-4.916-4.709c-1.364-1.359-2.642-2.805-3.978-4.193c-0.887-0.922-1.846-1.778-2.694-2.733
		c-0.294-0.331-0.572-0.945-0.455-1.294C356.421,362.198,357.088,362.082,357.37,361.947z"/>
	<path d="M253.524,411.746c-0.161,0.201-0.298,0.541-0.515,0.603c-0.333,0.095-0.784,0.118-1.073-0.037
		c-1.375-0.737-2.705-1.556-4.064-2.323c-3.854-2.177-7.77-4.241-11.299-6.962c-1.951-1.504-4.111-2.735-6.12-4.168
		c-1.959-1.397-1.799-1.716-0.64-3.134c2.684-3.285,4.267-7.195,6-11.011c0.141-0.31,0.007-0.778,0.195-1.026
		c0.325-0.43,0.867-1.094,1.199-1.03c0.573,0.109,1.09,0.662,1.559,1.105c0.2,0.189,0.181,0.59,0.324,0.862
		c1.413,2.692,2.818,5.387,4.268,8.059c1.063,1.959,2.223,3.865,3.278,5.827c1.723,3.205,3.393,6.438,5.091,9.656
		c0.457,0.867,0.94,1.72,1.396,2.588C253.265,411.027,253.357,411.327,253.524,411.746z"/>
	<path d="M293.822,476.763c-5.378,0-10.757-0.007-16.135,0.005c-1.46,0.003-2.923,0.01-4.379,0.107
		c-2.376,0.158-3.94-0.769-5.031-2.963c-1.687-3.396-3.664-6.647-5.433-10.004c-0.483-0.916-0.73-1.977-0.962-3
		c-0.239-1.055,1.188-1.929,2.347-1.395c1.786,0.824,3.523,1.754,5.285,2.631c2.97,1.478,5.911,3.016,8.921,4.407
		c3.872,1.789,7.831,3.391,11.689,5.206c1.758,0.827,3.38,1.95,5.031,2.99c0.382,0.24,0.959,0.88,0.885,1.007
		c-0.268,0.458-0.746,0.821-1.205,1.128c-0.274,0.183-0.662,0.196-0.998,0.285C293.833,477.033,293.828,476.898,293.822,476.763z"/>
	<path d="M281.983,330.651c0,1.24-0.046,2.482,0.014,3.719c0.051,1.051-0.554,1.166-1.353,1.124
		c-1.517-0.08-3.037-0.128-4.552-0.237c-2.891-0.209-5.78-0.451-8.669-0.683c-1.064-0.085-2.134-0.131-3.187-0.29
		c-0.548-0.083-1.381-0.25-1.517-0.601c-0.173-0.444,0.087-1.214,0.408-1.669c3.627-5.154,7.286-10.285,10.971-15.398
		c1.378-1.912,2.789-3.806,4.29-5.621c0.906-1.096,1.671-0.88,2.015,0.533c0.37,1.52,0.719,3.069,0.833,4.624
		c0.354,4.826,0.592,9.661,0.875,14.493C282.067,330.646,282.025,330.648,281.983,330.651z"/>
	<path d="M239.602,494.652c-0.524-0.334-1.066-0.645-1.571-1.007c-3.506-2.511-7.007-5.029-10.502-7.554
		c-0.573-0.414-1.153-0.832-1.657-1.322c-0.551-0.535-0.339-1.104,0.214-1.48c0.834-0.568,1.702-1.095,2.591-1.573
		c3.733-2.008,7.473-4.003,11.224-5.978c3.12-1.644,6.253-3.265,9.399-4.86c0.288-0.146,0.936-0.162,1.029-0.007
		c0.295,0.493,0.689,1.19,0.539,1.641c-0.638,1.925-1.386,3.822-2.227,5.669c-1.556,3.422-3.162,6.824-4.833,10.192
		c-0.883,1.781-1.942,3.474-2.929,5.203c-0.276,0.483-0.579,0.95-0.87,1.424C239.872,494.885,239.737,494.768,239.602,494.652z"/>
	<path d="M341.051,368.177c-0.215,2.167-0.404,4.173-0.616,6.177c-0.095,0.898-0.254,1.789-0.349,2.687
		c-0.181,1.706-0.319,3.416-0.506,5.121c-0.416,3.794-0.853,7.585-1.279,11.378c-0.062,0.549,0.039,1.18-0.204,1.627
		c-0.242,0.447-0.785,0.89-1.267,0.989c-0.303,0.062-0.892-0.433-1.087-0.815c-1.279-2.497-2.563-4.998-3.697-7.563
		c-1.398-3.165-2.61-6.411-3.98-9.589c-1.006-2.334-2.123-4.622-3.218-6.917c-0.832-1.744-0.182-2.803,1.762-2.86
		c2.024-0.059,4.045-0.195,6.069-0.226C335.321,368.147,337.965,368.177,341.051,368.177z"/>
	<path d="M238.04,446.667c0.577,0.218,1.385,0.511,2.183,0.827c3.885,1.539,7.725,3.202,11.664,4.589
		c3.124,1.1,6.368,1.86,9.555,2.782c0.373,0.108,0.726,0.287,1.09,0.427c1.017,0.392,1.226,1.126,0.979,2.125
		c-0.217,0.879-0.735,1.198-1.614,1.233c-0.475,0.019-1.022,0.205-1.394,0.497c-4.219,3.304-8.67,6.235-13.491,8.593
		c-0.815,0.399-1.329,0.281-1.674-0.576c-0.92-2.281-1.811-4.575-2.798-6.827c-1.244-2.839-2.563-5.646-3.869-8.457
		c-0.578-1.243-1.226-2.453-1.803-3.695C236.475,447.342,236.926,446.633,238.04,446.667z"/>
	<path d="M332.728,469.697c3.662,0,7.024,0,10.386,0c0.924,0,1.85-0.03,2.773,0.008c1.169,0.048,1.434,0.579,1.381,1.689
		c-0.117,2.405-0.064,4.817-0.1,7.227c-0.009,0.577-0.147,1.153-0.136,1.728c0.062,3.334,0.045,6.675,0.269,10
		c0.15,2.221,0.686,4.413,0.994,6.626c0.189,1.362,0.305,2.737,0.375,4.11c0.012,0.234-0.352,0.669-0.573,0.689
		c-0.325,0.03-0.854-0.13-0.99-0.378c-2.286-4.167-4.588-8.328-6.752-12.56c-1.458-2.852-2.671-5.829-4.059-8.719
		c-1.321-2.752-2.743-5.455-4.075-8.201c-0.204-0.421-0.296-0.994-0.192-1.438C332.114,470.124,332.575,469.857,332.728,469.697z"/>
	<path d="M278.552,481.293c2.173,0.329,4.345,0.67,6.52,0.983c2.098,0.302,4.192,0.673,6.302,0.835
		c2.303,0.177,2.722,0.727,1.827,2.791c-0.525,1.21-1.042,2.427-1.474,3.671c-0.908,2.615-1.871,5.22-2.6,7.887
		c-0.752,2.748-1.219,5.572-1.896,8.342c-0.118,0.484-0.598,0.963-1.04,1.239c-0.153,0.096-0.842-0.35-1.034-0.69
		c-0.725-1.286-1.373-2.617-2-3.955c-2.244-4.786-4.486-9.573-6.687-14.379c-0.731-1.597-1.34-3.25-1.995-4.882
		c-0.329-0.821,0.193-1.573,1.241-1.658c0.931-0.076,1.874-0.016,2.811-0.016C278.535,481.404,278.544,481.349,278.552,481.293z"/>
	<path d="M264.939,381.836c-0.361,1.679-0.717,3.082-0.957,4.505c-0.436,2.589-0.742,5.201-1.215,7.783
		c-0.633,3.457-1.372,6.895-2.067,10.341c-0.016,0.077-0.034,0.156-0.067,0.226c-0.209,0.456-0.421,0.91-0.633,1.365
		c-0.567-0.338-1.297-0.549-1.674-1.035c-2.741-3.536-5.437-7.108-8.093-10.709c-1.535-2.08-2.977-4.229-4.445-6.358
		c-0.586-0.85-0.166-1.286,0.68-1.553c1.861-0.588,3.741-1.128,5.564-1.817c3.545-1.339,7.049-2.783,10.584-4.149
		C263.701,380.016,264.941,380.954,264.939,381.836z"/>
	<path d="M405.005,415.698c3.864,0,7.73-0.083,11.59,0.036c1.834,0.057,3.653,0.514,5.483,0.757c0.748,0.099,1.509,0.1,2.263,0.167
		c1.341,0.119,1.783,0.705,1.346,1.974c-0.839,2.436-1.757,4.845-2.634,7.268c-0.705,1.947-1.356,3.915-2.112,5.841
		c-0.481,1.226-1.078,2.412-1.686,3.582c-0.415,0.797-1.114,0.823-1.615,0.087c-0.506-0.743-0.88-1.586-1.438-2.284
		c-1.293-1.616-2.647-3.185-4.005-4.749c-3.266-3.763-6.556-7.504-9.818-11.271c-0.666-0.769-0.499-1.188,0.522-1.41
		c0.688-0.149,1.393-0.223,2.09-0.331C404.995,415.477,405,415.587,405.005,415.698z"/>
	<path d="M369.1,405.033c2.346,0.593,4.695,1.174,7.038,1.78c4.917,1.273,9.83,2.56,14.744,3.843
		c0.225,0.059,0.472,0.093,0.662,0.212c0.373,0.234,0.999,0.518,1.001,0.786c0.003,0.421-0.331,0.957-0.684,1.247
		c-1.212,0.995-2.488,1.914-3.753,2.844c-1.452,1.068-2.912,2.125-4.38,3.171c-1.882,1.341-3.766,2.682-5.67,3.992
		c-0.772,0.531-1.58,1.021-2.41,1.457c-0.698,0.366-1.91-0.253-2.316-1.282c-1.586-4.017-3.887-7.769-4.455-12.17
		c-0.179-1.388-0.62-2.741-0.917-4.116C367.738,405.764,368.191,405.112,369.1,405.033z"/>
	<path d="M328.701,419.408c2.571,0.145,4.551,0.325,6.532,0.348c1.702,0.02,3.407-0.131,5.109-0.222
		c1.585-0.084,2.112,0.263,1.413,2.213c-0.962,2.686-2.302,5.236-3.262,7.922c-1.194,3.343-2.166,6.766-3.237,10.153
		c-0.059,0.185-0.112,0.395-0.235,0.532c-0.374,0.415-0.779,1.108-1.177,1.111c-0.394,0.003-0.871-0.649-1.178-1.103
		c-1.639-2.426-3.279-4.854-4.835-7.333c-1.62-2.581-3.138-5.226-4.714-7.835c-0.647-1.072-1.289-2.15-2.005-3.175
		c-0.776-1.109-0.609-1.812,0.725-1.978C324.305,419.735,326.791,419.578,328.701,419.408z"/>
	<path d="M367.272,443.853c-0.703,0.314-1.025,0.569-1.363,0.591c-1.822,0.118-3.651,0.138-5.472,0.267
		c-4.055,0.286-8.106,0.631-12.161,0.923c-2.706,0.195-5.416,0.331-8.123,0.516c-0.702,0.048-1.416,0.113-2.093,0.292
		c-1.24,0.328-2.655-0.691-2.476-1.953c0.106-0.743,0.475-1.461,0.791-2.16c1.063-2.352,2.16-4.69,3.236-7.036
		c0.651-1.419,1.241-2.868,1.944-4.26c0.623-1.234,1.388-1.321,2.485-0.452c1.232,0.976,2.421,2.031,3.749,2.858
		c2.257,1.405,4.608,2.658,6.918,3.977c2.283,1.305,4.534,2.668,6.858,3.896c1.06,0.56,2.274,0.818,3.389,1.285
		C365.648,442.888,366.287,443.312,367.272,443.853z"/>
	<path d="M315.277,473.979c-0.528,1.351-1.001,2.63-1.525,3.888c-0.81,1.941-1.7,3.849-2.473,5.804
		c-1.12,2.834-2.152,5.703-3.253,8.546c-0.316,0.815-0.727,1.654-1.775,1.652c-0.747-0.001-1.498-1.399-1.706-2.329
		c-0.485-2.168-1.081-4.316-1.742-6.438c-1.148-3.686-2.421-7.334-3.56-11.023c-0.77-2.495-1.414-5.029-2.078-7.556
		c-0.101-0.384-0.003-0.82,0.003-1.232c0.401,0.027,0.858-0.063,1.193,0.099c1.861,0.904,3.68,1.897,5.538,2.808
		c2.85,1.398,5.717,2.763,8.586,4.121c0.697,0.33,1.45,0.542,2.14,0.883C314.879,473.326,315.025,473.666,315.277,473.979z"/>
	<path d="M345.439,383.428c0.166-2.031,0.333-4.062,0.499-6.093c0.055-0.67,0.122-1.34,0.155-2.012
		c0.09-1.823,0.167-3.646,0.244-5.469c0.084-1.983,0.14-3.968,0.251-5.949c0.066-1.179,0.679-1.536,1.755-1.028
		c0.489,0.231,0.951,0.553,1.364,0.905c3.355,2.856,6.703,5.721,10.037,8.601c1.513,1.307,3.004,2.641,4.473,3.998
		c0.337,0.311,0.593,0.738,0.799,1.155c0.527,1.066,0.358,1.416-0.776,1.81c-4.465,1.551-8.939,3.078-13.389,4.671
		c-1.177,0.421-2.273,1.065-3.421,1.574c-1.257,0.558-1.469,0.432-1.839-0.949c-0.111-0.414-0.249-0.822-0.374-1.232
		C345.291,383.415,345.365,383.421,345.439,383.428z"/>
	<path d="M290.672,391.38c2.038,0.988,3.827,1.828,5.593,2.716c3.797,1.911,7.581,3.849,11.374,5.769
		c1.227,0.621,2.41,1.457,3.713,1.76c1.096,0.254,1.683,0.701,2.043,1.965c-0.544,0.175-1.134,0.358-1.719,0.555
		c-1.394,0.471-2.8,0.911-4.176,1.43c-5.072,1.913-10.124,3.88-15.205,5.77c-2.075,0.772-2.406,0.466-2.364-1.704
		c0.097-4.908,0.144-9.817,0.263-14.724C290.22,393.876,290.468,392.84,290.672,391.38z"/>
	<path d="M210.458,415.685c0.031,1.255-1.031,1.783-2.235,1.202c-1.056-0.509-2.017-1.231-3.095-1.676
		c-2.013-0.832-4.089-1.511-6.124-2.293c-3.285-1.261-6.55-2.577-9.841-3.822c-1.35-0.511-2.765-0.851-4.115-1.365
		c-0.495-0.188-1.237-0.656-1.236-0.994c0.002-0.473,0.494-1.185,0.95-1.373c2.124-0.875,4.301-1.621,6.471-2.38
		c2.576-0.901,5.155-1.795,7.75-2.64c1.632-0.531,3.286-1.006,4.95-1.428c1.021-0.259,1.999,0.288,2.327,1.446
		c0.969,3.418,1.839,6.864,2.766,10.295c0.408,1.509,0.86,3.005,1.291,4.507C210.383,415.389,210.439,415.616,210.458,415.685z"/>
	<path d="M278.798,353.938c1.52,0.107,3.06,0.133,4.576,0.34c2.407,0.329,4.808,0.719,7.191,1.192
		c2.911,0.577,5.809,1.229,8.693,1.933c0.734,0.179,1.482,0.578,2.041,1.079c0.253,0.226,0.28,1.139,0.038,1.418
		c-2.752,3.17-5.57,6.283-8.384,9.398c-1.104,1.222-2.226,2.428-3.374,3.608c-0.819,0.841-1.808,0.802-2.398-0.222
		c-0.895-1.552-1.585-3.222-2.434-4.803c-1.444-2.69-2.916-5.366-4.432-8.016C279.291,358.077,278.264,356.32,278.798,353.938z"/>
	<path d="M336.565,415.541c-2.617-0.5-4.878-0.97-7.154-1.356c-2.086-0.354-4.181-0.688-6.285-0.901
		c-1.811-0.183-3.642-0.171-5.463-0.266c-1.163-0.061-1.622-0.781-1.082-1.843c1.438-2.827,2.993-5.596,4.395-8.44
		c1.02-2.068,1.883-4.214,2.791-6.336c0.368-0.861,0.6-1.786,1.027-2.613c0.251-0.486,0.732-1.121,1.166-1.168
		c0.416-0.045,1.097,0.482,1.331,0.931c1.788,3.428,4.057,6.586,5.356,10.295c1.017,2.903,2.462,5.656,3.686,8.488
		c0.292,0.674,0.545,1.388,0.654,2.109C337.04,414.784,336.713,415.186,336.565,415.541z"/>
	<path d="M242.258,413.571c-0.535,1.828-0.891,3.486-1.503,5.044c-1.396,3.554-2.147,7.266-2.937,10.975
		c-0.746,3.504-1.84,6.887-3.585,10.036c-0.095,0.171-0.157,0.361-0.256,0.53c-0.685,1.171-1.239,1.27-2.019,0.169
		c-0.455-0.642-0.628-1.491-0.894-2.258c-0.947-2.73-2.081-5.416-2.76-8.212c-0.691-2.847-1.71-5.518-2.961-8.141
		c-0.141-0.295,0.169-1.087,0.491-1.279c4.574-2.729,9.181-5.405,13.8-8.058c0.477-0.274,1.283-0.611,1.588-0.405
		C241.734,412.32,241.966,413.08,242.258,413.571z"/>
	<path d="M211.377,399.534c2.708,0.845,5.379,1.692,8.057,2.512c3.657,1.121,7.314,2.238,10.982,3.323
		c1.272,0.376,2.576,0.646,3.863,0.971c0.597,0.151,1.391,0.247,1.325,1.022c-0.042,0.5-0.48,1.058-0.891,1.418
		c-1.026,0.898-2.157,1.676-3.211,2.543c-2.617,2.153-5.228,4.314-7.81,6.508c-0.653,0.555-1.15,1.292-1.798,1.853
		c-0.311,0.27-0.854,0.514-1.206,0.425c-0.337-0.085-0.619-0.584-0.824-0.956c-0.637-1.16-1.225-2.346-1.834-3.522
		c-0.933-1.801-1.869-3.6-2.8-5.402c-1.349-2.611-2.69-5.226-4.053-7.83c-0.123-0.236-0.434-0.375-0.551-0.611
		c-0.235-0.475-0.547-0.993-0.524-1.479C210.113,400.071,210.803,399.865,211.377,399.534z"/>
	<path d="M280.117,375.363c-0.456,0.103-0.862,0.34-1.132,0.233c-1.923-0.76-3.838-1.55-5.72-2.407
		c-4.593-2.093-8.565-5.385-13.42-6.971c-0.692-0.226-1.44-0.274-2.149-0.454c-0.383-0.097-0.951-0.211-1.058-0.472
		c-0.159-0.386-0.158-1.061,0.086-1.347c0.827-0.969,1.874-1.753,2.687-2.732c1.999-2.411,3.868-4.931,5.885-7.326
		c0.891-1.058,1.962-1.989,3.054-2.846c0.631-0.496,1.084,0.031,1.326,0.66c0.796,2.067,1.565,4.144,2.388,6.201
		c1.389,3.473,2.735,6.967,4.249,10.386c0.787,1.777,1.903,3.406,2.852,5.113C279.466,373.943,279.71,374.518,280.117,375.363z"/>
	<path d="M250.962,315.701c-0.467,0.898-1.151,0.654-1.855,0.226c-2.244-1.364-4.493-2.721-6.727-4.102
		c-3.227-1.996-6.42-4.049-9.672-6.003c-2.043-1.228-4.184-2.293-6.242-3.497c-0.376-0.22-0.807-0.774-0.778-1.14
		c0.03-0.379,0.52-0.874,0.925-1.046c1.908-0.81,3.881-1.47,5.78-2.298c1.214-0.529,2.307-1.334,3.517-1.877
		c1.279-0.575,2.607-1.075,3.958-1.449c1.918-0.531,2.918,0.211,3.515,2.082c0.558,1.747,1.359,3.416,2.023,5.131
		c1.313,3.391,2.59,6.795,3.914,10.181C249.815,313.178,250.4,314.412,250.962,315.701z"/>
	<path d="M331.924,351.871c-1.587-0.52-2.151-1.684-2.349-2.983c-0.267-1.751-0.327-3.533-0.525-5.296
		c-0.215-1.912-0.451-3.822-0.745-5.723c-0.352-2.282-0.8-4.549-1.158-6.83c-0.213-1.358-0.363-2.728-0.477-4.099
		c-0.031-0.377,0.091-1.048,0.284-1.105c0.439-0.129,1.067-0.124,1.44,0.11c4.241,2.657,8.445,5.371,12.666,8.059
		c0.827,0.526,1.695,0.987,2.521,1.514c0.978,0.624,1.156,1.626,0.256,2.297c-2.658,1.98-4.219,4.846-6.216,7.365
		C335.796,347.484,333.814,349.664,331.924,351.871z"/>
	<path d="M308.197,383.297c1.547,0,3.647,0.114,5.729-0.027c3.019-0.205,6.029-0.572,9.037-0.917
		c1.04-0.119,1.937,0.723,1.723,1.693c-0.41,1.864-0.755,3.742-1.188,5.6c-0.354,1.517-0.812,3.009-1.195,4.52
		c-0.412,1.626-0.761,3.269-1.188,4.891c-0.487,1.854-1.068,1.815-2.565,0.68c-1.007-0.763-1.949-1.637-2.808-2.564
		c-3.364-3.627-7.661-6.019-11.624-8.851c-1.209-0.864-2.543-1.554-3.751-2.42c-0.377-0.27-0.53-0.854-0.785-1.295
		c0.4-0.197,0.785-0.52,1.203-0.569C303.068,383.772,305.359,383.573,308.197,383.297z"/>
	<path d="M306.975,514.421c0.53-2.101,1.084-4.041,1.493-6.012c0.255-1.229,0.199-2.523,0.446-3.755
		c0.545-2.717,1.177-5.416,1.809-8.115c0.227-0.968,0.559-1.911,0.965-3.279c0.983,0.917,1.842,1.501,2.412,2.293
		c1.452,2.017,2.693,4.187,4.169,6.184c1.788,2.42,3.753,4.71,5.598,7.089c0.887,1.145,1.714,2.342,2.492,3.563
		c0.385,0.605,0.556,1.17-0.519,1.486c-2.144,0.63-4.244,1.219-6.536,1.189c-2.523-0.033-5.05,0.367-7.577,0.4
		C310.069,515.489,308.357,515.394,306.975,514.421z"/>
	<path d="M202.57,386.359c-1.045-0.648-2.044-1.247-3.024-1.877c-2.661-1.71-5.326-3.413-7.964-5.157
		c-1.96-1.296-3.885-2.648-5.817-3.987c-0.523-0.362-1.083-0.706-1.505-1.169c-0.683-0.749-0.515-1.222,0.376-1.601
		c2.404-1.023,4.815-2.034,7.19-3.123c3.198-1.466,6.346-3.044,9.567-4.457c0.459-0.201,1.362,0.078,1.771,0.452
		c0.386,0.353,0.54,1.122,0.54,1.708c-0.003,2.355-0.194,4.711-0.148,7.063c0.059,3.063,0.317,6.121,0.399,9.184
		c0.02,0.757-0.254,1.54-0.497,2.276C203.375,385.922,202.969,386.064,202.57,386.359z"/>
	<path d="M332.247,509.847c0.057-5.201-0.039-10.41,0.23-15.599c0.151-2.912,0.854-5.803,1.436-8.679
		c0.112-0.551,0.745-1.284,1.26-1.403c0.879-0.204,1.254,0.549,1.576,1.375c0.924,2.368,2.002,4.676,2.988,7.021
		c0.286,0.68,0.422,1.423,0.705,2.106c0.877,2.116,1.766,4.228,2.697,6.32c0.794,1.785,1.68,3.53,2.469,5.317
		c0.295,0.668,0.506,1.395,0.623,2.116c0.131,0.807-0.605,0.934-1.137,1.051c-1.68,0.37-3.383,0.635-5.064,1.001
		c-1.943,0.422-3.871,0.911-5.807,1.365c-1.038,0.244-2.303-0.866-2.284-1.995C332.042,509.844,332.144,509.845,332.247,509.847z"/>
	<path d="M271.17,340.324c-0.49,0.603-1.041,1.264-1.573,1.938c-2.192,2.776-4.377,5.557-6.567,8.335
		c-1.289,1.635-2.552,3.293-3.885,4.892c-0.576,0.69-1.178,0.416-1.654-0.227c-1.166-1.577-2.325-3.159-3.499-4.73
		c-2.112-2.827-4.259-5.629-6.334-8.483c-0.618-0.849-1.128-1.801-1.537-2.77c-0.423-1.002,0.397-1.298,1.124-1.311
		c1.101-0.02,2.206,0.124,3.306,0.236c1.29,0.131,2.572,0.388,3.863,0.438c3.359,0.13,6.722,0.145,10.081,0.274
		c1.249,0.048,2.489,0.31,3.738,0.419c0.319,0.028,0.672-0.116,0.98-0.249C269.822,338.822,271.194,339.6,271.17,340.324z"/>
	<path d="M411.497,457.076c-0.298,0.523-0.47,0.918-0.721,1.253c-2.908,3.888-5.809,7.782-8.759,11.638
		c-0.602,0.787-1.405,1.418-2.1,2.136c-0.215,0.222-0.55,0.506-0.535,0.742c0.089,1.364-0.683,1.136-1.509,0.897
		c-4.307-1.248-8.615-2.495-12.925-3.735c-1.014-0.292-2.082-0.451-3.034-0.875c-0.516-0.23-0.84-0.891-1.251-1.357
		c0.382-0.322,0.714-0.773,1.155-0.947c3.474-1.373,6.97-2.69,10.457-4.031c2.944-1.133,5.885-2.276,8.827-3.412
		c2.365-0.914,4.718-1.864,7.105-2.715c0.765-0.273,1.623-0.354,2.441-0.365C410.921,456.302,411.2,456.792,411.497,457.076z"/>
	<path d="M295.905,517.836c-1.958-0.138-3.939-0.139-5.867-0.461c-1.412-0.236-1.664-0.979-1.387-2.4
		c0.746-3.82,2.275-7.348,3.872-10.87c1.854-4.088,3.542-8.251,5.347-12.362c0.195-0.444,0.689-0.757,1.044-1.131
		c0.352,0.522,1.097,1.147,0.991,1.549c-0.616,2.347,0.461,4.393,0.898,6.557c0.65,3.216,1.298,6.438,1.768,9.684
		c0.227,1.571,0.033,3.202,0.06,4.805c0.007,0.422,0.085,0.856,0.207,1.261c0.444,1.479-0.592,2.92-2.183,2.948
		c-1.579,0.028-3.159,0.006-4.738,0.006C295.913,517.56,295.909,517.698,295.905,517.836z"/>
	<path d="M288.615,418.103c-0.203,2.299-0.43,4.597-0.598,6.899c-0.074,1.008,0,2.025-0.04,3.036
		c-0.057,1.424-0.095,2.853-0.258,4.267c-0.135,1.166-0.644,1.569-1.701,1.096c-3.106-1.388-6.211-2.797-9.217-4.384
		c-2.908-1.535-5.697-3.297-8.528-4.975c-0.325-0.192-0.681-0.431-0.866-0.742c-0.784-1.316-0.319-2.13,1.293-2.568
		c3.129-0.85,6.253-1.719,9.359-2.647c2.943-0.879,5.857-1.855,8.791-2.765c1.31-0.406,2.091,0.38,1.77,1.728
		c-0.081,0.341-0.136,0.688-0.203,1.032C288.483,418.088,288.549,418.095,288.615,418.103z"/>
	<path d="M277.701,290.35c1.879,1.551,3.739,3.126,5.643,4.646c1.932,1.543,3.959,2.973,5.843,4.571
		c0.995,0.844,1.849,1.891,2.596,2.966c0.169,0.243-0.291,1.364-0.597,1.428c-2.146,0.445-4.319,0.837-6.502,1.003
		c-1.324,0.101-2.679-0.266-4.024-0.366c-2.648-0.198-5.343-0.117-7.936-0.597c-2.748-0.509-5.407-1.515-8.092-2.347
		c-1.034-0.32-1.165-0.962-0.289-1.589c3.117-2.229,6.294-4.375,9.405-6.613c0.959-0.69,1.777-1.576,2.668-2.362
		c0.556-0.491,1.129-0.962,1.695-1.443C277.976,289.881,277.838,290.115,277.701,290.35z"/>
	<path d="M192.294,434.506c-0.237-0.216-0.638-0.405-0.724-0.689c-0.898-2.954-1.787-5.912-2.595-8.891
		c-0.726-2.678-1.359-5.381-2.012-8.078c-0.256-1.058,0.086-1.398,1.115-1.191c4.029,0.81,8.051,1.663,12.093,2.405
		c2.317,0.425,4.665,0.685,7.004,0.979c0.459,0.058,0.958-0.005,1.408-0.126c0.782-0.211,1.436-0.122,1.775,0.667
		c0.333,0.776-0.182,1.169-0.77,1.604c-2.305,1.704-4.606,3.418-6.835,5.219c-3.133,2.533-6.195,5.154-9.307,7.713
		C193.196,434.323,192.795,434.344,192.294,434.506z"/>
	<path d="M316.307,305.661c0,2.79,0,5.58,0,8.37c0,0.08-0.004,0.16-0.003,0.24c0.053,2.315-0.45,2.696-2.5,1.455
		c-2.105-1.274-4.049-2.819-6.042-4.276c-2.912-2.128-5.84-4.236-8.688-6.447c-1.219-0.946-2.291-2.095-3.353-3.223
		c-0.479-0.51-0.477-1.12,0.411-1.287c1.768-0.332,3.536-0.66,5.312-0.946c1.704-0.274,3.414-0.511,5.126-0.73
		c2.027-0.259,4.059-0.481,6.088-0.722c0.624-0.074,1.245-0.213,1.87-0.228c1.415-0.034,2.011,0.559,2.013,1.921
		c0.002,1.957,0,3.914,0,5.872C316.464,305.661,316.386,305.661,316.307,305.661z"/>
	<path d="M376.555,335.344c-3.155-0.328-6.529-0.685-9.905-1.024c-1.102-0.111-2.208-0.215-3.314-0.249
		c-3.244-0.1-6.423-0.461-9.397-1.911c-1.008-0.492-1.22-0.96-0.326-1.575c1.416-0.975,2.967-1.755,4.47-2.602
		c2.723-1.534,5.454-3.054,8.177-4.587c1.498-0.843,2.934-1.833,4.513-2.473c0.512-0.208,1.684,0.279,2.049,0.801
		c1.786,2.554,3.385,5.238,5.085,7.853c0.726,1.116,1.572,2.155,2.293,3.274c0.298,0.463,0.681,1.146,0.531,1.541
		c-0.132,0.347-0.94,0.505-1.476,0.614C378.447,335.17,377.615,335.218,376.555,335.344z"/>
	<path d="M274.897,435.002c-0.773,0.875-1.267,1.742-2.012,2.22c-2.737,1.758-5.57,3.368-8.341,5.075
		c-1.032,0.636-2.022,1.352-2.977,2.099c-0.652,0.51-1.047,0.383-1.371-0.309c-1.607-3.438-3.266-6.853-4.803-10.322
		c-0.982-2.216-1.791-4.508-2.661-6.772c-0.22-0.572-0.592-1.195-0.522-1.747c0.145-1.137,0.833-1.477,1.889-1.057
		c1.926,0.765,3.874,1.497,5.732,2.406c2.364,1.157,4.644,2.483,6.967,3.724c2.315,1.237,4.643,2.447,6.951,3.698
		C274.111,434.214,274.39,434.56,274.897,435.002z"/>
	<path d="M392.107,398.606c0.161-0.923,0.386-1.96,0.514-3.008c0.206-1.679,0.336-3.367,0.52-5.048
		c0.132-1.208,0.279-2.416,0.459-3.618c0.152-1.02,0.807-1.13,1.674-0.88c4.466,1.285,8.907,2.674,13.417,3.783
		c2.538,0.624,5.196,0.749,7.79,1.162c0.664,0.106,1.316,0.401,1.918,0.715c0.222,0.116,0.434,0.571,0.381,0.813
		c-0.067,0.305-0.362,0.713-0.641,0.794c-1.912,0.558-3.904,0.889-5.759,1.587c-2.417,0.909-4.681,2.226-7.101,3.122
		c-3.438,1.274-6.959,2.325-10.444,3.473c-0.333,0.11-0.661,0.234-0.991,0.353c-0.865,0.311-1.352-0.004-1.433-0.884
		C392.343,400.228,392.223,399.489,392.107,398.606z"/>
	<path d="M393.512,479.691c-0.762,0.741-1.202,1.309-1.767,1.694c-2.199,1.497-4.5,2.852-6.65,4.414
		c-4.796,3.485-9.518,7.071-14.295,10.583c-0.282,0.207-0.893,0.294-1.159,0.129c-0.585-0.363-1.411-0.747-0.783-1.741
		c0.523-0.827,1.093-1.647,1.462-2.545c1.097-2.671,2.136-5.367,3.138-8.076c0.921-2.491,1.765-5.01,2.641-7.518
		c0.275-0.786,0.475-1.607,0.832-2.353c0.303-0.633,0.896-0.6,1.407-0.215c2.216,1.67,4.877,2.271,7.446,3.051
		c2.01,0.61,4.102,0.945,6.134,1.491C392.421,478.74,392.834,479.216,393.512,479.691z"/>
	<path d="M408.247,367.799c-0.819,0.744-1.469,1.486-2.258,2.022c-2.591,1.763-5.259,3.412-7.848,5.177
		c-3.915,2.669-7.792,5.395-11.676,8.109c-0.323,0.226-0.541,0.609-0.873,0.812c-0.369,0.226-0.971,0.576-1.19,0.435
		c-0.398-0.257-0.832-0.843-0.82-1.28c0.038-1.368,0.309-2.728,0.429-4.097c0.12-1.379,0.073-2.778,0.267-4.145
		c0.329-2.322,0.716-4.641,1.224-6.929c0.271-1.221,1.065-1.369,2.788-1.179c1.35,0.149,2.729,0.018,4.095,0.039
		c2.354,0.036,4.707,0.09,7.061,0.142c0.356,0.008,0.711,0.067,1.067,0.069c2.044,0.012,4.089-0.023,6.131,0.047
		C407.076,367.036,407.495,367.421,408.247,367.799z"/>
	<path d="M424.237,376.446c0.258,3.112,0.52,6.223,0.769,9.336c0.038,0.477,0.024,0.959,0.014,1.439
		c-0.028,1.465-0.519,1.87-1.951,1.571c-5.962-1.244-11.682-3.217-17.204-5.773c-0.532-0.246-1.05-0.547-1.517-0.898
		c-0.274-0.206-0.649-0.607-0.599-0.839c0.085-0.399,0.386-0.886,0.736-1.074c4.24-2.278,8.502-4.516,12.766-6.747
		c1.736-0.908,3.504-1.753,5.235-2.67c0.867-0.459,1.211,0.015,1.319,0.716c0.252,1.633,0.418,3.279,0.619,4.92
		C424.362,376.432,424.3,376.439,424.237,376.446z"/>
	<path d="M313.418,464.892c0.039,1.67-1.015,2.39-2.288,1.656c-4.032-2.326-8.045-4.686-12.05-7.059
		c-1.179-0.698-2.294-1.503-3.462-2.221c-0.833-0.512-0.79-1.197-0.232-1.751c2.119-2.103,4.236-4.216,6.484-6.176
		c1.59-1.385,3.366-2.563,5.104-3.767c1.578-1.093,2.751-0.707,3.211,1.12c0.6,2.386,1.146,4.794,1.528,7.223
		c0.373,2.367,0.46,4.778,0.772,7.156c0.146,1.116,0.525,2.201,0.8,3.3C313.342,464.601,313.401,464.828,313.418,464.892z"/>
	<path d="M376.013,343.491c-1.207,1.493-2.407,2.888-3.506,4.357c-1.808,2.415-3.616,4.835-5.299,7.337
		c-1.174,1.746-1.789,1.863-3.104,0.124c-3.835-5.071-7.847-9.983-12.444-14.397c-0.449-0.431-0.99-1.343-0.817-1.729
		c0.394-0.877,1.358-1.245,2.375-1.026c1.526,0.329,3.027,0.793,4.564,1.053c3.014,0.509,6.063,0.826,9.064,1.395
		c2.706,0.513,5.373,1.234,8.042,1.924C375.258,342.624,375.536,343.069,376.013,343.491z"/>
	<path d="M313.901,488.284c2.03-1.768,4.212-3.202,6.771-3.929c2.101-0.597,4.25-1.026,6.376-1.537
		c1.525-0.366,2.005,0.098,1.944,1.621c-0.109,2.73-0.108,5.464-0.155,8.197c-0.012,0.695-0.05,1.389-0.052,2.084
		c-0.006,2.502-0.022,5.004,0.008,7.506c0.01,0.824,0.189,1.645,0.218,2.469c0.032,0.907-0.359,1.257-1.355,1.517
		c-1.767,0.461-2.118-0.677-2.86-1.739c-1.527-2.186-3.319-4.188-4.841-6.377c-1.697-2.439-3.226-4.995-4.804-7.516
		C314.7,489.858,314.333,489.083,313.901,488.284z"/>
	<path d="M304.438,350.251c5.74-5.975,10.913-12.356,18.091-16.529c0.159,0.058,0.318,0.115,0.477,0.173
		c0,0.843,0.029,1.687-0.009,2.529c-0.032,0.707-0.19,1.409-0.207,2.115c-0.097,3.984-0.19,7.969-0.23,11.955
		c-0.008,0.771,0.164,1.56,0.359,2.313c0.382,1.476-0.154,2.135-1.661,1.884c-3.248-0.542-6.511-1.025-9.731-1.703
		c-1.938-0.408-3.817-1.111-5.701-1.748C305.371,351.085,305.004,350.665,304.438,350.251z"/>
	<path d="M337.182,312.553c-0.332,1.282-0.644,2.491-0.958,3.7c-0.696,2.685-1.356,5.38-2.12,8.045
		c-0.147,0.512-0.721,1.284-1.067,1.268c-0.53-0.025-1.242-0.516-1.509-1.009c-1.27-2.338-2.341-4.785-3.624-7.116
		c-1.512-2.747-3.222-5.385-4.743-8.128c-1.08-1.948-2.016-3.977-2.963-5.995c-0.511-1.09-0.924-2.228-1.354-3.355
		c-0.36-0.943,0.073-1.774,0.832-2.11c0.488-0.216,1.402,0.015,1.877,0.373c3.295,2.488,6.538,5.045,9.771,7.614
		c1.576,1.252,3.113,2.553,4.631,3.876C336.817,310.467,337.204,311.519,337.182,312.553z"/>
	<path d="M401.594,363.147c-0.236-0.918,0.169-1.387,0.917-1.996c1.387-1.128,2.557-2.535,3.757-3.879
		c1.8-2.017,3.544-4.084,5.32-6.122c1.395-1.6,2.801-3.189,4.206-4.781c0.185-0.209,0.379-0.412,0.584-0.601
		c0.989-0.915,1.389-0.801,1.692,0.513c1.038,4.493,2.091,8.982,3.078,13.486c0.352,1.605,0.548,3.246,0.777,4.876
		c0.04,0.284-0.016,0.725-0.2,0.861c-0.23,0.17-0.71,0.24-0.958,0.112c-2.092-1.07-4.419-0.953-6.636-1.26
		c-2.774-0.385-5.606-0.33-8.406-0.555C404.364,363.693,403.02,363.38,401.594,363.147z"/>
	<path d="M347.478,302.673c-0.139-3.211-0.36-6.421-0.389-9.632c-0.018-1.969,0.282-3.94,0.393-5.913
		c0.065-1.155-0.013-2.319,0.069-3.471c0.09-1.254,0.282-2.5,0.446-3.748c0.178-1.355,0.281-1.758,2.065-1.202
		c3.686,1.149,7.304,2.518,10.944,3.812c0.29,0.103,0.557,0.297,0.804,0.488c0.536,0.414,0.629,0.748,0.214,1.471
		c-1.617,2.808-3.816,5.186-5.599,7.854c-1.936,2.897-3.552,6.008-5.307,9.026c-0.414,0.711-0.799,1.441-1.242,2.133
		c-0.34,0.531-0.749,1.136-1.49,0.612c-0.478-0.337-0.854-0.817-1.276-1.233C347.233,302.803,347.355,302.738,347.478,302.673z"/>
	<path d="M416.293,439.622c0.064,3.118-1.176,5.873-2.287,8.673c-0.356,0.898-0.676,1.876-0.7,2.825
		c-0.032,1.252-0.89,1.562-1.677,1.442c-4.219-0.64-8.418-1.409-12.621-2.153c-2.969-0.526-5.933-1.078-8.897-1.63
		c-0.768-0.143-1.544-0.276-2.283-0.519c-0.324-0.106-0.561-0.476-0.837-0.727c0.274-0.287,0.498-0.734,0.829-0.836
		c2.639-0.811,5.294-1.571,7.952-2.32c2.857-0.805,5.736-1.536,8.58-2.383c3.63-1.081,7.237-2.243,10.852-3.374
		C415.842,438.422,416.401,438.903,416.293,439.622z"/>
	<path d="M398.986,338.897c3.801,0,7.602,0.028,11.402-0.017c1.136-0.013,2.267-0.277,3.404-0.334
		c0.668-0.034,1.638-0.137,1.956,0.233c0.585,0.682-0.039,1.487-0.543,2.088c-1.497,1.785-3.063,3.512-4.549,5.306
		c-2.461,2.969-4.878,5.975-7.318,8.961c-0.798,0.976-1.602,1.948-2.421,2.907c-0.528,0.619-1.542,0.396-1.774-0.464
		c-0.387-1.428-0.711-2.88-0.949-4.34c-0.41-2.512-0.757-5.036-1.084-7.561c-0.242-1.867-0.492-3.741-0.55-5.618
		c-0.014-0.454,0.649-1.034,1.133-1.359c0.303-0.203,0.854-0.038,1.293-0.038C398.986,338.739,398.986,338.818,398.986,338.897z"/>
	<path d="M223.829,375.206c0.272-2.776,0.55-5.552,0.814-8.329c0.175-1.845,0.326-3.692,0.497-5.537
		c0.11-1.186,0.404-1.393,1.579-1.118c4.069,0.952,8.133,1.924,12.207,2.854c1.373,0.313,2.777,0.488,4.151,0.795
		c0.636,0.142,1.261,0.401,1.845,0.697c0.756,0.383,1.558,0.902,1.256,1.89c-0.31,1.013-1.025,1.907-2.178,1.894
		c-2.089-0.023-3.879,0.91-5.467,1.947c-4.06,2.652-8.526,4.442-12.852,6.531C224.809,377.251,223.673,376.28,223.829,375.206z"/>
	<path d="M391.681,392.624c-1.278,0.952-2.38,1.751-3.46,2.58c-3.103,2.384-6.2,4.774-9.291,7.174
		c-0.771,0.599-1.564,0.411-2.403-0.786c-0.99-1.413-1.965-2.847-2.801-4.353c-1.824-3.289-3.561-6.626-5.318-9.952
		c-0.31-0.587-0.563-1.207-0.806-1.826c-0.314-0.795-0.032-1.304,0.835-1.181c0.919,0.13,1.821,0.408,2.715,0.676
		c4.001,1.199,8.02,2.346,11.986,3.654c2.444,0.806,4.815,1.84,7.191,2.837C390.797,391.642,391.138,392.137,391.681,392.624z"/>
	<path d="M381.617,436.257c-0.42,1.546-1.66,1.637-2.754,1.573c-3.097-0.181-6.201-0.398-9.272-0.817
		c-4.543-0.619-9.062-1.412-13.587-2.16c-1.194-0.198-2.39-0.441-3.544-0.795c-0.419-0.128-0.877-0.589-1.014-0.999
		c-0.077-0.23,0.393-0.795,0.739-0.991c1.866-1.054,3.771-2.038,5.662-3.049c2.243-1.199,4.482-2.406,6.729-3.598
		c0.818-0.434,1.627-0.915,2.497-1.208c0.292-0.098,0.837,0.235,1.131,0.513c2.142,2.029,4.209,4.136,6.378,6.134
		c1.861,1.714,3.811,3.333,5.757,4.952C380.644,436.067,381.134,436.098,381.617,436.257z"/>
	<path d="M214.351,356.692c0.151,0.578,0.282,1.081,0.483,1.85c-1.869,0.555-3.735,1.167-5.633,1.662
		c-5.482,1.428-10.974,2.815-16.467,4.2c-0.719,0.181-1.463,0.33-2.201,0.362c-1.243,0.053-1.679-0.905-1.219-2.036
		c0.614-1.51,1.106-3.089,1.467-4.68c0.634-2.787,1.799-5.337,3.14-7.829c0.357-0.663,0.825-1.068,1.592-0.755
		c3.249,1.325,6.61,2.444,9.696,4.079c2.744,1.453,5.624,2.297,8.557,3.103C213.988,356.708,214.232,356.684,214.351,356.692z"/>
	<path d="M285.719,394.665c-0.272,2.499-0.618,4.992-0.796,7.497c-0.185,2.614-0.212,5.24-0.299,7.861
		c-0.042,1.281-0.546,1.931-1.445,1.789c-0.218-0.035-0.45-0.143-0.621-0.283c-2.251-1.847-5.048-2.602-7.606-3.836
		c-2.808-1.355-5.603-2.742-8.354-4.208c-1.145-0.61-1.14-1.667-0.004-2.245c2.434-1.237,4.941-2.332,7.397-3.528
		c2.915-1.419,5.808-2.884,8.71-4.328c0.176-0.088,0.361-0.158,0.532-0.255c0.54-0.305,1.009-1.201,1.707-0.492
		c0.501,0.509,0.738,1.277,1.092,1.93C285.928,394.599,285.824,394.632,285.719,394.665z"/>
	<path d="M307.129,362.103c-0.04-0.877,0.339-1.155,1.174-1.139c2.167,0.041,4.339,0.097,6.502-0.006
		c3.515-0.167,7.021-0.545,10.536-0.629c0.802-0.019,2.263-0.457,2.477,1.008c0.086,0.589-0.351,1.364-0.756,1.898
		c-2.492,3.291-5.064,6.522-7.565,9.806c-1.257,1.651-2.421,3.374-3.628,5.063c-0.411,0.575-1.262,0.449-1.675-0.342
		c-0.995-1.905-1.934-3.839-2.882-5.768c-0.95-1.932-1.948-3.844-2.805-5.817C307.939,364.867,307.581,363.464,307.129,362.103z"/>
	<path d="M340.61,275.454c-0.417,3.629-0.839,7.257-1.248,10.887c-0.092,0.819-0.022,1.676-0.241,2.455
		c-0.222,0.791-0.842,1.012-1.677,0.638c-3.314-1.485-6.627-2.973-9.975-4.379c-3.674-1.543-7.39-2.982-11.069-4.512
		c-0.33-0.137-0.523-0.605-0.78-0.919c0.323-0.243,0.618-0.64,0.975-0.706c4.882-0.914,9.788-1.706,14.654-2.693
		c2.518-0.511,4.968-1.356,7.453-2.034C339.604,273.945,340.552,274.611,340.61,275.454z"/>
	<path d="M340.412,466.543c-2.741-0.288-5.838-0.619-8.936-0.935c-1.062-0.108-2.126-0.225-3.192-0.254
		c-1.596-0.044-2.467-0.882-2.333-2.498c0.189-2.276,0.446-4.546,0.713-6.814c0.294-2.498,0.539-5.009,0.991-7.48
		c0.237-1.295,0.405-2.743,1.689-3.597c0.875-0.582,1.588-0.44,2.072,0.518c0.762,1.507,1.405,3.074,2.188,4.569
		c0.994,1.899,2.077,3.751,3.124,5.622c1.276,2.281,2.482,4.605,3.865,6.818c0.557,0.891,1.144,1.701,1.478,2.734
		c0.415,1.282,0.499,1.301-0.821,1.316C341.091,466.544,340.931,466.543,340.412,466.543z"/>
	<path d="M301.812,281.205c1.512,0.347,2.71,0.53,3.845,0.903c2.068,0.681,4.068,1.581,6.153,2.198
		c3.629,1.074,7.317,1.952,10.945,3.028c0.853,0.253,1.57,0.966,2.349,1.468c-0.353,0.436-0.645,1.177-1.067,1.26
		c-3.344,0.658-6.729,1.113-10.069,1.788c-2.291,0.463-4.529,1.184-6.794,1.776c-2.002,0.523-4.001,1.061-6.016,1.529
		c-1.487,0.346-2.998-1.237-2.679-2.832c0.283-1.412,0.699-2.798,1.063-4.194c0.471-1.81,0.91-3.629,1.446-5.42
		C301.17,282.104,301.605,281.572,301.812,281.205z"/>
	<path d="M258.132,308.982c3.402,0.132,6.804,0.344,10.206,0.36c1.598,0.007,3.194-0.432,4.799-0.53
		c0.629-0.038,1.381,0.174,1.875,0.542c0.206,0.154,0.056,1.134-0.225,1.531c-1.406,1.984-2.816,3.979-4.399,5.821
		c-2.402,2.795-4.923,5.49-7.441,8.184c-1.439,1.54-2.478,1.384-3.203-0.636c-1.661-4.627-3.168-9.309-4.738-13.969
		c-0.245-0.727-0.082-1.127,0.78-1.164c0.783-0.033,1.56-0.192,2.34-0.296C258.127,308.878,258.13,308.93,258.132,308.982z"/>
	<path d="M359.552,357.487c-0.118,1.124-0.782,1.599-1.476,1.481c-6.198-1.054-12.442-1.223-18.706-1.158
		c-0.662,0.007-1.34-0.095-1.986-0.247c-0.702-0.165-1.161-0.542-0.657-1.351c1.452-2.33,2.853-4.652,5.037-6.467
		c2.321-1.93,4.399-4.154,6.572-6.261c1.043-1.011,1.287-1.034,2.037,0.215c1.408,2.344,2.628,4.81,4.155,7.071
		c1.273,1.884,2.893,3.531,4.313,5.32C359.198,356.541,359.377,357.135,359.552,357.487z"/>
	<path d="M219.721,308.424c2.141,0.614,4.297,1.181,6.42,1.852c3.241,1.025,6.46,2.121,9.687,3.191
		c0.444,0.147,0.92,0.255,1.313,0.493c0.745,0.453,1.051,0.984,0.539,1.932c-1.221,2.259-2.244,4.624-3.46,6.886
		c-1.202,2.238-2.521,4.414-3.847,6.582c-0.18,0.295-0.765,0.6-1.041,0.514c-0.345-0.108-0.64-0.58-0.825-0.959
		c-1.304-2.678-2.53-5.394-3.867-8.055c-1.129-2.246-2.391-4.425-3.562-6.651c-0.711-1.351-1.375-2.728-2.031-4.107
		C218.727,309.433,218.894,308.909,219.721,308.424z"/>
	<path d="M368.803,288.98c0.042,0.502,0.187,1.021,0.109,1.504c-0.385,2.394-0.804,4.783-1.257,7.164
		c-0.409,2.149-0.935,4.277-1.298,6.433c-0.178,1.056-0.09,2.154-0.147,3.232c-0.061,1.143-0.175,2.283-0.222,3.426
		c-0.038,0.923-0.022,1.849-0.013,2.773c0.009,0.916-1.512,2.051-2.438,1.632c-2.529-1.145-5.008-2.405-7.487-3.658
		c-0.624-0.316-1.172-0.781-1.758-1.173c-1.473-0.985-1.646-1.637-0.608-3.103c1.043-1.473,2.192-2.871,3.307-4.293
		c2.361-3.01,4.737-6.008,7.091-9.023c1.014-1.298,1.968-2.643,2.994-3.931c0.323-0.406,0.791-0.698,1.193-1.042
		C368.447,288.941,368.625,288.961,368.803,288.98z"/>
	<path d="M316.063,466.838c-0.383-3.543-0.807-7.083-1.12-10.633c-0.081-0.921,0.094-1.894,0.318-2.802
		c0.19-0.771,1.165-0.751,1.75,0.098c0.839,1.219,1.683,2.461,2.316,3.792c1.377,2.894,2.628,5.848,3.919,8.781
		c1.404,3.19,2.813,6.379,4.181,9.585c0.286,0.67,0.487,1.406,0.544,2.127c0.018,0.228-0.527,0.658-0.871,0.732
		c-2.83,0.605-5.633,1.267-8.204,2.671c-0.711,0.388-1.492-0.165-1.598-1.072c-0.141-1.208-0.284-2.417-0.439-3.623
		c-0.414-3.201-0.835-6.4-1.253-9.601C315.757,466.874,315.91,466.856,316.063,466.838z"/>
	<path d="M262.93,487.717c0.285,0.475,0.811,0.941,0.762,1.334c-0.47,3.749-1.278,7.451-1.185,11.272
		c0.039,1.604-0.29,3.216-0.445,4.825c-0.158,1.632-0.99,2.258-2.45,1.668c-3.107-1.256-6.176-2.603-9.266-3.899
		c-1.19-0.499-2.41-0.93-3.587-1.455c-0.37-0.165-0.723-0.486-0.951-0.825c-0.671-0.998-0.754-1.84,0.499-2.595
		c2.313-1.393,4.53-2.944,6.808-4.396c2.807-1.79,5.632-3.551,8.458-5.311C261.896,488.13,262.273,488.011,262.93,487.717z"/>
	<path d="M243.242,359.023c-1.765,0-3.537,0.102-5.293-0.021c-3.578-0.25-7.149-0.615-10.72-0.96
		c-0.222-0.021-0.6-0.285-0.596-0.428c0.01-0.402,0.066-0.898,0.309-1.183c1.732-2.035,3.524-4.018,5.28-6.033
		c2.101-2.411,4.189-4.834,6.276-7.257c0.858-0.997,2.119-0.973,2.609,0.178c0.742,1.744,1.221,3.603,2.004,5.325
		c1.227,2.698,2.614,5.322,3.935,7.977c0.831,1.671,0.432,2.359-1.407,2.398C244.84,359.037,244.041,359.023,243.242,359.023z"/>
	<path d="M271.726,393.747c-0.245-0.294-0.637-0.56-0.727-0.904c-0.68-2.602-1.268-5.229-1.955-7.829
		c-0.308-1.165-0.858-2.266-1.155-3.433c-0.471-1.849-0.908-3.718-1.169-5.604c-0.07-0.503,0.47-1.172,0.877-1.637
		c0.451-0.515,0.973-0.274,1.554,0.041c2.95,1.596,5.969,3.065,8.906,4.683c2.125,1.171,4.16,2.505,6.235,3.766
		c0.166,0.101,0.332,0.205,0.509,0.286c1.588,0.729,1.709,1.004,0.28,2.156c-1.422,1.147-3.083,1.993-4.615,3.008
		c-2.479,1.643-4.932,3.326-7.412,4.968C272.741,393.457,272.335,393.525,271.726,393.747z"/>
	<path d="M224.845,400.353c-0.62-0.402-1.316-0.885-2.042-1.319c-4.02-2.409-7.281-5.7-10.486-9.048
		c-0.441-0.46-0.74-1.101-0.951-1.711c-0.072-0.208,0.256-0.725,0.522-0.853c1.926-0.932,3.901-1.763,5.824-2.702
		c1.921-0.938,3.789-1.985,5.699-2.947c1.155-0.581,2.335-1.118,3.529-1.615c0.317-0.132,0.879-0.198,1.058-0.021
		c0.33,0.327,0.697,0.894,0.634,1.296c-0.372,2.35-0.891,4.676-1.305,7.019c-0.171,0.967-0.226,1.956-0.299,2.938
		c-0.175,2.365-0.285,4.735-0.513,7.095C226.43,399.345,226.083,400.177,224.845,400.353z"/>
	<path d="M336.71,401.615c2.27,0.228,4.536,0.524,6.811,0.661c1.696,0.102,3.404-0.003,5.107-0.013
		c0.886-0.005,1.772-0.007,2.658-0.003c0.715,0.003,1.01,0.344,0.78,1.044c-0.438,1.333-1.057,2.631-1.305,3.998
		c-0.615,3.391-1.124,6.804-1.549,10.224c-0.178,1.434,0.031,2.913-0.074,4.362c-0.03,0.414-0.496,0.856-0.87,1.147
		c-0.115,0.089-0.703-0.202-0.879-0.455c-2.637-3.789-5.316-7.553-7.827-11.425c-1.556-2.398-2.865-4.959-4.249-7.466
		C334.86,402.87,335.754,401.561,336.71,401.615z"/>
	<path d="M240.382,441.038c1.439-2.932,2.9-5.824,4.278-8.754c0.693-1.474,1.257-3.011,1.837-4.535
		c0.607-1.595,0.83-1.692,2.467-1.512c1.306,0.144,1.127,1.329,1.452,2.026c1.417,3.031,2.589,6.175,3.977,9.22
		c1.18,2.589,2.525,5.104,3.82,7.64c0.247,0.484,0.699,0.881,0.867,1.382c0.116,0.346,0.034,0.922-0.199,1.17
		c-0.201,0.214-0.785,0.241-1.123,0.126c-5.32-1.813-10.635-3.645-15.929-5.531C241.307,442.083,240.922,441.511,240.382,441.038z"
		/>
	<path d="M398.303,314.289c-0.295,0.589-0.385,0.856-0.544,1.073c-1.835,2.497-3.857,4.877-5.477,7.505
		c-1.837,2.98-3.315,6.182-4.955,9.285c-0.256,0.484-0.479,1.004-0.826,1.416c-0.691,0.82-1.487,0.732-1.995-0.22
		c-1.881-3.527-4.1-6.805-6.977-9.607c-0.419-0.408-0.897-0.759-1.298-1.184c-0.629-0.668-0.546-1.47,0.271-1.861
		c0.982-0.47,2.019-0.837,3.058-1.169c2.973-0.952,5.917-2.053,8.953-2.733c2.705-0.606,5.213-1.554,7.678-2.765
		C396.689,313.784,397.498,314.172,398.303,314.289z"/>
	<path d="M252.994,486.699c-1.181,0.015-1.517-0.541-1.221-1.439c1.189-3.598,2.447-7.178,3.481-10.821
		c0.831-2.928,1.357-5.943,2.069-8.907c0.097-0.403,0.422-0.945,0.755-1.045c0.341-0.102,0.962,0.14,1.217,0.439
		c1.225,1.434,2.368,2.938,3.539,4.418c1.564,1.975,3.106,3.967,4.705,5.913c0.419,0.509,0.973,0.943,1.542,1.284
		c0.683,0.41,1.377,0.736,0.971,1.711c-0.115,0.275-0.284,0.705-0.485,0.74c-3.634,0.63-6.953,2.119-10.171,3.814
		c-1.971,1.039-3.803,2.338-5.702,3.514C253.408,486.498,253.101,486.642,252.994,486.699z"/>
	<path d="M185.059,398.996c0.104-0.234,0.236-0.698,0.492-1.077c1.611-2.385,2.03-5.194,2.881-7.855
		c0.626-1.957,1.385-3.876,2.183-5.77c0.102-0.241,0.857-0.414,1.215-0.307c2.216,0.665,4.004,2.073,5.865,3.397
		c1.994,1.417,4.172,2.575,6.273,3.842c0.804,0.485,1.701,0.862,2.388,1.477c0.353,0.316,0.427,1.045,0.432,1.589
		c0.001,0.163-0.643,0.38-1.016,0.491c-2.953,0.875-5.908,1.744-8.871,2.586c-2.101,0.597-4.228,1.104-6.318,1.734
		c-1.154,0.348-2.241,0.915-3.387,1.294C186.342,400.679,185.059,399.915,185.059,398.996z"/>
	<path d="M279.416,284.497c0.258-0.445,0.388-0.882,0.678-1.138c2.905-2.56,5.839-5.088,8.76-7.629
		c1.403-1.221,2.858-2.392,4.169-3.705c0.605-0.606,1.218-0.448,1.868-0.489c0.024,0.508,0.141,1.032,0.057,1.521
		c-0.452,2.622-1.279,5.225-1.359,7.853c-0.103,3.379,0.343,6.78,0.63,10.164c0.092,1.085-0.639,2.52-1.734,2.799
		c-0.268,0.068-0.66-0.111-0.919-0.288c-3.078-2.097-6.14-4.216-9.209-6.326c-0.741-0.51-1.527-0.966-2.216-1.538
		C279.825,285.458,279.689,284.975,279.416,284.497z"/>
	<path d="M392.907,309.395c-0.533,0.504-0.989,1.314-1.465,1.326c-3.313,0.083-6.382,1.195-9.511,2.052
		c-3.8,1.04-7.588,2.127-11.393,3.149c-0.333,0.09-0.997-0.05-1.084-0.259c-0.166-0.399-0.212-1.059,0.017-1.375
		c1.173-1.623,2.406-3.209,3.701-4.737c2.143-2.531,4.35-5.009,6.53-7.509c0.571-0.655,1.162-1.294,1.714-1.965
		c1.02-1.24,1.735-1.21,2.738-0.013c1.585,1.891,3.194,3.767,4.886,5.561c0.914,0.969,2.033,1.742,3.032,2.634
		C392.342,308.5,392.515,308.853,392.907,309.395z"/>
	<path d="M351.242,424.452c0.512-1.76,0.953-3.545,1.554-5.275c0.842-2.425,1.684-4.863,2.752-7.192
		c0.858-1.872,2.018-3.611,3.115-5.364c0.422-0.675,1.517-0.533,1.911,0.188c1.649,3.02,3.277,6.052,4.921,9.075
		c0.637,1.17,1.335,2.309,1.935,3.497c0.608,1.203,0.487,1.373-0.744,1.824c-4.364,1.598-8.738,3.171-13.069,4.854
		C352.42,426.524,351.093,425.786,351.242,424.452z"/>
	<path d="M192.714,439.701c0.978-0.37,1.734-0.839,2.531-0.922c2.437-0.254,4.893-0.316,7.335-0.535
		c2.113-0.19,4.224-0.439,6.321-0.758c3.289-0.501,6.567-1.079,9.848-1.633c0.724-0.122,1.442-0.279,2.159-0.418
		c0.854,1.355,0.81,1.384-0.44,2.098c-4.05,2.314-8.056,4.707-12.125,6.986c-1.742,0.976-3.604,1.736-5.403,2.611
		c-1.152,0.56-2.295,1.138-3.43,1.733c-0.705,0.369-1.046,0.072-1.402-0.547c-0.659-1.146-1.421-2.232-2.125-3.353
		C194.937,443.296,193.906,441.62,192.714,439.701z"/>
	<path d="M242.273,320.903c0.518,0.306,0.928,0.423,1.143,0.695c2.319,2.927,5.18,5.253,8.142,7.479
		c1.666,1.251,3.307,2.539,4.894,3.888c0.387,0.329,0.801,1.039,0.697,1.445c-0.19,0.744-0.877,0.507-1.56,0.439
		c-1.623-0.161-3.274-0.033-4.912-0.072c-2.262-0.054-4.522-0.163-6.783-0.23c-3.06-0.09-6.121-0.155-9.182-0.247
		c-1.172-0.035-1.553-0.846-0.809-1.872c1.451-2.001,3.013-3.922,4.446-5.936c1.042-1.465,1.935-3.035,2.927-4.536
		C241.522,321.583,241.893,321.297,242.273,320.903z"/>
	<path d="M211.364,318.657c0.372,0.251,0.761,0.45,1.072,0.733c3.028,2.769,6.042,5.555,9.063,8.332
		c1.898,1.745,3.82,3.464,5.687,5.242c0.287,0.274,0.335,0.798,0.494,1.207c-0.426,0.057-0.88,0.24-1.273,0.151
		c-3.621-0.815-7.211-1.782-10.851-2.493c-3.419-0.668-6.894-1.05-10.33-1.635c-0.627-0.107-1.275-0.5-1.728-0.949
		c-0.125-0.124,0.356-0.967,0.664-1.405c1.534-2.178,3.086-4.346,4.671-6.487c0.609-0.823,1.317-1.573,1.995-2.343
		C210.948,318.872,211.142,318.799,211.364,318.657z"/>
	<path d="M281.586,514.663c-0.855-0.261-1.716-0.501-2.564-0.785c-3.146-1.054-6.307-2.068-9.419-3.214
		c-1.116-0.411-2.122-1.136-3.147-1.768c-0.161-0.099-0.257-0.494-0.209-0.714c0.599-2.777,1.197-5.555,1.865-8.316
		c0.367-1.515,0.828-3.011,1.327-4.488c0.126-0.372,0.522-0.838,0.862-0.904c0.373-0.071,1.021,0.148,1.213,0.452
		c3.757,5.961,7.484,11.942,11.164,17.951C283.34,513.954,282.878,514.571,281.586,514.663z"/>
	<path d="M220.473,360.778c-0.647,3.879-1.333,7.475-1.824,11.096c-0.405,2.986-0.478,6.021-1.472,8.907
		c-0.358,1.041-1.05,1.609-2.152,1.506c-1.232-3.403-3.353-6.09-5.92-8.513c-1.192-1.125-2.092-2.553-3.2-3.775
		c-0.725-0.8-0.41-1.458,0.25-1.88c1.471-0.939,3.047-1.71,4.55-2.601c1.613-0.956,3.191-1.97,4.783-2.961
		c1.089-0.678,2.12-1.487,3.285-1.985C219.308,360.344,220.102,360.722,220.473,360.778z"/>
	<path d="M319.921,293.057c2.355,0,4.556,0.027,6.757-0.006c4.02-0.06,8.04-0.155,12.06-0.233c0.28-0.005,0.562-0.023,0.839,0.005
		c2.172,0.221,2.611,0.86,1.925,2.921c-0.825,2.48-1.707,4.941-2.544,7.417c-0.219,0.648-0.277,1.365-0.579,1.964
		c-0.116,0.23-0.828,0.43-1.06,0.292c-3.365-2.004-6.671-4.108-10.041-6.103c-2.185-1.293-4.454-2.445-6.682-3.667
		c-0.413-0.226-0.89-0.413-1.185-0.751c-0.251-0.288-0.463-0.83-0.357-1.147C319.163,293.425,319.679,293.236,319.921,293.057z"/>
	<path d="M303.946,315.69c-0.54,0.616-0.803,1.16-1.228,1.355c-1.273,0.585-2.602,1.048-3.92,1.532
		c-3.26,1.197-6.524,2.381-9.789,3.565c-1.026,0.372-2.05,0.752-3.091,1.081c-0.79,0.25-1.393-0.469-1.3-1.338
		c0.279-2.594,1.832-4.62,2.937-6.851c0.989-1.996,1.892-4.034,2.872-6.034c0.446-0.91,0.948-1.798,1.499-2.648
		c0.349-0.54,1.522-0.44,1.965,0.214c2.085,3.075,5.096,5.08,8.059,7.162C302.655,314.221,303.198,314.942,303.946,315.69z"/>
	<path d="M411.414,334.694c-0.435,0.516-0.118,1.326-1.395,1.171c-3.509-0.426-7.05-0.609-10.605-0.191
		c-1.387,0.163-2.83-0.139-4.247-0.237c-0.708-0.049-1.414-0.121-2.122-0.174c-0.963-0.071-1.285-0.549-0.77-1.353
		c1.541-2.407,3.173-4.756,4.706-7.168c0.734-1.155,1.325-2.4,1.978-3.606c0.187-0.346,0.339-0.713,0.548-1.044
		c0.966-1.526,1.679-1.546,2.699-0.066c2.332,3.384,4.639,6.786,6.999,10.151c0.342,0.488,0.962,0.771,1.373,1.223
		C410.916,333.771,411.136,334.252,411.414,334.694z"/>
	<path d="M234.199,466.303c-1.365-0.176-3.547-0.482-5.736-0.735c-2.265-0.262-4.54-0.436-6.802-0.718
		c-1.432-0.179-2.865-0.415-4.259-0.774c-0.435-0.112-0.747-0.708-1.115-1.082c0.337-0.304,0.635-0.675,1.018-0.902
		c3.424-2.024,6.87-4.011,10.292-6.038c0.841-0.498,1.633-1.083,2.422-1.663c0.488-0.359,0.977-0.739,1.38-1.187
		c0.533-0.592,1.067-0.804,1.521-0.035c0.71,1.201,1.481,2.404,1.94,3.707c0.79,2.241,1.359,4.561,2.024,6.846
		c0.054,0.187,0.171,0.36,0.203,0.549C237.393,466.101,237.186,466.303,234.199,466.303z"/>
	<path d="M262.945,294.281c0.174-0.447,0.261-0.887,0.493-1.229c1.851-2.732,3.29-5.666,4.483-8.739
		c0.38-0.98,0.996-1.869,1.506-2.798c1.393-2.539,2.859-5.042,4.154-7.63c0.78-1.56,1.956-0.793,2.986-0.72
		c1.642,0.116,3.281,0.329,4.904,0.606c0.479,0.082,1.151,0.429,1.28,0.809c0.149,0.44-0.049,1.174-0.365,1.564
		c-1.761,2.178-3.575,4.315-5.423,6.42c-2.143,2.44-4.229,4.948-6.55,7.21c-1.909,1.859-4.12,3.409-6.216,5.073
		c-0.212,0.168-0.613,0.319-0.81,0.227C263.174,294.974,263.098,294.581,262.945,294.281z"/>
	<path d="M260.939,290.46c-0.894,1.342-1.571,2.474-2.361,3.521c-1.653,2.192-3.356,4.346-5.06,6.499
		c-0.563,0.711-1.148,1.416-1.802,2.042c-0.788,0.754-2.102,0.417-2.425-0.55c-0.926-2.772-1.903-5.529-2.775-8.318
		c-0.629-2.01-1.146-4.056-1.667-6.098c-0.275-1.079,0.482-1.703,1.776-1.439c1.837,0.375,3.668,0.785,5.486,1.243
		c2.116,0.533,4.231,1.082,6.313,1.732C259.213,289.338,259.908,289.886,260.939,290.46z"/>
	<path d="M217.502,337.937c2.885,0,5.793,0.061,8.697-0.019c2.366-0.066,4.725-0.339,7.09-0.446
		c1.373-0.062,1.809,0.602,1.094,1.759c-0.925,1.498-1.963,2.939-3.062,4.316c-1.648,2.067-3.397,4.052-5.092,6.082
		c-0.688,0.825-1.216,0.523-1.865-0.107c-1.637-1.588-3.331-3.118-5.011-4.662c-1.317-1.211-2.641-2.413-3.971-3.609
		c-0.44-0.395-0.934-0.731-1.358-1.142c-0.687-0.666-0.556-1.355,0.358-1.596C215.391,338.249,216.437,338.128,217.502,337.937z"/>
	<path d="M214.651,349.829c-1.226-0.371-2.438-0.796-3.68-1.102c-4.657-1.149-9.318-2.284-13.991-3.362
		c-0.958-0.221-1.383-0.567-0.94-1.524c0.426-0.92,0.895-1.819,1.34-2.73c0.937-1.92,1.93-3.816,2.78-5.775
		c0.419-0.967,0.858-1.255,1.728-0.596c0.687,0.521,1.413,1.002,2.041,1.588c3.98,3.708,7.938,7.439,11.899,11.167
		c0.229,0.215,0.473,0.448,0.609,0.722c0.434,0.873,0.095,1.397-0.896,1.444c-0.279,0.013-0.559,0.002-0.839,0.002
		C214.684,349.718,214.667,349.773,214.651,349.829z"/>
	<path d="M242.709,384.678c-0.28-0.35-0.673-0.625-0.746-0.968c-0.71-3.325-1.328-6.67-2.061-9.989
		c-0.207-0.937,0.022-1.346,0.935-1.466c3.617-0.475,7.249-0.863,10.843-1.472c2.531-0.429,5.005-1.192,7.52-1.73
		c0.457-0.098,0.991,0.17,1.49,0.269c-0.106,0.454-0.06,1.085-0.345,1.331c-1.577,1.359-3.234,2.626-4.866,3.922
		c-2.645,2.101-5.306,4.182-7.931,6.308c-1.27,1.029-2.465,2.151-3.714,3.207C243.583,384.302,243.241,384.406,242.709,384.678z"/>
	<path d="M294.445,416.927c-0.327-1.351,0.335-1.691,1.566-2.037c3.156-0.887,6.249-2.004,9.346-3.086
		c0.493-0.172,0.908-0.616,1.313-0.985c0.446-0.407,0.792-0.901,1.509-0.407c0.739,0.51,0.503,1.102,0.193,1.656
		c-0.818,1.465-1.713,2.887-2.532,4.352c-0.935,1.671-1.956,3.313-2.698,5.069c-1.386,3.278-2.578,6.638-3.909,9.94
		c-0.167,0.414-0.807,1.031-1.015,0.957c-0.502-0.18-1.116-0.639-1.263-1.116c-0.515-1.673-0.937-3.386-1.236-5.112
		c-0.436-2.515-0.737-5.053-1.089-7.582C294.553,418.029,294.505,417.477,294.445,416.927z"/>
	<path d="M346.344,393.943c0.63-0.599,0.909-1.087,1.294-1.196c4.949-1.391,8.913-4.462,12.919-7.472
		c0.782-0.587,1.435-0.214,1.827,0.49c1.696,3.042,3.315,6.127,5.023,9.163c0.505,0.898,1.276,1.645,1.788,2.54
		c0.222,0.389,0.281,1.085,0.071,1.439c-0.163,0.275-0.913,0.424-1.305,0.306c-2.536-0.763-4.996-1.848-7.574-2.385
		c-4.133-0.862-8.339-1.368-12.508-2.066C347.451,394.69,347.07,394.34,346.344,393.943z"/>
	<path d="M220.321,433.211c-4.343-0.17-8.688-0.319-13.029-0.527c-0.85-0.041-1.702-0.263-2.525-0.498
		c-0.287-0.082-0.61-0.42-0.692-0.706c-0.058-0.201,0.202-0.59,0.423-0.762c2.695-2.095,5.446-4.119,8.097-6.267
		c0.939-0.761,1.777-1.725,2.428-2.746c1.305-2.047,2.533-1.551,3.512,0.206c1.447,2.595,3.123,5.061,4.661,7.607
		c0.442,0.731,0.808,1.524,1.095,2.329c0.292,0.819,0.112,1.404-0.972,1.347c-0.996-0.053-1.997-0.011-2.995-0.011
		C220.321,433.192,220.321,433.202,220.321,433.211z"/>
	<path d="M218.712,456.588c-0.344,0.583-0.485,1.023-0.781,1.29c-2.07,1.869-4.159,3.717-6.27,5.539
		c-1.041,0.899-2.077,1.837-3.246,2.541c-0.485,0.292-1.315,0.052-1.979-0.025c-0.173-0.02-0.448-0.336-0.447-0.515
		c0.018-2.304-1.709-3.88-2.45-5.872c-0.746-2.005-1.881-3.865-2.813-5.804c-0.129-0.268-0.212-0.787-0.073-0.907
		c0.316-0.271,0.82-0.567,1.184-0.501c2.729,0.501,5.444,1.083,8.161,1.649c2.452,0.511,4.91,0.996,7.343,1.586
		C217.84,455.691,218.239,456.223,218.712,456.588z"/>
	<path d="M228.463,441.867c-0.305,1.651-0.696,3.647-1.033,5.651c-0.183,1.084-0.3,2.182-0.401,3.277
		c-0.126,1.368-0.454,1.78-1.62,1.567c-2.266-0.414-4.593-0.705-6.747-1.465c-2.588-0.913-5.194-1.445-7.904-1.666
		c-0.338-0.028-0.644-0.459-0.964-0.703c0.208-0.248,0.367-0.589,0.632-0.729c3.773-1.997,7.554-3.98,11.349-5.934
		c1.45-0.747,2.943-1.411,4.415-2.114c0.551-0.264,1.145-0.704,1.67-0.081c0.306,0.364,0.423,0.895,0.596,1.361
		C228.507,441.171,228.463,441.347,228.463,441.867z"/>
	<path d="M211.67,468.18c1,0.186,1.993,0.463,3.001,0.54c2.759,0.211,5.525,0.333,8.288,0.499c1.067,0.064,2.132,0.163,3.199,0.227
		c1.095,0.066,1.015,0.675,0.629,1.379c-0.677,1.237-1.367,2.467-2.089,3.678c-0.988,1.659-1.847,3.351-2.022,5.326
		c-0.039,0.444-0.28,0.913-0.548,1.284c-0.654,0.904-1.61,0.804-2.337-0.045c-1.494-1.745-3.068-3.42-4.593-5.139
		c-1.691-1.906-3.38-3.814-5.029-5.756c-0.297-0.35-0.396-0.869-0.587-1.31c0.491-0.202,0.976-0.422,1.478-0.595
		c0.178-0.062,0.396-0.01,0.595-0.01C211.66,468.233,211.665,468.206,211.67,468.18z"/>
	<path d="M304.624,269.635c1.605,0.252,2.993,0.49,4.386,0.683c1.208,0.167,2.422,0.31,3.637,0.415
		c3.773,0.326,7.545,0.691,11.325,0.897c0.918,0.05,1.513,0.233,1.831,1.055c0.294,0.76-0.043,1.291-0.819,1.363
		c-5.132,0.474-10.154,1.483-15.109,2.89c-1.803,0.512-3.671,0.788-5.5,1.213c-0.717,0.167-1.397,0.494-2.115,0.654
		c-0.398,0.089-1.09,0.132-1.208-0.067c-0.214-0.359-0.253-0.979-0.09-1.377c0.608-1.489,1.335-2.93,2.003-4.395
		c0.39-0.855,0.737-1.73,1.141-2.579C304.261,270.06,304.518,269.785,304.624,269.635z"/>
	<path d="M284.158,439.896c0.019-2.847,0.406-3.247,2.994-2.089c2.034,0.91,3.923,2.226,5.707,3.584
		c1.352,1.029,2.657,2.051,4.276,2.62c1.391,0.489,1.567,1.243,0.415,2.117c-1.339,1.017-2.744,1.956-4.175,2.841
		c-1.597,0.987-3.246,1.889-4.89,2.798c-1.216,0.672-1.594,0.497-1.908-0.804c-0.785-3.252-1.576-6.503-2.341-9.76
		C284.139,440.785,284.181,440.333,284.158,439.896z"/>
	<path d="M309.765,378.116c-0.177,1.141-0.738,1.52-2.019,1.291c-1.272-0.227-2.544-0.452-3.81-0.709
		c-2.475-0.504-4.894-0.148-7.325,0.356c-0.88,0.182-2.03,0.646-2.415-0.774c-0.11-0.405-0.079-0.969,0.128-1.319
		c1.031-1.75,2.066-3.481,3.69-4.817c1.41-1.161,2.591-2.598,3.969-3.804c0.661-0.578,1.526-0.942,2.341-1.309
		c0.137-0.062,0.6,0.302,0.724,0.56c0.507,1.057,0.914,2.162,1.409,3.225c0.756,1.622,1.574,3.215,2.327,4.839
		C309.155,376.455,309.441,377.295,309.765,378.116z"/>
	<path d="M286.887,388.811c-0.258-0.876,0.294-1.325,1.084-1.816c1.13-0.701,2.164-1.569,3.188-2.427
		c1.431-1.2,2.31-1.38,3.964-0.456c1.367,0.763,2.684,1.627,3.978,2.51c2.329,1.59,4.646,3.201,6.913,4.878
		c0.311,0.23,0.529,0.955,0.407,1.324c-0.229,0.694-0.789,1.113-1.662,0.855c-3.97-1.173-7.94-2.348-11.929-3.457
		C290.882,389.68,288.894,389.282,286.887,388.811z"/>
	<path d="M371.817,476.376c-2.066-0.26-3.972-0.508-5.881-0.738c-1.365-0.164-2.736-0.276-4.097-0.464
		c-1.278-0.176-2.555-0.38-3.812-0.661c-0.333-0.074-0.798-0.448-0.837-0.734c-0.054-0.4,0.104-1.047,0.398-1.239
		c1.69-1.102,3.446-2.103,5.183-3.132c1.045-0.619,2.087-1.246,3.15-1.835c0.84-0.465,1.313-0.323,1.812,0.672
		c0.622,1.241,1.599,2.319,2.508,3.395c0.914,1.08,1.802,2.132,2.256,3.523C372.8,476.091,372.371,476.279,371.817,476.376z"/>
	<path d="M266.901,416.513c-0.267-0.304-0.785-0.657-0.949-1.132c-0.328-0.951-0.525-1.96-0.663-2.961
		c-0.231-1.675-0.431-3.359-0.533-5.046c-0.082-1.358,0.864-1.969,2.059-1.267c2.531,1.485,5.002,3.073,7.47,4.661
		c0.824,0.53,1.582,1.167,2.34,1.792c0.895,0.736,0.786,1.595-0.333,1.883c-2.186,0.563-4.409,0.98-6.617,1.459
		C268.874,416.076,268.072,416.255,266.901,416.513z"/>
	<path d="M232.793,468.997c2.444,0.783,4.899,1.535,7.328,2.365c0.917,0.313,0.653,0.948,0.294,1.623
		c-0.767,1.444-2.227,1.993-3.527,2.618c-2.103,1.01-4.355,1.708-6.513,2.61c-0.975,0.407-1.68,0.263-2.393-0.513
		c-0.786-0.855-0.104-1.566,0.183-2.231c0.692-1.605,1.516-3.155,2.316-4.712C230.945,469.854,231.485,469.011,232.793,468.997z"/>
	<path d="M253.782,283.069c1.197-0.713,2.022-1.3,2.924-1.724c2.718-1.278,5.45-2.532,8.212-3.711
		c0.981-0.419,2.125-0.952,2.907,0.55c-1.34,2.745-2.708,5.546-4.077,8.347c-0.395,0.808-0.976,0.88-1.767,0.546
		c-2.229-0.941-4.49-1.807-6.713-2.762C254.814,284.121,254.474,283.663,253.782,283.069z"/>
	<path d="M243.066,418.076c0.223-0.572,0.586-1.642,1.057-2.661c0.281-0.609,0.82-0.59,1.481-0.475
		c1.501,0.263,3.029,0.396,4.552,0.504c1.258,0.089,1.685,0.701,1.076,1.747c-1.02,1.753-1.976,3.553-3.13,5.215
		c-0.719,1.036-1.685,1.932-2.659,2.749c-0.923,0.775-1.715,0.343-1.826-0.877C243.447,422.402,243.283,420.525,243.066,418.076z"/>
	<path d="M262.522,419.37c-2.387,0.322-4.773,0.646-7.16,0.964c-0.388,0.052-0.895,0.244-1.141,0.074
		c-0.318-0.219-0.705-0.896-0.587-1.104c1.087-1.898,2.268-3.742,3.44-5.59c0.538-0.847,1.088-1.148,2.116-0.454
		c2.169,1.464,4.47,2.732,6.684,4.133c0.338,0.214,0.744,0.761,0.68,1.06c-0.084,0.395-0.568,0.94-0.94,0.992
		c-1,0.138-2.031,0.047-3.049,0.047C262.551,419.452,262.536,419.411,262.522,419.37z"/>
	<path d="M325.479,450.086c-0.076,0.377-0.17,0.915-0.293,1.446c-0.24,1.037-0.788,1.309-1.653,0.711
		c-2.254-1.558-4.477-3.162-6.7-4.764c-0.51-0.367-1.021-0.757-1.44-1.22c-0.516-0.569-0.33-1.41,0.311-1.499
		c2.567-0.354,5.144-0.634,7.71-0.995c1.004-0.141,1.387,0.411,1.498,1.211C325.138,446.614,325.282,448.263,325.479,450.086z"/>
	<path d="M369.224,305.223c0.483-1.169,0.975-2.192,1.333-3.259c0.842-2.509,1.647-5.032,2.411-7.566
		c0.265-0.878,1.097-1.354,1.764-0.876c1.026,0.735,2.056,1.464,3.088,2.191c1.14,0.803,1.144,1.291,0.179,2.331
		c-2.332,2.512-4.616,5.068-6.948,7.581c-0.256,0.276-0.739,0.585-1.032,0.516C369.708,306.069,369.498,305.564,369.224,305.223z"/>
	<path d="M247.328,361.06c1.585-0.621,3.033-1.174,4.468-1.757c0.79-0.321,1.543-0.734,2.342-1.026
		c0.396-0.145,0.936-0.268,1.263-0.105c0.258,0.129,0.442,0.732,0.392,1.088c-0.13,0.919-0.329,1.845-0.643,2.717
		c-0.449,1.246-0.976,2.472-1.573,3.654c-0.219,0.433-0.85,1.077-1.09,0.999c-0.666-0.217-1.327-0.67-1.806-1.197
		c-0.898-0.987-1.672-2.088-2.488-3.149C247.915,361.923,247.666,361.541,247.328,361.06z"/>
	<path d="M336.265,366.459c-0.741,0-1.503,0.101-2.213-0.048c-0.298-0.062-0.748-0.719-0.68-0.995
		c0.571-2.317,1.902-4.171,3.796-5.596c0.202-0.152,0.912-0.026,1.042,0.184c1.045,1.689,2.036,3.414,2.949,5.178
		c0.093,0.18-0.401,0.952-0.688,0.993c-1.394,0.2-2.81,0.244-4.218,0.344C336.257,366.499,336.261,366.479,336.265,366.459z"/>
	<path d="M286.992,382.302c-1.5-0.1-1.897-1.092-2.308-2.081c-0.388-0.934-0.793-1.862-1.192-2.792
		c-0.091-0.212-0.262-0.416-0.274-0.63c-0.032-0.59,0.002-1.184,0.009-1.777c0.533,0.141,1.083,0.238,1.596,0.432
		c1.789,0.676,3.571,1.371,5.342,2.093c0.452,0.184,1.176,0.46,1.208,0.755c0.059,0.544-0.127,1.371-0.52,1.659
		C289.644,380.849,288.29,381.537,286.992,382.302z"/>
	<path d="M288.684,459.116c0.065-0.384,0.069-0.833,0.222-1.223c0.419-1.072,0.995-1.128,1.877-0.431
		c1.567,1.239,3.222,2.367,4.799,3.594c0.35,0.272,0.706,0.759,0.718,1.158c0.007,0.233-0.629,0.616-1.027,0.711
		c-1.589,0.375-3.209,0.624-4.797,1.002c-0.695,0.166-1.099-0.077-1.206-0.673C289.025,461.902,288.878,460.533,288.684,459.116z"/>
	<path d="M259.786,298.319c0.699,1.314,1.312,2.459,1.916,3.609c0.289,0.55,0.552,1.113,0.838,1.664
		c0.401,0.773,0.147,1.361-0.694,1.416c-1.776,0.116-3.557,0.231-5.334,0.212c-0.444-0.005-1.065-0.43-1.264-0.831
		c-0.157-0.315,0.085-0.996,0.366-1.333C256.896,301.517,258.255,300.041,259.786,298.319z"/>
</g>
</svg>
