<?xml version="1.0" encoding="iso-8859-1"?>
<!-- Generator: Adobe Illustrator 22.0.1, SVG Export Plug-In . SVG Version: 6.00 Build 0)  -->
<svg version="1.1" id="Layer_1" xmlns="http://www.w3.org/2000/svg" xmlns:xlink="http://www.w3.org/1999/xlink" x="0px" y="0px"
	 viewBox="0 0 612 792" style="enable-background:new 0 0 612 792;" xml:space="preserve">
<g>
	<path d="M232.102,512.894c0.398-1.35,0.892-2.681,1.174-4.055c0.622-3.029,1.053-6.099,1.718-9.118
		c0.926-4.2,1.951-8.38,3.018-12.548c0.921-3.598,1.945-7.169,2.95-10.745c1.269-4.515,2.611-9.009,3.837-13.535
		c1.42-5.247,2.712-10.528,4.128-15.776c1.069-3.964,2.323-7.878,3.351-11.852c0.969-3.746,1.772-7.536,2.609-11.315
		c0.914-4.127,1.77-8.267,2.678-12.395c0.857-3.897,1.677-7.804,2.648-11.672c0.923-3.677,2.092-7.292,3.022-10.968
		c1.286-5.081,2.47-10.189,3.66-15.294c1.085-4.654,2.143-9.316,3.172-13.983c0.741-3.362,1.336-6.759,2.142-10.105
		c0.997-4.139,2.209-8.227,3.206-12.366c0.705-2.928,1.232-5.901,1.796-8.861c0.645-3.385,1.272-6.774,1.85-10.17
		c0.257-1.512,0.363-3.05,0.559-4.574c0.301-2.338,0.667-4.669,0.914-7.013c0.173-1.639,0.139-3.3,0.297-4.941
		c0.192-1.997,0.403-4,0.784-5.966c0.13-0.669,0.742-1.287,1.246-1.822c0.214-0.227,0.838-0.373,1.067-0.227
		c0.906,0.576,1.765,1.24,2.572,1.951c0.822,0.724,1.582,1.522,2.335,2.319c1.405,1.486,2.905,2.901,4.153,4.511
		c3.343,4.314,6.481,8.791,9.883,13.056c2.211,2.772,4.671,5.358,7.148,7.901c4.253,4.368,8.632,8.613,12.908,12.959
		c2.663,2.706,5.222,5.514,7.848,8.256c1.381,1.442,2.86,2.793,4.199,4.273c3.149,3.481,6.221,7.032,9.362,10.52
		c1.545,1.715,3.162,3.367,4.769,5.025c3.14,3.239,6.328,6.432,9.437,9.701c3.121,3.281,6.203,6.602,9.239,9.962
		c1.772,1.961,3.39,4.059,5.138,6.043c0.676,0.768,1.541,1.366,2.281,2.082c3.031,2.932,6.053,5.873,9.067,8.822
		c4.268,4.176,8.466,8.425,12.81,12.52c2.747,2.589,5.723,4.933,8.563,7.426c3.036,2.666,6.032,5.379,9.047,8.069
		c0.62,0.553,1.282,1.062,1.868,1.648c0.567,0.567,0.793,1.179-0.12,1.685c-1.512,0.836-2.987,1.744-4.532,2.513
		c-3.796,1.889-7.591,3.786-11.449,5.544c-2.559,1.166-5.236,2.068-7.839,3.138c-3.514,1.445-7.007,2.941-10.512,4.41
		c-3.865,1.62-7.731,3.238-11.6,4.849c-3.543,1.475-7.096,2.927-10.634,4.413c-4.443,1.866-8.914,3.669-13.303,5.654
		c-7.047,3.188-14.061,6.454-21.043,9.781c-4.821,2.297-9.542,4.801-14.35,7.126c-4.452,2.153-8.962,4.188-13.444,6.279
		c-2.456,1.146-4.885,2.353-7.365,3.442c-5.813,2.551-11.651,5.046-17.478,7.566c-3.633,1.572-7.198,3.328-10.91,4.685
		c-6.755,2.47-13.301,5.391-19.737,8.573c-2.59,1.281-5.148,2.629-7.69,4.003C232.723,515.281,232.379,514.443,232.102,512.894z"/>
</g>
</svg>
