<?xml version="1.0" encoding="iso-8859-1"?>
<!-- Generator: Adobe Illustrator 22.0.1, SVG Export Plug-In . SVG Version: 6.00 Build 0)  -->
<svg version="1.1" id="Layer_1" xmlns="http://www.w3.org/2000/svg" xmlns:xlink="http://www.w3.org/1999/xlink" x="0px" y="0px"
	 viewBox="0 0 612 792" style="enable-background:new 0 0 612 792;" xml:space="preserve">
<g>
	<path style="fill:#FFFFFF;" d="M436.56,536.39c-87.424,0-174.847,0-262.296,0c0-93.083,0-186.177,0-279.31
		c87.416,0,174.856,0,262.296,0C436.56,350.161,436.56,443.271,436.56,536.39z M195.128,441.154
		c0.247,0.428,0.467,0.892,0.761,1.304c1.481,2.075,3.015,4.112,4.467,6.208c1.495,2.159,2.926,4.362,4.369,6.557
		c3.175,4.83,7.282,8.859,11.22,13.028c1.72,1.821,3.593,3.501,5.431,5.207c1.041,0.966,2.171,1.836,3.227,2.787
		c1.479,1.332,2.956,2.668,4.383,4.055c3.821,3.712,7.561,7.511,11.442,11.158c2.11,1.983,4.48,3.686,6.662,5.595
		c1.35,1.181,3.905,0.682,4.545-1.002c0.068-0.179,0.075-0.383,0.106-0.576c0.526-3.252,0.846-6.553,1.621-9.744
		c1.524-6.274,3.38-12.466,4.153-18.908c0.304-2.53,0.761-5.042,1.183-7.556c0.291-1.738,0.661-3.462,0.96-5.199
		c0.472-2.744,0.963-5.486,1.356-8.242c0.405-2.843,0.738-5.698,1.037-8.554c0.222-2.123,0.331-4.257,0.505-6.386
		c0.31-3.799,0.736-7.593,0.909-11.398c0.116-2.553-0.153-5.121-0.191-7.683c-0.041-2.806,0.103-5.619-0.045-8.418
		c-0.205-3.865-0.648-7.716-0.912-11.578c-0.16-2.339-0.161-4.689-0.264-7.032c-0.029-0.666-0.126-1.335-0.263-1.987
		c-0.157-0.749-0.908-0.947-1.538-0.407c-0.484,0.415-0.887,0.927-1.381,1.327c-2.742,2.218-5.551,4.357-8.243,6.634
		c-3.341,2.826-6.671,5.674-9.858,8.669c-4.555,4.279-9.068,8.576-13.914,12.552c-5.155,4.229-9.929,8.931-14.794,13.505
		c-3.62,3.404-7.098,6.959-10.686,10.398C199.379,437.382,197.287,439.196,195.128,441.154z M183.367,385.056
		c0.312,0.466,0.513,1.128,0.902,1.269c0.72,0.26,1.562,0.344,2.332,0.275c3.295-0.294,6.59-0.613,9.87-1.034
		c3.621-0.464,7.227-1.043,10.838-1.585c2.907-0.436,5.809-0.904,8.717-1.332c2.022-0.298,4.047-0.574,6.076-0.82
		c1.649-0.2,3.312-0.296,4.957-0.519c2.589-0.352,5.16-0.861,7.756-1.142c3.103-0.336,6.233-0.424,9.336-0.763
		c3.672-0.401,7.341-0.875,10.987-1.463c4.913-0.793,9.799-1.749,14.706-2.585c1.705-0.29,3.309-0.981,5.146-0.832
		c1.012,0.082,2.112-0.662,3.139-1.111c0.725-0.318,1.051-0.85,0.433-1.594c-1.133-1.364-2.271-2.724-3.385-4.103
		c-2.673-3.308-5.313-6.643-8.006-9.935c-2.696-3.296-5.432-6.559-8.165-9.824c-1.116-1.334-2.287-2.623-3.403-3.957
		c-1.821-2.175-3.594-4.392-5.434-6.55c-1.414-1.658-2.936-3.224-4.348-4.883c-3.375-3.966-6.722-7.956-10.064-11.951
		c-1.568-1.874-3.149-3.741-4.63-5.684c-1.925-2.526-3.737-5.139-5.636-7.686c-0.916-1.229-1.909-2.403-2.888-3.585
		c-0.569-0.687-1.947-0.785-2.549-0.102c-1.46,1.658-3.02,3.264-4.23,5.095c-1.572,2.377-2.812,4.971-4.252,7.437
		c-1.976,3.384-4.21,6.634-5.968,10.126c-2.716,5.397-4.977,11.022-7.71,16.409c-1.747,3.443-3.129,7.011-4.243,10.657
		c-1.228,4.018-2.934,7.831-4.37,11.756c-0.764,2.087-1.459,4.205-2.05,6.346c-0.873,3.158-1.592,6.359-2.445,9.523
		C184.421,382.257,183.885,383.561,183.367,385.056z M324.139,358.541c0.045-0.009,0.319-0.046,0.582-0.123
		c1.948-0.571,3.905-1.112,5.837-1.733c4.864-1.565,9.726-3.139,14.571-4.764c3.783-1.268,7.53-2.644,11.311-3.92
		c2.223-0.75,4.508-1.32,6.715-2.111c4.162-1.493,8.272-3.13,12.432-4.628c3.826-1.377,7.721-2.564,11.527-3.991
		c4.103-1.538,8.165-3.197,12.191-4.928c1.664-0.715,3.237-1.68,4.756-2.676c0.933-0.612,0.84-1.331-0.141-1.915
		c-3.403-2.027-6.418-4.549-9.358-7.178c-2.478-2.215-5.012-4.367-7.512-6.556c-3.215-2.814-6.447-5.61-9.624-8.466
		c-3.072-2.761-6.038-5.64-9.136-8.372c-3.851-3.397-7.781-6.704-11.694-10.031c-1.381-1.175-2.755-2.371-4.23-3.42
		c-2.906-2.067-5.902-4.009-8.818-6.062c-1.338-0.942-2.368-0.647-2.725,0.941c-0.585,2.595-1.143,5.196-1.721,7.793
		c-0.944,4.237-1.908,8.471-2.842,12.71c-0.815,3.703-1.558,7.423-2.408,11.118c-1.173,5.103-2.361,10.205-3.649,15.28
		c-0.864,3.406-1.942,6.757-2.868,10.148c-0.525,1.922-1.002,3.863-1.382,5.818c-0.47,2.423-0.725,4.889-1.241,7.3
		c-0.589,2.751-1.36,5.464-2.059,8.192C322.38,358.028,322.787,358.549,324.139,358.541z M366.728,497.022
		c0.4,0,0.8,0.015,1.199-0.003c1.127-0.05,1.464-0.688,0.845-1.624c-0.367-0.554-0.828-1.05-1.163-1.621
		c-1.787-3.044-3.519-6.12-5.324-9.153c-2.762-4.64-5.556-9.261-8.361-13.875c-2.056-3.382-4.116-6.762-6.241-10.1
		c-1.304-2.049-2.803-3.974-4.088-6.034c-1.225-1.962-2.163-4.108-3.444-6.027c-2.7-4.043-5.523-8.005-8.329-11.976
		c-3.736-5.287-7.491-10.56-11.265-15.819c-1.213-1.691-2.476-3.349-3.778-4.972c-2.292-2.858-4.648-5.665-6.937-8.527
		c-0.415-0.518-0.713-0.819-1.455-0.612c-0.746,0.209-1.339,0.412-1.406,1.293c-0.238,3.113-0.629,6.222-0.694,9.338
		c-0.166,8.059-0.177,16.122-0.277,24.183c-0.024,1.945-0.158,3.888-0.231,5.832c-0.024,0.646,0.026,1.296-0.024,1.939
		c-0.219,2.833-0.471,5.663-0.694,8.495c-0.121,1.539-0.174,3.084-0.319,4.62c-0.181,1.918-0.435,3.829-0.642,5.745
		c-0.234,2.169-0.522,4.336-0.65,6.512c-0.073,1.251-0.81,2.742,0.771,3.643c0.626,0.356,1.317,0.62,2.007,0.839
		c4.206,1.342,8.399,2.73,12.636,3.966c5.253,1.533,10.546,2.931,15.82,4.393c6.264,1.737,12.378,3.899,18.371,6.417
		C357.424,495.732,361.885,497.227,366.728,497.022z M318.995,371.776c-0.013-0.117-0.026-0.234-0.038-0.352
		c-3.31,0.28-6.623,0.524-9.927,0.854c-1.753,0.175-2.417,1.326-1.839,2.997c0.715,2.067,1.633,4.084,2.143,6.2
		c1.072,4.442,2.646,8.678,4.674,12.757c1.013,2.038,2.082,4.05,3.056,6.107c1.353,2.856,2.602,5.762,3.97,8.611
		c0.92,1.915,1.214,2.037,3.016,1.006c3.401-1.946,6.721-4.035,10.11-6.004c2.24-1.301,4.558-2.465,6.811-3.744
		c2.994-1.701,5.942-3.481,8.94-5.174c1.738-0.981,3.555-1.822,5.301-2.79c3.831-2.123,7.645-4.275,11.454-6.437
		c2.454-1.393,4.825-2.947,7.341-4.214c3.884-1.956,7.884-3.683,11.793-5.591c4.268-2.082,8.47-4.299,12.738-6.381
		c3.095-1.509,6.248-2.9,9.381-4.331c4.495-2.052,9-4.084,13.487-6.155c0.303-0.14,0.726-0.579,0.68-0.787
		c-0.077-0.345-0.44-0.707-0.777-0.889c-0.284-0.154-0.706-0.112-1.057-0.073c-1.994,0.221-3.98,0.522-5.978,0.694
		c-4.174,0.359-8.355,0.629-12.53,0.985c-2.237,0.191-4.475,0.415-6.694,0.746c-3.295,0.491-6.577,1.073-9.859,1.646
		c-3.859,0.674-7.715,1.369-11.568,2.078c-1.854,0.341-3.694,0.757-5.547,1.098c-2.851,0.524-5.71,1.005-8.563,1.519
		c-1.89,0.341-3.769,0.743-5.663,1.053c-2.786,0.456-5.581,0.865-8.375,1.273c-2.682,0.392-5.363,0.792-8.052,1.127
		c-2.931,0.365-5.873,0.644-8.807,0.989C325.407,370.973,322.202,371.381,318.995,371.776z M382.97,395.138
		c-0.018-0.133-0.037-0.265-0.055-0.398c-1.996,0.206-3.994,0.391-5.987,0.623c-2.383,0.277-4.756,0.635-7.141,0.884
		c-2.745,0.286-5.498,0.494-8.249,0.729c-0.903,0.077-1.156,0.536-0.792,1.338c0.284,0.624,0.521,1.296,0.929,1.833
		c1.425,1.88,2.917,3.709,4.38,5.56c1.867,2.36,3.729,4.725,5.598,7.084c2.687,3.392,5.379,6.779,8.065,10.171
		c1.563,1.974,3.1,3.971,4.686,5.927c1.267,1.563,2.608,3.066,3.885,4.621c1.299,1.582,2.539,3.212,3.842,4.79
		c2.561,3.103,5.147,6.184,7.722,9.275c1.817,2.181,3.58,4.412,5.469,6.529c1.356,1.52,2.047,1.338,2.642-0.481
		c0.024-0.074,0.007-0.162,0.031-0.237c1.905-5.912,3.888-11.801,5.691-17.744c1.088-3.584,1.918-7.248,2.828-10.885
		c1.424-5.69,2.871-11.374,4.21-17.084c1.456-6.206,2.802-12.439,4.193-18.66c0.145-0.646-0.439-1.43-1.05-1.372
		c-0.7,0.067-1.406,0.143-2.09,0.301c-3.27,0.757-6.516,1.631-9.803,2.3c-5.102,1.038-10.219,2.014-15.352,2.882
		C392.088,393.889,387.522,394.473,382.97,395.138z M330.193,417.704c-0.335,0.202-0.773,0.328-0.799,0.512
		c-0.054,0.388,0.025,0.846,0.198,1.205c0.37,0.769,0.857,1.48,1.252,2.239c0.756,1.452,1.334,3.021,2.249,4.362
		c2.183,3.2,4.547,6.276,6.785,9.439c1.631,2.307,3.157,4.688,4.77,7.008c0.897,1.289,1.94,2.478,2.807,3.784
		c1.555,2.343,2.897,4.837,4.562,7.094c3.198,4.334,6.619,8.504,9.835,12.825c2.529,3.397,4.934,6.89,7.31,10.396
		c1.555,2.295,3,4.668,4.425,7.047c1.386,2.313,2.97,2.731,4.814,1.109c2.32-2.041,4.658-4.066,6.898-6.194
		c3.443-3.272,6.845-6.589,10.195-9.956c2.26-2.271,4.093-4.876,5.529-7.754c0.369-0.738,0.302-1.269-0.449-1.68
		c-1.308-0.715-2.59-1.481-3.914-2.165c-1.772-0.915-3.623-1.686-5.351-2.676c-2.686-1.538-5.274-3.247-7.945-4.814
		c-5.922-3.474-11.86-6.921-17.808-10.349c-3.864-2.227-7.77-4.38-11.635-6.603c-4.719-2.714-9.427-5.448-14.117-8.211
		c-2.739-1.614-5.661-2.96-7.884-5.351C331.46,418.475,330.813,418.15,330.193,417.704z M289.63,371.025
		c0.666-0.402,1.185-0.611,1.567-0.966c1.054-0.977,2.052-2.015,3.07-3.031c2.081-2.075,4.21-4.105,6.227-6.241
		c1.478-1.564,2.848-3.236,4.194-4.917c1.633-2.039,3.199-4.131,4.773-6.216c0.43-0.569,0.543-1.143-0.229-1.587
		c-1.692-0.974-3.4-1.924-5.054-2.96c-2.224-1.393-4.36-2.933-6.614-4.274c-2.509-1.493-5.163-2.745-7.658-4.259
		c-5.628-3.414-11.219-6.89-16.783-10.407c-4.373-2.765-9.165-4.779-13.365-7.885c-3.482-2.575-7.335-4.644-10.989-6.992
		c-1.68-1.079-3.245-2.337-4.917-3.429c-3.416-2.233-6.922-4.326-9.995-7.054c-0.838-0.744-2.291-0.388-2.766,0.641
		c-0.197,0.426-0.114,1.225,0.176,1.583c0.639,0.79,1.5,1.4,2.255,2.099c3.252,3.009,6.5,6.022,9.745,9.039
		c1.339,1.245,2.715,2.456,3.985,3.769c1.458,1.508,2.844,3.089,4.214,4.679c2.241,2.601,4.561,5.147,6.632,7.879
		c2.508,3.309,4.783,6.793,7.173,10.191c2.166,3.08,4.27,6.21,6.556,9.198c1.785,2.333,3.879,4.427,5.711,6.725
		c3.221,4.041,6.316,8.183,9.538,12.224C287.755,369.683,288.747,370.281,289.63,371.025z M269.4,450.297
		c0.046,0.007,0.091,0.015,0.137,0.022c0,0.24-0.054,0.497,0.012,0.716c0.114,0.375,0.303,0.726,0.461,1.088
		c0.386-0.212,0.833-0.361,1.143-0.654c0.332-0.315,0.521-0.777,0.797-1.157c3.583-4.917,7.23-9.79,10.741-14.758
		c3.51-4.966,6.902-10.017,10.318-15.049c3.391-4.995,6.692-10.052,10.147-15.001c1.456-2.086,2.641-4.435,4.984-5.806
		c1.778-1.041,1.714-2.257-0.12-3.239c-4.326-2.317-8.651-4.638-13.01-6.891c-1.81-0.935-3.763-1.599-5.554-2.566
		c-3.924-2.12-7.78-4.367-11.686-6.521c-0.336-0.185-0.964-0.242-1.236-0.048c-0.451,0.321-0.963,0.728-0.604,1.548
		c0.273,0.624,0.321,1.387,0.31,2.086c-0.037,2.426-0.091,4.853-0.234,7.274c-0.189,3.196-0.524,6.385-0.694,9.582
		c-0.287,5.402-0.449,10.811-0.756,16.211c-0.129,2.278-0.44,4.55-0.762,6.812c-0.409,2.874-0.903,5.736-1.38,8.599
		c-0.502,3.017-1.03,6.03-1.542,9.046C270.379,444.492,269.891,447.395,269.4,450.297z M325.08,280.626
		c0.065-1.516-0.194-2.878-1.549-3.725c-1.347-0.843-2.718-1.701-4.184-2.289c-3.632-1.456-7.267-2.856-10.674-4.839
		c-1.904-1.108-4.067-1.769-6.102-2.656c-0.769-0.335-2.432-0.09-2.92,0.537c-0.183,0.235-0.337,0.578-0.324,0.865
		c0.129,2.904,0.226,5.812,0.473,8.707c0.18,2.111,0.548,4.207,0.874,6.303c0.313,2.015,0.687,4.021,1.02,6.033
		c0.442,2.67,0.766,5.364,1.327,8.008c1.429,6.736,2.883,13.468,4.479,20.165c1.132,4.749,2.587,9.42,3.758,14.16
		c1.145,4.631,2.107,9.308,3.165,13.96c0.19,0.834,0.359,1.951,1.457,1.805c0.997-0.133,0.875-1.208,0.907-2.031
		c0.061-1.584,0.057-3.18,0.264-4.747c0.172-1.306,0.737-2.561,0.896-3.867c0.268-2.203,0.295-4.434,0.53-6.641
		c0.25-2.342,0.617-4.672,0.948-7.005c0.237-1.672,0.55-3.335,0.733-5.012c0.166-1.526,0.11-3.079,0.312-4.598
		c0.48-3.615,1.07-7.216,1.587-10.827c0.312-2.18,0.565-4.368,0.85-6.552c0.275-2.104,0.569-4.205,0.831-6.31
		c0.175-1.406,0.271-2.822,0.473-4.224C324.463,284.101,324.787,282.366,325.08,280.626z M195.845,391.917
		c-0.003-0.031-0.005-0.062-0.008-0.093c-2.672,0.2-5.348,0.35-8.013,0.617c-1.879,0.188-2.196,0.433-2.259,2.014
		c-0.061,1.517,0,3.08,0.308,4.561c0.659,3.172,1.578,6.289,2.271,9.455c0.953,4.355,1.647,8.772,2.745,13.088
		c0.549,2.157,0.291,4.513,1.594,6.495c0.488,0.742,1.48,0.966,2.129,0.376c0.898-0.816,1.825-1.6,2.751-2.384
		c2.498-2.116,5.038-4.184,7.494-6.348c2.751-2.423,5.323-5.058,8.16-7.37c4.632-3.774,9.385-7.404,14.149-11.013
		c3.543-2.684,7.118-5.313,10.19-8.558c0.733-0.774,1.616-1.406,2.364-2.167c1.478-1.503,2.922-3.04,4.343-4.597
		c0.148-0.162,0.173-0.654,0.041-0.8c-0.171-0.191-0.58-0.301-0.845-0.246c-0.484,0.1-0.922,0.423-1.406,0.521
		c-2.146,0.432-4.298,0.833-6.454,1.215c-3.625,0.644-7.252,1.272-10.881,1.893c-2.82,0.483-5.641,0.969-8.468,1.41
		c-1.864,0.291-3.735,0.55-5.612,0.737c-1.537,0.154-3.089,0.141-4.629,0.272C202.487,391.279,199.167,391.607,195.845,391.917z
		 M263.236,460.531c-0.078,1.254-0.119,2.159-0.193,3.061c-0.391,4.72-0.793,9.439-1.185,14.159
		c-0.173,2.087-0.314,4.177-0.498,6.263c-0.385,4.361-0.807,8.718-1.174,13.08c-0.15,1.778-0.155,3.568-0.308,5.345
		c-0.092,1.075,0.302,1.547,1.266,1.139c1.648-0.696,3.29-1.431,4.859-2.287c5.266-2.87,10.501-5.797,15.744-8.71
		c1.134-0.63,2.32-1.195,3.359-1.958c1.915-1.407,3.662-3.051,5.619-4.392c2.738-1.875,5.388-3.82,7.569-6.347
		c0.61-0.706,0.974-1.237-0.156-1.91c-1.342-0.8-2.582-1.791-3.796-2.786c-2.835-2.322-5.839-4.38-9.123-6.01
		c-3.755-1.864-7.558-3.633-11.281-5.559c-3.172-1.64-6.246-3.467-9.399-5.146c-0.403-0.215-1.12-0.201-1.496,0.028
		c-0.223,0.136-0.115,0.907-0.057,1.38C263.029,460.217,263.236,460.53,263.236,460.531z M353.826,398.085
		c-0.498,0.29-0.942,0.517-1.355,0.793c-3.942,2.636-7.924,5.216-11.795,7.953c-1.586,1.122-3.05,2.481-4.344,3.932
		c-1.027,1.152-0.639,2.08,0.781,2.787c2.88,1.437,5.783,2.833,8.626,4.34c2.175,1.153,4.269,2.461,6.408,3.683
		c3.5,2,6.923,4.157,10.532,5.937c5.097,2.514,10.305,4.813,15.528,7.058c1.704,0.732,3.597,1.036,5.42,1.464
		c0.305,0.072,0.88-0.133,0.994-0.371c0.116-0.243-0.113-0.73-0.315-1.027c-0.265-0.39-0.673-0.68-0.98-1.046
		c-2.785-3.323-5.549-6.663-8.346-9.977c-1.58-1.872-3.219-3.695-4.811-5.557c-2.221-2.597-4.426-5.209-6.632-7.819
		c-0.777-0.919-1.549-1.841-2.302-2.779c-1.895-2.362-3.78-4.732-5.662-7.104C354.996,399.628,354.44,398.885,353.826,398.085z
		 M262.18,285.136c-1.383,0.008-2.162,1.187-1.684,2.261c1.052,2.364,2.143,4.716,3.351,7.003c1.668,3.159,3.541,6.21,5.176,9.385
		c2.027,3.937,3.912,7.949,5.835,11.939c0.864,1.794,1.646,3.628,2.513,5.42c0.643,1.33,1.339,2.636,2.06,3.925
		c0.445,0.795,1.223,1.141,2.026,0.72c1.457-0.762,2.831-1.68,4.25-2.517c1.318-0.777,2.579-1.707,3.985-2.264
		c3.792-1.503,7.141-3.739,10.484-6c0.863-0.584,0.843-1.204-0.016-1.803c-1.51-1.053-3.046-2.068-4.551-3.129
		c-0.739-0.521-1.381-1.191-2.151-1.654c-4.242-2.548-7.835-5.932-11.683-8.987c-1.696-1.347-3.303-2.816-5.061-4.075
		c-4.244-3.04-8.554-5.986-12.834-8.976C263.23,285.929,262.597,285.442,262.18,285.136z M330.329,503.263
		c2.665,0,5.334,0.08,7.995-0.03c1.597-0.066,3.186-0.404,4.768-0.681c0.36-0.063,0.675-0.38,1.011-0.58
		c-0.239-0.282-0.422-0.675-0.726-0.827c-3.187-1.595-6.413-3.112-9.589-4.727c-4.965-2.523-9.941-5.031-14.833-7.691
		c-2.592-1.409-5.174-2.796-8.026-3.567c-0.537-0.145-1.348-0.031-1.777,0.298c-2.562,1.964-5.013,4.075-7.572,6.043
		c-2.612,2.009-5.207,4.07-7.994,5.815c-2.984,1.868-6.198,3.366-9.266,5.107c-0.375,0.213-0.695,0.968-0.617,1.395
		c0.064,0.349,1.01,0.912,1.135,0.817c1.357-1.033,2.904-0.439,4.312-0.494c4.623-0.181,9.257-0.073,13.885-0.174
		c2.891-0.063,5.778-0.334,8.669-0.453c2.943-0.121,5.888-0.204,8.834-0.24C323.802,503.232,327.067,503.263,330.329,503.263z
		 M300.902,429.896c0.088-0.052,0.175-0.104,0.263-0.156c-0.309-0.44-0.536-0.988-0.943-1.299c-1.086-0.83-2.117-0.777-3.009,0.298
		c-0.862,1.04-1.467,2.288-2.255,3.394c-1.659,2.331-3.367,4.626-5.048,6.941c-1.282,1.765-2.503,3.577-3.846,5.295
		c-1.302,1.665-2.769,3.201-4.082,4.858c-1.486,1.875-2.901,3.808-4.309,5.744c-0.75,1.031-0.637,1.744,0.377,2.399
		c1.644,1.062,3.291,2.126,4.995,3.087c3.233,1.822,6.206,3.952,8.659,6.769c1.152,1.323,3.013,0.996,3.432-0.681
		c0.472-1.893,0.658-3.855,1.01-5.78c0.676-3.694,1.358-7.386,2.079-11.071c0.786-4.016,1.939-7.961,2.082-12.097
		C300.395,435.026,300.696,432.462,300.902,429.896z M265.9,312.978c-0.194-0.355-0.469-0.822-0.711-1.305
		c-1.512-3.032-3.03-6.062-4.519-9.106c-0.783-1.6-1.509-3.228-2.264-4.842c-0.929-1.988-1.801-4.007-2.808-5.955
		c-1.353-2.619-3.166-5.027-3.408-8.123c-0.031-0.394-0.376-0.917-0.719-1.083c-0.274-0.132-0.84,0.09-1.15,0.323
		c-2.388,1.79-4.655,3.758-7.137,5.402c-2.773,1.837-5.702,3.45-8.63,5.037c-0.957,0.519-0.919,1.425-1.138,2.156
		c-0.097,0.324,0.731,1.003,1.232,1.405c0.383,0.307,0.94,0.387,1.371,0.647c6.075,3.661,12.114,7.382,18.222,10.987
		c3.303,1.95,6.715,3.717,10.091,5.541C265.019,314.433,265.841,313.906,265.9,312.978z M286.525,295.332
		c0.364-0.288,1.044-0.551,1.158-0.968c0.309-1.127,0.419-2.316,0.531-3.488c0.269-2.828,0.396-5.674,0.761-8.489
		c0.468-3.613,1.112-7.204,1.681-10.804c0.146-0.923-0.558-1.54-1.408-1.228c-0.907,0.332-1.796,0.724-2.72,0.994
		c-2.696,0.787-5.397,1.562-8.114,2.272c-1.913,0.5-3.871,0.828-5.781,1.336c-3.886,1.035-7.757,2.129-11.624,3.234
		c-0.353,0.101-0.813,0.409-0.895,0.711c-0.085,0.313,0.131,0.832,0.387,1.089c0.493,0.494,1.077,0.918,1.677,1.281
		c4.413,2.669,8.846,5.306,13.257,7.978c1.406,0.852,2.727,1.848,4.155,2.656c1.907,1.079,3.878,2.045,5.829,3.046
		C285.689,295.092,285.999,295.155,286.525,295.332z M369.735,360.044c0.008,0.062,0.017,0.124,0.025,0.186
		c1.603-0.161,3.218-0.247,4.807-0.497c3.789-0.596,7.581-1.19,11.342-1.937c2.511-0.499,4.973-1.248,7.446-1.927
		c0.274-0.075,0.648-0.417,0.661-0.652c0.017-0.312-0.212-0.699-0.445-0.953c-1.72-1.868-4.185-2.54-6.267-3.832
		c-1.826-1.133-3.763-2.087-5.651-3.119c-1.756-0.96-3.509-1.925-5.269-2.876c-1.72-0.929-3.309-1.154-4.833,0.505
		c-1.008,1.097-2.181,2.08-3.403,2.938c-4.305,3.025-8.343,6.35-11.876,10.257c-0.543,0.601-0.978,1.328-1.333,2.059
		c-0.147,0.303-0.089,0.894,0.124,1.133c0.267,0.299,0.781,0.482,1.203,0.512c0.574,0.041,1.161-0.112,1.743-0.178
		c2.19-0.248,4.385-0.457,6.569-0.753C366.304,360.676,368.016,360.336,369.735,360.044z M419.499,351.345
		c-0.279-0.634-0.633-1.496-1.035-2.336c-1.171-2.445-2.469-4.836-3.515-7.332c-1.01-2.41-1.757-4.929-2.656-7.387
		c-0.097-0.265-0.472-0.654-0.657-0.622c-0.876,0.149-1.753,0.363-2.589,0.666c-1.582,0.573-3.115,1.286-4.707,1.825
		c-2.032,0.688-4.099,1.274-6.158,1.88c-3.82,1.124-7.656,2.194-11.457,3.376c-0.708,0.22-2-0.165-1.966,1.204
		c0.033,1.303,1.243,1.322,2.092,1.491c1.922,0.383,3.906,0.475,5.812,0.913c2.317,0.532,4.546,1.468,6.873,1.931
		c6.29,1.253,12.026,4.169,18.157,5.885C418.918,353.182,419.493,352.87,419.499,351.345z M382.196,394.063
		c0.058,0.099,0.116,0.197,0.174,0.296c1.082-0.654,2.229-1.222,3.232-1.979c2.852-2.153,5.661-4.365,8.458-6.59
		c4.141-3.295,8.26-6.617,12.378-9.941c0.298-0.241,0.503-0.595,0.752-0.897c-0.438-0.258-0.872-0.723-1.315-0.732
		c-1.095-0.022-2.204,0.11-3.291,0.281c-2.126,0.335-4.231,0.822-6.363,1.096c-3.616,0.465-7.2,0.988-10.703,2.087
		c-1.043,0.327-1.288,0.949-1.476,1.701c-0.583,2.343-1.024,4.721-1.621,7.059c-0.473,1.85-1.098,3.661-1.649,5.492
		C380.415,393.12,381.05,394.059,382.196,394.063z M419.074,382.276c0.015,0.122,0.031,0.245,0.046,0.367
		c1.219-0.114,2.438-0.232,3.657-0.339c0.902-0.079,1.027-0.652,0.939-1.401c-0.291-2.48-0.603-4.958-0.837-7.443
		c-0.098-1.038-0.018-2.093-0.019-3.14c-0.001-1.007,0.056-2.018-0.029-3.017c-0.037-0.437-0.308-1.166-0.571-1.214
		c-0.777-0.139-1.555-0.193-2.299,0.518c-2.115,2.025-4.337,3.939-6.544,5.865c-1.396,1.218-2.871,2.345-4.256,3.575
		c-1.337,1.188-2.634,2.425-3.891,3.697c-0.871,0.881-2.081,1.5-2.306,2.92c-0.151,0.95,0.32,1.624,1.253,1.544
		c1.606-0.137,3.212-0.299,4.81-0.514C412.379,383.243,415.725,382.751,419.074,382.276z M299.798,322.551
		c-0.584,0.029-0.975-0.042-1.295,0.078c-3.988,1.488-7.975,2.98-11.938,4.53c-0.866,0.339-0.912,1.024-0.188,1.621
		c0.696,0.574,1.397,1.178,2.189,1.589c2.639,1.37,5.272,2.772,7.997,3.955c4.014,1.742,8.098,3.326,12.178,4.909
		c0.339,0.132,1.008-0.136,1.278-0.437c0.173-0.193,0.017-0.869-0.197-1.193c-1.502-2.268-3.165-4.436-4.565-6.763
		c-1.375-2.287-2.51-4.718-3.725-7.099C301.112,322.917,300.568,322.39,299.798,322.551z M303.07,375.457
		c0.056-0.003,0.113-0.006,0.169-0.009c-0.13-1.928-0.262-3.856-0.39-5.783c-0.079-1.183-0.051-2.386-0.27-3.542
		c-0.106-0.558-0.576-1.263-1.06-1.457c-0.337-0.135-1.125,0.372-1.451,0.794c-0.714,0.923-1.26,1.976-1.88,2.972
		c-2.442,3.923-5.107,7.634-9.126,10.156c-0.884,0.555-0.703,1.628,0.266,2.064c1.462,0.659,2.994,1.176,4.417,1.906
		c2.856,1.465,5.648,3.054,8.491,4.546c0.914,0.48,1.467,0.18,1.561-0.822c0.085-0.911,0.068-1.841-0.004-2.754
		C303.578,380.835,303.314,378.147,303.07,375.457z M326.477,367.152c2.715-0.327,5.21-0.621,7.702-0.929
		c3.857-0.478,7.719-0.931,11.567-1.472c1.143-0.161,2.276-0.463,2.895-1.697c0.602-1.2,0.432-2.201-0.433-3.162
		c-0.122-0.136-0.186-0.346-0.224-0.533c-0.35-1.699-1.55-2.85-2.684-4.006c-0.344-0.35-1.157-0.646-1.545-0.479
		c-2.218,0.956-4.472,1.897-6.528,3.148c-3.776,2.296-7.431,4.793-11.112,7.243c-0.363,0.242-0.551,0.745-0.821,1.126
		C325.738,366.678,326.184,366.964,326.477,367.152z M319.649,353.583c0.039-1.168-0.598-1.572-1.362-1.14
		c-1.598,0.902-3.174,1.845-4.741,2.802c-1.667,1.018-3.395,1.964-4.943,3.142c-1.355,1.031-3.288,1.306-4.087,3.038
		c-0.132,0.286-0.124,0.85,0.066,1.039c2.026,2.022,4.08,4.017,6.177,5.965c0.682,0.634,1.489,1.146,2.283,1.642
		c0.867,0.542,1.493,0.262,1.806-0.708c0.408-1.262,0.825-2.52,1.219-3.786c0.812-2.607,1.624-5.214,2.41-7.829
		C318.925,356.258,319.321,354.754,319.649,353.583z M296.443,286.829c-1.595,0.939-1.839,2.322-2.426,3.475
		c-1.382,2.715-2.707,5.46-4.151,8.141c-0.612,1.136-0.553,1.646,0.522,2.378c3.399,2.314,6.762,4.68,10.159,6.997
		c0.278,0.19,0.83,0.334,1.036,0.189c0.292-0.206,0.57-0.726,0.523-1.067c-0.221-1.626-0.545-3.239-0.849-4.854
		c-0.754-4.006-1.962-7.878-3.446-11.669C297.368,289.286,296.944,288.145,296.443,286.829z M380.613,384.677
		c0.033-1.115-0.675-1.547-1.528-1.171c-1.041,0.459-2.062,0.964-3.104,1.42c-2.504,1.095-5.038,2.126-7.517,3.277
		c-1.34,0.622-2.611,1.405-3.867,2.188c-0.248,0.155-0.451,0.69-0.374,0.966c0.068,0.243,0.537,0.47,0.862,0.53
		c2.731,0.505,5.474,0.947,8.203,1.461c0.838,0.158,1.663,0.431,2.463,0.735c0.822,0.312,1.044-0.024,1.3-0.769
		c0.643-1.876,1.4-3.715,2.155-5.55C379.666,386.644,380.209,385.557,380.613,384.677z M351.212,359.663
		c0.982-0.94,1.975-1.782,2.839-2.742c1.343-1.492,2.618-3.048,3.874-4.614c0.286-0.356,0.377-0.868,0.558-1.308
		c-0.499-0.046-1.044-0.245-1.49-0.112c-2.691,0.802-5.359,1.681-8.035,2.534c-1.41,0.449-1.646,0.905-0.936,2.275
		C348.819,357.232,349.585,358.831,351.212,359.663z"/>
	<path d="M195.128,441.154c2.158-1.957,4.251-3.772,6.248-5.686c3.588-3.439,7.065-6.994,10.686-10.398
		c4.865-4.575,9.639-9.276,14.794-13.505c4.846-3.976,9.359-8.273,13.914-12.552c3.188-2.995,6.518-5.843,9.858-8.669
		c2.692-2.277,5.501-4.416,8.243-6.634c0.495-0.4,0.897-0.912,1.381-1.327c0.63-0.54,1.381-0.343,1.538,0.407
		c0.137,0.653,0.233,1.322,0.263,1.987c0.103,2.343,0.104,4.693,0.264,7.032c0.264,3.862,0.707,7.713,0.912,11.578
		c0.148,2.799,0.004,5.612,0.045,8.418c0.038,2.562,0.307,5.131,0.191,7.683c-0.173,3.805-0.599,7.599-0.909,11.398
		c-0.174,2.128-0.283,4.263-0.505,6.386c-0.299,2.856-0.632,5.711-1.037,8.554c-0.393,2.756-0.884,5.498-1.356,8.242
		c-0.299,1.737-0.669,3.461-0.96,5.199c-0.422,2.514-0.879,5.027-1.183,7.556c-0.773,6.442-2.629,12.634-4.153,18.908
		c-0.775,3.191-1.095,6.493-1.621,9.744c-0.031,0.193-0.038,0.396-0.106,0.576c-0.64,1.684-3.195,2.183-4.545,1.002
		c-2.183-1.909-4.552-3.613-6.662-5.595c-3.882-3.648-7.621-7.446-11.442-11.158c-1.427-1.387-2.904-2.724-4.383-4.055
		c-1.056-0.951-2.186-1.82-3.227-2.787c-1.838-1.706-3.711-3.386-5.431-5.207c-3.938-4.169-8.045-8.198-11.22-13.028
		c-1.443-2.195-2.873-4.398-4.369-6.557c-1.451-2.095-2.985-4.133-4.467-6.208C195.595,442.046,195.376,441.582,195.128,441.154z"/>
	<path d="M183.367,385.056c0.517-1.496,1.054-2.799,1.418-4.149c0.853-3.164,1.572-6.365,2.445-9.523
		c0.592-2.141,1.287-4.26,2.05-6.346c1.437-3.925,3.142-7.738,4.37-11.756c1.114-3.646,2.496-7.214,4.243-10.657
		c2.733-5.387,4.995-11.013,7.71-16.409c1.757-3.492,3.991-6.742,5.968-10.126c1.441-2.467,2.681-5.06,4.252-7.437
		c1.211-1.831,2.771-3.437,4.23-5.095c0.601-0.683,1.979-0.585,2.549,0.102c0.979,1.181,1.971,2.355,2.888,3.585
		c1.899,2.547,3.711,5.16,5.636,7.686c1.48,1.943,3.062,3.81,4.63,5.684c3.341,3.995,6.689,7.985,10.064,11.951
		c1.412,1.659,2.934,3.225,4.348,4.883c1.84,2.159,3.613,4.375,5.434,6.55c1.117,1.334,2.287,2.623,3.403,3.957
		c2.733,3.266,5.469,6.528,8.165,9.824c2.693,3.292,5.332,6.627,8.006,9.935c1.114,1.379,2.252,2.739,3.385,4.103
		c0.618,0.744,0.293,1.277-0.433,1.594c-1.026,0.449-2.127,1.193-3.139,1.111c-1.837-0.149-3.441,0.541-5.146,0.832
		c-4.906,0.836-9.793,1.792-14.706,2.585c-3.647,0.588-7.315,1.062-10.987,1.463c-3.103,0.339-6.233,0.427-9.336,0.763
		c-2.596,0.281-5.167,0.79-7.756,1.142c-1.645,0.224-3.308,0.319-4.957,0.519c-2.029,0.246-4.054,0.522-6.076,0.82
		c-2.908,0.428-5.81,0.896-8.717,1.332c-3.611,0.542-7.217,1.121-10.838,1.585c-3.281,0.421-6.575,0.739-9.87,1.034
		c-0.771,0.069-1.613-0.015-2.332-0.275C183.88,386.184,183.679,385.522,183.367,385.056z"/>
	<path d="M324.139,358.541c-1.352,0.007-1.759-0.513-1.487-1.574c0.699-2.728,1.47-5.44,2.059-8.192
		c0.516-2.411,0.771-4.877,1.241-7.3c0.38-1.955,0.857-3.896,1.382-5.818c0.926-3.391,2.004-6.742,2.868-10.148
		c1.288-5.075,2.476-10.176,3.649-15.28c0.849-3.695,1.592-7.415,2.408-11.118c0.933-4.24,1.897-8.473,2.842-12.71
		c0.579-2.596,1.137-5.198,1.721-7.793c0.358-1.588,1.388-1.882,2.725-0.941c2.917,2.053,5.912,3.995,8.818,6.062
		c1.475,1.049,2.849,2.246,4.23,3.42c3.912,3.327,7.843,6.635,11.694,10.031c3.097,2.732,6.063,5.611,9.136,8.372
		c3.178,2.856,6.41,5.651,9.624,8.466c2.501,2.189,5.035,4.341,7.512,6.556c2.941,2.629,5.955,5.151,9.358,7.178
		c0.981,0.584,1.074,1.303,0.141,1.915c-1.52,0.996-3.093,1.961-4.756,2.676c-4.026,1.731-8.088,3.39-12.191,4.928
		c-3.806,1.427-7.701,2.614-11.527,3.991c-4.16,1.498-8.27,3.135-12.432,4.628c-2.207,0.792-4.492,1.361-6.715,2.111
		c-3.781,1.276-7.528,2.652-11.311,3.92c-4.845,1.624-9.706,3.199-14.571,4.764c-1.932,0.621-3.889,1.163-5.837,1.733
		C324.458,358.495,324.184,358.532,324.139,358.541z"/>
	<path d="M366.728,497.022c-4.843,0.205-9.304-1.29-13.674-3.126c-5.993-2.518-12.107-4.68-18.371-6.417
		c-5.274-1.462-10.566-2.86-15.82-4.393c-4.237-1.237-8.43-2.624-12.636-3.966c-0.689-0.22-1.381-0.483-2.007-0.839
		c-1.581-0.9-0.844-2.392-0.771-3.643c0.128-2.176,0.415-4.343,0.65-6.512c0.207-1.916,0.46-3.827,0.642-5.745
		c0.145-1.536,0.198-3.081,0.319-4.62c0.223-2.832,0.474-5.663,0.694-8.495c0.05-0.643,0-1.293,0.024-1.939
		c0.072-1.944,0.206-3.888,0.231-5.832c0.1-8.061,0.111-16.124,0.277-24.183c0.064-3.116,0.455-6.226,0.694-9.338
		c0.067-0.881,0.66-1.085,1.406-1.293c0.742-0.207,1.04,0.093,1.455,0.612c2.289,2.861,4.645,5.668,6.937,8.527
		c1.302,1.624,2.565,3.282,3.778,4.972c3.774,5.26,7.529,10.533,11.265,15.819c2.806,3.971,5.63,7.933,8.329,11.976
		c1.282,1.92,2.22,4.066,3.444,6.027c1.286,2.059,2.784,3.985,4.088,6.034c2.125,3.338,4.185,6.718,6.241,10.1
		c2.805,4.614,5.599,9.236,8.361,13.875c1.805,3.033,3.537,6.109,5.324,9.153c0.335,0.571,0.796,1.067,1.163,1.621
		c0.62,0.936,0.282,1.574-0.845,1.624C367.529,497.037,367.128,497.022,366.728,497.022z"/>
	<path d="M318.995,371.776c3.207-0.394,6.412-0.803,9.62-1.179c2.934-0.344,5.875-0.624,8.807-0.989
		c2.689-0.335,5.37-0.735,8.052-1.127c2.794-0.409,5.588-0.817,8.375-1.273c1.894-0.31,3.773-0.713,5.663-1.053
		c2.853-0.514,5.712-0.995,8.563-1.519c1.854-0.341,3.694-0.757,5.547-1.098c3.853-0.709,7.709-1.404,11.568-2.078
		c3.282-0.573,6.564-1.155,9.859-1.646c2.219-0.331,4.457-0.555,6.694-0.746c4.174-0.356,8.356-0.626,12.53-0.985
		c1.998-0.172,3.984-0.473,5.978-0.694c0.352-0.039,0.773-0.081,1.057,0.073c0.336,0.182,0.7,0.544,0.777,0.889
		c0.046,0.208-0.377,0.647-0.68,0.787c-4.487,2.07-8.992,4.102-13.487,6.155c-3.133,1.43-6.286,2.822-9.381,4.331
		c-4.268,2.081-8.47,4.299-12.738,6.381c-3.91,1.907-7.909,3.635-11.793,5.591c-2.516,1.267-4.887,2.821-7.341,4.214
		c-3.808,2.163-7.623,4.315-11.454,6.437c-1.746,0.968-3.563,1.808-5.301,2.79c-2.998,1.693-5.946,3.474-8.94,5.174
		c-2.252,1.279-4.571,2.443-6.811,3.744c-3.389,1.968-6.708,4.057-10.11,6.004c-1.802,1.031-2.096,0.909-3.016-1.006
		c-1.368-2.849-2.617-5.755-3.97-8.611c-0.974-2.057-2.043-4.069-3.056-6.107c-2.028-4.08-3.602-8.315-4.674-12.757
		c-0.511-2.116-1.428-4.132-2.143-6.2c-0.578-1.671,0.087-2.822,1.839-2.997c3.305-0.33,6.618-0.574,9.927-0.854
		C318.97,371.542,318.983,371.659,318.995,371.776z"/>
	<path d="M382.97,395.138c4.552-0.665,9.118-1.249,13.653-2.016c5.133-0.868,10.25-1.844,15.352-2.882
		c3.288-0.669,6.533-1.542,9.803-2.3c0.683-0.158,1.389-0.234,2.09-0.301c0.61-0.058,1.194,0.726,1.05,1.372
		c-1.391,6.222-2.737,12.454-4.193,18.66c-1.34,5.71-2.786,11.394-4.21,17.084c-0.91,3.637-1.74,7.3-2.828,10.885
		c-1.804,5.943-3.786,11.832-5.691,17.744c-0.024,0.075-0.007,0.163-0.031,0.237c-0.595,1.819-1.286,2.001-2.642,0.481
		c-1.889-2.117-3.651-4.348-5.469-6.529c-2.575-3.091-5.161-6.172-7.722-9.275c-1.303-1.579-2.543-3.208-3.842-4.79
		c-1.277-1.555-2.618-3.058-3.885-4.621c-1.586-1.956-3.122-3.952-4.686-5.927c-2.686-3.392-5.379-6.779-8.065-10.171
		c-1.869-2.359-3.731-4.723-5.598-7.084c-1.464-1.851-2.955-3.68-4.38-5.56c-0.407-0.537-0.645-1.209-0.929-1.833
		c-0.364-0.801-0.111-1.261,0.792-1.338c2.75-0.235,5.503-0.443,8.249-0.729c2.385-0.249,4.759-0.606,7.141-0.884
		c1.993-0.232,3.991-0.417,5.987-0.623C382.934,394.873,382.952,395.005,382.97,395.138z"/>
	<path d="M330.193,417.704c0.62,0.446,1.266,0.771,1.728,1.268c2.223,2.391,5.145,3.738,7.884,5.351
		c4.69,2.763,9.398,5.497,14.117,8.211c3.866,2.223,7.771,4.376,11.635,6.603c5.949,3.428,11.887,6.875,17.808,10.349
		c2.671,1.567,5.259,3.276,7.945,4.814c1.728,0.989,3.579,1.76,5.351,2.676c1.324,0.684,2.606,1.449,3.914,2.165
		c0.751,0.411,0.818,0.942,0.449,1.68c-1.437,2.878-3.269,5.483-5.529,7.754c-3.35,3.367-6.752,6.684-10.195,9.956
		c-2.239,2.128-4.577,4.153-6.898,6.194c-1.843,1.622-3.428,1.204-4.814-1.109c-1.425-2.379-2.87-4.752-4.425-7.047
		c-2.377-3.506-4.781-6.999-7.31-10.396c-3.217-4.321-6.637-8.491-9.835-12.825c-1.666-2.257-3.007-4.751-4.562-7.094
		c-0.867-1.307-1.911-2.495-2.807-3.784c-1.614-2.32-3.139-4.701-4.77-7.008c-2.238-3.164-4.601-6.239-6.785-9.439
		c-0.915-1.341-1.493-2.91-2.249-4.362c-0.395-0.758-0.883-1.47-1.252-2.239c-0.172-0.359-0.252-0.816-0.198-1.205
		C329.42,418.033,329.859,417.907,330.193,417.704z"/>
	<path d="M289.63,371.025c-0.883-0.744-1.876-1.342-2.553-2.191c-3.221-4.041-6.317-8.182-9.538-12.224
		c-1.832-2.299-3.926-4.393-5.711-6.725c-2.287-2.989-4.39-6.118-6.556-9.198c-2.39-3.398-4.666-6.883-7.173-10.191
		c-2.071-2.732-4.391-5.278-6.632-7.879c-1.37-1.59-2.756-3.171-4.214-4.679c-1.27-1.313-2.646-2.523-3.985-3.769
		c-3.245-3.017-6.493-6.03-9.745-9.039c-0.755-0.699-1.616-1.309-2.255-2.099c-0.29-0.359-0.373-1.157-0.176-1.583
		c0.475-1.029,1.928-1.385,2.766-0.641c3.072,2.729,6.579,4.822,9.995,7.054c1.672,1.093,3.237,2.35,4.917,3.429
		c3.654,2.348,7.507,4.417,10.989,6.992c4.2,3.106,8.992,5.12,13.365,7.885c5.564,3.518,11.155,6.993,16.783,10.407
		c2.495,1.514,5.149,2.766,7.658,4.259c2.254,1.341,4.39,2.88,6.614,4.274c1.654,1.036,3.362,1.986,5.054,2.96
		c0.772,0.444,0.659,1.018,0.229,1.587c-1.575,2.085-3.141,4.177-4.773,6.216c-1.346,1.681-2.717,3.353-4.194,4.917
		c-2.017,2.136-4.146,4.166-6.227,6.241c-1.019,1.015-2.016,2.053-3.07,3.031C290.815,370.414,290.297,370.623,289.63,371.025z"/>
	<path d="M269.4,450.297c0.49-2.902,0.978-5.805,1.472-8.707c0.512-3.016,1.04-6.029,1.542-9.046
		c0.477-2.864,0.971-5.726,1.38-8.599c0.322-2.262,0.633-4.534,0.762-6.812c0.307-5.401,0.469-10.809,0.756-16.211
		c0.17-3.197,0.506-6.385,0.694-9.582c0.143-2.421,0.198-4.849,0.234-7.274c0.011-0.699-0.038-1.462-0.31-2.086
		c-0.359-0.82,0.154-1.227,0.604-1.548c0.272-0.194,0.901-0.137,1.236,0.048c3.906,2.154,7.762,4.402,11.686,6.521
		c1.791,0.967,3.744,1.63,5.554,2.566c4.36,2.253,8.684,4.575,13.01,6.891c1.834,0.982,1.898,2.199,0.12,3.239
		c-2.343,1.371-3.528,3.72-4.984,5.806c-3.455,4.95-6.756,10.007-10.147,15.001c-3.416,5.032-6.808,10.082-10.318,15.049
		c-3.512,4.968-7.158,9.841-10.741,14.758c-0.277,0.38-0.465,0.842-0.797,1.157c-0.309,0.293-0.756,0.442-1.143,0.654
		c-0.158-0.361-0.347-0.713-0.461-1.088c-0.067-0.22-0.012-0.476-0.012-0.716C269.492,450.312,269.446,450.304,269.4,450.297z"/>
	<path d="M325.08,280.626c-0.293,1.74-0.617,3.475-0.869,5.221c-0.202,1.402-0.297,2.818-0.473,4.224
		c-0.262,2.105-0.557,4.206-0.831,6.31c-0.285,2.184-0.539,4.372-0.85,6.552c-0.516,3.611-1.106,7.212-1.587,10.827
		c-0.202,1.52-0.146,3.072-0.312,4.598c-0.182,1.677-0.496,3.34-0.733,5.012c-0.331,2.333-0.698,4.663-0.948,7.005
		c-0.236,2.208-0.262,4.439-0.53,6.641c-0.159,1.306-0.724,2.561-0.896,3.867c-0.207,1.567-0.203,3.162-0.264,4.747
		c-0.032,0.822,0.09,1.898-0.907,2.031c-1.097,0.146-1.267-0.971-1.457-1.805c-1.059-4.653-2.021-9.329-3.165-13.96
		c-1.172-4.74-2.627-9.411-3.758-14.16c-1.596-6.697-3.05-13.43-4.479-20.165c-0.561-2.644-0.885-5.338-1.327-8.008
		c-0.333-2.012-0.707-4.018-1.02-6.033c-0.326-2.096-0.694-4.193-0.874-6.303c-0.247-2.895-0.344-5.803-0.473-8.707
		c-0.013-0.286,0.141-0.63,0.324-0.865c0.488-0.627,2.15-0.872,2.92-0.537c2.035,0.887,4.198,1.548,6.102,2.656
		c3.407,1.982,7.042,3.383,10.674,4.839c1.466,0.588,2.837,1.446,4.184,2.289C324.886,277.748,325.145,279.111,325.08,280.626z"/>
	<path d="M195.845,391.917c3.322-0.31,6.643-0.638,9.967-0.922c1.54-0.131,3.092-0.118,4.629-0.272
		c1.877-0.188,3.748-0.447,5.612-0.737c2.827-0.441,5.647-0.927,8.468-1.41c3.629-0.622,7.256-1.25,10.881-1.893
		c2.155-0.383,4.308-0.783,6.454-1.215c0.484-0.097,0.922-0.42,1.406-0.521c0.265-0.055,0.674,0.056,0.845,0.246
		c0.132,0.147,0.107,0.638-0.041,0.8c-1.422,1.556-2.866,3.093-4.343,4.597c-0.748,0.761-1.631,1.393-2.364,2.167
		c-3.071,3.244-6.647,5.874-10.19,8.558c-4.764,3.608-9.516,7.239-14.149,11.013c-2.838,2.312-5.41,4.947-8.16,7.37
		c-2.456,2.163-4.996,4.232-7.494,6.348c-0.926,0.784-1.853,1.568-2.751,2.384c-0.65,0.59-1.642,0.366-2.129-0.376
		c-1.302-1.981-1.045-4.338-1.594-6.495c-1.098-4.316-1.793-8.733-2.745-13.088c-0.692-3.166-1.611-6.283-2.271-9.455
		c-0.308-1.481-0.369-3.044-0.308-4.561c0.063-1.581,0.38-1.826,2.259-2.014c2.665-0.267,5.341-0.417,8.013-0.617
		C195.839,391.855,195.842,391.886,195.845,391.917z"/>
	<path d="M263.236,460.531c0,0-0.207-0.314-0.248-0.648c-0.058-0.473-0.166-1.245,0.057-1.38c0.376-0.229,1.092-0.243,1.496-0.028
		c3.152,1.679,6.227,3.506,9.399,5.146c3.723,1.925,7.526,3.695,11.281,5.559c3.284,1.63,6.288,3.688,9.123,6.01
		c1.214,0.994,2.453,1.985,3.796,2.786c1.13,0.673,0.766,1.204,0.156,1.91c-2.181,2.527-4.831,4.472-7.569,6.347
		c-1.957,1.341-3.704,2.985-5.619,4.392c-1.039,0.763-2.226,1.328-3.359,1.958c-5.243,2.913-10.478,5.84-15.744,8.71
		c-1.57,0.855-3.211,1.591-4.859,2.287c-0.965,0.407-1.359-0.064-1.266-1.139c0.153-1.777,0.158-3.568,0.308-5.345
		c0.368-4.362,0.79-8.719,1.174-13.08c0.184-2.086,0.325-4.176,0.498-6.263c0.392-4.72,0.794-9.439,1.185-14.159
		C263.118,462.69,263.158,461.785,263.236,460.531z"/>
	<path d="M353.826,398.085c0.615,0.8,1.17,1.543,1.746,2.269c1.882,2.372,3.768,4.742,5.662,7.104
		c0.753,0.938,1.525,1.861,2.302,2.779c2.206,2.61,4.411,5.221,6.632,7.819c1.592,1.862,3.231,3.684,4.811,5.557
		c2.796,3.314,5.56,6.654,8.346,9.977c0.307,0.366,0.715,0.656,0.98,1.046c0.201,0.297,0.431,0.784,0.315,1.027
		c-0.114,0.238-0.689,0.442-0.994,0.371c-1.823-0.428-3.717-0.732-5.42-1.464c-5.223-2.245-10.431-4.544-15.528-7.058
		c-3.609-1.78-7.032-3.938-10.532-5.937c-2.139-1.222-4.232-2.53-6.408-3.683c-2.843-1.507-5.745-2.904-8.626-4.34
		c-1.419-0.708-1.808-1.635-0.781-2.787c1.294-1.452,2.757-2.811,4.344-3.932c3.871-2.737,7.853-5.317,11.795-7.953
		C352.883,398.602,353.328,398.374,353.826,398.085z"/>
	<path d="M262.18,285.136c0.417,0.307,1.049,0.793,1.703,1.249c4.28,2.99,8.59,5.936,12.834,8.976
		c1.758,1.259,3.364,2.728,5.061,4.075c3.848,3.055,7.441,6.439,11.683,8.987c0.77,0.462,1.412,1.133,2.151,1.654
		c1.504,1.061,3.041,2.076,4.551,3.129c0.859,0.599,0.879,1.219,0.016,1.803c-3.343,2.26-6.692,4.497-10.484,6
		c-1.407,0.558-2.668,1.487-3.985,2.264c-1.419,0.837-2.793,1.755-4.25,2.517c-0.804,0.421-1.582,0.075-2.026-0.72
		c-0.721-1.289-1.417-2.595-2.06-3.925c-0.867-1.792-1.648-3.626-2.513-5.42c-1.923-3.991-3.808-8.002-5.835-11.939
		c-1.635-3.175-3.508-6.227-5.176-9.385c-1.208-2.287-2.3-4.639-3.351-7.003C260.019,286.323,260.797,285.144,262.18,285.136z"/>
	<path d="M330.331,503.263c-3.263,0-6.529-0.031-9.793,0.009c-2.945,0.036-5.891,0.12-8.834,0.24
		c-2.891,0.119-5.777,0.39-8.669,0.453c-4.628,0.101-9.262-0.007-13.885,0.174c-1.408,0.055-2.955-0.539-4.312,0.494
		c-0.126,0.096-1.071-0.468-1.135-0.817c-0.078-0.427,0.242-1.182,0.617-1.395c3.068-1.74,6.283-3.238,9.266-5.107
		c2.786-1.745,5.381-3.806,7.994-5.815c2.56-1.968,5.01-4.078,7.572-6.043c0.429-0.329,1.24-0.443,1.777-0.298
		c2.853,0.771,5.434,2.157,8.026,3.567c4.892,2.66,9.868,5.168,14.833,7.691c3.177,1.614,6.402,3.132,9.589,4.727
		c0.304,0.152,0.487,0.546,0.726,0.827c-0.336,0.2-0.651,0.517-1.011,0.58c-1.582,0.277-3.171,0.615-4.768,0.681
		C335.663,503.343,332.994,503.263,330.331,503.263z"/>
	<path d="M300.902,429.896c-0.206,2.567-0.507,5.13-0.596,7.7c-0.144,4.136-1.296,8.081-2.082,12.097
		c-0.721,3.685-1.404,7.377-2.079,11.071c-0.352,1.925-0.538,3.887-1.01,5.78c-0.419,1.678-2.28,2.004-3.432,0.681
		c-2.453-2.818-5.425-4.947-8.659-6.769c-1.704-0.96-3.351-2.024-4.995-3.087c-1.014-0.655-1.127-1.369-0.377-2.399
		c1.408-1.935,2.823-3.868,4.309-5.744c1.313-1.657,2.78-3.193,4.082-4.858c1.343-1.717,2.564-3.53,3.846-5.295
		c1.681-2.315,3.389-4.61,5.048-6.941c0.788-1.107,1.393-2.355,2.255-3.394c0.891-1.076,1.923-1.128,3.009-0.298
		c0.407,0.311,0.634,0.859,0.943,1.299C301.077,429.792,300.99,429.844,300.902,429.896z"/>
	<path d="M265.9,312.978c-0.059,0.928-0.881,1.455-1.567,1.084c-3.377-1.824-6.788-3.591-10.091-5.541
		c-6.108-3.605-12.147-7.326-18.222-10.987c-0.432-0.26-0.988-0.34-1.371-0.647c-0.501-0.402-1.329-1.081-1.232-1.405
		c0.219-0.731,0.181-1.637,1.138-2.156c2.928-1.587,5.857-3.2,8.63-5.037c2.482-1.644,4.749-3.612,7.137-5.402
		c0.311-0.233,0.876-0.456,1.15-0.323c0.343,0.166,0.688,0.689,0.719,1.083c0.242,3.095,2.056,5.504,3.408,8.123
		c1.007,1.949,1.878,3.967,2.808,5.955c0.755,1.614,1.481,3.242,2.264,4.842c1.489,3.044,3.007,6.073,4.519,9.106
		C265.431,312.157,265.706,312.624,265.9,312.978z"/>
	<path d="M286.525,295.332c-0.526-0.177-0.836-0.24-1.107-0.379c-1.95-1.001-3.922-1.966-5.829-3.046
		c-1.428-0.809-2.749-1.805-4.155-2.656c-4.411-2.672-8.845-5.308-13.257-7.978c-0.601-0.363-1.184-0.787-1.677-1.281
		c-0.257-0.257-0.473-0.776-0.387-1.089c0.082-0.301,0.543-0.61,0.895-0.711c3.867-1.105,7.738-2.199,11.624-3.234
		c1.91-0.509,3.868-0.836,5.781-1.336c2.717-0.71,5.418-1.485,8.114-2.272c0.925-0.27,1.814-0.662,2.72-0.994
		c0.851-0.312,1.554,0.305,1.408,1.228c-0.569,3.6-1.213,7.191-1.681,10.804c-0.365,2.815-0.492,5.66-0.761,8.489
		c-0.111,1.172-0.222,2.361-0.531,3.488C287.569,294.781,286.889,295.044,286.525,295.332z"/>
	<path d="M369.735,360.044c-1.719,0.293-3.431,0.632-5.157,0.866c-2.184,0.296-4.379,0.505-6.569,0.753
		c-0.582,0.066-1.169,0.219-1.743,0.178c-0.422-0.03-0.936-0.213-1.203-0.512c-0.213-0.239-0.271-0.831-0.124-1.133
		c0.355-0.732,0.789-1.458,1.333-2.059c3.534-3.907,7.571-7.232,11.876-10.257c1.222-0.859,2.395-1.841,3.403-2.938
		c1.525-1.659,3.114-1.435,4.833-0.505c1.76,0.951,3.513,1.916,5.269,2.876c1.888,1.032,3.825,1.986,5.651,3.119
		c2.082,1.292,4.547,1.964,6.267,3.832c0.233,0.254,0.463,0.641,0.445,0.953c-0.013,0.235-0.387,0.577-0.661,0.652
		c-2.473,0.679-4.935,1.427-7.446,1.927c-3.761,0.748-7.553,1.342-11.342,1.937c-1.589,0.25-3.204,0.336-4.807,0.497
		C369.752,360.167,369.743,360.105,369.735,360.044z"/>
	<path d="M419.499,351.345c-0.006,1.525-0.581,1.836-1.806,1.494c-6.131-1.715-11.867-4.632-18.157-5.885
		c-2.326-0.463-4.556-1.399-6.873-1.931c-1.906-0.438-3.89-0.53-5.812-0.913c-0.85-0.169-2.06-0.189-2.092-1.491
		c-0.034-1.369,1.258-0.984,1.966-1.204c3.801-1.182,7.638-2.252,11.457-3.376c2.059-0.606,4.126-1.192,6.158-1.88
		c1.592-0.539,3.125-1.252,4.707-1.825c0.836-0.303,1.713-0.517,2.589-0.666c0.185-0.031,0.56,0.357,0.657,0.622
		c0.899,2.458,1.646,4.977,2.656,7.387c1.046,2.496,2.344,4.887,3.515,7.332C418.866,349.849,419.22,350.712,419.499,351.345z"/>
	<path d="M382.196,394.063c-1.147-0.003-1.781-0.943-1.425-2.128c0.551-1.83,1.176-3.641,1.649-5.492
		c0.597-2.339,1.038-4.717,1.621-7.059c0.187-0.752,0.432-1.373,1.476-1.701c3.503-1.1,7.088-1.623,10.703-2.087
		c2.133-0.274,4.237-0.761,6.363-1.096c1.087-0.171,2.195-0.303,3.291-0.281c0.443,0.009,0.877,0.474,1.315,0.732
		c-0.248,0.302-0.454,0.657-0.752,0.897c-4.117,3.325-8.236,6.647-12.378,9.941c-2.797,2.225-5.606,4.436-8.458,6.59
		c-1.003,0.758-2.151,1.325-3.232,1.979C382.313,394.26,382.255,394.161,382.196,394.063z"/>
	<path d="M419.074,382.276c-3.349,0.475-6.695,0.968-10.047,1.419c-1.598,0.215-3.204,0.376-4.81,0.514
		c-0.933,0.08-1.404-0.594-1.253-1.544c0.226-1.42,1.435-2.039,2.306-2.92c1.257-1.272,2.554-2.509,3.891-3.697
		c1.385-1.23,2.86-2.357,4.256-3.575c2.207-1.926,4.43-3.84,6.544-5.865c0.743-0.712,1.521-0.658,2.299-0.518
		c0.263,0.047,0.534,0.776,0.571,1.214c0.085,0.999,0.028,2.011,0.029,3.017c0.001,1.047-0.078,2.102,0.019,3.14
		c0.234,2.485,0.546,4.964,0.837,7.443c0.088,0.749-0.037,1.322-0.939,1.401c-1.22,0.107-2.438,0.226-3.657,0.339
		C419.105,382.521,419.089,382.398,419.074,382.276z"/>
	<path d="M299.798,322.551c0.77-0.162,1.314,0.366,1.734,1.189c1.215,2.381,2.351,4.812,3.725,7.099
		c1.399,2.328,3.063,4.495,4.565,6.763c0.214,0.324,0.371,1,0.197,1.193c-0.27,0.302-0.939,0.569-1.278,0.437
		c-4.08-1.583-8.164-3.167-12.178-4.909c-2.725-1.183-5.358-2.584-7.997-3.955c-0.792-0.411-1.494-1.015-2.189-1.589
		c-0.724-0.597-0.678-1.282,0.188-1.621c3.964-1.55,7.951-3.042,11.938-4.53C298.823,322.51,299.214,322.58,299.798,322.551z"/>
	<path d="M303.07,375.457c0.244,2.69,0.508,5.378,0.722,8.07c0.073,0.913,0.089,1.844,0.004,2.754
		c-0.094,1.002-0.646,1.301-1.561,0.822c-2.843-1.491-5.635-3.081-8.491-4.546c-1.424-0.73-2.955-1.247-4.417-1.906
		c-0.97-0.437-1.15-1.51-0.266-2.064c4.02-2.522,6.684-6.233,9.126-10.156c0.62-0.996,1.166-2.049,1.88-2.972
		c0.326-0.422,1.114-0.929,1.451-0.794c0.484,0.194,0.954,0.9,1.06,1.457c0.219,1.156,0.192,2.359,0.27,3.542
		c0.128,1.928,0.26,3.856,0.39,5.783C303.182,375.451,303.126,375.454,303.07,375.457z"/>
	<path d="M326.477,367.152c-0.293-0.189-0.738-0.475-1.183-0.761c0.269-0.382,0.458-0.885,0.821-1.126
		c3.68-2.451,7.336-4.947,11.112-7.243c2.056-1.251,4.31-2.192,6.528-3.148c0.388-0.167,1.201,0.129,1.545,0.479
		c1.134,1.156,2.334,2.306,2.684,4.006c0.038,0.187,0.102,0.397,0.224,0.533c0.865,0.962,1.035,1.962,0.433,3.162
		c-0.618,1.233-1.752,1.536-2.895,1.697c-3.849,0.541-7.71,0.994-11.567,1.472C331.686,366.532,329.192,366.825,326.477,367.152z"/>
	<path d="M319.649,353.583c-0.328,1.17-0.724,2.675-1.172,4.164c-0.786,2.615-1.598,5.222-2.41,7.829
		c-0.394,1.266-0.811,2.525-1.219,3.786c-0.314,0.971-0.939,1.251-1.806,0.708c-0.794-0.497-1.601-1.009-2.283-1.642
		c-2.097-1.948-4.151-3.944-6.177-5.965c-0.189-0.189-0.198-0.753-0.066-1.039c0.799-1.732,2.732-2.007,4.087-3.038
		c1.549-1.178,3.276-2.124,4.943-3.142c1.566-0.957,3.143-1.899,4.741-2.802C319.05,352.012,319.687,352.415,319.649,353.583z"/>
	<path d="M296.443,286.829c0.501,1.315,0.925,2.456,1.368,3.589c1.484,3.791,2.692,7.663,3.446,11.669
		c0.304,1.615,0.628,3.228,0.849,4.854c0.046,0.341-0.231,0.861-0.523,1.067c-0.206,0.145-0.758,0.001-1.036-0.189
		c-3.397-2.317-6.761-4.683-10.159-6.997c-1.075-0.732-1.134-1.242-0.522-2.378c1.445-2.681,2.77-5.426,4.151-8.141
		C294.605,289.152,294.849,287.769,296.443,286.829z"/>
	<path d="M380.613,384.677c-0.404,0.881-0.947,1.967-1.407,3.087c-0.755,1.836-1.511,3.674-2.155,5.55
		c-0.256,0.746-0.478,1.081-1.3,0.769c-0.799-0.304-1.625-0.577-2.463-0.735c-2.729-0.513-5.472-0.956-8.203-1.461
		c-0.324-0.06-0.794-0.287-0.862-0.53c-0.077-0.276,0.126-0.811,0.374-0.966c1.256-0.784,2.527-1.566,3.867-2.188
		c2.479-1.15,5.012-2.182,7.517-3.277c1.042-0.456,2.064-0.96,3.104-1.42C379.938,383.13,380.646,383.562,380.613,384.677z"/>
	<path d="M351.212,359.663c-1.627-0.832-2.393-2.431-3.19-3.968c-0.71-1.37-0.474-1.825,0.936-2.275
		c2.676-0.853,5.344-1.732,8.035-2.534c0.446-0.133,0.991,0.066,1.49,0.112c-0.181,0.44-0.273,0.952-0.558,1.308
		c-1.256,1.567-2.531,3.122-3.874,4.614C353.188,357.881,352.194,358.723,351.212,359.663z"/>
</g>
</svg>
