<?xml version="1.0" encoding="utf-8"?>
<!-- Generator: Adobe Illustrator 22.0.1, SVG Export Plug-In . SVG Version: 6.00 Build 0)  -->
<svg version="1.1" xmlns="http://www.w3.org/2000/svg" xmlns:xlink="http://www.w3.org/1999/xlink" x="0px" y="0px"
	 viewBox="0 0 864 864" style="enable-background:new 0 0 864 864;" xml:space="preserve">
<g id="Layer_1">
	<g>
		<g>
			<path d="M390.9,259.6c0.4-2,1.1-3.8,2-5.6c-0.4-0.4-0.7-0.8-1.1-1.2c-5.3-5.9-10.3-12.2-15.1-18.6c-0.8-1.1-0.4-3.5,0.1-5.1
				c1.5-4.9,3.6-9.6,4.9-14.5c1.1-4.1-2-6.5-5.9-4.9c-2.9,1.2-5.7,2.9-9.3,4.7c-0.2-0.3-4.7,5.2-4.5,5.8c0.4,0.8-2.4,4.6-2.9,4.2
				c-1,2.3-2.4,4.4-4.2,6.2c0.1,2.3-0.8,4.3-2.7,6.5c-0.6,0.7-1.2,1.5-1.8,2.2c-8,11.4-16.2,22.8-24,34.4
				c-3.5,8.3-8.1,15.9-13.8,22.9c-5.1,9.1-10,18.4-14.7,27.7c-26,49.4-40.3,119.4-30.2,175c1.2,6.5,0.6,8.8-5.9,10.4
				c-7,1.8-13.9,3.8-20.9,5c-9.5,1.7-19.1,2.9-28.7,4.3c-2.6,0.4-3.5-0.9-3.6-3.2c-0.1-1.3-0.1-2.6,0-3.9c0.3-7.8,4.9-32.9-1.8-40.8
				c-2-2.4-3.7-5.5-4.5-8.6c-1.6-5.9-1.6-12-0.1-18.1c0.6-2.3-3-7.3-4.9-7.6c-19.9-3.2-4.3,32-16,35.7c-4.7,1.5-5.2,5.2-5.6,8.7
				c-5.4,42-1.2,45.1-48.6,29.4c-16.4-5.5-32.3-15.6-46.8-24.6c-1.7-1-3.3-2.2-4.9-3.4c0.1,2.2-0.1,4.5,0.2,6.7
				c1.9,11.6,29.1,20.9,34.4,23.4c0.9,0.4,1.8,1.1,2.7,1.6c0.9,0.5,1.7,1.2,2.7,1.6c1,0.4,2.1,0.3,3.1,0.7
				c15.7,6.2,31.8,10.7,48.5,13.3c0.9,0.2,2.1,1.9,2.1,2.8c-0.2,3.7-0.9,7.3-1.2,11c-5.6,10.6-5.3,19.7,0.8,27.5
				c9.4,5.9,32.2-1.1,34.3-13.1c0.5-2.8,1.4-5.5,2-8.3c0.8-3.4,1.4-6.8,2.4-10c0.6-2,1.5-5,3-5.5c2.6-1,5.7-0.4,8.6-0.4
				c1.1,0,2.4,0.5,3.4,0.2c14.3-4.1,28.7-8.3,43-12.5c0.7-0.2,1.4-0.3,2.1-0.3c8.8-2.3,17-5.8,24.8-10.5c5.9-2.7,12.1-4.7,16.9-9.7
				c2.9-3,6.8-5.8,10.7-6.9c4.9-1.4,7-5.3,10-8.3c3-3,5.4-6.4,8.4-9.4c12.3-12.2,22.8-24.3,31.7-39.4c3-6.7,6.4-13.2,10.3-19.4
				c3-3.9,6.5-7.4,9.8-11.1c0.5-0.6,1.2-1.3,1.3-2.1c1-6.6,7.4-8.9,10.6-13.9c1,10.6,1.2,21.3,0.6,31.9c0.3,5.4,0.5,10.8,1.1,16.1
				c1.9,18.1,25,12.8,36.6,12.4c47.5-1.6,49.3-28.9,55-71.1c1.3,0.9,2.6,1.4,3.5,2.4c17.9,20.1,16.4,48,19.4,73.2
				c0.9,7.3,0.8,15.1,3.4,21.8c7.2,18.6,21.7,33.3,37.6,44.4c18.6,13.1,36.2,17.1,57.9,22.1c-14-3.2,45.6,6.7,46.5,9.8
				c2.5,8.6,5.2,17.2,7.8,25.8c1.4,4.6,2.6,9.3,4,14.2c-3.5,0.6-6.8,1.6-10.1,1.7c-26.5,0.7-52.7-0.2-79.2-1.2
				c-3-0.1-3.7-1.6-3.8-4.4c-0.1-3.8-1-7.6-1.1-11.4c-0.2-5.3-0.1-10.7-0.2-16c0-1-0.3-2.1-0.9-2.8c-2.5-2.8-5.9-2-7.5,2
				c-2.3,5.6-6.4,9.7-11.5,12.3c-5.2,2.7-11,5.2-16.7,6c-7.8-2.4-15.6-2.6-23.3-0.5c-35.3-23-36.8-47.3-56.4-82.3
				c-3.4-6.2-8-11.7-14.7-14.3c-8.1-3.1-16.2-6-25.1-7c-13.4-1.5-24.8,2.3-35.1,10c-25.2,18.9-37,55.4-60.9,76.2
				c-11.9,10.4-24.8,19.5-38.3,27.7c-1.7,1.1-3.7,1.8-5.5,2.7c-0.2-0.3-0.4-0.5-0.7-0.8c1.1-2.5,2.3-4.9,3.4-7.4
				c2.4-5.3,1.3-8.1-4.3-10.3c-1-0.4-2-0.8-3.1-0.9c-2.8-0.3-2.7-1.9-1.8-3.8c0.8-1.5,1.8-2.8,2.6-4.3c4.4-8.2,3.7-12.9-2.5-17.3
				c-8.5-6-16.3-3.1-19.1,7.1c-0.9,3.3-1.5,7-3.4,9.8c-6.5,9.5-8.1,20.8-12.3,31.1c-1.6,4-3.1,8-4.8,12c-0.4,0.8-1.4,1.8-2.3,1.9
				c-43.6,5.3-76,0-117.1-12.5c-2.2-0.7-4.3,0.6-3.4,2.5c1.7,4,3.6,8.9,6.9,10.9c5.3,3.2,11.9,4.5,18,6.4c4.8,1.5,9.7,2.4,14.5,3.8
				c4.9,1.4,9.7,3.1,14.5,4.7c0.5,0.2,1.2-0.2,1.8-0.2c4.8,0.3,9.6,0.7,14.4,1c1.2,0.1,2.4,0.4,3.6,0.3c5.7-0.4,11.4-1.2,17.1-1.5
				c37.5-1.9,61.6-13,94.6-29c8-3.9,16.2-7.1,22.3-13.9c10.9-10.6,21.6-21.3,32.1-32.1c0.7-0.7,1.1-1.6,1.6-2.4
				c2.3-3.6,4.4-7.4,7-10.8c1.2-1.6,1.8-4.1,5.1-4c1.1,0,1.9-4,3.5-5.6c5.5-5.5,11.4-10.7,17-16.1c4.7-4.6,9.8-8.6,16.2-10.7
				c1.5-0.5,3-1,4.4-1.6c10.1-4.1,20.4-5.9,31-2.5c3.2,1,6.3,3,8.8,5.3c3.7,3.3,7.7,6.8,9.9,11.1c16.1,30.9,20.1,57,55.3,72.1
				c9.2,4,9,7,11.8,16.1c3.6,12,7.2,23.9,11.2,35.8c6,13.4,17.5,15.1,34.3,5.1c3.6-1.3,7.1-2.8,10.6-4.3c2.3-3.5,2.2-7.1-0.4-10.9
				c-0.4-3.5-0.2-7.1-0.3-10.7c0-3.9,0-7.8,0-11.4c5.9,0.4,11,0.7,16.1,1.1c24.6,1.7,47.7,0.6,72.2-2.3c11.4-1.3,22.7-3.4,34.1-4.8
				c5.8-0.7,11.3-1.6,16.4-4.7c2.6-1.6,3.2-3,1.8-4.2c0.3-2.6,0.9-4.3,0.5-5.8c-5.8-2.2-11.6-1.2-17.3,3c-1.3,0.4-2.8,0.3-4,0.4
				c0.7-3.8,1.6-7.3,1.8-10.8c0.5-7.9,0.5-15.7,1-23.6c0.1-1.1,1.4-2.8,2.5-3c10.5-2.4,22-4.4,32.7-5.8c7.3-0.3,13.7-3.1,19.3-8.3
				c6.9-0.2,11.6-3,14.1-8.3c-1.2-0.6-2.6-1.8-3.7-1.6c-4.1,0.7-8.1,2-12.2,2.9c-6.3,1.3-12.6,2.5-19,3.7c-2.2,0.4-4.5,0.5-6.8,0.9
				c-8.3,1.4-16.5,2.7-24.8,4.2c-2.3,0.4-3.2-0.5-3.5-2.8c-0.4-4.6-1.1-9.3-1.6-13.9c-0.6-5.3-3.4-7.8-8.5-7.6c-1.3,0-2.5,0.5-4,0.8
				c-0.5-2.7-0.9-5.1-1.3-7.6c-0.4-2.5-0.8-5-1-7.5c-0.4-4.3-2.1-6-6.5-5.7c-3.9,0.3-7.8,1.1-11.7,1.4c-3.8,0.3-5,2-4.1,5.7
				c4.8,18.6-10.2,21.6-8.1,31.5c0.6,3,1.4,6,2.2,9.1c-0.7,0.3-1.1,0.6-1.5,0.6c-22.6-0.3-40.5-5.3-60.9-15
				c-1.5-0.7,7.7-86.3,7.7-91.9c-0.3-31.1-5.9-64.6-14.2-94.6c-2.8-10.1-6-20.1-8.9-30.2c-1.8-12.9-6.7-24.4-14.8-34.6
				c-8-8.1-12.1-17.8-12.6-29.1c0.8-14.7-2.8-28.7-6.5-42.7c-0.4-1.6-0.6-3.4-0.2-4.9c3.6-18.5,2.7-36.8-2.5-54.9
				c-6.4-13.6-10.6-31-23.7-39.9c-1.2-0.8-2.4-1.7-3.7-2.5c-2.6,1.7-5.8,2.9-9.6,3.1c0.4,0.6,0.8,1.3,1.4,2
				c-8.2,3.6-16.2,7.1-23.8,10.4c-1.1-3.3-1.6-6.9-3.3-9.8c-3.5-5.9-9.6-8.6-15.6-11.2c-0.9-0.4-2.1-0.2-2.7-0.8
				c-4.2-3.8-8.5-1.7-12.6-0.3c-7.9,2.7-15.7,5.8-23.5,8.8c-4.1,1.6-4.1,2.4-1.1,5.5c2.7,2.8,5.5,4.5,9.4,4.2
				c0.7-0.1,1.4,0.9,2.1,1.4c-0.6,0.6-1.2,1.6-1.9,1.8c-7.6,1.7-15.2,2.8-23,3.3c-0.8,0.1-2.2,0.3-2.4,0c-2.2-4.5-7.3-2.3-10.5-4.7
				c-1.9-1.4-3.6-0.9-4.4,1.6c-0.3,0.9-0.7,1.8-1.3,2.5c-2,7.9,0,10.7,6,8.1c3.7-1.7,3.6-1.9,7.2,0.4c-6.2,5.9-12.8,11.4-19.7,16.3
				c-2.4,2.1-1.6,6.1,1.1,8c2.5,3.1,5.7,4.9,9.5,5.4c1.7-1.1,3.3-2.5,2.1-4.7c2.4-1.6,4.7-3.3,7-4.8c2.5-1.6,4.9-3.1,8.2-1
				c1.6,1,4.1,0.9,6.1,0.7c2.9-0.3,5.8-1.2,8.7-2c0.9-0.3,2-1.1,2.2-1.9c4-6.7,8.2-6.4,12.5,1.1c0.4,0.4-1.1,3.7-2.2,4
				c-4.4,1.2-9,1.8-13.6,2.4c-7.7,1.1-16.1,0.2-22.5,5.7c-8.6,7.4-18.1,23.3-3.5,32.3c9.9,3.1,19.5,6.9,28.8,11.7
				c1.1,1.5,2.4,3.2,2.8,4.9c1.6,6.1,2.8,12.3,4.1,18.5c1.2,5.5,2,11.1,3.4,16.5c1.5,5.5,10.3,8.7,15.1,5.6c1.9-1.2,3.7-2.7,5.2-4.3
				c0.8-0.8,1-2.3,1.1-3.5c0.1-2.3-0.6-4.7-0.2-7c1.4-7.1,2.9-14.3,4.9-21.2c4.3-14.8,16.2-13.9,15.1-33c-2.2-4.5-5-8.6-8.6-12.1
				c-4.2-6.6-8,10.3-14.3-1.7c-0.4-0.7-0.7-1.5-1-2.3c-2-4.9-1.9-5,3.1-6.3c5.3-4.1,10.4-4.1,15.1,0c2.8,5.8,5.7,11.5,8.9,17.1
				c0.4,0.7,3,1.3,3.5,0.8c4.9-5.2,11.2-10,9.6-18.4c-0.6-3.2-2.9-6.1-4.5-9.4c3.1-2.6,8.4-2.3,11.1,1.7c2.6,3.8,4.8,8,7.2,11.9
				c0.9,1.5,1.9,3.2,3.2,4.3c1.8,1.5,4.7,0.3,5.5-1.8c0.3-0.8,0.4-1.8,0.9-2.3c7.2-6.3-2.5-16.4,6-21.1c6-3.3,6.3-3.9,8.4,3.2
				c0.6,1.8,1.5,3.6,2.5,5.1c4.4,6.6,2.9,14.4,4.3,21.6c0.8,4.2,1.7,8.4,1.8,12.6c0,4-1,8-1.6,12c-1.4,10.4-14.6,2.8-13.2,15.2
				c0.6,5.1,0.5,10.4,0.5,15.5c0,0.8-1.2,2.2-2,2.4c-7.1,1.7-10.9,6-10.8,13.3c0.1,3.1-1,5.1-3.1,7.2c-2.3,2.4-4.3,5-6.4,7.5
				c1.8,2.1,3.1,4.6,4,7.2c14.2,11,10.6,22.2,21,38.3c31.7,48.9,12.7,128.2,4.9,181.5c-0.4,0-0.9,0-1.3,0.1
				c-0.5-1.6-1.2-3.1-1.6-4.7c-5.2-15.3-7.2-31-6.1-47.1c-0.1-3.7,0-7.5-0.6-11.1c-0.3-2.1-1.9-4-2.5-6.1c-0.9-3.3-1.2-6.7-2.3-9.9
				c-4.6-13.8-16.6-27.7-25.6-38.6c-2.3-2.7-3.4-4.9-3.4-8.2c1.2-15.8-0.1-31.4-3.9-46.8c-1.8-3.5-2.6-7.6-4.6-11
				c-2.4-4-6.6-2.3-9.8-1.2c-2,0.6-4.1,2.8-5,4.8c-0.9,2-0.6,4.7-0.4,7c0.9,8.8-0.1,17.1-5.3,24.5c-0.8,1.2-1.7,2.4-2.7,3.4
				c-1.8,1.9-3.8,2.6-6.7,2.2c-4.4-0.6-9.1,0.2-13.5-0.3c-19-2.1-19-18.5-19.8-34.9c-0.2-3.7-0.5-7.4-1.5-10.9
				c-0.8-3-6.5-4.5-10.7-3.7c-7.9,1.4-11.6,7-12.5,13.9c-1.3,9.6-1.6,19.3-1.7,29c-0.2,11.8,0.2,23.7,0.3,35.5
				c0,0.7-0.1,1.5,0.2,2.1c2.3,5.1-1.2,7.6-4.4,10.5c-30.4,27.8-37.6,67.5-65.9,96.7c-1.3,1.3-3,2.3-4.5,3.4
				c-0.4-0.1-0.9-0.2-1.3-0.4c-1.3-23.2-2.8-45.8-0.2-69c1.2-10.7,2.5-21.4,3.8-32.1c0.4-3.5,1.7-7.1,1.4-10.6
				c-0.7-8.6,2.7-16.2,4.5-24.2c5-22,16.9-40.2,34.7-53.6c8.1-3.7,14-9.6,17.8-17.4"/>
			<path d="M687.9,614.2c-10.8-3.8-17.8,12.6-20.8,17.9c-3.2,5.5-6.7,10.3-14,10.4c-2.5,0-4.9,1.3-8.4,2.4c3-7.7,5.3-14.4,8.1-21
				c2.2-5.2-0.7-9.8-6.3-10.4c-8.6-0.9-26.5,33.9-26.1,34.3c-1.1,1.3-3,2.3-4.6,2.6c-10.5,1.8-21,3.3-31.5,4.9
				c-11.9,2-23.9,2.8-36.1,2.3c-8.7-0.1-17.5-0.2-26-1.6c-9.3-1.5-18.2-4.7-27.4-6.9c-12.5-3-22.1-9.9-29.3-20.4
				c-5.8-8.5-11.5-17-17.8-25.1c-3.6-4.7-7.8-9.1-12.5-12.5c-4-2.9-9.2-4.3-13.9-6.2c-0.6-0.2-1.4,0-2,0.1c-4.9,1.4-9.8,3-14.8,4.3
				c-10.6,2.7-19.4,8.3-26.7,16.4c-2.1,2.3-4.1,4.6-6.4,7.3c-0.9-1.4-1.7-2.4-2.2-3.5c-1.3-2.8-2.2-5.8-3.7-8.5
				c-2.5-4.7-7.5-8.1-11.1-6.9c-3.8,1.2-4.1-0.9-5-3.4c-1-2.9-2.1-5.8-3.5-8.6c-0.4-0.9-2.1-1.8-3-1.6c-6.7,1-11.3,5.8-16.7,8.8
				c2,5.5,3.7,10.5,5.1,14.4c-2.2,3.4-4.6,5.9-5.6,8.9c-2.8,8.2,0,16.3,2.2,24.1c0.8,2.8,0.2,3.6-2,4.5c-7.3,3-14.5,6.2-21.8,9.2
				c-10.3,4.2-20.6,8.3-31,12.3c-3.4,1.3-7.1,2.4-10.7,2.8c-4.4,0.5-8.7,5-13.5-0.2c-3-4.8-2.7-8.8,1-11.8c0.5-1,1-2.7,0.6-3.5
				c-2.7-5-10.6-8.5-16.2-7.5c-4.9,0.9-9.4,6.8-9.6,12.7c-8.4,1.8-4.9,21.5-12.2,21.7c-5.5,0.2-11.1-0.1-16.6-0.1
				c-0.7,0-1.6,0-2,0.4c-3.6,3.6-7.9,2.1-12.1,2.3c-2.7,0.2-5.4,1.5-8,2.6c-1,0.5-1.7,1.8-2.6,3c0.3,0.2,0.8,1,1.3,1.1
				c5.2,0.3,10.4,0.7,15.7,0.6c6.5-0.2,13.1-0.8,19.6-1.1c0.6,0,1.2,0.5,1.3,0.6c-2.3,9.7-4.5,19.1-6.8,28.9c0,0-0.9,0.2-1.9,0.4
				c0.5,6.6,7,15.3,12.8,16.9c1.8,0.5,4.5,0.8,5.7-0.1c8.5-6.5,13.6-15.7,18.6-24.7c4.7-8.4,7.9-17.7,12.4-26.3
				c6.4-7.7,15-11.4,25.7-11c10.2-3,20.4-6,30.4-9.6c8.5-3.1,16.7-7,25.5-10.8c3.1,7.4,6.2,14.2,8.9,21.2
				c3.9,10.1,7.5,20.3,11.3,30.5c1.5,4,1.1,5-2.7,7.1c-2.2,1.2-4,3.1-6,4.7c-1.2,1-2.3,2.1-3.6,3c-6.5,4.1-12.7,8.6-19.5,12
				c-6.5,3.3-13.4,5.6-20.3,8c-4.4,1.5-9.1,1.9-13.5,3.3c-11.8,3.8-23.9,5.8-36.2,6.8c-4.6,1.1-5.4,3.3-2.3,6.7
				c2.9,2,5.8,4.1,9.9,2.9c2.4-0.7,5.2,0.2,7.8-0.1c4.3-0.5,8.6-1.3,12.9-2c2.3-0.4,4.7-0.6,7-1.1c5.9-1.5,11.7-2.9,17.5-4.7
				c2.1-0.6,4-2.1,6-3.2c7.4-3.9,14.8-7.9,22.1-11.8c3.9-2.1,8.6-3.6,11.6-6.7c5.7-5.8,13.1-8.2,19.9-11.8
				c7.2-3.8,15.2-6.3,22.9-9.1c4.2-1.5,8.4-2.6,12.7-3.2c-1.3-2.3-2-4.9-2.8-7.4c-2.3-0.3-3.6-1-4.3-3.2c-2.6-8.3-5.1-16.7-5.2-25.5
				c-0.1-6.7-2.6-12.6-4.2-18.8c-2-8-4-16-5.8-24c-0.2-1,0.4-2.7,1.2-3.3c10.6-8,21.6-15.6,34.5-19.3c6.9-2,13.4-1.3,19.7,3.3
				c4,2.9,5.4,7.3,8.2,10.8c3.9,4.9,6.7,10.8,10.7,15.6c4.4,5.3,9.6,9.8,15,15.1c-1,2.8,0.8,3.7,4.6,4.4c4.8,0.8,9.2,3.2,13.9,4.7
				c6.3,2,12.6,3.7,18.8,5.7c2.5,1.5,5,2.9,7.6,4.2c11.8,1.2,23.5,2.9,35.3,3.2c11.7,0.3,23.4-0.6,35-1.6c6-0.5,11.9-2.5,17.9-3.7
				c4.4-0.8,8.8-1.4,14-2.2c-1.3,1.9-2.1,3.4-3.2,4.6c-5,5.2-10.1,10.4-15.2,15.6c-6.9,7.1-13.8,14.2-20.9,21.2
				c-3.1,3.1-3.5,6.1-2.2,10.4c1.7,5.9,5.7,10.2,8.8,15c0.5,0.8,1.1,1.5,2.1,2.9c-2.7,0.5-4.9,0.9-7,1.3c-9.9,1.8-19.7,4-29.6,5.4
				c-10.4,1.4-20.8,2.6-31.3,3c-12.7,0.5-25-1.8-36.9-6.5c-12.2-4.9-22.9-12.4-33.1-20.4c-7.7-6-15.6-11.6-25.1-14
				c-6.3-1.6-12.9-2.5-19.4-3.3c0.3,1,0.6,2,0.8,3c0.5,1.2,0.9,2.4,1.2,3.7c4.5-0.2,9,0.2,13.4,1.6c11.6,3.6,21.5,10.4,30.8,18.3
				c6.1,5.2,12.2,10.6,18.8,15l26.1,9.6c14.8,3,29.7,2.7,44.4,1.7c22.2-1.6,43.9-7,65.5-12.8c1-0.3,2.1-0.3,3.2-0.1
				c4.5,0.6,9,1.7,13.5,1.7c6,0,12.9,0.9,17.9-1.6c7.4-3.6,13.7-9.7,20.2-15.1c2.4-2,3.6-5.3,5.8-7.5c3.8-5.6,6.9-11.5,9.2-17.8
				c0.6-1.3,1.2-2.6,1.7-3.9c1.2-3.4,2.2-6.8,3.6-10.1c2-4.7,4.4-9.2,6.4-13.9c3.1-7.4,6-14.8,8.9-22.2c2.5-6.3,5-12.6,7.3-19.1
				C700.2,617.8,692.9,616,687.9,614.2z"/>
			<path d="M716.3,273.9c-2.3-0.9-3.3-2.1-3.3-4.8c0.1-7.5-5.4-13.9-12.2-15.7v3.4c0,0.2-0.1,0.4-0.1,0.6c1.9,2.3,3.7,4.5,5.5,6.6
				c1.1,1.3,3,2.6,3.1,4c0.8,9.2-12.2,15.6-19.6,13.4c-0.9-0.3-1.8-1.2-2.2-2.1c-0.6-1.3-1-2.5-1.3-3.8c-2.1,0.4-4.2,0.5-6.3,0.5
				c-2.5,4.1-4.8,8.4-7.5,12.3c-0.5,0.8-3.3,1.2-3.9,0.6c-1.4-1.3-2.5-3.3-3-5.2c-0.4-1.4,0.5-3.2,0.2-4.7c-0.7-4,1.3-6.5,4.2-8.3
				c2.9-1.9,5.5,0.2,7.9,1.5c0,0,0,0,0,0c0.3-0.2,0.6-0.3,1-0.3c2.5,0,4.9-0.1,7.3-0.6c0.2-1.1,0.6-2.2,1.3-3.4
				c1.2-2.1,1.7-4.6,2.5-7c2.2,0,5.3-1.3,7.3-3.1c-0.3-0.3-0.5-0.7-0.5-1.2V253c-0.9,0-1.7,0.1-2.6,0.2c-2.1,0.4-3,0.3-3.3-2.1
				c-0.9-8.6-4.6-16.1-10.5-22.3c-2-2-5.7-3.7-8.4-3.5c-5.6,0.5-10.4,3.6-13.5,8.1c0.8,1.3,1.7,2.6,2.5,3.8c1-1.5,2.2-2.9,3.6-3.6
				c13.4-7.3,18.1,11.7,20.8,19.2c-0.2,0.1-0.4,0.2-0.6,0.3c-0.4,2.1-0.5,4.3-1.3,6.3c-4.2,4.7-9,5.9-14.3,3.5
				c-3.7,0.6-7.4,1.4-11.1,1.8c0,0.2,0.1,0.5,0,0.7c-0.1,0.8-0.9,2-1.6,2.2c-1.8,0.6-3.7,0.7-6.3,1.1c-0.7-0.4-2-1-3.2-1.7
				c-5.3-3.3-13.8-9.8-5.7-16.3c0.7-0.6,1.7-0.9,2.6-0.9c5.7,0.1,11.5,5.3,13.5,11c2.6-0.2,5.2-0.7,7.8-1.1
				c-0.7-1.3-1.3-3.1-2.2-5.8c-1.1-3.4-2.4-6.8-3.6-10.2c-0.2-0.5-0.2-1.2-0.1-1.9c-1.1-1.5-2.2-3-3.2-4.5c-2,2.7-4.5,4.1-8.4,4.6
				c-7.9,1.1-14.6,4.7-16.5,13.6c-1.8,8.1,0.2,14.2,6.3,16.9c5,2.2,10.3,4,16,2.1c2.3-0.8,3.9-1.1,3.4,2.9
				c-2.8,19.1,17.8,15.4,16.4,23.5c-0.5,2.9,0.1,5.6,1.4,8c1.5-1.5,3.2-2.7,5-3.9c-0.1-0.2-0.2-0.4-0.3-0.6c0.7-1.6,1-3,1.7-3.9
				c3.1-3.9,3.5-10.5,10.6-10.5c2.5,0,4.3,0.3,5.5,2.4c2.5,4.3,2.8,8.9,1.1,13.5c-2,5.3-11.9,7.8-16,4c-0.4-0.3-0.7-0.7-0.9-1.2
				c-1.6,1.1-3.1,2.3-4.4,3.7c1.1,1.6,2.2,3.3,3.6,3.8c2.6,0.9,5.7,0.8,8.5,0.4c6.1-0.9,11.2-3.8,14.6-10.1c0.9,3.1,2.5,4.5,4.6,4.6
				c0.1-3.1,0.6-6.3,0-9.4c0-0.2,0-0.4,0-0.6c-2.3-3.4-4.4-6.9-1.4-11.6c1.1-1.8,0.2-4.7,1.2-6.6c3.9-6.7,7.8-6.2,11.8,1.7
				c1.4,2.4,1.3,5.7,1.8,8.6c0.7,4.2-2,6.9-3.9,9.9c-1.3,2-3.5,2.8-5.3,2.2c0,0.6,0,1.3,0,1.9c0.3,0.3,0.5,0.7,0.5,1.3
				c0,0.7,0,1.4,0.1,2.1c2.8-0.7,6-1,7.9-2.8C731.9,297.6,729.1,279.1,716.3,273.9z"/>
			<path d="M125.9,152.8c2.8-5.4,2.9-10.1,4.5-15.6c0.3-0.9,1.4-1.9,2.3-2.3c0.5-0.2,1.8,1.1,2.1,1.9c2.3,6.3,4.5,12.5,6.5,18.9
				c2.3,7.2,5.9,13.2,11.3,18.8c7.6,7.9,14.5,16.4,19.6,26.3c8.8,17,6.4,32.6,1.2,50.4c-0.4,1.4-2.5,2.3-3.9,3.4
				c-6.2-8.4-9.4-18.2-9.5-29.4c-2-7.3-7.2-12.5-11.4-18.4c-5.1-7.3-12-13.4-14.9-22.2C130.3,174.3,127.1,164,125.9,152.8z"/>
			<path d="M100.7,305.6c0.1,3.4-0.6,5.6-4.7,6.3c-2,0.4-3.5,3.1-5.3,4.7c-1.7,1.5-3.1,3.6-5.1,4.3c-3.2,1.2-1.5,2.8-0.8,4.1
				c3.9,7.1,8.1,14.1,12,21.2c1.4,2.6,3.1,5.3,3.6,8.1c-0.6-3.3,15.8,23.3,13.9,27.8c-3,7.1-11.2,12.8-13.2,0.5
				c-1.3-8.5-5.9-15.5-10.2-22.7c-13.8-12.3-18-26.5-12.6-42.6c-0.8,0.8,19.3-25.2,21.6-16.3C100.4,302.5,100.5,304,100.7,305.6z
				 M109.2,376.3c-0.3,0-0.5,0-0.8,0c0.1,1.5,0.1,3,0.2,4.6c0.3,0,0.6,0,0.9-0.1C109.5,379.3,109.4,377.8,109.2,376.3z"/>
			<path d="M768,380.8c-0.1,0.5,0,1.3-0.2,1.4c-13,5.2-10.8-1.7-14.9-15.7c-0.3-1.1-0.6-2.3-1.1-3.4c-2.1-4.3-4.1-4.5-8.2-3.4
				c-11.4,3-20.2,10.6-29.8,16.7c-8.7,5.6-17.1,11.8-25.5,17.9c-3.2,5.1-7.5,6.7-12.9,4.6c-2.3-1.3-1.1-3.4,0.6-4.7
				c7.1-5.5,14.2-11,21.4-16.3c6.3-4.7,12.6-9.5,19.3-13.7c7.6-4.7,15.6-8.9,23.4-13.2c1.4-0.7,2.8-1.3,4.3-1.8
				c5.3-1.8,8.9,0.8,11.2,5.1c4.1,7.6,7.9,15.3,11.7,23C767.8,378.3,767.8,379.6,768,380.8z"/>
			<path d="M170.8,316.5c3,0.8,6,1.2,8.6,2.5c7,3.3,9.4,12.6,5.3,19.2c-2.2,2.6-3.9,5.5-5.1,8.6c-0.5,0.3-1,0.8-1.5,0.8
				c-5.5,0.2-10.6,6.4-16.5,1.5c-8.7-7.1-22.4-26.1-0.5-30.5C164.2,318,167.4,317.2,170.8,316.5z"/>
			<path d="M791.1,455c-0.9,1-1.7,2.4-2.8,3.1c-5.8,3.4-10.6,7.6-14.2,13.4c-2.1,3.5-5.5,5.7-9.5,6.5c-0.9,0.2-2.8-0.7-3.1-1.5
				c-1.1-3.4-2-6.9-2.3-10.5c-0.1-1.4,1.2-3.4,2.4-4.4c6-5,9.7-11.8,13.6-18.4c1.8-3.1,3.6-6.2,5.5-9.2c1.1-1.8,3-2.4,3.8-0.1
				C787,440.6,788.9,447.5,791.1,455z"/>
			<path d="M647.2,447.6c5.4-3.1,10.3-7,16.8-7.4c1-0.1,2,0,2.8-0.3c5.2-1.8,10-0.6,14.5,2.2c2,1.3,4.3,2.2,6.2,3.5
				c2.6,1.7,2.4,3.9-0.1,5.4c-2.3,1.4-4.9,2.6-7.5,3.2c-7.2,1.6-14.4,2.9-21.6,4.2c-5.8,1-7.7-0.3-9.5-6.1
				C648.4,451,647.9,449.6,647.2,447.6z"/>
			<path d="M774.1,276.6c-8.3-5-15.2-11.5-20.7-19.5c-3-3.3-4.6-6.7-2.2-11.1c1.1-2,2.5-3,4.2-1.5c10.6,5.4,20.7,11.7,30.2,18.8
				c1.3,1,2.2,2.7,0.5,4.3C782.9,271.7,778.9,274.7,774.1,276.6z"/>
			<path d="M241.4,122.8c-2.2,7.4-4.5,15.6-7.1,23.6c-0.4,1.2-2.5,2.9-3.5,2.7c-6-4.3-7.1-10.5-3.4-18.8c-0.8,2,7.3-33.9,9.8-34.2
				c0.9-0.1,2.4,0.4,2.7,1c2,4,5.5,7.6,3.1,12.9C239.7,114.3,239.1,118.5,241.4,122.8z"/>
			<path d="M269.3,173.8c-1.4,0.5-2.4,0.8-3.4,1.1c2,5.1,0.4,6.8-3.5,10.7c-2.9,2.9-7.8,3.3-9.3,8.2c-0.2,0.6-39.4,0.8,2.6-21
				C260.4,170.4,265.9,170.7,269.3,173.8z"/>
			<path d="M638.4,159.1c2.3-6.3,5.7-11.7,10.3-16.2c2.2-4,6.2-4.2,9.9-4.5c3.9-0.3,5.8,1.8,4.8,6c-2.2,9.8-7.4,17.9-16.5,22.6
				C641.5,170,638.3,167.5,638.4,159.1z"/>
			<path d="M65.2,242.7c0.3-0.1,1.2-1,2.3-1.3c-10.5,3.1,31.8-15.4,29.3-0.5c-1.4,8.6-4.6,5.5-11.7,9.5c-9.8,7.1-16.5,6.9-20-0.6
				C65.6,247.8,65.2,245.7,65.2,242.7z"/>
			<path d="M567.9,557.8c-10.6-1.5-20.3-1.5-29.8,0.7c-6.2,1.4-11.2,5.1-14.5,10.9c-1.3,2.3-11.8,0.1-1.8-9.7
				c5.7-5.6,13.3-7.8,20.9-9.6c9.4-2.3,18.2-0.4,26.7,3.5c0.7,0.3,1,1.6,1.5,2.4C569.7,556.7,568.5,557.4,567.9,557.8z"/>
			<path d="M446.6,315.6c5.1,0.7,10.7,1.2,16.2,2.2c1,0.2,2.7,2.5,2.4,3c-3.5,4.8-8.4,5.8-14.8,3c-7.4,2-14.1,1.1-20.1-2.7
				c-0.4-3,1.5-4,4.1-4.2C438.2,316.6,442.1,316.1,446.6,315.6z"/>
			<path d="M497,696.2c-8.9-0.4-17.6-1.5-25.3-6c-3.5-2-6.3-5.4-8.8-8.6c0.8-6.9,5.4-9.9,13.6-9.1c10.5-0.9,20.2,1.9,29.6,5.9
				c3.7,1.6,7.1,7.1,6,10.9C509,695.2,504,697.4,497,696.2z"/>
		</g>
		<path d="M353.9,198.5c-3.6-48.5,7.5-83.4,33.1-103.8c44.2-35.1,114.5-13.8,117.5-12.9l-2.4,7.6c-0.7-0.2-69.3-21-110.2,11.5
			c-23.4,18.6-33.5,51.2-30.1,96.9L353.9,198.5z"/>
		<path d="M452.9,278.1c-28.5,0-47.3-13.9-48.4-14.7l4.8-6.4c0.4,0.3,35.9,26.4,82.4,3.7l3.5,7.2
			C479.7,275.4,465.4,278.1,452.9,278.1z"/>
	</g>
</g>
<g id="Layer_2">
</g>
</svg>
